<svg width="122" height="122" viewBox="0 0 122 122" fill="none" xmlns="http://www.w3.org/2000/svg">
<path fill-rule="evenodd" clip-rule="evenodd" d="M61 119.416C94.1371 119.416 121 92.9789 121 60.3673C121 27.7557 94.1371 1.31885 61 1.31885C27.8629 1.31885 1 27.7557 1 60.3673C1 92.9789 27.8629 119.416 61 119.416Z" stroke="#7A7A7A" stroke-opacity="0.2"/>
<g clip-path="url(#clip0_336_11)">
<path d="M65.8285 57.0333L70.881 52.0093L63.936 51.0178L60.8785 44.4904L57.8235 51.0178L50.8785 52.0068L55.931 57.0309L54.701 64.1733L60.8785 60.7509L67.0585 64.1733L65.8285 57.0333ZM42.126 68.1492C39.961 64.749 38.691 60.7386 38.691 56.4305C38.691 44.2001 48.7635 34.2874 61.191 34.2874C73.6185 34.2874 83.691 44.2001 83.691 56.4305C83.691 60.8395 82.366 64.9384 80.1085 68.3903C78.591 67.6276 77.0385 66.951 75.4535 66.3753C77.4835 63.5631 78.691 60.1358 78.691 56.4305C78.691 46.9336 70.8385 39.2081 61.191 39.2081C51.5435 39.2081 43.691 46.9336 43.691 56.4305C43.691 60.062 44.846 63.4278 46.801 66.208C45.211 66.7615 43.651 67.4086 42.126 68.1492ZM80.3935 74.177L74.5585 82.3503C70.551 80.077 65.9385 78.7484 61.001 78.7262C56.0635 78.7484 51.451 80.077 47.4435 82.3503L41.6085 74.177C47.2735 70.767 53.8885 68.7594 61.001 68.7372C68.1135 68.7594 74.7285 70.767 80.3935 74.177ZM91.001 81.0341H85.1035L83.6885 88.4151C82.156 85.9252 80.2185 83.7109 77.996 81.8214L83.8535 73.6161C86.5735 75.7787 88.9835 78.1628 91.001 81.0341ZM38.151 73.6161L44.0085 81.8214C41.7835 83.7134 39.8485 85.9252 38.316 88.4151L36.901 81.0341H31.001C33.0185 78.1628 35.4285 75.7787 38.151 73.6161Z" fill="#C4C4C4"/>
</g>
<defs>
<clipPath id="clip0_336_11">
<rect width="60" height="59.0485" fill="white" transform="translate(31.001 31.8269)"/>
</clipPath>
</defs>
</svg>
