<svg width="122" height="122" viewBox="0 0 122 122" fill="none" xmlns="http://www.w3.org/2000/svg">
<path fill-rule="evenodd" clip-rule="evenodd" d="M61 121.204C94.1371 121.204 121 94.3412 121 61.2041C121 28.067 94.1371 1.2041 61 1.2041C27.8629 1.2041 1 28.067 1 61.2041C1 94.3412 27.8629 121.204 61 121.204Z" stroke="#7A7A7A" stroke-opacity="0.2"/>
<path fill-rule="evenodd" clip-rule="evenodd" d="M72.1173 85.7716L63.174 69.0708C63.1562 69.0807 58.16 71.4549 57.9314 71.5557C52.2418 74.2248 40.6619 52.3356 46.2245 49.4502L51.5128 46.9285L42.6431 30.1736L37.2938 32.7273C33.1739 34.8041 31.4569 39.1839 31.4797 44.6304C31.5483 61.5942 48.5257 88.9028 62.4983 89.1584C63.9588 89.1855 65.3863 88.9176 66.7579 88.3105C67.0652 88.1753 72.097 85.7814 72.1173 85.7716ZM82.2774 71.9563H79.7374V40.0049H82.2774V71.9563ZM77.1973 67.0407H74.6573V44.9205H77.1973V67.0407ZM87.3574 64.5829H84.8174V47.3783H87.3574V64.5829ZM72.1173 62.1251H69.5773V49.8361H72.1173V62.1251ZM67.0373 59.6673H64.4973V52.2939H67.0373V59.6673ZM92.4374 59.6673H89.8974V52.2939H92.4374V59.6673ZM61.9573 57.2095H59.4173V54.7517H61.9573V57.2095Z" fill="#C4C4C4"/>
</svg>
