<svg width="124" height="124" viewBox="0 0 124 124" fill="none" xmlns="http://www.w3.org/2000/svg">
<path fill-rule="evenodd" clip-rule="evenodd" d="M61.9579 120.962C95.624 120.962 122.916 94.1273 122.916 61.0251C122.916 27.9228 95.624 1.08813 61.9579 1.08813C28.2918 1.08813 1 27.9228 1 61.0251C1 94.1273 28.2918 120.962 61.9579 120.962Z" stroke="#7A7A7A" stroke-opacity="0.2"/>
<path d="M81.5166 65.2734V77.9434C81.5166 84.8284 67.0441 88.0859 59.0166 88.0859C51.3866 88.0859 36.5166 84.6059 36.5166 77.9434V62.2084L59.0166 74.3659L81.5166 65.2734ZM61.3091 38.0859L29.0166 52.4609L59.0166 68.7109L86.5166 57.6684V75.5859H91.5166V54.9609L61.3091 38.0859ZM94.0166 88.0859H84.0166C85.4616 85.5859 86.5166 81.8359 86.5166 78.0859H91.5166C91.5166 81.8759 92.4941 85.2334 94.0166 88.0859Z" fill="#C4C4C4"/>
</svg>
