<svg width="121" height="122" viewBox="0 0 121 122" fill="none" xmlns="http://www.w3.org/2000/svg">
<path fill-rule="evenodd" clip-rule="evenodd" d="M61.4632 120.818C93.7921 120.818 120 93.9549 120 60.8178C120 27.6807 93.7921 0.81781 61.4632 0.81781C29.1344 0.81781 2.92676 27.6807 2.92676 60.8178C2.92676 93.9549 29.1344 120.818 61.4632 120.818Z" stroke="#7A7A7A" stroke-opacity="0.2"/>
<path d="M59.0694 39.3289C55.3295 40.1778 53.5344 44.8089 55.0661 49.6756C56.6856 54.8089 61.3133 58.0978 65.1279 56.8C68.5068 55.6578 70.0677 51.2356 68.6043 46.6C67.0726 41.7334 62.8027 38.48 59.0694 39.3289ZM63.8954 52.6534L64.2336 53.6711L63.5214 53.8711L63.206 52.8978C62.471 53.08 61.6385 53.0534 60.8677 52.7778L60.6564 51.0578C61.2905 51.1911 62.0807 51.3156 62.6824 51.1467L63.0889 50.9645C63.8076 50.48 63.5832 49.2445 62.5165 48.9511C61.7198 48.7111 59.6125 48.8889 58.8255 46.4978C58.3832 45.1467 58.7116 43.7378 59.9832 43.0934L59.632 42.0311L60.3377 41.8311L60.6759 42.8489C61.1929 42.7334 61.7978 42.6889 62.5068 42.7734L62.7897 44.4756C62.2368 44.3823 61.6417 44.2934 61.1247 44.44L60.9295 44.5111C59.9247 44.8756 60.2466 46.1778 61.1377 46.4934C62.6108 46.96 64.3702 47.1111 65.0661 49.2134C65.6287 50.9245 64.9751 52.0934 63.8954 52.6534ZM97.4303 57.3511L85.1831 20.8178C65.0921 38.6134 42.884 19.4045 26.806 40.6134L39.0499 77.1467C56.2791 57.1823 79.762 76.0889 97.4303 57.3511ZM88.3148 49.12C87.0953 51.4356 86.1913 54.0845 85.6514 56.8578C73.9669 61.72 59.9897 55.9645 46.5686 62.3734C44.3995 60.8 41.6808 59.8134 39.4499 59.9023L35.7588 48.8489C37.1637 46.5156 38.2694 42.96 38.7442 39.5423C49.7978 34.0934 63.6287 40.2311 78.4124 33.3156C80.1067 34.8534 82.0872 35.9689 84.0384 36.52L88.3148 49.12ZM97.5604 74.1956C75.2612 91.7112 57.2385 67.8667 34.1458 100.818L19.5117 56.5067L24.0711 50.0045L36.4515 87.3645L36.445 87.3956C60.6564 62.5289 72.8515 82.1689 95.336 67.1156C96.2921 69.9956 97.1734 73.0356 97.5604 74.1956Z" fill="#C4C4C4"/>
</svg>
