<svg width="122" height="122" viewBox="0 0 122 122" fill="none" xmlns="http://www.w3.org/2000/svg">
<path fill-rule="evenodd" clip-rule="evenodd" d="M61 121.431C94.1371 121.431 121 94.5679 121 61.4308C121 28.2937 94.1371 1.43079 61 1.43079C27.8629 1.43079 1 28.2937 1 61.4308C1 94.5679 27.8629 121.431 61 121.431Z" stroke="#7A7A7A" stroke-opacity="0.2"/>
<g clip-path="url(#clip0_336_313)">
<path d="M63.751 70.9296H58.751V55.9296H63.751V70.9296ZM61.251 45.3046C62.976 45.3046 64.376 46.7046 64.376 48.4296C64.376 50.1546 62.976 51.5546 61.251 51.5546C59.526 51.5546 58.126 50.1546 58.126 48.4296C58.126 46.7046 59.526 45.3046 61.251 45.3046ZM61.251 38.4296C75.036 38.4296 86.251 47.4096 86.251 58.4471C86.251 70.7396 73.3885 78.3496 61.476 78.3496C56.6335 78.3496 53.0185 77.3571 50.491 76.7396C47.991 78.2721 46.5035 79.3321 39.811 81.2896C41.1485 77.8571 41.6185 74.4196 41.316 70.6271C39.221 68.1271 36.2535 64.6271 36.2535 58.4471C36.251 47.4096 47.466 38.4296 61.251 38.4296ZM61.251 33.4296C45.406 33.4296 31.251 43.9946 31.251 58.4471C31.251 63.5721 33.096 68.6046 36.3685 72.5096C36.506 77.0846 33.811 83.6496 31.386 88.4296C37.891 87.2546 47.1385 84.6596 51.331 82.0896C54.876 82.9521 58.2685 83.3471 61.4785 83.3471C79.1885 83.3471 91.2535 71.2546 91.2535 58.4446C91.251 43.9171 76.9985 33.4296 61.251 33.4296Z" fill="#C4C4C4"/>
</g>
<defs>
<clipPath id="clip0_336_313">
<rect width="60" height="60" fill="white" transform="translate(31.001 30.8977)"/>
</clipPath>
</defs>
</svg>
