<svg width="122" height="121" viewBox="0 0 122 121" fill="none" xmlns="http://www.w3.org/2000/svg">
<path fill-rule="evenodd" clip-rule="evenodd" d="M61 118.787C94.1371 118.787 121 92.35 121 59.7384C121 27.1268 94.1371 0.689941 61 0.689941C27.8629 0.689941 1 27.1268 1 59.7384C1 92.35 27.8629 118.787 61 118.787Z" stroke="#7A7A7A" stroke-opacity="0.2"/>
<g clip-path="url(#clip0_336_32)">
<path d="M86.001 36.1187V85.3258H36.001V36.1187H86.001ZM91.001 31.198H31.001V90.2465H91.001V31.198ZM81.001 48.4205H61.001V50.8808H81.001V48.4205ZM81.001 60.7222H61.001V63.1826H81.001V60.7222ZM81.001 73.024H61.001V75.4844H81.001V73.024ZM54.711 45.2122L52.936 43.4998L46.5535 49.9139L42.706 46.3415L40.961 48.0883L46.586 53.3412L54.711 45.2122ZM54.711 57.5139L52.936 55.8015L46.556 62.2157L42.7085 58.6432L40.9635 60.3876L46.586 65.6429L54.711 57.5139ZM54.711 69.8157L52.936 68.1033L46.556 74.5174L42.7085 70.945L40.9635 72.6894L46.586 77.9447L54.711 69.8157Z" fill="#C4C4C4"/>
</g>
<defs>
<clipPath id="clip0_336_32">
<rect width="60" height="59.0485" fill="white" transform="translate(31.001 31.198)"/>
</clipPath>
</defs>
</svg>
