<svg width="738" height="706" viewBox="0 0 738 706" fill="none" xmlns="http://www.w3.org/2000/svg">
<g clip-path="url(#clip0)">
<path d="M30.7673 81.1043C90.2384 -32.0079 301.488 -16.0611 383.013 63.5019C464.538 143.065 491.045 194.045 564.58 164.359C638.114 134.673 731.892 142.589 737.176 236.995C742.461 331.401 656.482 442.972 519.662 475.989C382.842 509.005 382.949 625.866 201.957 602.288C103.279 589.424 101.042 494.086 114.977 415.227C128.913 336.368 -38.2286 212.314 30.7673 81.1043Z" fill="#CFCFCF"/>
<path opacity="0.9" d="M30.7673 81.1043C90.2384 -32.0079 301.488 -16.0611 383.013 63.5019C464.538 143.065 491.045 194.045 564.58 164.359C638.114 134.673 731.892 142.589 737.176 236.995C742.461 331.401 656.482 442.972 519.662 475.989C382.842 509.005 382.949 625.866 201.957 602.288C103.279 589.424 101.042 494.086 114.977 415.227C128.913 336.368 -38.2286 212.314 30.7673 81.1043Z" fill="white"/>
<path d="M383.266 701.357C586.944 701.357 752.057 691.712 752.057 679.815C752.057 667.918 586.944 658.274 383.266 658.274C179.589 658.274 14.4756 667.918 14.4756 679.815C14.4756 691.712 179.589 701.357 383.266 701.357Z" fill="#F5F5F5"/>
<path d="M237.34 105.12C237.903 100.34 237.225 95.4957 235.372 91.054C233.52 86.6123 230.554 82.7231 226.762 79.7615C222.97 76.7999 218.479 74.8658 213.723 74.1457C208.966 73.4255 204.105 73.9437 199.606 75.6502C195.108 77.3567 191.125 80.1939 188.042 83.8883C184.959 87.5827 182.879 92.0096 182.003 96.7421C181.127 101.475 181.485 106.353 183.042 110.907C184.599 115.461 187.302 119.537 190.891 122.741L191.766 126.034L196.369 126.585L216.607 128.945L221.229 129.497L222.827 126.471C226.785 124.344 230.172 121.292 232.699 117.575C235.226 113.858 236.818 109.585 237.34 105.12Z" fill="#CFCFCF"/>
<path opacity="0.7" d="M237.34 105.12C237.903 100.34 237.225 95.4957 235.372 91.054C233.52 86.6123 230.554 82.7231 226.762 79.7615C222.97 76.7999 218.479 74.8658 213.723 74.1457C208.966 73.4255 204.105 73.9437 199.606 75.6502C195.108 77.3567 191.125 80.1939 188.042 83.8883C184.959 87.5827 182.879 92.0096 182.003 96.7421C181.127 101.475 181.485 106.353 183.042 110.907C184.599 115.461 187.302 119.537 190.891 122.741L191.766 126.034L196.369 126.585L216.607 128.945L221.229 129.497L222.827 126.471C226.785 124.344 230.172 121.292 232.699 117.575C235.226 113.858 236.818 109.585 237.34 105.12Z" fill="#FEDC2E"/>
<path d="M213.791 129.059C213.791 129.059 216.701 115.833 223.834 110.372L218.127 109.706L216.777 103.407L211.185 114.178L209.283 104.035L205.06 113.55L202.112 101.751L199.335 107.575L193.629 106.909C199.335 113.854 199.088 127.384 199.088 127.384" stroke="#CFCFCF" stroke-width="0.5" stroke-linecap="round" stroke-linejoin="round"/>
<path d="M216.302 145.063C215.883 148.679 210.31 151.019 203.862 150.258C197.414 149.497 192.45 145.958 192.963 142.323C193.477 138.688 198.955 136.386 205.403 137.128C211.851 137.87 216.72 141.428 216.302 145.063Z" fill="#263238"/>
<path d="M214.267 147.175L194.447 144.854C193.201 144.714 192.056 144.102 191.249 143.142C190.442 142.182 190.035 140.949 190.111 139.697L190.89 125.957C190.9 125.83 190.935 125.707 190.993 125.594C191.051 125.48 191.131 125.38 191.229 125.299C191.326 125.217 191.439 125.156 191.561 125.118C191.682 125.081 191.81 125.069 191.937 125.082L221.266 128.526C221.393 128.54 221.515 128.58 221.626 128.642C221.736 128.705 221.833 128.79 221.91 128.892C221.986 128.993 222.041 129.11 222.071 129.233C222.101 129.357 222.106 129.486 222.084 129.611L219.688 143.16C219.472 144.398 218.789 145.505 217.78 146.253C216.771 147 215.513 147.331 214.267 147.175Z" fill="#CFCFCF"/>
<path opacity="0.3" d="M214.267 147.175L194.447 144.854C193.201 144.714 192.056 144.102 191.249 143.142C190.442 142.182 190.035 140.949 190.111 139.697L190.89 125.957C190.9 125.83 190.935 125.707 190.993 125.594C191.051 125.48 191.131 125.38 191.229 125.299C191.326 125.217 191.439 125.156 191.561 125.118C191.682 125.081 191.81 125.069 191.937 125.082L221.266 128.526C221.393 128.54 221.515 128.58 221.626 128.642C221.736 128.705 221.833 128.79 221.91 128.892C221.986 128.993 222.041 129.11 222.071 129.233C222.101 129.357 222.106 129.486 222.084 129.611L219.688 143.16C219.472 144.398 218.789 145.505 217.78 146.253C216.771 147 215.513 147.331 214.267 147.175Z" fill="white"/>
<path d="M190.567 129.839L221.513 133.455C221.831 133.478 222.145 133.377 222.39 133.173C222.635 132.97 222.792 132.68 222.829 132.364C222.866 132.048 222.779 131.729 222.587 131.475C222.395 131.221 222.113 131.051 221.799 131L190.852 127.384C190.535 127.362 190.221 127.463 189.976 127.666C189.731 127.869 189.573 128.159 189.537 128.475C189.5 128.792 189.586 129.11 189.778 129.364C189.97 129.618 190.253 129.788 190.567 129.839Z" fill="#CFCFCF"/>
<path d="M220.772 136.861L190.491 133.322C190.326 133.295 190.157 133.302 189.995 133.342C189.833 133.383 189.681 133.455 189.548 133.556C189.414 133.657 189.303 133.784 189.22 133.929C189.137 134.074 189.084 134.234 189.065 134.4C189.046 134.566 189.06 134.734 189.108 134.894C189.155 135.055 189.235 135.204 189.341 135.332C189.448 135.461 189.579 135.567 189.728 135.643C189.876 135.719 190.039 135.765 190.205 135.777L220.486 139.316C220.648 139.337 220.812 139.326 220.969 139.283C221.126 139.239 221.273 139.165 221.4 139.063C221.528 138.962 221.634 138.837 221.712 138.694C221.791 138.551 221.839 138.394 221.856 138.231C221.877 138.07 221.866 137.906 221.822 137.749C221.779 137.592 221.704 137.445 221.603 137.317C221.502 137.189 221.376 137.083 221.234 137.005C221.091 136.927 220.934 136.878 220.772 136.861Z" fill="#CFCFCF"/>
<path d="M219.516 142.722L190.377 139.316C190.051 139.278 189.725 139.372 189.468 139.575C189.211 139.778 189.045 140.075 189.007 140.401C188.97 140.728 189.062 141.058 189.265 141.317C189.468 141.577 189.765 141.747 190.091 141.79L219.231 145.196C219.555 145.229 219.88 145.134 220.135 144.931C220.391 144.729 220.558 144.435 220.6 144.111C220.633 143.785 220.539 143.458 220.337 143.199C220.135 142.941 219.841 142.77 219.516 142.722Z" fill="#CFCFCF"/>
<g opacity="0.5">
<path opacity="0.5" d="M190.567 129.839L221.513 133.455C221.831 133.477 222.145 133.377 222.39 133.173C222.635 132.97 222.792 132.68 222.829 132.364C222.866 132.048 222.779 131.729 222.587 131.475C222.395 131.221 222.113 131.051 221.799 131L190.852 127.384C190.535 127.362 190.221 127.463 189.976 127.666C189.731 127.869 189.573 128.159 189.537 128.475C189.5 128.792 189.586 129.11 189.778 129.364C189.97 129.618 190.253 129.788 190.567 129.839Z" fill="white"/>
<path opacity="0.5" d="M220.772 136.861L190.491 133.322C190.326 133.295 190.157 133.302 189.995 133.342C189.833 133.382 189.681 133.455 189.548 133.556C189.414 133.657 189.303 133.783 189.22 133.928C189.137 134.073 189.084 134.234 189.065 134.4C189.046 134.566 189.06 134.734 189.108 134.894C189.155 135.054 189.235 135.203 189.341 135.332C189.448 135.461 189.579 135.566 189.728 135.643C189.876 135.719 190.039 135.765 190.205 135.776L220.486 139.316C220.648 139.337 220.812 139.326 220.969 139.282C221.126 139.239 221.273 139.164 221.4 139.063C221.528 138.962 221.634 138.836 221.712 138.693C221.791 138.551 221.839 138.393 221.856 138.231C221.877 138.07 221.866 137.905 221.822 137.748C221.779 137.591 221.704 137.445 221.603 137.317C221.502 137.189 221.376 137.083 221.234 137.005C221.091 136.926 220.934 136.878 220.772 136.861Z" fill="white"/>
<path opacity="0.5" d="M219.516 142.722L190.377 139.316C190.051 139.278 189.725 139.372 189.468 139.575C189.211 139.778 189.045 140.075 189.007 140.401C188.97 140.728 189.062 141.058 189.265 141.317C189.468 141.577 189.765 141.747 190.091 141.79L219.231 145.196C219.555 145.229 219.88 145.134 220.135 144.931C220.391 144.729 220.558 144.435 220.6 144.111C220.633 143.785 220.539 143.458 220.337 143.199C220.135 142.941 219.841 142.77 219.516 142.722Z" fill="white"/>
</g>
<path d="M210.291 61.0471L211.185 30.828L217.386 30.3523L210.291 61.0471Z" fill="#FEDC2E"/>
<path d="M233.136 72.8074L255.276 42.5503L257.843 45.4428L233.136 72.8074Z" fill="#FEDC2E"/>
<path d="M245.138 93.6069L271.633 89.6106L272.565 92.389L245.138 93.6069Z" fill="#FEDC2E"/>
<path d="M185.013 68.6019L163.938 44.8909L161.085 48.3733L185.013 68.6019Z" fill="#FEDC2E"/>
<path d="M172.688 92.8267L143.853 85.8618L144.804 89.7058L172.688 92.8267Z" fill="#FEDC2E"/>
<path d="M551.027 242.609L527.004 264.208C523.2 267.576 497.465 240.63 497.465 240.63L490.39 246.757C490.39 246.757 514.508 276.691 523.447 277.338C532.387 277.985 557.228 258.308 557.228 258.308L551.027 242.609Z" fill="#EEC1BB"/>
<path d="M535.735 254.331L544.884 269.878L554.395 264.17L570.296 254.426V219.336C570.296 219.336 545.303 235.72 535.735 254.331Z" fill="#CFCFCF"/>
<path opacity="0.2" d="M554.451 264.074L570.353 254.331V254.103C569.249 249.878 568.317 246.491 568.317 246.491C568.317 246.491 551.693 254.388 554.451 264.074Z" fill="black"/>
<path d="M668.727 262.229C668.727 262.229 682.213 278.366 680.463 286.282C678.713 294.199 666.863 298.651 666.863 298.651L653.358 297.434C653.358 297.434 664.771 289.232 664.771 286.282C664.771 283.333 656.307 275.34 656.307 275.34L668.727 262.229Z" fill="#EEC1BB"/>
<path d="M558.712 341.849L633.653 347.101C633.412 323.185 634.383 299.272 636.563 275.454C636.982 270.862 637.4 266.523 637.819 262.438C640.158 240.344 642.555 225.996 642.555 225.996H642.327L570.258 219.374C555.231 270.735 558.712 341.849 558.712 341.849Z" fill="#CFCFCF"/>
<path d="M613.072 649.539L600.443 656.808L585.283 629.311L597.913 622.041L613.072 649.539Z" fill="#EEC1BB"/>
<path d="M598.902 655.191L612.939 646.247C613.167 646.085 613.446 646.009 613.725 646.034C614.003 646.058 614.264 646.181 614.461 646.38L622.925 655.191C623.106 655.4 623.245 655.643 623.331 655.906C623.418 656.169 623.452 656.447 623.431 656.723C623.409 656.999 623.334 657.268 623.208 657.515C623.082 657.761 622.908 657.98 622.697 658.159L622.336 658.407C617.447 661.413 614.727 662.765 608.679 666.647C604.875 669.025 589.011 677.589 583.134 678.064C577.256 678.54 576.591 672.907 578.987 672.013C591.066 667.503 595.764 661.756 597.304 657.227C597.59 656.386 598.153 655.668 598.902 655.191Z" fill="#263238"/>
<path opacity="0.2" d="M597.913 622.041L585.283 629.311L593.101 643.488L605.749 636.218L597.913 622.041Z" fill="black"/>
<path d="M558.73 341.868C558.73 341.868 521.279 464.095 523.561 504.857C526.034 549.557 586.101 643.583 586.101 643.583L608.736 629.273C608.736 629.273 566.32 536.636 564.722 502.383C567.061 452.753 612.977 345.788 612.977 345.788L558.73 341.868Z" fill="#263238"/>
<path opacity="0.2" d="M595.46 375.112C582.963 382.724 577.999 415.417 580.643 431.992C587.414 411.06 595.136 390.317 601.318 374.446C600.369 374.033 599.328 373.877 598.3 373.994C597.271 374.111 596.292 374.497 595.46 375.112Z" fill="black"/>
<path d="M583.591 645.771L610.277 628.854L605.902 621.318L577.923 638.407L583.591 645.771Z" fill="#CFCFCF"/>
<path d="M596.012 659.815C595.22 660.405 594.26 660.726 593.273 660.728C592.959 660.696 592.659 660.58 592.405 660.393C592.151 660.205 591.951 659.953 591.827 659.663C591.724 659.497 591.67 659.306 591.67 659.111C591.67 658.916 591.724 658.725 591.827 658.559C592.816 657.018 598.142 656.77 598.751 656.77C598.813 656.763 598.876 656.778 598.928 656.813C598.98 656.848 599.019 656.9 599.036 656.961C599.072 657.014 599.091 657.077 599.091 657.141C599.091 657.206 599.072 657.269 599.036 657.322C598.115 658.254 597.102 659.089 596.012 659.815ZM592.759 658.559C592.624 658.641 592.507 658.752 592.417 658.882C592.372 658.947 592.348 659.023 592.348 659.101C592.348 659.18 592.372 659.256 592.417 659.32C592.492 659.523 592.623 659.701 592.794 659.832C592.966 659.963 593.172 660.043 593.387 660.062C595.15 659.778 596.751 658.866 597.895 657.493C596.132 657.531 594.392 657.893 592.759 658.559Z" fill="#CFCFCF"/>
<path d="M598.941 657.398H598.77C597.115 657.57 593.064 656.561 592.645 655.096C592.571 654.851 592.582 654.588 592.675 654.35C592.768 654.112 592.939 653.912 593.159 653.783C593.357 653.615 593.588 653.489 593.836 653.414C594.085 653.339 594.346 653.315 594.604 653.345C596.696 653.535 598.96 656.732 599.036 656.923C599.073 656.972 599.093 657.032 599.093 657.094C599.093 657.156 599.073 657.216 599.036 657.265C599.016 657.317 598.983 657.362 598.941 657.398ZM593.672 654.258L593.558 654.354C593.197 654.639 593.273 654.81 593.292 654.905C593.577 655.762 596.297 656.694 598.085 656.808C597.362 655.914 595.822 654.201 594.509 654.087C594.217 654.052 593.921 654.119 593.672 654.277V654.258Z" fill="#CFCFCF"/>
<path d="M640.615 666.076H626.559L625.398 633.516H639.474L640.615 666.076Z" fill="#EEC1BB"/>
<path d="M624.618 664.439H641.737C642.015 664.448 642.283 664.547 642.499 664.722C642.716 664.898 642.869 665.139 642.935 665.41L645.712 677.931C645.825 678.469 645.72 679.029 645.42 679.489C645.121 679.949 644.651 680.272 644.114 680.386C643.963 680.404 643.81 680.404 643.658 680.386C638.123 680.386 634.148 679.967 627.167 679.967C622.906 679.967 610.048 680.405 604.114 680.405C598.18 680.405 597.457 674.582 599.873 674.049C610.695 671.689 618.893 668.34 622.317 665.295C622.955 664.74 623.773 664.435 624.618 664.439Z" fill="#263238"/>
<path opacity="0.2" d="M639.474 633.535H625.398L626.007 650.319H640.063L639.474 633.535Z" fill="black"/>
<path d="M621.708 224.74C618.665 227.499 602.897 229.288 602.897 229.288L596.829 238.441L593.957 225.406C593.957 225.406 588.726 224.169 589.83 222.533C591.552 222.378 593.227 221.88 594.756 221.07C596.284 220.26 597.636 219.153 598.731 217.813C601.394 214.179 601.204 209.098 600.348 204.15C600.348 204.15 600.348 204.017 600.348 203.96L612.616 194.902L621.061 188.622C618.322 198.746 614.994 217.395 621.708 224.74Z" fill="#EEC1BB"/>
<path opacity="0.2" d="M617.6 197.337C614.994 209.231 604.285 216.139 598.731 217.813C601.394 214.179 601.204 209.098 600.348 204.15C600.359 204.081 600.359 204.01 600.348 203.941L612.617 194.883C612.883 196.728 617.98 195.511 617.6 197.337Z" fill="black"/>
<path d="M585.303 343.714C585.303 343.714 593.253 464.095 599.188 504.857C605.674 549.557 619.559 647.065 619.559 647.065H645.256C645.256 647.065 640.006 553.82 637.647 509.804C634.851 459.737 633.729 347.101 633.729 347.101L585.303 343.714Z" fill="#263238"/>
<path d="M616.459 647.617H646.777V638.559L615.317 637.969L616.459 647.617Z" fill="#CFCFCF"/>
<path d="M602.421 146.167C599.938 145.535 597.323 145.674 594.921 146.565C592.519 147.455 590.445 149.055 588.973 151.152C583.057 158.65 587.394 163.636 587.394 163.636C587.806 161.5 588.741 159.499 590.114 157.813C590.114 157.813 586.652 165.425 594.147 174.426C601.641 183.427 623.705 193.741 623.705 193.741C623.705 193.741 637.133 188.47 641.013 176.462C644.894 164.454 644.818 155.91 630.761 148.127C616.705 140.344 602.801 138.098 602.421 146.167Z" fill="#263238"/>
<path d="M626.92 175.073C625.341 187.309 624.846 195.111 619.54 201.315C618.828 202.142 618.052 202.912 617.219 203.617C605.921 213.627 589.24 206.053 586.786 191.952C586.373 189.392 586.182 186.8 586.216 184.207C586.216 172.199 590.609 157.908 601.984 154.178C605.078 153.133 608.39 152.904 611.599 153.511C614.808 154.118 617.807 155.542 620.307 157.645C622.806 159.748 624.722 162.46 625.871 165.519C627.019 168.578 627.361 171.881 626.863 175.111L626.92 175.073Z" fill="#EEC1BB"/>
<path d="M605.578 177.471C605.578 178.593 604.855 179.469 604.094 179.374C603.334 179.278 602.82 178.346 602.896 177.223C602.972 176.101 603.657 175.225 604.38 175.32C605.102 175.415 605.654 176.31 605.578 177.471Z" fill="#263238"/>
<path d="M592.797 176.576C592.797 177.699 592.055 178.574 591.313 178.479C590.571 178.384 590.058 177.452 590.115 176.329C590.172 175.206 590.876 174.331 591.598 174.426C592.321 174.521 592.873 175.491 592.797 176.576Z" fill="#263238"/>
<path d="M596.83 177.413C595.241 180.776 593.192 183.901 590.743 186.7C591.482 187.31 592.344 187.752 593.27 187.995C594.196 188.238 595.164 188.277 596.107 188.108L596.83 177.413Z" fill="#D4827D"/>
<path d="M610.22 173.056C610.101 173.086 609.975 173.086 609.856 173.057C609.736 173.027 609.626 172.967 609.535 172.884C608.957 172.283 608.247 171.825 607.461 171.548C606.675 171.27 605.835 171.181 605.008 171.286C604.923 171.305 604.835 171.307 604.749 171.292C604.663 171.276 604.581 171.243 604.509 171.195C604.436 171.147 604.373 171.085 604.325 171.012C604.277 170.94 604.244 170.858 604.228 170.772C604.194 170.603 604.226 170.428 604.318 170.282C604.411 170.137 604.556 170.033 604.723 169.992C605.757 169.832 606.814 169.922 607.806 170.253C608.798 170.584 609.698 171.147 610.429 171.895C610.551 172.019 610.62 172.187 610.62 172.361C610.62 172.535 610.551 172.703 610.429 172.827L610.22 173.056Z" fill="#263238"/>
<path d="M599.206 194.102C600.835 193.902 602.39 193.311 603.741 192.38C605.092 191.449 606.199 190.205 606.967 188.755C606.986 188.714 606.997 188.669 606.998 188.624C607 188.579 606.993 188.533 606.977 188.491C606.961 188.448 606.937 188.41 606.906 188.377C606.874 188.343 606.837 188.317 606.796 188.298C606.756 188.276 606.712 188.262 606.667 188.258C606.622 188.253 606.577 188.258 606.534 188.273C606.49 188.287 606.451 188.31 606.417 188.341C606.384 188.372 606.357 188.409 606.339 188.451C605.598 189.776 604.56 190.912 603.306 191.767C602.051 192.622 600.615 193.174 599.111 193.379C599.067 193.382 599.024 193.393 598.984 193.413C598.944 193.432 598.909 193.46 598.881 193.494C598.852 193.528 598.831 193.567 598.818 193.61C598.806 193.652 598.802 193.697 598.807 193.741C598.812 193.786 598.825 193.83 598.847 193.87C598.869 193.909 598.898 193.944 598.934 193.973C598.969 194.001 599.01 194.022 599.053 194.034C599.097 194.047 599.142 194.051 599.187 194.045L599.206 194.102Z" fill="#263238"/>
<path d="M587.87 170.106C587.732 170.082 587.606 170.015 587.508 169.916C587.458 169.845 587.423 169.765 587.405 169.68C587.386 169.595 587.385 169.508 587.401 169.423C587.417 169.337 587.45 169.256 587.498 169.184C587.545 169.112 587.607 169.05 587.68 169.002C588.547 168.395 589.547 168.005 590.597 167.866C591.646 167.727 592.714 167.843 593.709 168.203C593.867 168.278 593.99 168.41 594.054 168.573C594.118 168.735 594.117 168.916 594.051 169.078C593.977 169.236 593.845 169.36 593.682 169.423C593.519 169.487 593.338 169.486 593.176 169.421C592.384 169.159 591.541 169.086 590.715 169.208C589.89 169.33 589.104 169.644 588.421 170.125C588.242 170.19 588.044 170.183 587.87 170.106Z" fill="#263238"/>
<path d="M593.957 159.088C597.191 158.022 600.443 160.991 600.443 160.991C604.772 160.617 609.125 160.617 613.453 160.991C617.695 161.714 618.931 165.958 619.292 167.004C619.654 168.051 617.619 170.125 617.619 170.125C617.619 170.125 618.075 182.932 618.246 186.472L623.477 195.986C629.284 186.891 632.427 176.35 632.55 165.558C632.721 147.347 596.829 148.222 596.829 148.222L593.957 159.088Z" fill="#263238"/>
<path d="M632.112 190.791C630.039 193.617 626.937 195.51 623.477 196.063C618.874 196.729 617.162 192.485 618.912 188.451C620.51 184.892 624.809 180.097 629.183 181.315C633.558 182.533 634.623 187.29 632.112 190.791Z" fill="#EEC1BB"/>
<path d="M619.978 666.913C619.02 666.997 618.064 666.741 617.277 666.19C617.014 665.983 616.811 665.71 616.687 665.399C616.564 665.089 616.524 664.751 616.573 664.42C616.566 664.226 616.616 664.034 616.718 663.868C616.819 663.702 616.967 663.57 617.143 663.488C618.703 662.67 623.23 665.391 623.744 665.79C623.8 665.821 623.845 665.869 623.872 665.927C623.9 665.985 623.908 666.051 623.896 666.114C623.887 666.18 623.859 666.243 623.815 666.294C623.771 666.344 623.713 666.381 623.649 666.399C622.447 666.703 621.216 666.875 619.978 666.913ZM617.885 664.002C617.733 663.985 617.579 664.018 617.448 664.097C617.353 664.097 617.258 664.211 617.239 664.477C617.212 664.697 617.238 664.921 617.314 665.129C617.39 665.337 617.514 665.525 617.676 665.676C619.249 666.403 621.042 666.492 622.678 665.923C621.217 664.984 619.591 664.331 617.885 664.002Z" fill="#CFCFCF"/>
<path d="M623.553 666.418H623.401C621.955 665.619 619.14 662.612 619.425 661.052C619.478 660.804 619.614 660.581 619.812 660.422C620.009 660.262 620.256 660.176 620.51 660.177C620.76 660.143 621.016 660.163 621.258 660.235C621.501 660.307 621.725 660.43 621.917 660.595C623.534 661.927 623.819 665.962 623.819 666.171C623.818 666.23 623.803 666.288 623.777 666.34C623.751 666.393 623.713 666.439 623.667 666.475C623.625 666.464 623.587 666.445 623.553 666.418ZM620.738 660.71H620.567C620.148 660.71 620.11 660.957 620.091 661.052C619.92 661.965 621.708 664.306 623.153 665.391C623.056 663.789 622.472 662.256 621.48 660.995C621.276 660.811 621.012 660.709 620.738 660.71Z" fill="#CFCFCF"/>
<path d="M492.691 248.794C492.691 248.794 478.369 247.557 475.154 246.377C471.94 245.197 472.739 234.959 472.967 233.265C473.195 231.572 493.015 235.168 496.115 236.729C499.215 238.289 500.927 245.844 500.927 245.844L492.691 248.794Z" fill="#EEC1BB"/>
<path d="M720.227 294.379L553.683 281.529L544.913 395.293L711.458 408.143L720.227 294.379Z" fill="#CFCFCF"/>
<path opacity="0.7" d="M720.227 294.379L553.683 281.529L544.913 395.293L711.458 408.143L720.227 294.379Z" fill="white"/>
<path d="M720.227 294.379L553.683 281.529L544.913 395.293L711.458 408.143L720.227 294.379Z" stroke="black" stroke-width="0.5" stroke-miterlimit="10"/>
<path d="M555.513 279.927L552.118 279.665L551.856 283.061L555.251 283.323L555.513 279.927Z" fill="black"/>
<path d="M546.757 393.684L543.362 393.422L543.101 396.818L546.495 397.08L546.757 393.684Z" fill="black"/>
<path d="M713.285 406.551L709.891 406.29L709.629 409.686L713.023 409.948L713.285 406.551Z" fill="black"/>
<path d="M722.04 292.834L718.646 292.573L718.384 295.969L721.778 296.231L722.04 292.834Z" fill="black"/>
<path d="M709.527 388.902L549.753 376.574L548.533 392.398L708.307 404.726L709.527 388.902Z" fill="#CFCFCF"/>
<path opacity="0.2" d="M693.397 396.978L564.418 387.025C564.038 386.996 563.684 386.817 563.435 386.529C563.185 386.24 563.06 385.864 563.086 385.484C563.101 385.294 563.153 385.108 563.239 384.938C563.325 384.768 563.444 384.617 563.589 384.493C563.734 384.369 563.902 384.275 564.084 384.217C564.265 384.158 564.456 384.136 564.646 384.152L693.606 394.104C693.986 394.133 694.339 394.312 694.589 394.601C694.838 394.889 694.963 395.265 694.937 395.646C694.908 396.026 694.73 396.38 694.441 396.629C694.153 396.879 693.777 397.004 693.397 396.978Z" fill="black"/>
<path d="M615.412 347.253L617.39 321.677L650.087 337.072L615.412 347.253Z" fill="#CFCFCF"/>
<path d="M583.933 387.196C583.886 387.797 583.662 388.37 583.289 388.843C582.917 389.316 582.413 389.668 581.84 389.854C581.268 390.04 580.653 390.053 580.074 389.889C579.494 389.726 578.976 389.394 578.585 388.937C578.194 388.479 577.948 387.915 577.877 387.317C577.806 386.719 577.914 386.114 578.187 385.577C578.46 385.04 578.886 384.597 579.411 384.302C579.936 384.008 580.537 383.876 581.137 383.923C581.939 383.991 582.683 384.373 583.206 384.985C583.73 385.598 583.991 386.392 583.933 387.196Z" fill="#CFCFCF"/>
<path opacity="0.4" d="M583.933 387.196C583.886 387.797 583.662 388.37 583.289 388.843C582.917 389.316 582.413 389.668 581.84 389.854C581.268 390.04 580.653 390.053 580.074 389.889C579.494 389.726 578.976 389.394 578.585 388.937C578.194 388.479 577.948 387.915 577.877 387.317C577.806 386.719 577.914 386.114 578.187 385.577C578.46 385.04 578.886 384.597 579.411 384.302C579.936 384.008 580.537 383.876 581.137 383.923C581.939 383.991 582.683 384.373 583.206 384.985C583.73 385.598 583.991 386.392 583.933 387.196Z" fill="white"/>
<path d="M620.167 217.813L602.896 226.015L596.828 237.871V224.55C596.828 224.55 594.375 221.886 596.828 216.672L586.158 220.744L581.346 232.999L593.785 227.804L596.828 240.592L602.896 230.468L610.675 239.203L627.128 224.512L620.167 217.813Z" fill="#CFCFCF"/>
<path opacity="0.2" d="M620.167 217.813L602.896 226.015L596.828 237.871V224.55C596.828 224.55 594.375 221.886 596.828 216.672L586.158 220.744L581.346 232.999L593.785 227.804L596.828 240.592L602.896 230.468L610.675 239.203L627.128 224.512L620.167 217.813Z" fill="black"/>
<path opacity="0.2" d="M633.444 261.791C633.754 266.482 634.807 271.094 636.564 275.454C636.982 270.862 637.401 266.523 637.819 262.438L633.444 261.791Z" fill="black"/>
<path d="M642.555 226.015C657.163 232.39 676.184 267.329 676.184 267.329L659.331 282.685L633.368 261.753L642.555 226.015Z" fill="#CFCFCF"/>
<path d="M646.853 289.936C646.853 289.936 648.755 280.611 650.562 280.421C652.369 280.231 666.159 282.666 667.015 285.216C667.871 287.766 668.593 294.027 665.113 294.389C661.632 294.75 645.749 294.389 646.853 289.936Z" fill="#EEC1BB"/>
<path d="M360.65 245.33C363.579 242.076 370.807 236.329 362.552 229.669C354.297 223.008 357.512 210.297 366.356 210.544C375.201 210.791 366.927 205.044 367.288 194.883C367.65 184.721 380.603 183.465 388.04 188.622C395.477 193.779 401.354 180.477 410.865 182.799C420.375 185.12 416.989 193.455 419.139 202.209C421.288 210.963 435.249 203.769 439.567 213.627C443.884 223.484 436.542 222.913 437.227 233.608C437.912 244.303 446.642 246.244 445.805 254.445C444.969 262.647 427.451 263.503 428.687 275.549C429.923 287.595 422.581 297.167 412.748 292.181C402.914 287.195 404.854 302.762 391.825 299.336C378.796 295.911 376.837 286.529 376.608 277.281C376.38 268.033 367.421 275.035 361.487 271.096C355.553 267.157 351.273 255.796 360.65 245.33Z" fill="#2E353A"/>
<path d="M353.251 347.634L357.93 266.168L428.915 268.508L415.791 353.057L353.251 347.634Z" fill="#CFCFCF"/>
<path opacity="0.7" d="M353.251 347.634L357.93 266.168L428.915 268.508L415.791 353.057L353.251 347.634Z" fill="white"/>
<path d="M359.984 365.617C359.984 365.617 340.621 468.891 335.448 511.289C328.696 566.608 301.097 647.541 301.097 647.541L312.129 650.395C312.129 650.395 351.045 581.622 358.634 519.757C389.561 456.502 392.053 378.69 392.053 378.69L359.984 365.617Z" fill="#9F5B53"/>
<path d="M280.554 672.584C282.349 671.75 284.285 671.26 286.26 671.138C286.26 671.138 293.05 667.141 299.784 651.613H307.392C308.67 651.625 309.914 652.029 310.955 652.771C311.996 653.513 312.784 654.557 313.212 655.762C313.327 656.1 313.398 656.452 313.422 656.808C313.346 658.639 313.156 660.463 312.851 662.27C311.736 668.292 310.256 674.24 308.419 680.082L307.145 679.758L309.465 668.455C310.245 664.649 306.213 668.321 304.349 672.26C302.485 676.2 299.613 680.025 291.263 678.103C281.41 675.724 277.473 674.335 280.554 672.584Z" fill="#2E353A"/>
<path d="M380.108 363.961C380.108 363.961 382.505 469.024 386.214 511.574C391.045 567.103 380.774 651.994 380.774 651.994L392.187 652.489C392.187 652.489 416.057 577.15 410.694 515.037C427.812 446.778 414.212 370.069 414.212 370.069L380.108 363.961Z" fill="#9F5B53"/>
<path d="M363.028 676.028C364.722 675.022 366.584 674.332 368.525 673.992C368.525 673.992 374.84 669.273 379.842 653.059L387.45 652.203C388.723 652.076 390.005 652.344 391.121 652.97C392.237 653.597 393.133 654.551 393.689 655.705C393.845 656.03 393.954 656.376 394.012 656.732C394.126 658.557 394.126 660.388 394.012 662.213C393.552 668.315 392.727 674.383 391.54 680.386L390.227 680.215L391.311 668.797C391.673 664.896 388.059 669.025 386.632 673.079C385.206 677.132 382.828 681.3 374.25 680.31C364.245 679.073 360.194 678.103 363.028 676.028Z" fill="#2E353A"/>
<path d="M385.434 277.186C399.965 275.283 404.34 269.117 404.34 269.117C395.115 260.421 402.78 245.33 402.78 245.33L385.281 248.603C385.68 251.039 385.908 253.5 385.966 255.968C386.099 266.586 381.287 266.7 381.287 266.7C378.225 272.447 385.434 277.186 385.434 277.186Z" fill="#9F5B53"/>
<path opacity="0.2" d="M385.281 248.603C385.679 251.039 385.908 253.5 385.966 255.968C397.778 255.968 402.78 245.33 402.78 245.33L385.281 248.603Z" fill="black"/>
<path d="M394.944 199.64C379.728 198.803 374.402 206.681 372.424 222.304C369.951 241.829 373.546 255.987 392.795 252.847C418.929 248.584 420.204 201.029 394.944 199.64Z" fill="#9F5B53"/>
<path d="M382.295 222C380.955 224.209 379.352 226.248 377.521 228.07C377.939 228.714 378.525 229.231 379.215 229.566C379.906 229.901 380.674 230.042 381.439 229.973L382.295 222Z" fill="#892B29"/>
<path d="M391.673 221.258C391.673 222.514 392.186 223.579 393.004 223.636C393.822 223.693 394.602 222.742 394.697 221.505C394.792 220.268 394.203 219.183 393.366 219.126C392.529 219.069 391.787 220.021 391.673 221.258Z" fill="#2E353A"/>
<path d="M393.708 219.203L391.083 217.927C391.083 217.927 392.243 220.325 393.708 219.203Z" fill="#2E353A"/>
<path d="M376.19 219.793C376.095 221.029 376.684 222.095 377.521 222.171C378.358 222.247 379.1 221.277 379.195 220.021C379.29 218.765 378.7 217.718 377.864 217.642C377.027 217.566 376.285 218.537 376.19 219.793Z" fill="#2E353A"/>
<path d="M378.206 217.737L375.581 216.462C375.581 216.462 376.76 218.841 378.206 217.737Z" fill="#2E353A"/>
<path d="M392.509 210.544C393.722 210.549 394.918 210.831 396.006 211.368C397.094 211.906 398.044 212.685 398.786 213.646" stroke="#2E353A" stroke-width="0.72468" stroke-linecap="round" stroke-linejoin="round"/>
<path d="M381.363 209.136C380.306 208.941 379.218 208.991 378.183 209.281C377.148 209.572 376.193 210.095 375.391 210.81" stroke="#2E353A" stroke-width="0.72468" stroke-linecap="round" stroke-linejoin="round"/>
<path d="M410.161 226.205C410.161 226.205 403.732 213.303 405.349 203.712C405.349 203.712 375.886 189.745 372.71 220.268C372.71 220.268 371.264 192.923 397.436 193.76C423.609 194.597 421.421 232.847 407.289 243.522C407.289 243.579 414.137 234.255 410.161 226.205Z" fill="#2E353A"/>
<path d="M407.517 229.269C407.634 228.4 407.921 227.563 408.363 226.805C408.804 226.047 409.39 225.384 410.088 224.853C410.786 224.323 411.582 223.936 412.43 223.714C413.278 223.492 414.162 223.44 415.03 223.56C419.709 224.322 421.421 234.122 409.571 235.815C407.878 236.082 407.023 234.388 407.517 229.269Z" fill="#9F5B53"/>
<path d="M390.608 230.696C390.608 230.696 389.467 236.405 381.782 236.405" stroke="#2E353A" stroke-width="0.72468" stroke-linecap="round" stroke-linejoin="round"/>
<path d="M353.365 348.376L316.18 566.912C316.18 566.912 406.147 577.645 436.656 571.365C436.656 571.365 444.131 414.961 412.291 353.247L353.365 348.376Z" fill="#CFCFCF"/>
<path d="M301.096 647.541C301.096 647.541 291.586 667.313 286.203 671.138C286.203 671.138 293.488 675.477 301.096 665.81C310.911 653.288 313.307 656.77 313.307 656.77C313.108 654.614 312.714 652.48 312.128 650.396C310.645 646.361 301.096 647.541 301.096 647.541Z" fill="#9F5B53"/>
<path d="M381.915 647.389C381.915 647.389 379.233 654.696 375.676 662.746C374.036 666.919 371.608 670.737 368.524 673.992C368.524 673.992 374.725 676.009 378.035 672.089C381.344 668.169 387.127 654.125 393.555 655.743C393.205 654.598 392.72 653.499 392.11 652.47C391.197 650.909 381.915 647.389 381.915 647.389Z" fill="#9F5B53"/>
<path d="M353.251 347.634L351.501 359.318L417.084 363.961L416.057 351.325L353.251 347.634Z" fill="black"/>
<path d="M385.167 348.966C384.464 348.204 367.307 346.834 365.9 348.223C365.9 348.223 364.131 359.832 364.834 360.916C365.538 362.001 382.086 362.134 383.627 362.248C385.167 362.362 385.833 349.727 385.167 348.966ZM382.086 360.935C380.831 360.935 367.231 360.745 366.66 359.851C366.09 358.956 367.535 349.422 367.535 349.422C368.696 348.281 382.752 349.422 383.361 350.031C383.969 350.64 383.265 361.03 382.048 360.935H382.086Z" fill="white"/>
<path d="M381.687 353.304L378.301 353.076C377.99 353.049 377.68 353.142 377.436 353.337C377.192 353.532 377.032 353.813 376.989 354.123C376.959 354.295 376.966 354.473 377.01 354.642C377.054 354.812 377.133 354.971 377.243 355.108C377.353 355.244 377.49 355.356 377.646 355.436C377.803 355.515 377.974 355.561 378.149 355.569L381.554 355.759C381.863 355.745 382.156 355.617 382.377 355.399C382.598 355.182 382.73 354.89 382.749 354.581C382.768 354.272 382.672 353.966 382.479 353.724C382.287 353.481 382.011 353.318 381.706 353.266L381.687 353.304Z" fill="white"/>
<path d="M428.915 268.508C440.841 276.272 432.548 338.709 381.782 386.492L376.171 379.489C376.171 379.489 409.096 333.951 412.976 314.998C421.706 272.314 428.915 268.508 428.915 268.508Z" fill="#9F5B53"/>
<path d="M357.93 266.168C352.224 264.626 341.42 298.746 341.42 330.031C341.42 347.633 346.575 381.544 346.575 381.544L355.552 375.835C355.552 375.835 352.604 326.872 353.251 322.362C353.897 317.852 360.574 288.318 360.574 288.318C361.773 284.115 362.469 279.784 362.647 275.416C362.576 273.625 362.118 271.87 361.304 270.273C360.489 268.677 359.338 267.276 357.93 266.168Z" fill="#9F5B53"/>
<path d="M460.222 393.146L293.317 386.44L288.74 500.449L455.645 507.156L460.222 393.146Z" fill="#CFCFCF"/>
<path opacity="0.7" d="M460.222 393.146L293.317 386.44L288.74 500.449L455.645 507.156L460.222 393.146Z" fill="white"/>
<path d="M460.222 393.146L293.317 386.44L288.74 500.449L455.645 507.156L460.222 393.146Z" stroke="black" stroke-width="0.5" stroke-miterlimit="10"/>
<path d="M295.074 384.818L291.672 384.681L291.535 388.084L294.937 388.221L295.074 384.818Z" fill="black"/>
<path d="M290.467 498.834L287.064 498.697L286.928 502.101L290.33 502.237L290.467 498.834Z" fill="black"/>
<path d="M457.368 505.549L453.966 505.412L453.829 508.816L457.231 508.952L457.368 505.549Z" fill="black"/>
<path d="M461.995 391.514L458.593 391.377L458.456 394.78L461.858 394.917L461.995 391.514Z" fill="black"/>
<path d="M446.433 409.366L350.797 405.56C350.608 405.552 350.423 405.508 350.251 405.428C350.079 405.348 349.925 405.235 349.798 405.095C349.671 404.955 349.572 404.791 349.509 404.613C349.445 404.435 349.418 404.245 349.428 404.056C349.443 403.676 349.607 403.317 349.885 403.057C350.162 402.797 350.531 402.657 350.911 402.667L446.547 406.473C446.736 406.478 446.922 406.521 447.095 406.598C447.267 406.676 447.423 406.787 447.552 406.925C447.681 407.063 447.781 407.225 447.847 407.403C447.913 407.58 447.943 407.769 447.936 407.958C447.931 408.149 447.888 408.338 447.809 408.513C447.731 408.688 447.619 408.845 447.479 408.976C447.339 409.107 447.175 409.209 446.995 409.276C446.815 409.343 446.624 409.373 446.433 409.366Z" fill="#CFCFCF"/>
<path d="M446.033 419.87L350.378 416.064C350.191 416.057 350.007 416.013 349.837 415.934C349.666 415.855 349.513 415.744 349.386 415.606C349.259 415.468 349.16 415.307 349.095 415.131C349.031 414.955 349.001 414.767 349.009 414.58C349.014 414.389 349.057 414.201 349.135 414.027C349.214 413.854 349.327 413.697 349.467 413.568C349.607 413.438 349.772 413.338 349.951 413.273C350.131 413.209 350.321 413.181 350.512 413.191L446.147 416.997C446.527 417.016 446.884 417.185 447.141 417.467C447.397 417.748 447.532 418.12 447.517 418.5C447.497 418.877 447.331 419.231 447.054 419.487C446.776 419.743 446.41 419.881 446.033 419.87Z" fill="#CFCFCF"/>
<path d="M445.577 430.355L349.941 426.55C349.752 426.542 349.565 426.497 349.392 426.418C349.22 426.338 349.065 426.226 348.936 426.086C348.807 425.946 348.706 425.783 348.641 425.604C348.575 425.426 348.545 425.236 348.553 425.046C348.56 424.857 348.605 424.671 348.685 424.5C348.765 424.328 348.878 424.174 349.018 424.046C349.157 423.919 349.321 423.821 349.499 423.757C349.678 423.693 349.867 423.666 350.056 423.676L445.691 427.482C446.073 427.502 446.432 427.67 446.691 427.951C446.951 428.232 447.09 428.603 447.08 428.985C447.06 429.366 446.891 429.723 446.61 429.979C446.328 430.236 445.957 430.371 445.577 430.355Z" fill="#CFCFCF"/>
<path d="M445.14 440.86L349.504 437.054C349.123 437.034 348.764 436.866 348.504 436.585C348.245 436.304 348.105 435.933 348.116 435.551C348.123 435.361 348.168 435.174 348.247 435.001C348.327 434.829 348.44 434.673 348.579 434.544C348.719 434.415 348.882 434.315 349.061 434.249C349.239 434.184 349.429 434.154 349.618 434.161L445.254 437.967C445.636 437.987 445.995 438.155 446.254 438.436C446.514 438.717 446.653 439.088 446.643 439.471C446.635 439.661 446.59 439.847 446.511 440.02C446.431 440.193 446.319 440.348 446.179 440.477C446.04 440.606 445.876 440.706 445.698 440.772C445.519 440.838 445.33 440.868 445.14 440.86Z" fill="#CFCFCF"/>
<path d="M444.702 451.364L304.957 445.655C304.767 445.648 304.581 445.603 304.408 445.524C304.235 445.444 304.08 445.331 303.951 445.192C303.822 445.052 303.722 444.888 303.656 444.71C303.591 444.532 303.561 444.342 303.569 444.152C303.576 443.962 303.621 443.775 303.7 443.603C303.78 443.43 303.892 443.275 304.032 443.146C304.172 443.017 304.335 442.917 304.513 442.851C304.692 442.785 304.881 442.755 305.071 442.763L444.816 448.472C445.006 448.479 445.192 448.524 445.365 448.603C445.537 448.683 445.693 448.796 445.821 448.935C445.95 449.075 446.051 449.239 446.116 449.417C446.182 449.596 446.212 449.785 446.204 449.975C446.184 450.357 446.016 450.716 445.736 450.976C445.455 451.235 445.084 451.375 444.702 451.364Z" fill="#CFCFCF"/>
<path d="M444.264 461.85L304.52 456.141C304.33 456.133 304.143 456.089 303.971 456.009C303.798 455.929 303.643 455.817 303.514 455.677C303.385 455.537 303.285 455.374 303.219 455.195C303.153 455.017 303.123 454.827 303.131 454.637C303.151 454.257 303.32 453.9 303.601 453.643C303.882 453.387 304.253 453.252 304.634 453.267L444.397 458.976C444.585 458.983 444.769 459.028 444.939 459.106C445.109 459.185 445.262 459.296 445.389 459.434C445.517 459.572 445.615 459.734 445.68 459.91C445.745 460.086 445.774 460.273 445.767 460.46C445.762 460.651 445.719 460.839 445.64 461.013C445.562 461.187 445.449 461.343 445.309 461.473C445.169 461.602 445.004 461.702 444.824 461.767C444.645 461.832 444.454 461.86 444.264 461.85Z" fill="#CFCFCF"/>
<path d="M443.846 472.354L304.082 466.645C303.701 466.625 303.342 466.457 303.082 466.176C302.823 465.895 302.683 465.524 302.694 465.142C302.714 464.76 302.882 464.401 303.163 464.141C303.443 463.881 303.814 463.742 304.197 463.753L443.96 469.461C444.342 469.481 444.701 469.649 444.96 469.93C445.22 470.211 445.359 470.582 445.349 470.965C445.329 471.347 445.161 471.706 444.88 471.965C444.599 472.225 444.228 472.364 443.846 472.354Z" fill="#CFCFCF"/>
<path d="M443.408 482.839L303.645 477.13C303.458 477.123 303.274 477.079 303.103 477C302.933 476.922 302.78 476.81 302.653 476.672C302.526 476.535 302.427 476.373 302.362 476.197C302.297 476.021 302.268 475.834 302.276 475.646C302.28 475.457 302.323 475.271 302.4 475.098C302.478 474.926 302.589 474.77 302.727 474.641C302.865 474.512 303.027 474.411 303.205 474.345C303.382 474.279 303.57 474.249 303.759 474.257L443.523 479.966C443.904 479.986 444.263 480.154 444.523 480.435C444.782 480.716 444.922 481.087 444.911 481.469C444.891 481.849 444.723 482.207 444.441 482.463C444.16 482.72 443.789 482.855 443.408 482.839Z" fill="#CFCFCF"/>
<path d="M442.971 493.343L303.227 487.635C303.037 487.627 302.85 487.583 302.678 487.503C302.505 487.423 302.35 487.311 302.221 487.171C302.092 487.031 301.992 486.868 301.926 486.689C301.86 486.511 301.83 486.321 301.838 486.131C301.858 485.749 302.026 485.39 302.307 485.131C302.588 484.871 302.959 484.732 303.341 484.742L443.085 490.451C443.275 490.458 443.462 490.503 443.634 490.583C443.807 490.662 443.962 490.775 444.091 490.915C444.22 491.054 444.32 491.218 444.386 491.396C444.451 491.575 444.481 491.764 444.474 491.954C444.466 492.144 444.422 492.331 444.342 492.504C444.262 492.676 444.15 492.832 444.01 492.961C443.871 493.09 443.707 493.19 443.529 493.256C443.35 493.321 443.161 493.351 442.971 493.343Z" fill="#CFCFCF"/>
<path d="M320.327 409.556L312.414 409.233L312.528 406.34L331.644 407.139L331.511 410.013L323.598 409.689L322.761 429.937L319.49 429.804L320.327 409.556Z" fill="#CFCFCF"/>
<path d="M339.278 402.035L305.393 400.638L303.996 434.539L337.881 435.937L339.278 402.035Z" stroke="#CFCFCF" stroke-width="0.5" stroke-miterlimit="10"/>
<path d="M377.712 377.396C377.712 377.396 372.006 380.022 371.245 381.544C370.484 383.067 364.131 400.003 364.645 402.23C365.158 404.456 375.468 407.215 376.951 406.664C378.435 406.112 384.312 386.606 384.293 384.151C384.274 381.697 377.712 377.396 377.712 377.396Z" fill="#9F5B53"/>
<path d="M349.731 371.953C349.731 371.953 344.672 375.569 344.139 377.225C343.607 378.88 340.526 396.654 341.438 398.747C342.351 400.84 352.984 401.678 354.353 400.859C355.723 400.041 357.91 379.794 357.435 377.377C356.959 374.96 349.731 371.953 349.731 371.953Z" fill="#9F5B53"/>
<path d="M401.126 262.952C401.126 262.952 392.49 272.467 386.195 275.435C386.195 275.435 382.676 267.709 384.293 262.952C384.293 262.952 373.356 269.174 374.44 277.186C375.524 285.197 385.396 278.347 385.396 278.347C385.396 278.347 393.784 285.959 400.612 281.677C407.441 277.395 405.919 267.747 405.919 267.747L401.126 262.952Z" fill="#CFCFCF"/>
<path d="M385.529 286.891C385.524 287.276 385.368 287.644 385.093 287.915C384.819 288.186 384.45 288.337 384.065 288.337C383.707 288.296 383.378 288.125 383.138 287.857C382.899 287.588 382.767 287.241 382.767 286.882C382.767 286.522 382.899 286.175 383.138 285.906C383.378 285.638 383.707 285.467 384.065 285.426C384.257 285.426 384.447 285.464 384.625 285.537C384.803 285.611 384.964 285.719 385.1 285.855C385.236 285.991 385.344 286.153 385.418 286.33C385.491 286.508 385.529 286.699 385.529 286.891Z" fill="#CFCFCF"/>
<path d="M382.714 304.474C382.714 304.764 382.628 305.048 382.467 305.288C382.307 305.529 382.078 305.717 381.81 305.828C381.543 305.939 381.248 305.968 380.964 305.912C380.68 305.855 380.419 305.715 380.214 305.511C380.009 305.306 379.87 305.045 379.813 304.76C379.757 304.476 379.786 304.181 379.897 303.914C380.007 303.646 380.195 303.417 380.436 303.256C380.677 303.095 380.96 303.009 381.25 303.009C381.443 303.007 381.634 303.043 381.813 303.115C381.992 303.188 382.155 303.296 382.291 303.433C382.428 303.569 382.535 303.732 382.608 303.911C382.681 304.09 382.717 304.281 382.714 304.474Z" fill="#CFCFCF"/>
<path d="M236.331 228.66C235.094 225.92 236.331 209.345 236.331 209.345C236.331 209.345 256.721 198.65 259.973 196.024C263.226 193.398 266.916 205.216 264.862 207.671C262.807 210.125 256.721 219.336 246.526 219.336L245.156 232.809L236.331 228.66Z" fill="#E4897B"/>
<path d="M177.328 227.556C183.681 229.098 214.305 249.479 220.543 248.793C226.782 248.108 234.143 220.249 234.143 220.249L246.868 224.055C246.868 224.055 246.259 274.883 234.619 280.383C222.978 285.882 175.122 275.397 175.122 275.397L177.328 227.556Z" fill="#263238"/>
<path opacity="0.2" d="M246.849 224.093C246.849 224.093 246.26 274.94 234.619 280.44C230.511 282.343 221.951 282.343 212.555 281.467C199.975 280.118 187.474 278.111 175.104 275.454L175.389 269.631L177.291 227.575C183.625 229.079 214.248 249.479 220.487 248.774C226.725 248.07 234.106 220.23 234.106 220.23L246.849 224.093Z" fill="white"/>
<path opacity="0.2" d="M212.555 281.468C199.975 280.119 187.474 278.111 175.104 275.454L175.389 269.631C176.663 263.922 177.842 258.994 177.842 258.994C177.842 258.994 212.365 266.415 212.555 281.468Z" fill="black"/>
<path d="M115.968 663.469H97.9559C97.6576 663.467 97.3678 663.568 97.1356 663.755C96.9033 663.942 96.7429 664.204 96.6815 664.496L93.7523 677.817C93.6338 678.387 93.7451 678.981 94.0622 679.469C94.3793 679.958 94.8763 680.301 95.4452 680.424C95.6031 680.443 95.7627 680.443 95.9207 680.424C101.798 680.329 106.059 679.967 113.42 679.967C117.947 679.967 131.622 680.443 137.88 680.443C144.138 680.443 144.956 674.258 142.407 673.688C130.995 671.195 122.264 667.712 118.574 664.42C118.225 664.097 117.814 663.846 117.367 663.683C116.919 663.52 116.444 663.447 115.968 663.469Z" fill="#263238"/>
<path d="M192.793 662.993H174.685C174.387 662.991 174.097 663.092 173.865 663.279C173.632 663.467 173.472 663.729 173.411 664.021L170.462 677.341C170.344 677.914 170.458 678.51 170.779 678.999C171.1 679.488 171.602 679.829 172.174 679.948C172.332 679.977 172.493 679.977 172.65 679.948C178.508 679.853 182.769 679.492 190.13 679.492C194.676 679.492 208.352 679.968 214.609 679.968C220.867 679.968 221.685 673.783 219.117 673.212C207.705 670.719 198.974 667.237 195.303 663.944C194.621 663.315 193.721 662.974 192.793 662.993Z" fill="#263238"/>
<path d="M199.697 665.181H172.897C172.897 665.181 170.424 580.994 177.842 520.689C177.842 520.689 170.481 484.533 164.052 450.508C160.724 432.944 157.642 415.931 155.93 404.723C149.254 492.735 139.059 517.778 139.059 517.778C133.353 607.56 121.351 665.067 121.351 665.067H94.1514C91.6217 594.334 105.088 507.997 105.088 507.997C96.4529 408.034 95.9965 338.88 96.1296 328.49H201.2C208.656 369.594 229.807 500.48 199.697 665.181Z" fill="#CFCFCF"/>
<path d="M201.123 328.49H96.0342V337.986L202.455 336.996L201.123 328.49Z" fill="black"/>
<path d="M129.815 341.068H133.562V324.227H129.815V341.068Z" fill="#CFCFCF"/>
<path d="M182.978 341.068H186.725V324.227H182.978V341.068Z" fill="#CFCFCF"/>
<path d="M153.21 337.453H172.649V326.834H153.21V337.453Z" fill="white"/>
<path d="M201.123 328.49H96.0529C95.5584 323.961 95.197 315.873 94.9307 306.187C94.6454 295.473 94.4552 282.819 94.341 270.925C94.1318 249.136 94.1508 229.935 94.1508 229.935C94.1508 229.935 107.465 217.718 139.8 217.813C153.092 218.105 166.126 221.535 177.842 227.823C201.123 287.595 201.123 328.49 201.123 328.49Z" fill="#263238"/>
<path d="M116.367 222.875C125.535 231.381 142.578 234.103 142.578 234.103C142.578 234.103 154.808 227.709 158.46 222.59C152.278 217.813 150.985 217.376 148.95 213.779C147.851 211.626 147.414 209.196 147.694 206.795C147.796 205.456 147.999 204.126 148.303 202.818L116.367 188.869C120.913 198.822 126.144 215.035 116.367 222.875Z" fill="#E4897B"/>
<path opacity="0.2" d="M124.014 198.308C125.916 210.677 141.38 213.417 148.95 213.779C147.851 211.626 147.414 209.196 147.694 206.795L124.014 198.308Z" fill="black"/>
<path d="M141.893 152.37C141.893 152.37 161.427 159.545 149.501 181.029C143.11 192.447 130.709 155.929 130.709 155.929L141.893 152.37Z" fill="#263238"/>
<path d="M124.698 205.235C127.787 207.725 131.606 209.133 135.571 209.243C139.536 209.353 143.427 208.159 146.648 205.844C150.879 202.936 153.833 198.516 154.903 193.493C155.064 192.797 155.184 192.092 155.265 191.381C156.672 178.175 151.993 157.28 137.309 153.417C134.071 152.546 130.665 152.518 127.413 153.337C124.161 154.155 121.173 155.793 118.733 158.093C116.293 160.393 114.481 163.28 113.471 166.479C112.461 169.677 112.286 173.081 112.963 176.367C115.645 190.487 116.539 198.898 124.698 205.235Z" fill="#E4897B"/>
<path d="M135.084 177.566C135.084 178.726 135.959 179.583 136.739 179.469C137.518 179.354 137.975 178.346 137.842 177.204C137.709 176.062 136.948 175.187 136.187 175.301C135.426 175.415 134.951 176.386 135.084 177.566Z" fill="#263238"/>
<path d="M152.734 177.794C155.173 178.717 157.212 180.465 158.498 182.735C159.783 185.005 160.234 187.653 159.772 190.22C157.661 204.455 141.246 215.511 124.698 205.235C109.881 196.005 152.734 177.794 152.734 177.794Z" fill="#E4897B"/>
<path d="M148.19 175.872C148.19 177.033 149.084 177.889 149.825 177.775C150.567 177.661 151.081 176.652 150.929 175.491C150.776 174.33 150.035 173.474 149.293 173.588C148.551 173.703 148.056 174.768 148.19 175.872Z" fill="#263238"/>
<path d="M144.1 176.976C145.939 180.347 148.237 183.447 150.928 186.186C150.202 186.855 149.34 187.358 148.4 187.66C147.461 187.962 146.467 188.057 145.488 187.937L144.1 176.976Z" fill="#DE5753"/>
<path d="M152.278 169.859C152.167 169.92 152.043 169.953 151.917 169.953C151.79 169.953 151.666 169.92 151.555 169.859C150.811 169.427 149.977 169.175 149.118 169.122C148.26 169.069 147.401 169.217 146.61 169.554C146.533 169.598 146.448 169.625 146.36 169.635C146.272 169.645 146.182 169.638 146.097 169.613C146.012 169.588 145.933 169.547 145.864 169.491C145.796 169.435 145.739 169.366 145.697 169.288C145.653 169.209 145.625 169.122 145.615 169.033C145.605 168.943 145.612 168.853 145.637 168.766C145.661 168.68 145.703 168.599 145.759 168.528C145.815 168.458 145.884 168.399 145.963 168.355C146.954 167.903 148.038 167.693 149.126 167.742C150.215 167.792 151.275 168.1 152.221 168.641C152.38 168.729 152.498 168.876 152.551 169.05C152.604 169.223 152.588 169.411 152.506 169.573C152.457 169.687 152.378 169.785 152.278 169.859Z" fill="#263238"/>
<path d="M131.832 172.675C131.702 172.72 131.561 172.72 131.432 172.675C131.308 172.544 131.238 172.37 131.238 172.19C131.238 172.009 131.308 171.835 131.432 171.705C132.135 170.868 133.03 170.215 134.04 169.801C135.05 169.386 136.146 169.223 137.233 169.326C137.409 169.354 137.566 169.449 137.672 169.591C137.779 169.733 137.826 169.911 137.804 170.087C137.771 170.264 137.672 170.421 137.528 170.528C137.383 170.634 137.202 170.68 137.024 170.658C136.167 170.593 135.307 170.732 134.514 171.063C133.721 171.393 133.017 171.907 132.459 172.561C132.373 172.631 132.27 172.678 132.16 172.698C132.05 172.718 131.937 172.71 131.832 172.675Z" fill="#263238"/>
<path d="M121.122 157.261L122.815 159.716C118.421 162.075 120.304 167.328 121.693 169.611C124.641 174.502 123.119 183.16 119.677 187.119C119.677 187.119 119.144 184.873 117.318 185.748C115.492 186.624 118.136 198.365 122.872 203.332C122.872 203.332 116.31 199.24 110.908 187.385C105.925 176.443 101.531 165.577 107.104 157.261H121.122Z" fill="#263238"/>
<path d="M108.264 188.85C109.249 190.344 110.519 191.629 112 192.632C113.482 193.634 115.147 194.334 116.9 194.692C121.598 195.625 123.576 191.324 121.978 187.08C120.514 183.274 116.272 178.175 111.745 179.202C107.218 180.23 105.849 185.12 108.264 188.85Z" fill="#E4897B"/>
<path d="M138.374 158.764C138.374 158.764 151.783 149.916 149.235 143.141C146.686 136.366 143.528 144.873 143.528 144.873C143.528 144.873 144.784 139.316 140.904 139.05C137.023 138.783 138.678 141.809 136.909 144.112C135.14 146.414 114.769 146.014 108.854 150.867C102.938 155.72 109.653 168.869 109.653 168.869C109.653 168.869 119.962 154.14 138.374 158.764Z" fill="#263238"/>
<path d="M146.934 193.341C145.71 195.019 144.604 196.781 143.625 198.612L142.579 198.251C137.9 196.595 136.283 194.274 135.902 192.199C135.739 191.187 135.817 190.15 136.131 189.174C136.295 188.615 136.538 188.083 136.853 187.594C139.283 189.907 142.183 191.666 145.356 192.751C146.326 193.151 146.934 193.341 146.934 193.341Z" fill="#263238"/>
<path d="M145.355 192.751L144.328 194.274C139.934 192.713 137.043 191.001 136.13 189.174C136.294 188.615 136.537 188.083 136.853 187.594C139.282 189.907 142.182 191.666 145.355 192.751Z" fill="white"/>
<path d="M142.578 198.251C137.899 196.595 136.282 194.274 135.901 192.199C137.665 192.872 139.3 193.844 140.733 195.073C141.663 195.914 142.308 197.025 142.578 198.251Z" fill="#DE5753"/>
<path d="M149.862 228.394L145.602 239.659L156.729 297.338L152.582 303.561L145.602 297.89L141.702 240.972L131.203 229.136L141.702 226.434L149.862 228.394Z" fill="#CFCFCF"/>
<path d="M120.532 213.988L141.893 224.397L150.908 214.826L161.427 221.201L154.37 237.566L142.577 228.565L134.398 238.517L112.753 221.067L120.532 213.988Z" fill="#263238"/>
<path opacity="0.2" d="M120.532 213.988L141.893 224.397L150.908 214.826L161.427 221.201L154.37 237.566L142.577 228.565L134.398 238.517L112.753 221.067L120.532 213.988Z" fill="white"/>
<path opacity="0.2" d="M94.9314 306.187C94.6461 295.473 94.4559 282.819 94.3418 270.925L103.262 263.313C103.262 263.313 104.556 294.579 94.9314 306.187Z" fill="black"/>
<path opacity="0.2" d="M164.052 450.508C160.723 432.943 157.642 415.931 155.93 404.722C160.579 399.679 163.78 393.472 165.193 386.758C165.193 386.758 169.53 420.859 164.052 450.508Z" fill="black"/>
<path d="M44.831 277.357L30.5275 270.754C30.5275 270.754 25.9054 267.1 22.9192 267.404C19.933 267.709 1.12158 270.43 0.0944627 270.754C-0.932651 271.077 1.99652 283.58 5.62946 283.028C9.2624 282.476 23.1284 283.694 24.9734 281.544L41.7116 294.503L44.831 277.357Z" fill="#E4897B"/>
<path d="M94.8366 229.459C87.3424 230.297 68.9685 272.866 61.7597 277.3C54.5509 281.734 37.3182 272.124 37.3182 272.124L29.71 290.792C29.71 290.792 58.0507 311.725 68.0365 309.936C87.3805 306.606 100.029 279.146 100.029 279.146C100.029 279.146 107.466 255.968 100.847 238.403C99.448 235.057 97.4059 232.018 94.8366 229.459Z" fill="#263238"/>
<path opacity="0.2" d="M94.8366 229.459C87.3424 230.297 68.9685 272.866 61.7597 277.3C54.5509 281.734 37.3182 272.124 37.3182 272.124L29.71 290.792C29.71 290.792 58.0507 311.725 68.0365 309.936C87.3805 306.606 100.029 279.146 100.029 279.146C100.029 279.146 107.466 255.968 100.847 238.403C99.448 235.057 97.4059 232.018 94.8366 229.459Z" fill="white"/>
</g>
<defs>
<clipPath id="clip0">
<rect width="738" height="706" fill="white"/>
</clipPath>
</defs>
</svg>
