<svg width="709" height="629" viewBox="0 0 709 629" fill="none" xmlns="http://www.w3.org/2000/svg">
<path d="M687.171 93.0999C641.827 -20.0741 439.908 -22.8852 354.803 46.0962C269.697 115.078 239.565 161.479 172.726 126.797C105.886 92.1142 16.19 91.6761 1.83389 181.339C-12.5222 271.002 58.2466 384.979 184.689 428.223C311.131 471.466 299.654 583.052 473.62 576.079C568.471 572.264 579.948 481.414 574.462 404.931C568.977 328.447 739.732 224.29 687.171 93.0999Z" fill="white"/>
<path opacity="0.9" d="M687.171 93.0999C641.827 -20.0741 439.908 -22.8852 354.803 46.0962C269.697 115.078 239.565 161.479 172.726 126.797C105.886 92.1142 16.19 91.6761 1.83389 181.339C-12.5222 271.002 58.2466 384.979 184.689 428.223C311.131 471.466 299.654 583.052 473.62 576.079C568.471 572.264 579.948 481.414 574.462 404.931C568.977 328.447 739.732 224.29 687.171 93.0999Z" fill="#EDEDED"/>
<path d="M354.364 628.431C549.926 628.431 708.46 619.179 708.46 607.767C708.46 596.355 549.926 587.104 354.364 587.104C158.802 587.104 0.267578 596.355 0.267578 607.767C0.267578 619.179 158.802 628.431 354.364 628.431Z" fill="#979797"/>
<path d="M229.319 286.281C229.155 292.998 227.931 301.541 222.653 306.36C215.859 312.475 204.39 308.185 200.062 301.139" stroke="#263238" stroke-width="0.706754" stroke-linecap="round" stroke-linejoin="round"/>
<path d="M228.954 337.811L245.39 350.315C245.39 350.315 249.609 350.881 250.778 352.414C251.947 353.948 255.928 364.9 255.051 366.233C254.175 367.565 245.317 369.427 243.71 367.565C242.103 365.703 240.058 355.737 240.185 354.787L218.982 340.969L228.954 337.811Z" fill="#EEC1BB"/>
<path d="M240.313 344.145L234.56 353.984C234.56 353.984 204.409 335.128 199.478 332.08C198.382 331.422 196.154 328.301 193.524 323.738C184.082 307.309 169.399 272.517 183.224 265.617C190.785 261.839 195.149 273.85 195.149 273.85C195.149 273.85 196.026 277.665 197.359 282.977C197.889 285.149 198.491 287.595 199.185 290.15C202.235 302.089 206.18 316.436 208.061 318.134C211.294 321.328 240.313 344.145 240.313 344.145Z" fill="#AEAEAE"/>
<path opacity="0.2" d="M193.524 323.792C184.082 307.364 169.399 272.572 183.224 265.672C190.785 261.893 195.149 273.904 195.149 273.904C195.149 273.904 196.026 277.72 197.359 283.031C198.135 285.377 198.746 287.774 199.185 290.205C200.683 298.839 201.56 312.931 193.524 323.792Z" fill="black"/>
<path d="M150.735 301.34C150.735 301.34 140.909 304.699 124.418 297.178C117.222 293.911 99.7998 276.131 99.7998 276.131C99.7998 276.131 114.775 253.99 156.14 245.994C156.14 245.994 183.315 249.517 203.824 293.765C203.824 293.765 183.735 304.699 150.735 301.34Z" fill="#AEAEAE"/>
<path d="M183.424 326.932L196.464 342.995C196.464 342.995 200.427 344.547 201.212 346.317C201.998 348.088 203.24 359.661 202.071 360.756C200.902 361.852 191.862 361.559 190.73 359.351C189.597 357.142 189.963 346.993 190.364 346.044L173.051 327.589L183.424 326.932Z" fill="#EEC1BB"/>
<path d="M181.745 575.294L170.659 577.247L166.13 562.151L161.984 548.297L174.75 543.843L178.457 560.49L181.745 575.294Z" fill="#E4897B"/>
<path opacity="0.2" d="M178.53 560.819L166.185 562.461L162.002 548.442L174.768 543.916L178.53 560.819Z" fill="black"/>
<path d="M107.799 580.387H96.5491L94.7046 564.561L93.0244 550.104L106.393 547.895L107.141 565.09L107.799 580.387Z" fill="#E4897B"/>
<path opacity="0.2" d="M107.141 565.236L94.7046 564.689L93.0244 550.177L106.393 547.913L107.141 565.236Z" fill="black"/>
<path d="M123.048 602.657C121.259 601.214 119.223 600.107 117.04 599.389C117.04 599.389 110.501 592.927 107.36 573.414L98.8133 571.187C97.3603 570.839 95.8354 570.944 94.4442 571.49C93.0531 572.035 91.8626 572.993 91.0334 574.235C90.7934 574.575 90.6085 574.951 90.4855 575.349C90.036 577.468 89.7248 579.615 89.5541 581.774C89.0789 588.902 89.0363 596.053 89.4263 603.186H90.9786L91.5996 589.751C91.8187 585.188 95.2521 590.536 96.3113 595.446C97.3706 600.357 99.4343 605.596 109.442 605.833C121.149 605.979 126.08 605.504 123.048 602.657Z" fill="#263238"/>
<path d="M197.67 601.342C195.883 599.896 193.847 598.789 191.661 598.075C191.661 598.075 185.141 591.595 182 572.1L173.435 569.873C171.984 569.523 170.46 569.625 169.069 570.167C167.678 570.709 166.487 571.664 165.655 572.903C165.417 573.248 165.238 573.631 165.126 574.035C164.675 576.122 164.369 578.239 164.212 580.369C163.336 586.977 164.085 601.78 164.085 601.78H165.619L166.24 588.346C166.477 583.782 169.892 589.131 170.97 594.041C172.047 598.951 174.093 604.19 184.101 604.427C195.77 604.665 200.628 604.208 197.67 601.342Z" fill="#263238"/>
<path d="M179.571 552.039L161.309 555.251C142.918 509.489 129.86 471.284 120.619 439.613C115.652 422.509 111.488 407.285 108.529 393.796L109.095 443.611V555.817H91.1979C48.1526 350.881 42.8929 315.542 95.2705 280.184L100.841 275.109C100.841 275.109 102.667 284.455 118.501 294.075C131.759 302.125 148.433 302.654 148.433 302.654L136.416 314.081L138.845 331.915L159.866 440.508L179.571 552.039Z" fill="#263238"/>
<g opacity="0.2">
<path opacity="0.2" d="M179.571 552.039L161.309 555.251C142.918 509.489 129.86 471.284 120.619 439.613C115.652 422.509 111.488 407.285 108.529 393.796L109.095 443.611V555.817H91.1979C48.1526 350.881 42.8929 315.542 95.2705 280.184L100.841 275.109C100.841 275.109 102.667 284.455 118.501 294.075C131.759 302.125 148.433 302.654 148.433 302.654L136.416 314.081L138.845 331.915L159.866 440.508L179.571 552.039Z" fill="white"/>
</g>
<path opacity="0.2" d="M120.601 439.613C115.633 422.509 111.761 407.285 108.785 393.796C109.033 377.819 110.192 361.87 112.255 346.025C112.255 346.025 120.217 407.65 120.601 439.613Z" fill="black"/>
<path d="M100.841 275.109C100.841 275.109 116.035 295.189 150.734 301.34L144.233 306.725C125.188 304.29 107.734 294.854 95.2705 280.257L100.841 275.109Z" fill="black"/>
<path d="M139.813 300.062C139.666 299.712 139.45 299.396 139.177 299.132C138.904 298.868 138.579 298.663 138.224 298.529L132.745 296.302C132.091 296.008 131.357 295.939 130.659 296.108C129.962 296.276 129.34 296.672 128.892 297.233L126.956 299.971C126.751 300.255 126.62 300.586 126.575 300.933C126.531 301.281 126.574 301.634 126.701 301.961C126.95 302.592 127.434 303.102 128.052 303.384L128.289 303.494L133.768 305.721C134.426 306.004 135.159 306.065 135.854 305.893C136.55 305.722 137.171 305.328 137.622 304.772L139.539 302.052C139.743 301.767 139.875 301.438 139.922 301.091C139.97 300.744 139.933 300.391 139.813 300.062ZM134.334 304.571L128.856 302.344C128.683 302.278 128.527 302.178 128.395 302.049C128.263 301.92 128.159 301.766 128.089 301.596C128.027 301.436 128.007 301.265 128.029 301.096C128.052 300.927 128.116 300.766 128.216 300.628L130.152 297.908C130.363 297.64 130.656 297.45 130.987 297.367C131.318 297.285 131.667 297.314 131.978 297.452L137.457 299.679H137.567C137.867 299.817 138.103 300.065 138.224 300.373C138.285 300.532 138.306 300.704 138.283 300.873C138.261 301.042 138.197 301.202 138.096 301.34L137.804 301.742C137.75 301.695 137.689 301.657 137.622 301.632L136.088 300.993C135.856 300.883 135.592 300.86 135.344 300.927C135.097 300.993 134.881 301.147 134.736 301.358C134.68 301.463 134.647 301.579 134.641 301.698C134.635 301.817 134.655 301.936 134.701 302.046C134.746 302.156 134.815 302.255 134.904 302.335C134.992 302.414 135.097 302.474 135.211 302.508L136.727 303.147L136.106 304.042C135.908 304.284 135.643 304.463 135.345 304.557C135.046 304.651 134.727 304.656 134.426 304.571H134.334Z" fill="white"/>
<path d="M232.844 241.504C235.067 244.301 236.679 247.533 237.576 250.992C238.472 254.45 238.633 258.059 238.048 261.583C236.752 272.225 233.391 287.686 235.254 297.342C237.117 306.999 232.095 316.472 227.529 316.655C227.529 316.655 233.136 312.639 232.898 306.743C232.661 300.847 231.072 290.972 231.072 290.972C231.072 290.972 230.287 300.938 223.767 304.717C217.247 308.496 200.993 302.344 195.788 287.102C190.584 271.86 182.238 267.698 178.092 261.09C173.946 254.482 174.165 248.313 184.228 242.38C194.291 236.448 224.187 230.771 232.844 241.504Z" fill="#263238"/>
<path d="M191.935 286.281L187.169 283.762C183.516 289.329 169.217 283.762 169.217 283.762C162.898 272.59 172.595 257.166 172.595 257.166C175.335 262.222 184.776 262.222 186.785 262.131H187.169L191.935 286.281Z" fill="#EEC1BB"/>
<path opacity="0.2" d="M191.935 286.281L187.169 283.762C184.307 282.578 181.26 281.904 178.165 281.772C178.165 281.772 177.398 270.235 185.342 263.062C185.769 262.674 186.256 262.36 186.785 262.131H187.169L191.935 286.281Z" fill="black"/>
<path d="M223.146 237.798C223.146 237.798 240.459 246.195 235.035 260.981C233.497 265.199 230.792 268.894 227.236 271.637C223.68 274.381 219.419 276.059 214.946 276.478L223.146 237.798Z" fill="#263238"/>
<path d="M217.229 243.731C229.502 250.795 229.684 259.648 223.292 272.809C215.311 289.238 205.34 298.492 191.917 286.281C173.691 269.633 196.811 231.994 217.229 243.731Z" fill="#EEC1BB"/>
<path d="M215.749 267.552C215.675 269.954 215.889 272.357 216.389 274.708C215.737 275.006 215.016 275.12 214.304 275.036C213.592 274.952 212.917 274.674 212.353 274.233L215.749 267.552Z" fill="#D4827D"/>
<path d="M208.81 262.331C208.244 263.354 207.239 263.865 206.563 263.5C205.888 263.135 205.778 262.003 206.344 260.981C206.91 259.958 207.897 259.429 208.572 259.794C209.248 260.159 209.358 261.2 208.81 262.331Z" fill="#263238"/>
<path d="M208.262 259.612L210.965 259.94C210.965 259.94 208.847 261.218 208.262 259.612Z" fill="#263238"/>
<path d="M221.63 268.939C221.082 269.962 220.078 270.491 219.402 270.126C218.726 269.761 218.617 268.611 219.165 267.589C219.713 266.566 220.735 266.037 221.411 266.42C222.087 266.804 222.196 267.917 221.63 268.939Z" fill="#263238"/>
<path d="M221.046 266.311L223.749 266.658C223.749 266.658 221.667 267.917 221.046 266.311Z" fill="#263238"/>
<path d="M213.558 253.679C212.658 252.998 211.613 252.535 210.504 252.326C209.395 252.117 208.252 252.168 207.166 252.474" stroke="#263238" stroke-width="0.706754" stroke-linecap="round" stroke-linejoin="round"/>
<path d="M222.872 258.297C223.835 258.567 224.723 259.052 225.47 259.716C226.217 260.381 226.803 261.206 227.182 262.131" stroke="#263238" stroke-width="0.706754" stroke-linecap="round" stroke-linejoin="round"/>
<path d="M191.825 256.709C191.825 256.709 203.386 249.919 206.984 241.632C206.984 241.632 237.062 245.684 224.041 271.075C224.041 271.075 239.053 250.503 218.215 237.871C197.377 225.24 179.644 250.284 185.342 265.763C185.324 265.763 184.703 260.962 191.825 256.709Z" fill="#263238"/>
<path d="M225.758 238.2C225.758 238.2 232.844 242.051 233.94 246.414C235.035 250.777 207.696 256.289 196.209 251.434C196.209 251.434 186.036 258.626 185.251 265.763C185.251 265.763 175.535 256.107 186.475 238.09C197.414 220.074 220.389 225.55 225.758 238.2Z" fill="#263238"/>
<path d="M192.392 260.506C193.092 259.017 193.174 257.311 192.62 255.761C192.066 254.212 190.92 252.944 189.433 252.237C185.379 250.412 179.06 257.239 187.461 264.558C188.666 265.562 190.2 264.668 192.392 260.506Z" fill="#EEC1BB"/>
<path d="M233.83 247.619C233.83 247.619 220.717 260.05 203.678 256.034" stroke="#263238" stroke-width="0.706754" stroke-linecap="round" stroke-linejoin="round"/>
<path d="M203.678 271.659C203.678 271.659 202.655 275.766 207.568 279.873" stroke="#263238" stroke-width="0.706754" stroke-linecap="round" stroke-linejoin="round"/>
<path opacity="0.2" d="M176.266 301.249C167.772 302.203 159.199 302.234 150.698 301.34C149.064 301.802 147.374 302.041 145.676 302.052C144.89 298.714 144.413 295.31 144.251 291.885C143.758 280.64 146.242 260.67 148.963 257.202C151.684 253.734 164.249 258.845 165.728 268.319C165.728 268.319 167.445 293.874 169.728 296.083C171.043 297.251 173.947 299.496 176.266 301.249Z" fill="black"/>
<path d="M156.14 247.619C136.562 250.467 152.049 310.321 156.14 314.41C160.231 318.499 185.032 343.981 185.032 343.981L192.958 335.785C192.958 335.785 170.202 306.725 167.737 303.074C165.271 299.423 165.765 256.855 165.765 256.855C165.765 256.855 166.258 246.159 156.14 247.619Z" fill="#AEAEAE"/>
<path d="M662.731 71.6152H310.808V607.165H662.731V71.6152Z" fill="#828282"/>
<path opacity="0.6" d="M662.731 71.6152H310.808V607.165H662.731V71.6152Z" fill="white"/>
<path opacity="0.2" d="M662.731 71.6152H526.053V607.165H662.731V71.6152Z" fill="#828282"/>
<path opacity="0.2" d="M514.529 358.183H321.108V551.509H514.529V358.183Z" fill="#828282"/>
<path opacity="0.2" d="M514.529 358.183H465.676V551.509H514.529V358.183Z" fill="#828282"/>
<path opacity="0.2" d="M321.108 358.183L377.631 414.66H465.658H514.529V358.183H321.108Z" fill="#828282"/>
<path opacity="0.2" d="M514.529 148.482H321.108V341.809H514.529V148.482Z" fill="#828282"/>
<path d="M509.013 148.482H321.108V341.809H509.013V148.482Z" fill="#828282"/>
<path opacity="0.7" d="M509.013 148.482H321.108V341.809H509.013V148.482Z" fill="white"/>
<path d="M440.857 171.61H373.668V188.933H440.857V171.61Z" fill="white"/>
<path opacity="0.1" d="M470.132 257.604L452.344 234.166H448.801V250.083H444.108L450.153 257.604C450.206 257.676 450.238 257.762 450.247 257.852C450.255 257.941 450.238 258.032 450.199 258.113C450.159 258.193 450.098 258.262 450.022 258.311C449.947 258.359 449.859 258.386 449.769 258.389H399.108C398.663 258.384 398.224 258.278 397.825 258.079C397.426 257.88 397.078 257.592 396.807 257.239L391.328 250.083H371.057L385.667 268.337C385.941 268.674 386.286 268.945 386.678 269.131C387.069 269.317 387.498 269.414 387.931 269.414H467.776C468.541 269.414 469.275 269.11 469.816 268.57C470.358 268.029 470.662 267.295 470.662 266.53V259.32C470.672 258.706 470.487 258.105 470.132 257.604Z" fill="#828282"/>
<path d="M449.951 232.979H354.821C353.258 232.979 351.99 234.246 351.99 235.809V249.645C351.99 251.208 353.258 252.475 354.821 252.475H449.951C451.515 252.475 452.782 251.208 452.782 249.645V235.809C452.782 234.246 451.515 232.979 449.951 232.979Z" fill="#FEDC2E"/>
<path opacity="0.2" d="M427.196 232.979H354.821C353.258 232.979 351.99 234.246 351.99 235.809V249.645C351.99 251.208 353.258 252.475 354.821 252.475H427.196C428.76 252.475 430.027 251.208 430.027 249.645V235.809C430.027 234.246 428.76 232.979 427.196 232.979Z" fill="white"/>
<path d="M379.111 182.124C382.795 180.911 385.907 178.392 387.859 175.042C386.52 175.971 385.422 177.206 384.657 178.644C383.891 180.082 383.48 181.682 383.457 183.311C386.708 183.822 388.169 178.857 391.347 177.98L390.251 182.799C391.076 182.885 391.91 182.791 392.695 182.523C393.48 182.255 394.198 181.82 394.799 181.248C396.037 181.278 397.269 181.061 398.423 180.609C399.577 180.158 400.63 179.482 401.519 178.619C401.217 178.108 400.741 177.721 400.178 177.53C399.615 177.339 399.002 177.357 398.451 177.579L408.77 178.546C408.488 178.476 408.194 178.473 407.912 178.539C407.629 178.605 407.366 178.737 407.145 178.924C406.924 179.111 406.75 179.348 406.639 179.616C406.528 179.884 406.482 180.174 406.505 180.463C406.58 180.76 406.73 181.033 406.939 181.258C407.148 181.482 407.41 181.65 407.701 181.747C407.992 181.843 408.303 181.865 408.604 181.809C408.906 181.754 409.189 181.624 409.427 181.43C409.73 181.188 409.947 180.856 410.048 180.481C410.095 180.157 410.194 179.843 410.34 179.55C410.705 179.039 411.454 179.094 412.057 179.185C418.268 180.155 424.579 180.315 430.831 179.66" stroke="#828282" stroke-width="0.5" stroke-linecap="round" stroke-linejoin="round"/>
<path opacity="0.1" d="M514.529 450.383L526.052 464.712V607.165H353.396L310.808 560.253L514.529 450.383Z" fill="#828282"/>
<path d="M412.148 94.3595H322.313V129.389H412.148V94.3595Z" fill="#828282"/>
<path d="M352.301 94.3595H322.313V129.389H352.301V94.3595Z" fill="white"/>
<path d="M346.566 106.59C345.598 111.92 345.032 114.329 346.767 118.309C348.502 122.288 347.571 123.182 345.653 123.785C343.736 124.387 329.217 128.056 328.084 122.781C326.952 117.505 329.034 117.414 328.084 113.106C327.135 108.798 326.55 103.706 328.231 101.241C329.911 98.777 346.566 106.59 346.566 106.59Z" fill="#828282"/>
<path d="M323.994 125.008C327.653 122.689 331.937 121.548 336.266 121.74C341.33 121.933 346.317 123.04 350.986 125.008V127.582H323.994V125.008Z" fill="#828282"/>
<path d="M341.836 122.872C341.572 123.646 341.139 124.351 340.567 124.935C339.995 125.52 339.299 125.969 338.531 126.249C336.011 125.701 332.395 122.087 332.395 122.087C334.531 120.864 334.111 117.305 333.618 115.151C333.5 114.608 333.353 114.072 333.18 113.544L335.864 113.143L339.827 116.648C339.827 116.648 339.827 116.921 339.681 117.341C339.332 118.725 339.264 120.165 339.48 121.576C339.532 121.738 339.606 121.891 339.7 122.032C339.975 122.318 340.308 122.54 340.676 122.685C341.045 122.83 341.441 122.894 341.836 122.872Z" fill="#EEC1BB"/>
<path opacity="0.2" d="M339.754 121.886C339.308 121.879 338.864 121.805 338.439 121.667C335.901 120.882 334.403 117.341 333.709 115.151C333.531 114.625 333.384 114.088 333.271 113.544L339.773 117.341C339.424 118.725 339.355 120.165 339.572 121.576C339.622 121.685 339.683 121.789 339.754 121.886Z" fill="#828282"/>
<path d="M339.061 98.2111C339.061 98.2111 345.946 97.9921 346.676 103.578C346.898 105.168 346.662 106.789 345.996 108.25C345.329 109.711 344.26 110.953 342.914 111.829L339.061 98.2111Z" fill="#828282"/>
<path d="M338.165 101.077C343.242 101.278 344.758 104.052 344.922 109.291C345.141 115.826 343.516 120.408 337.234 118.765C328.687 116.538 329.746 100.748 338.165 101.077Z" fill="#EEC1BB"/>
<path d="M341.672 108.871C342.042 109.645 342.509 110.369 343.06 111.025C342.903 111.231 342.692 111.389 342.45 111.483C342.208 111.576 341.946 111.601 341.691 111.555L341.672 108.871Z" fill="#D4827D"/>
<path d="M338.586 108.342C338.586 108.762 338.348 109.09 338.056 109.09C337.764 109.09 337.563 108.744 337.563 108.324C337.563 107.904 337.8 107.575 338.093 107.575C338.385 107.575 338.586 107.922 338.586 108.342Z" fill="#828282"/>
<path d="M337.928 107.594L338.841 107.247C338.841 107.247 338.421 108.013 337.928 107.594Z" fill="#828282"/>
<path d="M343.754 108.324C343.754 108.744 343.517 109.09 343.243 109.072C342.969 109.054 342.75 108.725 342.75 108.324C342.75 107.922 342.987 107.575 343.261 107.575C343.535 107.575 343.772 107.922 343.754 108.324Z" fill="#828282"/>
<path d="M343.151 107.594L344.064 107.247C344.064 107.247 343.607 107.995 343.151 107.594Z" fill="#828282"/>
<path d="M336.43 105.75C336.383 105.768 336.331 105.768 336.284 105.75C336.242 105.706 336.218 105.647 336.218 105.586C336.218 105.524 336.242 105.466 336.284 105.421C336.601 105.114 336.987 104.885 337.409 104.755C337.831 104.625 338.278 104.597 338.713 104.673C338.744 104.675 338.774 104.684 338.801 104.698C338.828 104.712 338.852 104.732 338.871 104.756C338.889 104.78 338.903 104.808 338.911 104.838C338.918 104.867 338.919 104.898 338.914 104.929C338.901 104.99 338.866 105.044 338.815 105.081C338.765 105.118 338.703 105.135 338.64 105.129C338.282 105.063 337.912 105.084 337.563 105.188C337.214 105.293 336.894 105.479 336.631 105.732C336.601 105.749 336.568 105.76 336.533 105.763C336.498 105.766 336.463 105.762 336.43 105.75Z" fill="#828282"/>
<path d="M344.357 105.494H344.229C343.978 105.285 343.685 105.134 343.369 105.052C343.053 104.97 342.723 104.959 342.403 105.02C342.344 105.037 342.282 105.032 342.227 105.005C342.173 104.978 342.131 104.931 342.11 104.874C342.093 104.816 342.098 104.753 342.125 104.699C342.152 104.644 342.199 104.602 342.256 104.582C342.644 104.492 343.046 104.493 343.433 104.585C343.819 104.677 344.179 104.857 344.484 105.111C344.523 105.157 344.544 105.215 344.544 105.275C344.544 105.335 344.523 105.394 344.484 105.44C344.449 105.471 344.404 105.49 344.357 105.494Z" fill="#828282"/>
<path d="M332.285 109.401C333.664 107.204 334.456 104.69 334.586 102.099C334.586 102.099 344.795 98.4484 344.905 108.598C344.905 108.598 346.238 99.5802 337.599 99.0508C328.961 98.5214 327.445 109.382 331.792 113.362C331.719 113.362 330.733 111.956 332.285 109.401Z" fill="#828282"/>
<path d="M339.955 97.9008C339.955 97.9008 342.841 97.9008 343.9 99.1421C344.959 100.383 337.234 106.644 332.778 107.009C332.778 107.009 330.751 110.989 331.719 113.362C331.719 113.362 327.043 111.92 327.518 104.381C327.549 102.948 327.964 101.55 328.72 100.333C329.477 99.1158 330.547 98.1241 331.818 97.4618C333.089 96.7994 334.515 96.4907 335.947 96.5679C337.378 96.6451 338.763 97.1055 339.955 97.9008Z" fill="#828282"/>
<path d="M333.088 110.496C333.055 109.91 332.794 109.36 332.36 108.965C331.927 108.569 331.356 108.358 330.769 108.379C329.18 108.488 328.322 111.682 332.193 112.613C332.741 112.741 333.088 112.212 333.088 110.496Z" fill="#EEC1BB"/>
<path d="M335.919 107.466C335.868 107.463 335.818 107.444 335.779 107.411C335.739 107.378 335.712 107.333 335.7 107.283C335.688 107.255 335.684 107.224 335.686 107.193C335.689 107.162 335.698 107.132 335.714 107.106C335.73 107.079 335.752 107.057 335.778 107.04C335.804 107.023 335.833 107.013 335.864 107.009C337.681 106.44 339.345 105.465 340.731 104.159C342.117 102.854 343.188 101.25 343.863 99.4706C343.891 99.4252 343.934 99.3906 343.984 99.3724C344.035 99.3543 344.089 99.3536 344.14 99.3705C344.191 99.3873 344.234 99.4208 344.264 99.4655C344.293 99.5102 344.306 99.5634 344.302 99.6167C343.6 101.469 342.485 103.136 341.042 104.493C339.599 105.85 337.866 106.86 335.974 107.448L335.919 107.466Z" fill="#828282"/>
<path d="M341.124 114.366C340.507 114.306 339.92 114.073 339.43 113.696C338.939 113.318 338.564 112.81 338.348 112.23C338.336 112.172 338.347 112.112 338.377 112.061C338.408 112.011 338.456 111.973 338.512 111.956C338.573 111.939 338.638 111.947 338.692 111.978C338.747 112.009 338.787 112.06 338.804 112.121C338.804 112.121 339.17 113.471 341.233 113.946C341.29 113.963 341.338 114.001 341.369 114.051C341.399 114.102 341.409 114.162 341.398 114.22C341.389 114.247 341.376 114.273 341.357 114.295C341.339 114.318 341.317 114.336 341.291 114.35C341.266 114.363 341.238 114.372 341.209 114.374C341.18 114.377 341.151 114.374 341.124 114.366Z" fill="#828282"/>
<path d="M347.68 118.838C347.631 118.837 347.584 118.82 347.545 118.791C347.506 118.761 347.476 118.72 347.461 118.674C347.353 118.37 347.219 118.077 347.059 117.798C346.275 116.18 346.088 114.338 346.53 112.595V112.248C347.041 108.178 347.607 103.56 344.393 100.712C344.373 100.692 344.356 100.667 344.345 100.641C344.334 100.614 344.329 100.586 344.329 100.557C344.329 100.528 344.334 100.499 344.345 100.473C344.356 100.446 344.373 100.422 344.393 100.402C344.437 100.359 344.496 100.336 344.557 100.336C344.619 100.336 344.678 100.359 344.722 100.402C348.137 103.395 347.534 108.141 347.023 112.321V112.668C346.621 115.881 347.023 116.721 347.516 117.597C347.671 117.904 347.805 118.221 347.918 118.546C347.93 118.573 347.935 118.603 347.935 118.633C347.935 118.663 347.929 118.692 347.917 118.72C347.905 118.747 347.888 118.772 347.866 118.792C347.844 118.812 347.818 118.828 347.79 118.838H347.68Z" fill="#828282"/>
<path d="M383.713 103.395H358.912C358.331 103.395 357.773 103.164 357.362 102.754C356.951 102.343 356.72 101.786 356.72 101.205C356.72 100.918 356.777 100.634 356.887 100.369C356.998 100.105 357.159 99.8643 357.363 99.6623C357.567 99.4604 357.809 99.3007 358.074 99.1926C358.34 99.0846 358.625 99.0301 358.912 99.0325H383.713C384.289 99.0325 384.842 99.2614 385.249 99.6688C385.657 100.076 385.886 100.629 385.886 101.205C385.888 101.492 385.834 101.776 385.726 102.042C385.618 102.307 385.458 102.549 385.256 102.753C385.054 102.956 384.813 103.118 384.548 103.228C384.284 103.338 384 103.395 383.713 103.395Z" fill="white"/>
<path d="M400.88 113.946H358.437C357.982 113.946 357.545 113.765 357.223 113.443C356.901 113.122 356.72 112.685 356.72 112.23C356.705 111.996 356.739 111.761 356.818 111.54C356.898 111.319 357.022 111.116 357.183 110.945C357.344 110.774 357.538 110.638 357.754 110.545C357.969 110.452 358.202 110.404 358.437 110.405H400.88C401.114 110.404 401.347 110.452 401.563 110.545C401.779 110.638 401.973 110.774 402.134 110.945C402.295 111.116 402.419 111.319 402.498 111.54C402.578 111.761 402.611 111.996 402.596 112.23C402.596 112.685 402.415 113.122 402.093 113.443C401.771 113.765 401.335 113.946 400.88 113.946Z" fill="white"/>
<path d="M393.575 120.554H358.437C357.982 120.554 357.545 120.373 357.223 120.051C356.901 119.729 356.72 119.293 356.72 118.838C356.718 118.611 356.761 118.386 356.846 118.176C356.931 117.965 357.057 117.774 357.217 117.613C357.376 117.451 357.566 117.323 357.776 117.236C357.985 117.149 358.21 117.104 358.437 117.104H393.575C393.802 117.104 394.026 117.149 394.236 117.236C394.445 117.323 394.635 117.451 394.795 117.613C394.955 117.774 395.081 117.965 395.166 118.176C395.251 118.386 395.294 118.611 395.291 118.838C395.291 119.293 395.11 119.729 394.788 120.051C394.466 120.373 394.03 120.554 393.575 120.554Z" fill="white"/>
<path d="M499.754 379.357H396.241L395.182 372.676C395.071 371.943 394.696 371.275 394.128 370.798C393.56 370.321 392.837 370.067 392.095 370.084H363.496C362.698 370.105 361.925 370.363 361.275 370.824C360.624 371.286 360.126 371.931 359.843 372.676L357.341 379.357H334.111C331.909 379.399 329.796 380.234 328.161 381.71C326.527 383.186 325.481 385.203 325.217 387.389L311.063 516.991C310.92 518.004 310.999 519.036 311.295 520.016C311.59 520.996 312.094 521.9 312.773 522.665C313.453 523.431 314.29 524.04 315.227 524.45C316.165 524.86 317.181 525.062 318.204 525.041H483.847C486.049 524.995 488.16 524.155 489.791 522.675C491.422 521.196 492.464 519.177 492.723 516.991L506.877 387.389C507.02 386.378 506.941 385.349 506.647 384.371C506.353 383.394 505.849 382.492 505.172 381.728C504.495 380.964 503.659 380.357 502.724 379.947C501.788 379.538 500.775 379.337 499.754 379.357Z" fill="#828282"/>
<path opacity="0.4" d="M499.754 379.357H396.241L395.182 372.676C395.071 371.943 394.696 371.275 394.128 370.798C393.56 370.321 392.837 370.067 392.095 370.084H363.496C362.698 370.105 361.925 370.363 361.275 370.824C360.624 371.286 360.126 371.931 359.843 372.676L357.341 379.357H334.111C331.909 379.399 329.796 380.234 328.161 381.71C326.527 383.186 325.481 385.203 325.217 387.389L311.063 516.991C310.92 518.004 310.999 519.036 311.295 520.016C311.59 520.996 312.094 521.9 312.773 522.665C313.453 523.431 314.29 524.04 315.227 524.45C316.165 524.86 317.181 525.062 318.204 525.041H483.847C486.049 524.995 488.16 524.155 489.791 522.675C491.422 521.196 492.464 519.177 492.723 516.991L506.877 387.389C507.02 386.378 506.941 385.349 506.647 384.371C506.353 383.394 505.849 382.492 505.172 381.728C504.495 380.964 503.659 380.357 502.724 379.947C501.788 379.538 500.775 379.337 499.754 379.357Z" fill="#828282"/>
<path d="M311.337 520.076L316.889 385.326H495.974L487.062 517.119L311.337 520.076Z" fill="#828282"/>
<path opacity="0.7" d="M311.337 520.076L316.889 385.326H495.974L487.062 517.119L311.337 520.076Z" fill="white"/>
<path d="M481.546 525.552H315.885C314.87 525.584 313.858 525.415 312.909 525.054C311.959 524.694 311.09 524.149 310.352 523.452C309.614 522.755 309.021 521.919 308.607 520.992C308.193 520.065 307.966 519.065 307.94 518.05L308.945 397.173C309.026 395.113 309.918 393.169 311.426 391.764C312.935 390.359 314.938 389.606 316.999 389.671H482.66C483.675 389.639 484.687 389.808 485.636 390.169C486.586 390.529 487.455 391.074 488.193 391.771C488.931 392.468 489.524 393.304 489.938 394.231C490.352 395.158 490.578 396.158 490.604 397.173L489.618 518.05C489.528 520.109 488.631 522.051 487.12 523.455C485.61 524.858 483.608 525.612 481.546 525.552Z" fill="#828282"/>
<path opacity="0.25" d="M481.546 525.552H315.885C314.87 525.584 313.858 525.415 312.909 525.054C311.959 524.694 311.09 524.149 310.352 523.452C309.614 522.755 309.021 521.919 308.607 520.992C308.193 520.065 307.966 519.065 307.94 518.05L308.945 397.173C309.026 395.113 309.918 393.169 311.426 391.764C312.935 390.359 314.938 389.606 316.999 389.671H482.66C483.675 389.639 484.687 389.808 485.636 390.169C486.586 390.529 487.455 391.074 488.193 391.771C488.931 392.468 489.524 393.304 489.938 394.231C490.352 395.158 490.578 396.158 490.604 397.173L489.618 518.05C489.528 520.109 488.631 522.051 487.12 523.455C485.61 524.858 483.608 525.612 481.546 525.552Z" fill="#828282"/>
<path opacity="0.15" d="M415.07 389.671L418.43 512.3H327.792L322.533 389.671H415.07Z" fill="#828282"/>
<path d="M388.296 375.25H284.783L282.957 368.606C282.763 367.863 282.328 367.205 281.72 366.736C281.111 366.267 280.365 366.013 279.597 366.014H251.052C250.284 366.013 249.537 366.267 248.929 366.736C248.321 367.205 247.886 367.863 247.692 368.606L245.865 375.25H222.653C220.532 375.25 218.497 376.093 216.997 377.592C215.497 379.091 214.654 381.125 214.654 383.245V512.191C214.654 514.311 215.497 516.345 216.997 517.844C218.497 519.344 220.532 520.186 222.653 520.186H388.296C390.42 520.186 392.456 519.344 393.959 517.845C395.462 516.346 396.309 514.313 396.314 512.191V383.245C396.309 381.123 395.462 379.09 393.959 377.591C392.456 376.092 390.42 375.25 388.296 375.25Z" fill="#828282"/>
<path opacity="0.15" d="M388.296 375.25H284.783L282.957 368.606C282.763 367.863 282.328 367.205 281.72 366.736C281.111 366.267 280.365 366.013 279.597 366.014H251.052C250.284 366.013 249.537 366.267 248.929 366.736C248.321 367.205 247.886 367.863 247.692 368.606L245.865 375.25H222.653C220.532 375.25 218.497 376.093 216.997 377.592C215.497 379.091 214.654 381.125 214.654 383.245V512.191C214.654 514.311 215.497 516.345 216.997 517.844C218.497 519.344 220.532 520.186 222.653 520.186H388.296C390.42 520.186 392.456 519.344 393.959 517.845C395.462 516.346 396.309 514.313 396.314 512.191V383.245C396.309 381.123 395.462 379.09 393.959 377.591C392.456 376.092 390.42 375.25 388.296 375.25Z" fill="#828282"/>
<path d="M215.257 515.257L206.089 381.183H385.174L390.653 512.3L215.257 515.257Z" fill="#828282"/>
<path opacity="0.8" d="M215.257 515.257L206.089 381.183H385.174L390.653 512.3L215.257 515.257Z" fill="white"/>
<path d="M386.05 520.697H220.407C218.292 520.716 216.24 519.972 214.63 518.6C213.019 517.228 211.958 515.322 211.641 513.231L199.424 392.974C199.337 391.986 199.466 390.991 199.8 390.058C200.134 389.124 200.666 388.273 201.36 387.564C202.054 386.855 202.893 386.304 203.82 385.95C204.746 385.595 205.738 385.444 206.729 385.509H372.39C374.505 385.486 376.556 386.23 378.164 387.602C379.772 388.975 380.829 390.883 381.138 392.974L393.356 513.231C393.442 514.219 393.313 515.214 392.979 516.148C392.645 517.082 392.113 517.932 391.419 518.641C390.725 519.35 389.886 519.901 388.96 520.256C388.033 520.611 387.041 520.761 386.05 520.697Z" fill="#828282"/>
<path d="M342.896 476.376L514.529 450.383V543.788L355.46 574.217L342.896 476.376Z" fill="#828282"/>
<path opacity="0.5" d="M342.896 476.376L514.529 450.383V543.788L355.46 574.217L342.896 476.376Z" fill="white"/>
<path opacity="0.7" d="M342.896 476.376L345.306 479.023L514.529 453.011V450.383L342.896 476.376Z" fill="white"/>
<path opacity="0.2" d="M371.057 472.123L378.8 473.876L385.174 568.54L355.46 574.217L342.896 476.376L371.057 472.123Z" fill="#828282"/>
<path d="M371.057 586.52H177.654L165.491 396.078H358.912L371.057 586.52Z" fill="#828282"/>
<path opacity="0.7" d="M371.057 586.52H177.654L165.491 396.078H358.912L371.057 586.52Z" fill="white"/>
<path opacity="0.2" d="M371.057 586.52H365.56L353.396 396.078H358.912L371.057 586.52Z" fill="#828282"/>
<path d="M287.778 435.944H220.59L219.512 418.859H286.701L287.778 435.944Z" fill="white"/>
<path opacity="0.1" d="M321.382 503.575L302.115 480.484H298.572L299.576 496.164H294.882L301.384 503.575C301.444 503.639 301.484 503.72 301.499 503.807C301.514 503.894 301.504 503.984 301.469 504.065C301.434 504.146 301.377 504.215 301.303 504.264C301.23 504.313 301.144 504.34 301.055 504.341H250.394C249.94 504.335 249.493 504.231 249.083 504.036C248.673 503.84 248.311 503.559 248.02 503.21L242.14 496.164H221.832L237.647 514.18C237.935 514.514 238.291 514.783 238.691 514.968C239.091 515.154 239.525 515.253 239.966 515.257H319.829C320.198 515.263 320.565 515.192 320.905 515.049C321.245 514.906 321.552 514.694 321.807 514.427C322.061 514.159 322.256 513.841 322.381 513.494C322.506 513.147 322.558 512.778 322.532 512.41L322.076 505.309C322.029 504.673 321.787 504.067 321.382 503.575Z" fill="#828282"/>
<path d="M300.873 498.537H205.742C204.984 498.53 204.256 498.239 203.702 497.722C203.147 497.205 202.807 496.5 202.747 495.744L201.871 482.108C201.845 481.748 201.895 481.387 202.018 481.047C202.14 480.707 202.332 480.397 202.581 480.136C202.83 479.875 203.132 479.668 203.465 479.53C203.799 479.392 204.158 479.325 204.519 479.334H299.576C300.334 479.34 301.062 479.627 301.619 480.14C302.176 480.653 302.522 481.354 302.59 482.108L303.448 495.744C303.476 496.099 303.43 496.457 303.313 496.793C303.196 497.13 303.011 497.439 302.77 497.701C302.528 497.964 302.235 498.173 301.908 498.317C301.582 498.46 301.23 498.535 300.873 498.537Z" fill="#FEDC2E"/>
<path opacity="0.2" d="M278.118 498.537H205.742C204.984 498.53 204.256 498.239 203.702 497.722C203.147 497.205 202.807 496.499 202.747 495.744L201.871 482.108C201.845 481.748 201.895 481.387 202.018 481.047C202.14 480.707 202.332 480.397 202.581 480.136C202.83 479.875 203.132 479.668 203.465 479.53C203.799 479.392 204.158 479.325 204.519 479.334H276.894C277.651 479.336 278.379 479.623 278.934 480.137C279.488 480.651 279.83 481.354 279.889 482.108L280.766 495.744C280.791 496.105 280.741 496.467 280.619 496.808C280.497 497.148 280.305 497.46 280.056 497.722C279.807 497.985 279.506 498.193 279.173 498.333C278.839 498.473 278.48 498.543 278.118 498.537Z" fill="white"/>
<path d="M226.251 427.42C227.506 427.833 228.858 427.849 230.122 427.467C231.387 427.085 232.503 426.323 233.319 425.284C233.319 426.726 232.899 428.588 232.99 430.231C234.281 428.935 235.332 427.421 236.095 425.758C234.743 428.734 238.286 429.409 240.368 428.424C241.059 428.108 241.651 427.61 242.079 426.982C242.507 426.355 242.756 425.622 242.797 424.864C242.797 424.389 242.596 423.805 242.121 423.714C241.646 423.623 241.281 424.024 241.044 424.408C240.204 425.704 239.218 429.281 241.263 429.72C243.308 430.158 245.683 426.708 246.23 425.302C245.677 425.58 245.22 426.018 244.917 426.557C244.615 427.097 244.48 427.715 244.532 428.332C246.65 428.241 249.554 428.752 249.682 425.904C249.499 429.665 253.079 428.387 254.394 425.904C253.974 427.237 255.964 427.912 257.352 427.894L275.999 427.474" stroke="#828282" stroke-width="0.5" stroke-linecap="round" stroke-linejoin="round"/>
</svg>
