<svg width="589" height="520" viewBox="0 0 589 520" fill="none" xmlns="http://www.w3.org/2000/svg">
<path d="M374.453 101.319C342.4 76.955 284.666 75.8711 247.748 107.091C206.977 141.575 204.397 204.452 163.203 235.696C121.325 267.505 72.4966 252.119 67.3252 330.393C63.3553 390.713 109.898 390.831 148.855 398.336C218.816 411.802 347.065 477.8 409.817 380.098C481.286 268.836 446.311 155.948 374.453 101.319Z" fill="#CFCFCF"/>
<path opacity="0.9" d="M374.453 101.319C342.4 76.955 284.666 75.8711 247.748 107.091C206.977 141.575 204.397 204.452 163.203 235.696C121.325 267.505 72.4966 252.119 67.3252 330.393C63.3553 390.713 109.898 390.831 148.855 398.336C218.816 411.802 347.065 477.8 409.817 380.098C481.286 268.836 446.311 155.948 374.453 101.319Z" fill="white"/>
<path d="M294.498 503.719C420.642 503.719 522.901 497.748 522.901 490.383C522.901 483.017 420.642 477.046 294.498 477.046C168.355 477.046 66.0959 483.017 66.0959 490.383C66.0959 497.748 168.355 503.719 294.498 503.719Z" fill="#F5F5F5"/>
<path d="M473.448 368.058H445.176V366.88H473.448C476.773 366.811 480.021 365.864 482.862 364.134C485.703 362.404 488.035 359.954 489.622 357.031L490.659 357.596C488.97 360.705 486.487 363.311 483.464 365.148C480.441 366.986 476.985 367.99 473.448 368.058Z" fill="#CFCFCF"/>
<path d="M439.581 366.88H428.001V368.058H439.581V366.88Z" fill="#CFCFCF"/>
<path d="M473.449 363.935H142.667C140.853 363.97 139.053 363.619 137.386 362.905C135.718 362.19 134.222 361.129 132.996 359.792C131.771 358.455 130.844 356.872 130.277 355.148C129.71 353.425 129.516 351.601 129.709 349.797L147.579 144.803C147.979 140.989 149.754 137.45 152.572 134.848C155.39 132.246 159.059 130.76 162.893 130.666H493.676C495.489 130.633 497.288 130.985 498.955 131.7C500.621 132.415 502.117 133.476 503.342 134.813C504.567 136.15 505.494 137.732 506.062 139.454C506.629 141.177 506.824 143 506.634 144.803L488.869 349.797C488.467 353.63 486.678 357.183 483.837 359.787C480.997 362.391 477.302 363.866 473.449 363.935Z" fill="#CFCFCF"/>
<path d="M466.559 359.634H144.022C142.478 359.657 140.947 359.351 139.53 358.736C138.113 358.122 136.843 357.212 135.805 356.069C134.766 354.926 133.983 353.575 133.507 352.105C133.031 350.636 132.873 349.082 133.044 347.547L149.323 160.802C149.421 159.866 149.856 158.998 150.548 158.36C151.24 157.723 152.141 157.359 153.081 157.338H492.781C493.225 157.331 493.664 157.418 494.072 157.593C494.479 157.769 494.844 158.029 495.142 158.357C495.441 158.685 495.667 159.072 495.804 159.494C495.941 159.915 495.987 160.361 495.938 160.802L479.647 347.547C479.317 350.812 477.803 353.844 475.393 356.07C472.982 358.297 469.84 359.565 466.559 359.634Z" fill="white"/>
<path d="M185.134 148.043C182.909 148.081 180.701 147.645 178.657 146.765C176.613 145.884 174.78 144.579 173.28 142.935C171.779 141.292 170.645 139.348 169.953 137.232C169.261 135.117 169.027 132.879 169.266 130.666C169.75 125.97 171.933 121.612 175.404 118.412C178.875 115.212 183.395 113.39 188.114 113.289C190.339 113.25 192.546 113.686 194.589 114.567C196.633 115.448 198.465 116.753 199.965 118.397C201.465 120.041 202.597 121.985 203.288 124.1C203.979 126.216 204.211 128.454 203.97 130.666H196.902C197.044 129.352 196.905 128.023 196.494 126.768C196.083 125.512 195.41 124.358 194.518 123.383C193.627 122.407 192.538 121.633 191.324 121.112C190.11 120.59 188.799 120.333 187.478 120.357C184.672 120.409 181.982 121.486 179.916 123.385C177.85 125.284 176.551 127.874 176.263 130.666C176.121 131.98 176.26 133.308 176.671 134.564C177.082 135.82 177.756 136.974 178.647 137.949C179.539 138.924 180.628 139.698 181.842 140.22C183.055 140.742 184.366 140.999 185.687 140.974L185.134 148.043Z" fill="#263238"/>
<path d="M255.048 148.043C252.819 148.088 250.606 147.657 248.557 146.779C246.507 145.902 244.668 144.597 243.162 142.953C241.656 141.309 240.518 139.362 239.823 137.244C239.129 135.125 238.893 132.883 239.133 130.666C239.617 125.97 241.8 121.612 245.271 118.412C248.742 115.212 253.262 113.39 257.981 113.289C260.206 113.25 262.413 113.686 264.456 114.567C266.5 115.448 268.332 116.753 269.832 118.397C271.332 120.041 272.465 121.985 273.155 124.1C273.846 126.216 274.078 128.454 273.837 130.666H266.769C266.912 129.352 266.773 128.023 266.362 126.768C265.951 125.512 265.277 124.358 264.385 123.383C263.494 122.407 262.405 121.633 261.191 121.112C259.977 120.59 258.666 120.333 257.345 120.357C254.539 120.409 251.85 121.486 249.783 123.385C247.717 125.284 246.418 127.874 246.131 130.666C245.99 131.979 246.13 133.307 246.542 134.562C246.954 135.817 247.628 136.97 248.519 137.945C249.41 138.92 250.498 139.694 251.711 140.216C252.924 140.739 254.234 140.997 255.555 140.974L255.048 148.043Z" fill="#263238"/>
<path d="M324.962 148.043C322.738 148.079 320.532 147.642 318.489 146.761C316.447 145.879 314.615 144.574 313.116 142.931C311.617 141.287 310.484 139.344 309.792 137.229C309.101 135.115 308.867 132.878 309.106 130.666C309.586 125.968 311.767 121.607 315.239 118.406C318.711 115.205 323.233 113.385 327.954 113.289C330.179 113.25 332.386 113.686 334.43 114.567C336.473 115.448 338.305 116.753 339.805 118.397C341.305 120.041 342.438 121.985 343.128 124.1C343.819 126.216 344.051 128.454 343.81 130.666H336.742C336.887 129.352 336.749 128.022 336.339 126.765C335.929 125.509 335.255 124.354 334.363 123.379C333.471 122.403 332.381 121.629 331.167 121.108C329.952 120.587 328.64 120.331 327.318 120.357C324.514 120.409 321.825 121.486 319.761 123.386C317.697 125.285 316.4 127.875 316.116 130.666C315.973 131.98 316.112 133.308 316.523 134.564C316.934 135.82 317.608 136.974 318.499 137.949C319.391 138.924 320.48 139.698 321.694 140.22C322.907 140.742 324.219 140.999 325.54 140.974L324.962 148.043Z" fill="#263238"/>
<path d="M394.877 148.043C392.653 148.079 390.447 147.642 388.404 146.761C386.362 145.88 384.53 144.574 383.031 142.931C381.532 141.287 380.399 139.344 379.707 137.229C379.016 135.115 378.782 132.878 379.021 130.666C379.503 125.969 381.685 121.61 385.156 118.409C388.628 115.209 393.149 113.387 397.869 113.289C400.094 113.251 402.302 113.686 404.346 114.567C406.39 115.448 408.223 116.753 409.724 118.397C411.224 120.04 412.358 121.984 413.05 124.099C413.742 126.215 413.976 128.453 413.737 130.666H406.669C406.811 129.352 406.672 128.023 406.261 126.768C405.85 125.512 405.177 124.358 404.285 123.383C403.394 122.407 402.305 121.633 401.091 121.112C399.877 120.59 398.566 120.333 397.245 120.357C394.441 120.409 391.752 121.486 389.688 123.386C387.624 125.285 386.327 127.875 386.042 130.666C385.9 131.98 386.039 133.308 386.45 134.564C386.861 135.82 387.535 136.974 388.426 137.949C389.318 138.924 390.406 139.698 391.62 140.22C392.834 140.742 394.145 140.999 395.466 140.974L394.877 148.043Z" fill="#263238"/>
<path d="M464.789 148.043C462.565 148.079 460.359 147.642 458.316 146.761C456.274 145.879 454.442 144.574 452.943 142.931C451.444 141.287 450.311 139.344 449.619 137.229C448.928 135.115 448.694 132.878 448.933 130.666C449.415 125.969 451.597 121.61 455.068 118.409C458.54 115.209 463.061 113.387 467.781 113.289C470.006 113.251 472.214 113.686 474.258 114.567C476.302 115.448 478.135 116.753 479.635 118.397C481.136 120.04 482.27 121.984 482.962 124.099C483.654 126.215 483.888 128.453 483.649 130.666H476.581C476.723 129.352 476.584 128.023 476.173 126.767C475.762 125.512 475.089 124.358 474.197 123.383C473.306 122.407 472.217 121.633 471.003 121.112C469.789 120.59 468.478 120.333 467.157 120.357C464.353 120.412 461.666 121.49 459.603 123.389C457.539 125.288 456.241 127.876 455.954 130.666C455.812 131.98 455.951 133.308 456.362 134.564C456.773 135.82 457.446 136.974 458.338 137.949C459.229 138.924 460.318 139.698 461.532 140.22C462.746 140.742 464.057 140.999 465.378 140.974L464.789 148.043Z" fill="#263238"/>
<path d="M465.71 351.164H146.861C146.785 351.166 146.71 351.152 146.641 351.122C146.571 351.093 146.509 351.048 146.459 350.992C146.408 350.936 146.371 350.87 146.349 350.798C146.326 350.725 146.32 350.649 146.331 350.575L162.222 168.366C162.236 168.206 162.309 168.058 162.427 167.949C162.544 167.841 162.698 167.779 162.858 167.777H481.695C481.771 167.775 481.847 167.789 481.917 167.818C481.986 167.848 482.049 167.892 482.101 167.948C482.152 168.004 482.191 168.07 482.214 168.142C482.238 168.214 482.246 168.29 482.237 168.366L466.346 350.575C466.332 350.734 466.258 350.882 466.141 350.991C466.024 351.1 465.87 351.161 465.71 351.164ZM147.556 349.986H465.215L481.012 168.955H163.353L147.556 349.986Z" fill="#E0E0E0"/>
<path d="M468.843 314.724H150.04C149.965 314.725 149.891 314.709 149.823 314.679C149.754 314.649 149.693 314.605 149.643 314.549C149.593 314.493 149.555 314.428 149.532 314.356C149.509 314.285 149.502 314.21 149.51 314.135C149.522 313.975 149.594 313.825 149.712 313.716C149.83 313.606 149.985 313.546 150.146 313.546H468.984C469.06 313.544 469.135 313.558 469.205 313.588C469.275 313.617 469.338 313.661 469.389 313.717C469.44 313.773 469.479 313.839 469.503 313.911C469.526 313.984 469.534 314.06 469.526 314.135C469.505 314.301 469.424 314.453 469.298 314.562C469.172 314.671 469.009 314.729 468.843 314.724Z" fill="#E0E0E0"/>
<path d="M472.058 278.285H153.22C153.145 278.285 153.07 278.27 153.001 278.239C152.932 278.209 152.87 278.165 152.819 278.11C152.768 278.054 152.73 277.989 152.705 277.918C152.681 277.846 152.672 277.771 152.678 277.696C152.696 277.535 152.771 277.387 152.891 277.278C153.01 277.17 153.165 277.109 153.326 277.107H472.164C472.24 277.104 472.315 277.119 472.385 277.148C472.455 277.178 472.518 277.222 472.569 277.278C472.62 277.333 472.659 277.4 472.683 277.472C472.706 277.544 472.714 277.62 472.706 277.696C472.686 277.855 472.61 278.002 472.491 278.11C472.372 278.218 472.218 278.28 472.058 278.285Z" fill="#E0E0E0"/>
<path d="M475.24 241.834H156.402C156.326 241.836 156.251 241.822 156.181 241.792C156.111 241.763 156.048 241.719 155.997 241.663C155.946 241.607 155.907 241.541 155.883 241.469C155.86 241.397 155.852 241.32 155.86 241.245C155.88 241.085 155.956 240.938 156.075 240.83C156.194 240.722 156.348 240.66 156.508 240.656H475.346C475.421 240.655 475.495 240.671 475.563 240.701C475.632 240.731 475.693 240.776 475.743 240.831C475.793 240.887 475.831 240.952 475.854 241.024C475.877 241.095 475.884 241.17 475.876 241.245C475.864 241.405 475.792 241.555 475.674 241.664C475.556 241.774 475.401 241.834 475.24 241.834Z" fill="#E0E0E0"/>
<path d="M478.422 205.395H159.584C159.508 205.397 159.433 205.383 159.363 205.353C159.293 205.324 159.23 205.28 159.179 205.224C159.128 205.168 159.089 205.102 159.065 205.03C159.042 204.958 159.034 204.881 159.042 204.806C159.057 204.646 159.13 204.498 159.247 204.389C159.365 204.28 159.518 204.219 159.678 204.217H478.528C478.603 204.214 478.678 204.228 478.748 204.258C478.817 204.288 478.879 204.332 478.93 204.388C478.98 204.444 479.018 204.511 479.04 204.583C479.062 204.655 479.068 204.731 479.058 204.806C479.046 204.966 478.974 205.116 478.856 205.225C478.738 205.335 478.583 205.395 478.422 205.395Z" fill="#E0E0E0"/>
<path d="M425.847 351.164C425.771 351.166 425.696 351.152 425.627 351.122C425.557 351.093 425.495 351.048 425.445 350.992C425.394 350.936 425.356 350.87 425.334 350.798C425.312 350.725 425.306 350.649 425.316 350.575L441.208 168.366C441.222 168.206 441.295 168.058 441.413 167.949C441.53 167.841 441.684 167.779 441.844 167.777C441.92 167.775 441.995 167.789 442.065 167.818C442.135 167.848 442.198 167.892 442.249 167.948C442.3 168.004 442.339 168.07 442.363 168.142C442.386 168.214 442.394 168.29 442.386 168.366L426.494 350.575C426.477 350.735 426.402 350.884 426.282 350.992C426.163 351.101 426.008 351.162 425.847 351.164Z" fill="#E0E0E0"/>
<path d="M385.997 351.164C385.922 351.166 385.846 351.152 385.776 351.123C385.706 351.093 385.644 351.049 385.592 350.993C385.541 350.937 385.502 350.871 385.479 350.799C385.455 350.727 385.447 350.65 385.456 350.575L401.347 168.366C401.364 168.206 401.44 168.057 401.559 167.949C401.678 167.84 401.833 167.779 401.995 167.777C402.07 167.775 402.145 167.789 402.215 167.818C402.284 167.848 402.346 167.892 402.397 167.949C402.447 168.005 402.485 168.071 402.507 168.143C402.529 168.215 402.535 168.292 402.525 168.366L386.634 350.575C386.622 350.735 386.549 350.885 386.431 350.995C386.313 351.104 386.158 351.164 385.997 351.164Z" fill="#E0E0E0"/>
<path d="M346.143 351.164C346.067 351.166 345.991 351.152 345.921 351.122C345.852 351.093 345.789 351.049 345.737 350.993C345.686 350.937 345.647 350.871 345.624 350.798C345.6 350.726 345.592 350.65 345.601 350.575L361.492 168.366C361.509 168.205 361.585 168.057 361.704 167.948C361.824 167.84 361.979 167.779 362.14 167.777C362.215 167.774 362.29 167.788 362.36 167.818C362.429 167.848 362.491 167.892 362.542 167.948C362.592 168.004 362.63 168.071 362.652 168.143C362.674 168.215 362.68 168.291 362.67 168.366L346.779 350.575C346.764 350.734 346.691 350.882 346.574 350.991C346.456 351.1 346.303 351.161 346.143 351.164Z" fill="#E0E0E0"/>
<path d="M306.28 351.164C306.204 351.166 306.129 351.152 306.059 351.122C305.989 351.093 305.926 351.049 305.875 350.993C305.823 350.937 305.784 350.871 305.761 350.799C305.737 350.726 305.729 350.65 305.738 350.575L321.594 168.366C321.608 168.206 321.681 168.058 321.799 167.949C321.916 167.841 322.07 167.779 322.23 167.777C322.306 167.775 322.381 167.789 322.451 167.818C322.521 167.848 322.584 167.892 322.635 167.948C322.686 168.004 322.725 168.07 322.749 168.142C322.772 168.214 322.78 168.29 322.772 168.366L306.928 350.575C306.913 350.736 306.838 350.886 306.718 350.995C306.598 351.104 306.442 351.164 306.28 351.164Z" fill="#E0E0E0"/>
<path d="M266.426 351.164C266.35 351.166 266.275 351.152 266.206 351.123C266.137 351.093 266.074 351.049 266.024 350.993C265.974 350.937 265.936 350.87 265.914 350.798C265.892 350.726 265.885 350.65 265.896 350.575L281.787 168.366C281.799 168.206 281.871 168.056 281.989 167.947C282.107 167.837 282.262 167.777 282.423 167.777C282.499 167.775 282.574 167.789 282.644 167.819C282.714 167.848 282.777 167.892 282.828 167.948C282.88 168.004 282.918 168.07 282.942 168.142C282.966 168.214 282.973 168.291 282.965 168.366L267.074 350.575C267.057 350.735 266.981 350.884 266.862 350.992C266.742 351.101 266.587 351.162 266.426 351.164Z" fill="#E0E0E0"/>
<path d="M226.576 351.164C226.501 351.166 226.425 351.152 226.355 351.122C226.285 351.093 226.223 351.049 226.171 350.993C226.12 350.937 226.081 350.871 226.057 350.798C226.034 350.726 226.026 350.65 226.034 350.575L241.926 168.366C241.943 168.205 242.018 168.057 242.138 167.948C242.257 167.84 242.412 167.779 242.574 167.777C242.649 167.774 242.724 167.788 242.794 167.818C242.863 167.848 242.925 167.892 242.976 167.948C243.026 168.004 243.064 168.071 243.086 168.143C243.108 168.215 243.114 168.291 243.104 168.366L227.212 350.575C227.201 350.735 227.128 350.885 227.01 350.994C226.892 351.104 226.737 351.164 226.576 351.164Z" fill="#E0E0E0"/>
<path d="M186.726 351.164C186.65 351.166 186.574 351.152 186.505 351.123C186.435 351.093 186.372 351.049 186.321 350.993C186.269 350.937 186.23 350.871 186.207 350.799C186.183 350.727 186.175 350.65 186.184 350.575L202.075 168.366C202.092 168.206 202.168 168.057 202.287 167.949C202.407 167.84 202.562 167.779 202.723 167.777C202.798 167.775 202.873 167.789 202.943 167.818C203.012 167.848 203.074 167.892 203.125 167.949C203.175 168.005 203.213 168.071 203.235 168.143C203.257 168.215 203.263 168.292 203.253 168.366L187.362 350.575C187.347 350.734 187.274 350.883 187.157 350.992C187.039 351.1 186.886 351.162 186.726 351.164Z" fill="#E0E0E0"/>
<path d="M348.297 237.604H323.948C323.465 237.612 322.987 237.517 322.545 237.326C322.102 237.134 321.706 236.851 321.381 236.494C321.057 236.137 320.812 235.716 320.664 235.257C320.515 234.798 320.466 234.313 320.52 233.834L322.404 212.215C322.505 211.195 322.977 210.247 323.731 209.552C324.484 208.857 325.467 208.463 326.492 208.445H350.841C351.324 208.436 351.804 208.529 352.248 208.72C352.692 208.91 353.09 209.194 353.416 209.55C353.741 209.907 353.987 210.33 354.136 210.789C354.285 211.249 354.335 211.735 354.281 212.215L352.396 233.834C352.295 234.856 351.821 235.805 351.065 236.501C350.309 237.196 349.324 237.589 348.297 237.604Z" fill="#CFCFCF"/>
<path opacity="0.6" d="M348.297 237.604H323.948C323.465 237.612 322.987 237.517 322.545 237.326C322.102 237.134 321.706 236.851 321.381 236.494C321.057 236.137 320.812 235.716 320.664 235.257C320.515 234.798 320.466 234.313 320.52 233.834L322.404 212.215C322.505 211.195 322.977 210.247 323.731 209.552C324.484 208.857 325.467 208.463 326.492 208.445H350.841C351.324 208.436 351.804 208.529 352.248 208.72C352.692 208.91 353.09 209.194 353.416 209.55C353.741 209.907 353.987 210.33 354.136 210.789C354.285 211.249 354.335 211.735 354.281 212.215L352.396 233.834C352.295 234.856 351.821 235.805 351.065 236.501C350.309 237.196 349.324 237.589 348.297 237.604Z" fill="white"/>
<path d="M518.191 237.604H492.593L495.126 208.446H520.735L511.111 223.031L518.191 237.604Z" fill="white"/>
<path d="M519.142 238.193H491.942L494.593 207.856H521.852L511.851 223.031L519.142 238.193ZM493.226 237.015H517.222L510.425 223.031L519.661 209.035H495.665L493.226 237.015Z" fill="#CFCFCF"/>
<path d="M424.597 274.044H400.248C399.766 274.053 399.288 273.96 398.845 273.77C398.402 273.58 398.004 273.298 397.679 272.942C397.353 272.587 397.107 272.166 396.957 271.708C396.807 271.249 396.756 270.765 396.808 270.285L398.693 248.655C398.8 247.636 399.275 246.691 400.03 245.999C400.786 245.306 401.768 244.914 402.793 244.897H427.142C427.623 244.889 428.101 244.984 428.543 245.174C428.985 245.365 429.382 245.647 429.707 246.002C430.032 246.357 430.278 246.777 430.429 247.235C430.58 247.692 430.632 248.176 430.582 248.655L428.697 270.285C428.591 271.304 428.115 272.249 427.36 272.942C426.604 273.634 425.622 274.026 424.597 274.044Z" fill="#CFCFCF"/>
<path opacity="0.4" d="M424.597 274.044H400.248C399.766 274.053 399.288 273.96 398.845 273.77C398.402 273.58 398.004 273.298 397.679 272.942C397.353 272.587 397.107 272.166 396.957 271.708C396.807 271.249 396.756 270.765 396.808 270.285L398.693 248.655C398.8 247.636 399.275 246.691 400.03 245.999C400.786 245.306 401.768 244.914 402.793 244.897H427.142C427.623 244.889 428.101 244.984 428.543 245.174C428.985 245.365 429.382 245.647 429.707 246.002C430.032 246.357 430.278 246.777 430.429 247.235C430.58 247.692 430.632 248.176 430.582 248.655L428.697 270.285C428.591 271.304 428.115 272.249 427.36 272.942C426.604 273.634 425.622 274.026 424.597 274.044Z" fill="white"/>
<path d="M471.257 201.165H406.609C406.126 201.175 405.646 201.081 405.202 200.891C404.758 200.7 404.36 200.417 404.034 200.06C403.709 199.703 403.463 199.281 403.314 198.821C403.165 198.361 403.115 197.875 403.169 197.395L405.054 175.776C405.155 174.756 405.627 173.809 406.38 173.114C407.134 172.419 408.117 172.025 409.141 172.006H473.802C474.284 171.999 474.763 172.094 475.206 172.285C475.649 172.476 476.046 172.759 476.372 173.116C476.697 173.472 476.943 173.894 477.093 174.353C477.243 174.811 477.293 175.297 477.242 175.776L475.357 197.395C475.256 198.417 474.782 199.367 474.026 200.062C473.27 200.757 472.284 201.15 471.257 201.165Z" fill="#CFCFCF"/>
<path d="M213.359 232.68C203.534 232.68 195.347 229.204 189.54 222.548C182.083 213.983 180.964 203.356 186.606 194.803C194.982 182.138 216.81 175.388 231.17 177.261C231.245 177.27 231.317 177.296 231.382 177.335C231.447 177.374 231.503 177.427 231.546 177.489C231.589 177.551 231.619 177.621 231.634 177.696C231.648 177.77 231.647 177.847 231.629 177.921C231.593 178.076 231.501 178.214 231.371 178.307C231.241 178.4 231.082 178.443 230.923 178.427C216.916 176.601 195.689 183.14 187.584 195.392C181.199 205.053 184.886 215.326 190.47 221.735C198.257 230.665 208.871 231.926 216.386 231.396C230.746 230.394 246.472 222.183 255.531 210.967C258.064 207.833 261.951 201.813 259.572 196.83C256.038 189.372 244.258 189.89 234.433 191.163C234.359 191.173 234.284 191.167 234.212 191.146C234.14 191.126 234.074 191.091 234.016 191.043C233.959 190.996 233.912 190.937 233.878 190.87C233.844 190.803 233.825 190.731 233.821 190.656C233.816 190.496 233.872 190.339 233.976 190.217C234.081 190.096 234.227 190.017 234.386 189.996C240.959 189.136 256.344 187.145 260.644 196.264C263.306 201.872 259.136 208.352 256.426 211.721C247.155 223.196 231.052 231.608 216.374 232.621C215.361 232.645 214.395 232.68 213.359 232.68Z" fill="#CFCFCF"/>
<path d="M409.944 267.552H409.85C409.665 267.539 409.488 267.478 409.334 267.375C409.181 267.271 409.058 267.129 408.978 266.963C407.764 264.185 406.096 261.629 404.042 259.399C403.811 259.17 403.68 258.858 403.679 258.532C403.678 258.206 403.806 257.893 404.036 257.662C404.266 257.431 404.578 257.3 404.904 257.299C405.23 257.298 405.542 257.426 405.774 257.656C407.663 259.631 409.225 261.894 410.403 264.359C414.451 260.202 418.836 256.388 423.514 252.955C423.758 252.766 424.065 252.68 424.371 252.715C424.678 252.751 424.958 252.904 425.152 253.144C425.242 253.274 425.305 253.42 425.337 253.575C425.369 253.73 425.37 253.889 425.339 254.044C425.308 254.199 425.246 254.346 425.158 254.477C425.069 254.608 424.955 254.719 424.822 254.805C419.803 258.474 415.138 262.604 410.886 267.14C410.766 267.27 410.62 267.374 410.458 267.444C410.296 267.515 410.121 267.552 409.944 267.552Z" fill="white"/>
<path d="M366.559 345.58C364.866 345.608 363.185 345.276 361.63 344.605C360.075 343.934 358.68 342.94 357.538 341.689C356.396 340.437 355.533 338.958 355.007 337.347C354.48 335.737 354.302 334.033 354.485 332.349C354.853 328.769 356.519 325.447 359.169 323.011C361.819 320.576 365.27 319.195 368.868 319.131C370.561 319.101 372.241 319.432 373.797 320.101C375.352 320.771 376.747 321.764 377.889 323.014C379.031 324.264 379.894 325.743 380.421 327.353C380.947 328.962 381.125 330.666 380.943 332.349C380.575 335.931 378.909 339.254 376.259 341.692C373.609 344.129 370.159 345.512 366.559 345.58ZM368.715 321.487C365.765 321.552 362.941 322.691 360.772 324.691C358.603 326.691 357.238 329.414 356.935 332.349C356.784 333.733 356.93 335.133 357.362 336.457C357.794 337.78 358.502 338.996 359.441 340.025C360.379 341.053 361.525 341.871 362.803 342.422C364.081 342.973 365.462 343.247 366.854 343.223C369.804 343.156 372.629 342.014 374.798 340.012C376.966 338.01 378.33 335.285 378.634 332.349C378.781 330.967 378.632 329.569 378.199 328.247C377.765 326.926 377.056 325.712 376.119 324.686C375.181 323.659 374.036 322.843 372.76 322.291C371.484 321.74 370.105 321.466 368.715 321.487Z" fill="#CFCFCF"/>
<path d="M253.269 272.559C251.575 272.587 249.895 272.255 248.34 271.584C246.784 270.913 245.389 269.919 244.248 268.668C243.106 267.417 242.243 265.937 241.717 264.327C241.19 262.717 241.012 261.013 241.195 259.329C241.563 255.739 243.236 252.41 245.896 249.971C248.556 247.533 252.017 246.155 255.625 246.099C257.319 246.07 258.999 246.403 260.554 247.074C262.11 247.744 263.505 248.738 264.647 249.99C265.788 251.241 266.651 252.721 267.178 254.331C267.704 255.941 267.882 257.645 267.7 259.329C267.328 262.918 265.655 266.246 262.996 268.684C260.337 271.122 256.876 272.501 253.269 272.559ZM255.366 248.455C252.415 248.52 249.589 249.661 247.419 251.663C245.25 253.666 243.887 256.392 243.586 259.329C243.435 260.713 243.581 262.113 244.013 263.436C244.445 264.76 245.153 265.976 246.092 267.005C247.03 268.033 248.176 268.85 249.454 269.402C250.732 269.953 252.113 270.226 253.505 270.203C256.455 270.135 259.28 268.994 261.449 266.992C263.617 264.99 264.981 262.265 265.285 259.329C265.433 257.947 265.287 256.55 264.855 255.229C264.424 253.908 263.717 252.694 262.782 251.666C261.847 250.639 260.705 249.821 259.43 249.267C258.156 248.714 256.779 248.437 255.389 248.455H255.366Z" fill="#CFCFCF"/>
<path opacity="0.1" d="M276.287 304.239H153.893C152.762 304.255 151.642 304.031 150.604 303.583C149.567 303.134 148.637 302.47 147.875 301.634C147.114 300.799 146.538 299.812 146.186 298.738C145.835 297.663 145.715 296.527 145.835 295.403C146.084 293.013 147.197 290.797 148.965 289.17C150.733 287.543 153.034 286.617 155.436 286.567H277.83C278.96 286.551 280.081 286.774 281.118 287.223C282.155 287.672 283.085 288.336 283.847 289.171C284.609 290.006 285.184 290.994 285.536 292.068C285.888 293.142 286.008 294.279 285.887 295.403C285.638 297.793 284.525 300.009 282.757 301.636C280.99 303.263 278.689 304.188 276.287 304.239Z" fill="black"/>
<path d="M113.544 276.164L118.138 278.131L111.977 285.683C110.901 283.807 110.062 281.805 109.48 279.722C109.393 279.417 109.369 279.098 109.409 278.783C109.448 278.469 109.551 278.165 109.71 277.892C109.87 277.618 110.083 277.379 110.337 277.189C110.591 277 110.88 276.863 111.188 276.788L113.544 276.164Z" fill="#FF8B7B"/>
<path d="M120.25 286.285L117.494 289.348C117.286 289.58 117.027 289.762 116.738 289.879C116.449 289.997 116.137 290.047 115.825 290.025C115.514 290.003 115.212 289.911 114.941 289.755C114.671 289.599 114.44 289.383 114.266 289.124L111.981 285.731L118.142 278.179L120.627 284.07C120.788 284.435 120.839 284.84 120.772 285.234C120.704 285.628 120.523 285.993 120.25 286.285Z" fill="#FF8B7B"/>
<path d="M282.294 301.27L122.969 288.641C121.844 288.566 120.747 288.254 119.75 287.726C118.754 287.197 117.88 286.464 117.187 285.574C116.494 284.684 115.997 283.657 115.729 282.561C115.46 281.465 115.427 280.325 115.63 279.216C116.068 276.853 117.354 274.732 119.245 273.25C121.137 271.768 123.504 271.028 125.903 271.169L285.227 283.787C286.353 283.859 287.451 284.17 288.449 284.698C289.446 285.226 290.321 285.96 291.014 286.85C291.707 287.741 292.204 288.768 292.472 289.865C292.739 290.961 292.771 292.102 292.566 293.212C292.128 295.575 290.843 297.698 288.952 299.182C287.061 300.665 284.693 301.408 282.294 301.27Z" fill="#CFCFCF"/>
<path d="M169.878 226.918C171.869 231.407 173.907 236.013 175.968 240.49C178.03 244.967 180.162 249.515 182.447 253.45C182.932 254.27 183.471 255.057 184.061 255.806C184.768 256.642 185.557 257.502 186.358 258.386C187.996 260.141 189.751 261.92 191.506 263.664C195.04 267.198 198.574 270.733 202.108 274.42L198.574 279.027C194.109 276.453 189.784 273.645 185.616 270.615C183.519 269.095 181.47 267.516 179.42 265.796C178.395 264.936 177.382 264.017 176.345 263.016C175.263 261.884 174.274 260.667 173.388 259.375C170.439 254.956 167.79 250.343 165.461 245.568C163.163 240.914 161.055 236.284 159.088 231.43L169.878 226.918Z" fill="#FF8B7B"/>
<path d="M130.92 226.2C128.246 230.571 125.501 234.966 122.756 239.313L114.569 252.366L113.568 253.992L113.45 254.204V254.299V254.369C113.391 254.459 113.34 254.554 113.297 254.652C113.023 255.443 112.857 256.267 112.802 257.102C112.668 259.382 112.735 261.668 113.003 263.936C113.509 268.742 114.463 273.82 115.476 278.733L110.011 280.759C107.516 275.924 105.541 270.837 104.121 265.585C103.346 262.766 102.884 259.87 102.742 256.949C102.66 255.183 102.827 253.415 103.237 251.695C103.402 251.177 103.532 250.705 103.755 250.152L104.121 249.35L104.274 249.032L104.38 248.82L105.287 247.041C107.643 242.329 110.246 237.758 112.873 233.234C115.5 228.71 118.233 224.268 121.119 219.862L130.92 226.2Z" fill="#FF8B7B"/>
<path d="M162.093 193.578C161.881 194.155 162.01 194.756 162.387 194.921C162.764 195.086 163.247 194.732 163.471 194.143C163.695 193.554 163.553 192.965 163.177 192.8C162.8 192.635 162.317 192.989 162.093 193.578Z" fill="#263238"/>
<path d="M161.95 194.744C161.976 196.828 162.277 198.9 162.845 200.905C162.337 201.026 161.808 201.033 161.297 200.925C160.786 200.817 160.305 200.597 159.889 200.281L161.95 194.744Z" fill="#FF5652"/>
<path d="M164.248 190.137C164.172 190.123 164.102 190.086 164.048 190.031C163.694 189.741 163.277 189.54 162.83 189.443C162.384 189.347 161.921 189.359 161.48 189.477C161.432 189.489 161.383 189.492 161.335 189.485C161.287 189.478 161.24 189.461 161.199 189.436C161.157 189.411 161.121 189.377 161.092 189.338C161.063 189.298 161.043 189.254 161.032 189.206C161.011 189.112 161.027 189.014 161.078 188.933C161.129 188.851 161.209 188.793 161.303 188.77C161.863 188.62 162.452 188.608 163.018 188.736C163.584 188.863 164.111 189.125 164.554 189.501C164.588 189.535 164.615 189.575 164.634 189.619C164.652 189.664 164.662 189.712 164.662 189.76C164.662 189.808 164.652 189.856 164.634 189.9C164.615 189.945 164.588 189.985 164.554 190.019C164.516 190.061 164.468 190.094 164.415 190.114C164.362 190.135 164.304 190.142 164.248 190.137Z" fill="#263238"/>
<path d="M140.616 194.732C139.874 201.07 141.088 209.058 136.753 212.239C136.753 212.239 137.66 218.129 148.085 219.743C159.547 221.44 154.187 214.831 154.187 214.831C148.097 212.392 148.768 207.762 150.335 203.532L140.616 194.732Z" fill="#FF8B7B"/>
<path d="M133.114 216.221C132.961 213.299 133.114 208.893 134.928 208.257C136.907 207.562 148.604 208.492 154.471 213.806C153.128 216.455 152.441 219.388 152.468 222.359L133.114 216.221Z" fill="#263238"/>
<path d="M97.2664 478.99C96.2058 478.902 95.1729 478.606 94.2271 478.118C94.1942 478.102 94.1667 478.077 94.1478 478.046C94.129 478.014 94.1197 477.978 94.1211 477.941C94.1238 477.907 94.1363 477.874 94.1572 477.847C94.1781 477.82 94.2065 477.8 94.2389 477.788C94.3449 477.788 96.7009 476.846 97.7729 477.352C97.8884 477.408 97.991 477.487 98.0742 477.584C98.1573 477.681 98.2192 477.795 98.2559 477.918C98.3217 478.061 98.3401 478.222 98.3083 478.377C98.2765 478.531 98.1963 478.672 98.0792 478.778C97.8435 478.946 97.5542 479.022 97.2664 478.99ZM94.7808 477.977C95.8645 478.46 97.4077 478.837 97.82 478.495C97.82 478.495 97.9849 478.366 97.82 478.024C97.797 477.95 97.759 477.881 97.7083 477.822C97.6576 477.764 97.5954 477.716 97.5255 477.682C96.6012 477.519 95.6494 477.621 94.7808 477.977Z" fill="#CFCFCF"/>
<path d="M94.3091 478.142C94.2599 478.14 94.2134 478.118 94.1795 478.083C94.1628 478.056 94.1539 478.026 94.1539 477.994C94.1539 477.963 94.1628 477.932 94.1795 477.906C94.1795 477.812 94.8392 475.667 95.8759 475.161C96.0034 475.103 96.142 475.072 96.2823 475.072C96.4225 475.072 96.5611 475.103 96.6887 475.161C96.8267 475.194 96.9485 475.275 97.0326 475.389C97.1166 475.503 97.1576 475.644 97.1481 475.785C97.1481 476.669 95.2515 477.941 94.4034 478.142H94.3091ZM96.2882 475.42C96.1821 475.421 96.0776 475.445 95.9819 475.491C95.3123 476.056 94.8314 476.812 94.6036 477.658C95.4871 477.258 96.7005 476.256 96.7358 475.726C96.7358 475.726 96.7358 475.55 96.512 475.467C96.4416 475.436 96.3653 475.42 96.2882 475.42Z" fill="#CFCFCF"/>
<path d="M156.483 482.419C155.692 482.415 154.904 482.341 154.127 482.195C154.093 482.182 154.065 482.159 154.045 482.13C154.024 482.1 154.013 482.066 154.013 482.03C154.013 481.994 154.024 481.959 154.045 481.93C154.065 481.9 154.093 481.878 154.127 481.865C154.515 481.629 157.955 479.662 158.78 481.028C158.864 481.147 158.908 481.289 158.908 481.435C158.908 481.58 158.864 481.722 158.78 481.841C158.426 482.277 157.472 482.419 156.483 482.419ZM154.68 481.924C156.141 482.136 158.108 482.101 158.438 481.629C158.438 481.629 158.544 481.476 158.438 481.217C157.92 480.439 155.823 481.323 154.68 481.924Z" fill="#CFCFCF"/>
<path d="M154.128 482.206C154.098 482.218 154.064 482.218 154.034 482.206C154.006 482.189 153.984 482.165 153.969 482.136C153.955 482.106 153.949 482.074 153.951 482.041C153.982 480.953 154.362 479.904 155.035 479.049C155.175 478.932 155.336 478.843 155.51 478.789C155.684 478.734 155.867 478.714 156.048 478.731C156.566 478.79 156.72 479.049 156.755 479.261C156.896 480.157 155.141 481.794 154.211 482.218L154.128 482.206ZM155.907 479.061C155.674 479.062 155.448 479.145 155.271 479.296C154.727 479.967 154.406 480.791 154.352 481.653C155.282 481.075 156.484 479.78 156.39 479.238C156.39 479.238 156.39 479.049 156.013 479.014L155.907 479.061Z" fill="#CFCFCF"/>
<path d="M145.611 482.018H153.363L153.445 464.051H145.682L145.611 482.018Z" fill="#FF8B7B"/>
<path d="M85.5327 476.457L92.8009 478.142L98.903 460.376L91.6347 458.691L85.5327 476.457Z" fill="#FF8B7B"/>
<path d="M93.9324 476.94L85.4861 474.784C85.339 474.743 85.1818 474.756 85.0433 474.82C84.9049 474.885 84.7944 474.998 84.7322 475.138L81.8225 481.511C81.7521 481.67 81.7177 481.842 81.7217 482.016C81.7257 482.19 81.7681 482.36 81.8457 482.516C81.9234 482.671 82.0345 482.807 82.171 482.915C82.3075 483.022 82.4661 483.098 82.6354 483.137C85.6039 483.832 87.0764 484.021 90.7871 484.951C93.0724 485.529 97.7373 486.954 100.894 487.743C104.051 488.533 105.123 485.482 103.886 484.881C98.3617 482.136 96.5593 479.827 95.0515 477.671C94.7758 477.303 94.3796 477.045 93.9324 476.94Z" fill="#263238"/>
<path d="M153.282 481.123H144.812C144.659 481.122 144.511 481.175 144.393 481.272C144.275 481.368 144.194 481.503 144.164 481.653L142.903 488.545C142.874 488.715 142.882 488.89 142.928 489.057C142.974 489.224 143.056 489.379 143.169 489.511C143.281 489.642 143.421 489.747 143.579 489.819C143.737 489.89 143.908 489.926 144.081 489.923C147.132 489.923 151.538 489.699 155.378 489.699C159.878 489.699 159.961 489.935 165.226 489.935C168.407 489.935 169.173 486.719 167.83 486.401C161.704 485.081 160.55 484.94 155.178 481.688C154.61 481.33 153.954 481.134 153.282 481.123Z" fill="#263238"/>
<path d="M127.67 211.709C120.296 212.298 109.894 230.794 109.894 230.794L123.252 242.894C127.412 238.236 131.198 233.257 134.573 228.002C139.815 219.602 135.209 211.108 127.67 211.709Z" fill="#CFCFCF"/>
<path opacity="0.6" d="M127.67 211.709C120.296 212.298 109.894 230.794 109.894 230.794L123.252 242.894C127.412 238.236 131.198 233.257 134.573 228.002C139.815 219.602 135.209 211.108 127.67 211.709Z" fill="white"/>
<path opacity="0.2" d="M131.44 225.021L122.617 242.293L123.241 242.87C123.241 242.87 126.657 239.135 130.462 233.987L131.44 225.021Z" fill="black"/>
<path d="M164.624 253.179C163.293 261.732 161.184 272.311 157.945 285.341L116.915 279.215C117.292 273.324 123.571 247.064 122.334 218.872C122.29 217.933 122.44 216.995 122.774 216.116C123.107 215.238 123.618 214.437 124.274 213.764C124.931 213.091 125.718 212.561 126.588 212.205C127.458 211.849 128.392 211.676 129.331 211.697C131.357 211.697 133.584 211.85 135.775 212.062C141.634 212.596 147.459 213.461 153.221 214.654C157.172 215.654 161.039 216.958 164.789 218.553C164.789 218.553 167.734 222.877 166.144 240.867C165.826 244.437 165.343 248.501 164.624 253.179Z" fill="#CFCFCF"/>
<path opacity="0.6" d="M164.624 253.179C163.293 261.732 161.184 272.311 157.945 285.341L116.915 279.215C117.292 273.324 123.571 247.064 122.334 218.872C122.29 217.933 122.44 216.995 122.774 216.116C123.107 215.238 123.618 214.437 124.274 213.764C124.931 213.091 125.718 212.561 126.588 212.205C127.458 211.849 128.392 211.676 129.331 211.697C131.357 211.697 133.584 211.85 135.775 212.062C141.634 212.596 147.459 213.461 153.221 214.654C157.172 215.654 161.039 216.958 164.789 218.553C164.789 218.553 167.734 222.877 166.144 240.867C165.826 244.437 165.343 248.501 164.624 253.179Z" fill="white"/>
<path opacity="0.2" d="M164.624 253.179C161.29 251.07 158.168 241.397 159.57 236.296L166.143 240.891C165.825 244.437 165.342 248.501 164.624 253.179Z" fill="black"/>
<path d="M155.401 223.843C153.28 230.912 166.121 251.729 166.121 251.729L181.435 243.718C179.182 237.194 176.161 230.961 172.435 225.151C166.297 216.115 157.851 215.856 155.401 223.843Z" fill="#CFCFCF"/>
<path opacity="0.6" d="M155.401 223.843C153.28 230.912 166.121 251.729 166.121 251.729L181.435 243.718C179.182 237.194 176.161 230.961 172.435 225.151C166.297 216.115 157.851 215.856 155.401 223.843Z" fill="white"/>
<path opacity="0.2" d="M153.434 464.063L153.399 473.323H145.647L145.683 464.063H153.434Z" fill="black"/>
<path opacity="0.2" d="M91.6344 458.703L98.9027 460.375L95.7456 469.541L88.4892 467.857L91.6344 458.703Z" fill="black"/>
<path d="M143.3 184.305C141.05 191.692 139.366 195.886 141.58 201.07C142.268 202.767 143.408 204.243 144.876 205.337C146.345 206.43 148.085 207.1 149.908 207.273C151.73 207.445 153.565 207.114 155.213 206.315C156.86 205.517 158.257 204.281 159.251 202.743C163.185 196.852 166.201 185.802 160.323 180.041C159.089 178.755 157.538 177.819 155.826 177.326C154.114 176.834 152.302 176.802 150.575 177.235C148.847 177.668 147.264 178.55 145.986 179.791C144.709 181.033 143.782 182.59 143.3 184.305Z" fill="#FF8B7B"/>
<path d="M155.165 192.423C154.282 196.205 151.984 203.026 146.33 203.815C143.173 204.251 137.919 203.32 137.436 200.776C136.953 198.231 138.909 198.573 138.414 196.487C137.919 194.402 135.339 187.062 138.273 181.926C134.197 182.267 136.989 176.224 144.304 174.857C142.042 173.973 143.126 167.788 154.411 170.734C159.689 172.088 163.611 174.162 164.083 177.001C168.889 179.028 170.161 184.129 167.181 185.99C164.2 187.852 159.889 185.755 159.889 185.755C159.889 185.755 161.927 196.546 155.165 192.423Z" fill="#263238"/>
<path d="M152.09 191.846C151.987 193.542 152.506 195.218 153.551 196.558C154.953 198.349 155.424 198.361 156.001 196.369C156.531 194.579 157.815 190.573 155.942 189.513C154.069 188.453 152.255 189.784 152.09 191.846Z" fill="#FF8B7B"/>
<path d="M143.398 283.174C143.398 283.174 137.025 344.013 133.114 366.209C128.755 390.525 99.7999 468.705 99.7999 468.705L85.9938 465.289C93.0618 438.192 103.534 387.733 109.907 368.412C114.713 339.041 109.907 302.118 116.975 279.239L143.398 283.174Z" fill="#263238"/>
<path d="M103.013 464.181L100.469 469.164L84.9662 465.265L86.2503 460.552L103.013 464.181Z" fill="#CFCFCF"/>
<path opacity="0.2" d="M139.461 306.901C139.901 306.814 140.353 306.814 140.793 306.901C138.755 325.068 135.857 349.314 133.571 363.227C131.663 343.011 129.896 308.786 139.461 306.901Z" fill="black"/>
<path d="M157.946 285.342C157.946 285.342 161.162 350.351 161.633 373.996C162.116 398.595 156.226 471.533 156.226 471.533H143.08C143.08 471.533 138.121 403.897 140.795 370.909C137.626 345.78 130.982 281.372 130.982 281.372L157.946 285.342Z" fill="#263238"/>
<path d="M205.383 273.678C203.246 273.501 201.096 273.807 199.093 274.574L198.138 276.152C197.953 276.465 197.84 276.815 197.809 277.177C197.778 277.539 197.828 277.904 197.957 278.243C198.086 278.583 198.291 278.889 198.554 279.139C198.818 279.389 199.135 279.576 199.481 279.687L204.087 281.159L206.337 281.843C206.811 281.989 207.318 281.983 207.788 281.824C208.257 281.665 208.665 281.363 208.953 280.959L209.918 279.616C210.265 279.142 210.423 278.555 210.359 277.971C210.296 277.387 210.017 276.848 209.577 276.459L207.504 274.585C206.913 274.063 206.169 273.744 205.383 273.678Z" fill="#FF8B7B"/>
<path d="M158.547 466.29L158.017 471.745H142.031L141.419 466.879L158.547 466.29Z" fill="#CFCFCF"/>
</svg>
