<svg width="36" height="29" viewBox="0 0 36 29" fill="none" xmlns="http://www.w3.org/2000/svg">
<path d="M7.5 2.9H3V1.45H7.5V2.9ZM23.895 2.9L25.113 4.66755C26.2275 6.2843 28.0935 7.25 30.105 7.25H33V26.1H3V7.25H8.895C10.9065 7.25 12.7725 6.2843 13.887 4.66755L15.105 2.9H23.895ZM25.5 0H13.5L11.391 3.05805C10.8345 3.8657 9.8985 4.35 8.895 4.35H0V29H36V4.35H30.105C29.1015 4.35 28.1655 3.8657 27.609 3.05805L25.5 0ZM9 11.6C9 10.7996 8.3295 10.15 7.5 10.15C6.6705 10.15 6 10.7996 6 11.6C6 12.4004 6.6705 13.05 7.5 13.05C8.3295 13.05 9 12.4004 9 11.6ZM19.5 11.6C21.981 11.6 24 13.5517 24 15.95C24 18.3483 21.981 20.3 19.5 20.3C17.019 20.3 15 18.3483 15 15.95C15 13.5517 17.019 11.6 19.5 11.6ZM19.5 8.7C15.3585 8.7 12 11.9466 12 15.95C12 19.9535 15.3585 23.2 19.5 23.2C23.6415 23.2 27 19.9535 27 15.95C27 11.9466 23.6415 8.7 19.5 8.7Z" fill="#F0C903"/>
</svg>
