<svg width="150" height="150" viewBox="0 0 150 150" fill="none" xmlns="http://www.w3.org/2000/svg">
<path d="M60.9201 0.0748901C51.395 0.866203 44.0681 2.50743 36.5946 5.46751C19.9186 12.0911 7.199 24.6934 2.30461 39.4352C-2.53116 53.8839 0.311689 69.2411 10.1884 81.9607C12.3572 84.7742 16.9292 89.4341 19.2152 91.1633L20.7392 92.3063L19.0979 94.6802C14.1742 101.743 9.4557 105.876 4.32685 107.605C1.92361 108.426 1.30815 108.894 0.487535 110.506C-0.655466 112.704 0.370304 115.547 2.68561 116.661C5.11816 117.804 16.6068 116.69 26.1904 114.346C33.6932 112.529 42.5441 109.363 48.6694 106.257L50.4279 105.378L53.2414 105.817C60.3339 106.96 67.7488 107.048 75.4274 106.11C103.533 102.681 125.983 84.5397 130.409 61.6504C133.31 46.6742 128.328 31.6393 116.487 19.7697C106.23 9.45336 91.9862 2.7419 76.0135 0.631737C72.5552 0.192123 63.5284 -0.159569 60.9201 0.0748901ZM75.4274 9.9809C86.5643 11.5928 96.4117 15.5494 104.589 21.704C121.206 34.1598 126.276 53.034 117.572 69.9445C111.124 82.5175 96.9686 92.3356 80.2338 95.8818C73.3758 97.3472 62.2682 97.7575 56.3774 96.7904C54.7654 96.5266 52.4501 96.1456 51.2192 95.9698L48.9625 95.6181L44.625 97.7282C37.7083 101.04 28.4178 104.41 23.8165 105.29L22.7028 105.495L24.1975 103.619C25.8973 101.45 28.0075 98.3437 30.1176 94.8561C31.3486 92.8631 31.6123 92.1598 31.6123 91.0754C31.6123 89.1118 30.9089 88.2325 27.1869 85.419C18.0722 78.5317 12.3279 70.2376 10.1591 60.8005C9.30916 57.1077 9.25054 50.1032 10.0125 46.5569C12.152 36.7975 17.9842 28.0931 26.7473 21.5868C36.1843 14.6115 47.1454 10.655 60.627 9.45336C63.1474 9.2189 72.5259 9.57059 75.4274 9.9809Z" fill="#FEDC2E"/>
<path d="M139.669 70.3549C138.262 70.8531 137.588 71.4686 137.002 72.7288C136.298 74.1942 136.445 75.5131 137.588 78.2094C141.72 87.8223 141.545 97.1715 137.119 105.993C134.188 111.825 130.115 116.573 124.224 120.999C122.524 122.259 120.912 123.724 120.648 124.252C120.003 125.395 119.974 127.417 120.589 128.589C121.439 130.26 124.693 135.154 126.099 136.854C126.861 137.792 127.447 138.642 127.36 138.701C127.184 138.906 123.52 137.997 120.121 136.913C116.047 135.623 111.709 133.894 108.046 132.048C105.115 130.582 104.998 130.553 102.976 130.7C101.862 130.787 99.5466 131.081 97.8467 131.374C93.7143 132.048 84.6289 132.048 80.1155 131.374C69.0958 129.703 59.2777 125.541 51.7457 119.357C48.7856 116.954 46.5289 116.778 44.4773 118.859C43.2757 120.061 42.8654 121.438 43.1878 123.197C43.4223 124.574 45.298 126.421 49.1666 129.146C61.3879 137.792 78.064 142.305 93.7729 141.162C96.352 140.987 99.4879 140.664 100.719 140.43L102.976 140.049L105.76 141.368C117.424 146.848 130.671 149.955 142.394 149.955C146.087 149.955 147.26 149.662 148.49 148.46C151.363 145.646 149.985 141.778 145.618 140.312C140.812 138.73 136.298 134.978 131.785 128.824L130.994 127.769L133.544 125.571C141.603 118.654 147.054 109.627 149.194 99.7506C150.102 95.5596 150.102 88.4085 149.194 84.0123C147.934 77.8577 145.501 71.9082 143.801 70.8825C142.453 70.0618 140.988 69.886 139.669 70.3549Z" fill="#FEDC2E"/>
</svg>
