<svg width="26" height="27" viewBox="0 0 26 27" fill="none" xmlns="http://www.w3.org/2000/svg">
<path d="M16.468 15.3719C16.2504 15.3719 16.0377 15.4364 15.8568 15.5573C15.6759 15.6781 15.535 15.8499 15.4517 16.0509C15.3684 16.2519 15.3467 16.4731 15.3891 16.6865C15.4315 16.8999 15.5363 17.0959 15.6902 17.2497C15.844 17.4035 16.04 17.5083 16.2534 17.5508C16.4667 17.5932 16.6879 17.5714 16.8889 17.4882C17.0899 17.4049 17.2617 17.2639 17.3826 17.083C17.5035 16.9021 17.568 16.6895 17.568 16.4719C17.568 16.1802 17.4521 15.9004 17.2458 15.6941C17.0395 15.4878 16.7597 15.3719 16.468 15.3719ZM9.86797 8.77189C9.65041 8.77189 9.43774 8.8364 9.25684 8.95727C9.07595 9.07814 8.93496 9.24994 8.8517 9.45094C8.76845 9.65194 8.74666 9.87311 8.7891 10.0865C8.83155 10.2999 8.93631 10.4959 9.09015 10.6497C9.24399 10.8035 9.43999 10.9083 9.65337 10.9508C9.86675 10.9932 10.0879 10.9714 10.2889 10.8882C10.4899 10.8049 10.6617 10.6639 10.7826 10.483C10.9035 10.3021 10.968 10.0894 10.968 9.87189C10.968 9.58015 10.8521 9.30036 10.6458 9.09407C10.4395 8.88778 10.1597 8.77189 9.86797 8.77189ZM9.86797 15.3719C9.65041 15.3719 9.43774 15.4364 9.25684 15.5573C9.07595 15.6781 8.93496 15.8499 8.8517 16.0509C8.76845 16.2519 8.74666 16.4731 8.7891 16.6865C8.83155 16.8999 8.93631 17.0959 9.09015 17.2497C9.24399 17.4035 9.43999 17.5083 9.65337 17.5508C9.86675 17.5932 10.0879 17.5714 10.2889 17.4882C10.4899 17.4049 10.6617 17.2639 10.7826 17.083C10.9035 16.9021 10.968 16.6895 10.968 16.4719C10.968 16.1802 10.8521 15.9004 10.6458 15.6941C10.4395 15.4878 10.1597 15.3719 9.86797 15.3719ZM16.468 8.77189C16.2504 8.77189 16.0377 8.8364 15.8568 8.95727C15.6759 9.07814 15.535 9.24994 15.4517 9.45094C15.3684 9.65194 15.3467 9.87311 15.3891 10.0865C15.4315 10.2999 15.5363 10.4959 15.6902 10.6497C15.844 10.8035 16.04 10.9083 16.2534 10.9508C16.4667 10.9932 16.6879 10.9714 16.8889 10.8882C17.0899 10.8049 17.2617 10.6639 17.3826 10.483C17.5035 10.3021 17.568 10.0894 17.568 9.87189C17.568 9.58015 17.4521 9.30036 17.2458 9.09407C17.0395 8.88778 16.7597 8.77189 16.468 8.77189ZM18.668 2.17189H7.66797C6.20928 2.17189 4.81033 2.75135 3.77888 3.7828C2.74743 4.81425 2.16797 6.2132 2.16797 7.67189V18.6719C2.16797 20.1306 2.74743 21.5295 3.77888 22.561C4.81033 23.5924 6.20928 24.1719 7.66797 24.1719H18.668C20.1267 24.1719 21.5256 23.5924 22.5571 22.561C23.5885 21.5295 24.168 20.1306 24.168 18.6719V7.67189C24.168 6.2132 23.5885 4.81425 22.5571 3.7828C21.5256 2.75135 20.1267 2.17189 18.668 2.17189ZM21.968 18.6719C21.968 19.5471 21.6203 20.3865 21.0014 21.0053C20.3826 21.6242 19.5432 21.9719 18.668 21.9719H7.66797C6.79275 21.9719 5.95339 21.6242 5.33452 21.0053C4.71565 20.3865 4.36797 19.5471 4.36797 18.6719V7.67189C4.36797 6.79668 4.71565 5.95731 5.33452 5.33844C5.95339 4.71957 6.79275 4.37189 7.66797 4.37189H18.668C19.5432 4.37189 20.3826 4.71957 21.0014 5.33844C21.6203 5.95731 21.968 6.79668 21.968 7.67189V18.6719Z" fill="black"/>
</svg>
