<svg width="804" height="244" viewBox="0 0 804 244" fill="none" xmlns="http://www.w3.org/2000/svg">
<path fill-rule="evenodd" clip-rule="evenodd" d="M256.717 240.676C255.222 223.064 242.918 197.684 240.167 173.414C258.696 156.092 238.671 105.573 227.622 105.042C216.476 103.016 206.826 100.941 189.021 100.314C167.019 99.5418 147.14 102.196 139.757 103.257C112.206 116.864 97.2482 196.864 115.391 212.642C118.816 215.633 124.365 218.625 131.12 221.423C130.541 228.179 130.155 234.934 130.155 241.206L256.717 240.676Z" fill="black"/>
<path fill-rule="evenodd" clip-rule="evenodd" d="M168.514 103.112L172.518 79.1798L202.434 90.4223L203.544 107.455C199.491 137.129 167.645 108.372 168.514 103.112Z" fill="white"/>
<path fill-rule="evenodd" clip-rule="evenodd" d="M171.091 78.941L167.086 102.873C166.463 106.644 175.27 115.587 183.541 119.681C188.473 122.122 193.032 122.853 196.769 121.382C201.153 119.655 203.962 115.088 204.978 107.651C204.991 107.555 204.995 107.458 204.988 107.361L203.878 90.3283C203.841 89.7607 203.476 89.2674 202.943 89.0674L173.028 77.8249C172.175 77.5043 171.241 78.0422 171.091 78.941ZM173.655 81.1534L201.05 91.4487L202.09 107.399L202.11 107.259C200.468 119.279 194.224 121.738 184.825 117.086C181.079 115.232 177.169 112.302 174.082 109.167L173.799 108.876C171.335 106.315 169.839 103.97 169.942 103.348L173.655 81.1534Z" fill="black"/>
<path fill-rule="evenodd" clip-rule="evenodd" d="M210.107 34.1135C210.107 34.1135 187.188 48.4922 198.237 62.0507C198.237 62.0507 203.207 67.7443 207.26 66.6346C207.26 66.6346 204.269 61.8095 207.743 59.3487C207.743 59.3487 208.756 73.7757 220.578 70.8807C220.578 70.8807 216.235 64.4633 217.441 56.8396C219.902 40.8203 216.235 31.2184 210.107 34.1135Z" fill="black"/>
<path fill-rule="evenodd" clip-rule="evenodd" d="M162.58 56.8396C162.58 56.8396 158.189 28.7093 186.657 23.836C189.311 23.4017 207.501 20.6514 210.831 35.754C213.05 45.8384 213.485 56.7914 213.195 65.2836C213.195 65.3318 212.906 81.3511 206.585 90.2293C200.264 99.1075 186.223 98.2872 178.84 93.8964C171.41 89.5055 170.059 87.2377 167.984 82.0266C165.909 76.8155 162.58 56.8879 162.58 56.8879V56.8396Z" fill="white"/>
<path fill-rule="evenodd" clip-rule="evenodd" d="M191.027 21.9448C189.256 22.0137 187.81 22.1802 186.421 22.4075C174.486 24.4506 167.061 30.5651 163.403 39.428C161.154 44.8767 160.593 50.5664 160.987 55.5596L161.026 56.0133L161.067 56.4236C161.075 56.5063 161.084 56.5833 161.093 56.6545L161.132 56.9608L161.139 57.0473L161.169 57.2411L161.506 59.2044C161.619 59.8512 161.741 60.5401 161.87 61.2633L162.205 63.122C162.6 65.2867 163.007 67.4315 163.416 69.4862L163.591 70.361C163.934 72.0627 164.269 73.644 164.591 75.0825L164.812 76.0556C165.475 78.9298 166.067 81.0855 166.585 82.4303L166.637 82.5621C169.091 88.7254 171.017 90.9561 178.102 95.1426C182.169 97.5617 187.848 98.848 193.207 98.4829C199.331 98.0657 204.545 95.5874 207.762 91.0688C210.68 86.9698 212.575 81.2791 213.686 74.6856C214.039 72.5889 214.288 70.5343 214.45 68.5908L214.504 67.9113C214.582 66.8501 214.628 65.8927 214.638 65.4437L214.64 65.3329C214.979 55.385 214.287 45.0479 212.372 36.0408L212.242 35.4424C210.637 28.1616 205.749 24.0589 198.795 22.5539C196.305 22.0152 193.683 21.8414 191.027 21.9448ZM198.182 25.3835C204.036 26.6503 207.978 29.9126 209.364 35.8392L209.415 36.0651C211.37 44.9496 212.085 55.2904 211.746 65.2342L211.742 65.464C211.73 65.8912 211.684 66.823 211.606 67.8428C211.452 69.8577 211.201 72.0092 210.831 74.2047C209.786 80.4047 208.017 85.7186 205.403 89.3897C202.735 93.137 198.328 95.2322 193.01 95.5944C188.227 95.9203 183.133 94.7667 179.578 92.6522L179.114 92.3764C172.966 88.7017 171.489 86.9208 169.327 81.4911C168.834 80.2536 168.21 77.9563 167.502 74.8313L167.242 73.6616C166.978 72.4601 166.707 71.1647 166.429 69.7882C165.902 67.1765 165.376 64.3933 164.871 61.5942L164.474 59.364L164.022 56.7508L164.018 56.6904L163.976 56.3792L163.944 56.1041C163.929 55.9575 163.913 55.7977 163.898 55.6251C163.491 50.9786 163.987 45.6018 166.079 40.5324C169.363 32.5758 175.972 27.1334 186.899 25.2628L187.411 25.1826C188.531 25.0155 189.722 24.8928 191.14 24.8376C193.569 24.7431 195.954 24.9011 198.182 25.3835Z" fill="black"/>
<path fill-rule="evenodd" clip-rule="evenodd" d="M201.178 57.5927C201.933 57.4383 202.671 57.9025 202.867 58.6381L202.886 58.721L205.54 71.7005C205.717 72.5699 205.08 73.3854 204.207 73.4355L204.122 73.438H199.248C198.449 73.438 197.801 72.7899 197.801 71.9904C197.801 71.2196 198.403 70.5894 199.163 70.5454L199.248 70.5429H202.348L200.05 59.3009C199.895 58.5456 200.359 57.8075 201.095 57.6122L201.178 57.5927Z" fill="black"/>
<path fill-rule="evenodd" clip-rule="evenodd" d="M208.866 57.9273C208.878 56.7015 208.24 55.7014 207.44 55.6936C206.641 55.6858 205.983 56.6732 205.971 57.899C205.959 59.1248 206.597 60.1249 207.397 60.1327C208.196 60.1405 208.854 59.1532 208.866 57.9273Z" fill="black"/>
<path fill-rule="evenodd" clip-rule="evenodd" d="M195.15 58.2851C195.391 57.0832 194.951 55.9814 194.167 55.8242C193.383 55.6671 192.552 56.514 192.311 57.7159C192.07 58.9179 192.51 60.0196 193.294 60.1768C194.078 60.334 194.909 59.487 195.15 58.2851Z" fill="black"/>
<path fill-rule="evenodd" clip-rule="evenodd" d="M186.654 46.9579C188.243 45.7348 190.215 45.0948 192.518 45.3658C193.312 45.4592 193.88 46.1785 193.787 46.9725C193.693 47.7665 192.974 48.3344 192.18 48.241C190.677 48.0642 189.442 48.4651 188.419 49.2522C188.116 49.4853 187.857 49.7348 187.645 49.981L187.547 50.0984C187.532 50.1168 187.518 50.1347 187.505 50.1519L187.437 50.2428C187.003 50.9142 186.107 51.1069 185.436 50.673C184.764 50.2391 184.571 49.3431 185.005 48.6716L185.084 48.5563C185.173 48.4298 185.296 48.2709 185.454 48.0883C185.789 47.7006 186.188 47.3164 186.654 46.9579Z" fill="black"/>
<path fill-rule="evenodd" clip-rule="evenodd" d="M205.598 43.9571C206.743 43.6205 207.909 43.4437 209.04 43.519C210.73 43.6315 212.173 44.307 213.158 45.6637C213.627 46.3107 213.484 47.2158 212.837 47.6854C212.214 48.137 211.354 48.0214 210.871 47.4366L210.815 47.3642C210.382 46.7682 209.739 46.467 208.848 46.4077C208.104 46.3582 207.259 46.4863 206.414 46.7346C206.222 46.7911 206.042 46.8505 205.876 46.9103L205.659 46.9916L205.488 47.0615C204.76 47.3901 203.902 47.0658 203.574 46.337C203.245 45.6082 203.569 44.751 204.298 44.4224L204.45 44.3564C204.727 44.2406 205.119 44.0979 205.598 43.9571Z" fill="black"/>
<path fill-rule="evenodd" clip-rule="evenodd" d="M184.917 35.8504C184.917 35.8504 195.677 73.5826 170.587 77.4427C170.587 77.4427 155.966 80.0483 152.637 74.8854C152.637 74.8854 163.204 69.2401 161.901 63.2087C161.901 63.2087 149.983 76.2847 139.609 66.8758C139.609 66.8758 156.883 63.9807 155.387 48.4439C154.278 37.2497 181.057 26.7793 184.917 35.8504Z" fill="black"/>
<path fill-rule="evenodd" clip-rule="evenodd" d="M139.032 41.1581L154.328 38.842C155.92 28.5646 161.903 13.7998 182.989 11.3873C215.944 7.57548 216.957 39.6141 216.957 39.6141L140.576 51.0013C137.874 51.4355 135.317 49.5537 134.883 46.8034C134.448 44.1014 136.33 41.5923 139.032 41.1581Z" fill="#AEAEAE"/>
<path fill-rule="evenodd" clip-rule="evenodd" d="M190.529 73.9879C191.239 73.6859 192.054 73.9935 192.393 74.6754L192.449 74.7941L192.462 74.8193C192.512 74.9145 192.576 75.0253 192.656 75.148C192.894 75.5125 193.202 75.8818 193.585 76.2276C195.006 77.5127 197.018 78.1367 199.851 77.7009C200.641 77.5793 201.38 78.1213 201.502 78.9115C201.623 79.7016 201.081 80.4407 200.291 80.5623C196.587 81.1322 193.703 80.2377 191.643 78.375C191.067 77.8539 190.6 77.2943 190.232 76.73C190.001 76.3765 189.849 76.0852 189.764 75.8868C189.451 75.1512 189.794 74.301 190.529 73.9879Z" fill="black"/>
<path fill-rule="evenodd" clip-rule="evenodd" d="M265.739 134.475V117.925C265.739 111.17 260.286 105.718 253.531 105.718H248.754C248.754 122.461 235.196 136.068 218.404 136.068C201.613 136.068 188.055 122.509 188.055 105.718H183.278C176.523 105.718 171.07 111.17 171.07 117.925V206.08C171.07 212.835 176.523 218.287 183.278 218.287H253.483C260.238 218.287 265.69 212.835 265.69 206.08V195.127C282.433 195.127 296.04 181.568 296.04 164.777C296.088 148.034 282.482 134.475 265.739 134.475Z" fill="#FFDD2D"/>
<path fill-rule="evenodd" clip-rule="evenodd" d="M257.393 214.138C257.344 213.945 246.729 201.544 246.392 201.834C246.054 202.123 231.53 208.589 231.193 209.12C230.855 209.602 230.324 212.545 231.772 215.248C233.219 217.95 234.86 224.174 241.422 224.656C247.984 225.187 257.393 214.138 257.393 214.138Z" fill="white"/>
<path fill-rule="evenodd" clip-rule="evenodd" d="M238.045 204.729C238.045 204.729 236.79 196.188 238.768 194.162C240.747 192.135 251.796 211.05 255.608 212.352" fill="white"/>
<path fill-rule="evenodd" clip-rule="evenodd" d="M237.731 193.151C238.651 192.208 239.776 192.437 240.873 193.219C241.483 193.654 242.174 194.322 242.993 195.242L243.338 195.636C244.319 196.767 245.157 197.829 247.047 200.333L249.334 203.371C253.014 208.235 255.061 210.588 256.032 210.967L256.075 210.983C256.831 211.241 257.235 212.064 256.976 212.821C256.718 213.577 255.895 213.981 255.138 213.722L255.006 213.674C253.265 213.006 251.326 210.804 247.172 205.312L244.068 201.194C242.683 199.372 241.96 198.466 241.154 197.536L240.971 197.327C240.441 196.722 239.985 196.25 239.613 195.918L239.483 195.805L239.48 195.814C239.262 196.507 239.117 197.641 239.1 199.052L239.098 199.238C239.093 200.4 239.165 201.658 239.287 202.915C239.312 203.171 239.338 203.415 239.365 203.646L239.439 204.253C239.455 204.376 239.467 204.466 239.475 204.518C239.591 205.309 239.044 206.045 238.253 206.161C237.462 206.277 236.727 205.73 236.611 204.939L236.545 204.45L236.489 203.976C236.46 203.729 236.433 203.468 236.406 203.196C236.275 201.849 236.198 200.498 236.203 199.225C236.216 196.354 236.607 194.302 237.731 193.151Z" fill="black"/>
<path fill-rule="evenodd" clip-rule="evenodd" d="M232.158 206.225C232.158 206.225 229.504 200 233.027 197.009C236.501 194.017 245.137 211.05 248.901 213.221" fill="white"/>
<path fill-rule="evenodd" clip-rule="evenodd" d="M232.081 195.912C233.669 194.544 235.535 195.181 237.537 197.013C238.792 198.161 240.151 199.793 241.927 202.194L242.543 203.035C242.716 203.274 242.896 203.522 243.089 203.791L245.067 206.541C247.923 210.486 248.757 211.467 249.624 211.967C250.316 212.367 250.553 213.252 250.154 213.944C249.754 214.637 248.869 214.874 248.177 214.475L247.935 214.33C246.609 213.511 245.739 212.438 242.026 207.274L240.464 205.099C240.285 204.852 240.116 204.62 239.951 204.395L239.61 203.931C237.934 201.663 236.667 200.141 235.583 199.149C234.983 198.6 234.485 198.264 234.133 198.144L234.007 198.101C233.991 198.097 233.984 198.097 233.977 198.1L233.963 198.112C233.182 198.775 232.768 199.723 232.669 200.949C232.582 202.022 232.744 203.219 233.073 204.409C233.149 204.683 233.228 204.939 233.309 205.173L233.414 205.468L233.489 205.657C233.802 206.392 233.46 207.243 232.725 207.556C231.989 207.87 231.139 207.528 230.826 206.792C230.682 206.456 230.481 205.898 230.282 205.18C229.871 203.69 229.665 202.174 229.783 200.715C229.94 198.776 230.667 197.113 232.081 195.912Z" fill="black"/>
<path fill-rule="evenodd" clip-rule="evenodd" d="M230.612 213.366C230.612 213.366 226.172 202.22 229.261 199.855C232.349 197.491 237.415 211.966 243.446 215.296" fill="white"/>
<path fill-rule="evenodd" clip-rule="evenodd" d="M228.382 198.706C229.328 197.982 230.453 197.985 231.499 198.576C232.216 198.982 232.913 199.657 233.689 200.628L233.904 200.901C234.408 201.554 234.95 202.333 235.623 203.356L237.974 206.987L238.288 207.461C240.662 211.026 242.431 213.081 244.147 214.028C244.847 214.415 245.101 215.295 244.715 215.995C244.329 216.695 243.448 216.949 242.748 216.563C240.448 215.293 238.431 212.927 235.725 208.834L235.046 207.793C234.431 206.844 233.56 205.489 233.347 205.163L233.089 204.772C232.422 203.763 231.901 203.027 231.428 202.436C230.898 201.773 230.459 201.338 230.137 201.134L230.055 201.086L230.027 201.118C229.545 201.708 229.461 203.455 229.925 205.926L229.961 206.113C230.162 207.139 230.441 208.236 230.778 209.368C230.994 210.093 231.224 210.797 231.455 211.461L231.594 211.854C231.652 212.017 231.708 212.169 231.76 212.311L231.958 212.83C232.253 213.573 231.891 214.415 231.148 214.71C230.406 215.006 229.564 214.644 229.268 213.901L229.155 213.608C229.085 213.425 229.01 213.222 228.929 213L228.868 212.83C228.574 212.007 228.279 211.118 228.004 210.195C227.642 208.98 227.341 207.795 227.12 206.67C226.371 202.852 226.555 200.105 228.382 198.706Z" fill="black"/>
<path fill-rule="evenodd" clip-rule="evenodd" d="M254.836 211.918C255.319 209.506 255.078 206.997 254.113 204.777C253.003 202.172 251.7 198.698 251.603 196.43C251.41 192.521 257.78 194.355 258.069 196.768C258.359 199.18 259.565 199.035 262.363 201.544C265.162 204.053 264.631 213.848 264.631 213.848C264.631 213.848 267.092 218.915 259.179 224.946C251.266 230.977 242.774 226.297 242.774 226.297C242.774 226.297 227.43 220.652 227.43 209.602C227.43 198.553 231.483 214.668 239.155 219.204" fill="white"/>
<path fill-rule="evenodd" clip-rule="evenodd" d="M250.156 196.501C250.015 193.657 252.225 192.349 254.895 192.801C257.17 193.186 259.274 194.678 259.504 196.595C259.589 197.304 259.719 197.578 260.106 197.926L260.177 197.988C260.159 197.972 262.322 199.565 263.328 200.467C264.742 201.734 265.489 204.063 265.863 207.237C266.088 209.156 266.147 211.156 266.107 212.967L266.093 213.474L266.088 213.606L266.104 213.65C266.127 213.721 266.151 213.799 266.175 213.881L266.21 214.009C266.572 215.385 266.547 217.036 265.899 218.861C265.032 221.307 263.143 223.743 260.054 226.097C259.513 226.509 258.961 226.883 258.397 227.218C253.81 229.945 248.938 230.024 244.42 228.537C243.469 228.224 242.732 227.907 242.252 227.66L242.17 227.617L241.857 227.493L241.553 227.368C241.004 227.137 240.394 226.863 239.74 226.543C237.87 225.631 236 224.539 234.248 223.263C229.116 219.527 225.98 214.987 225.98 209.602C225.98 207.45 226.116 206.19 226.514 205.421C226.923 204.632 227.72 204.175 228.631 204.417C229.166 204.559 229.571 204.885 230 205.383C230.646 206.132 233.723 211.189 234.45 212.251C236.314 214.975 238.077 216.886 239.89 217.958C240.578 218.365 240.806 219.253 240.399 219.941C239.992 220.629 239.104 220.857 238.416 220.45C236.232 219.159 234.269 217.065 232.256 214.168L232.061 213.886C231.543 213.129 230.24 211.024 229.2 209.381L228.882 208.881L228.881 208.953C228.878 209.105 228.877 209.265 228.876 209.432L228.876 209.602C228.876 213.886 231.494 217.677 235.952 220.923C237.556 222.09 239.282 223.099 241.009 223.941C241.527 224.194 242.012 224.415 242.454 224.605L242.672 224.698C242.802 224.752 242.92 224.801 243.026 224.843L243.272 224.938C243.317 224.955 243.362 224.974 243.406 224.996L243.58 225.086C243.662 225.127 243.777 225.182 243.923 225.247C244.329 225.43 244.799 225.614 245.325 225.787C249.117 227.035 253.15 226.97 256.917 224.73C257.386 224.451 257.847 224.14 258.3 223.795C260.961 221.766 262.502 219.778 263.171 217.893C263.614 216.643 263.631 215.583 263.41 214.747L263.38 214.638C263.352 214.543 263.331 214.489 263.327 214.481C263.22 214.26 263.171 214.015 263.184 213.77L263.197 213.454C263.199 213.405 263.201 213.351 263.203 213.293C263.258 211.505 263.211 209.476 262.987 207.575C262.692 205.067 262.114 203.267 261.395 202.622L261.251 202.496C260.308 201.681 258.388 200.268 258.294 200.187C257.297 199.334 256.806 198.407 256.63 196.94C256.586 196.574 255.566 195.851 254.412 195.656C253.354 195.477 253.014 195.678 253.048 196.368C253.117 197.99 253.934 200.596 255.225 203.694L255.438 204.2C256.516 206.679 256.797 209.487 256.254 212.202C256.097 212.986 255.334 213.494 254.551 213.338C253.767 213.181 253.258 212.418 253.415 211.634C253.828 209.569 253.638 207.443 252.867 205.553L252.532 204.758C251.123 201.372 250.243 198.548 250.156 196.501Z" fill="black"/>
<path fill-rule="evenodd" clip-rule="evenodd" d="M171.891 214.138C171.939 213.945 182.554 201.544 182.892 201.834C183.23 202.123 197.753 208.589 198.091 209.12C198.429 209.65 198.96 212.545 197.512 215.248C196.064 217.95 194.424 224.174 187.862 224.656C181.3 225.187 171.891 214.138 171.891 214.138Z" fill="white"/>
<path fill-rule="evenodd" clip-rule="evenodd" d="M191.239 204.729C191.239 204.729 192.494 196.188 190.515 194.162C188.537 192.135 177.488 211.05 173.676 212.352" fill="white"/>
<path fill-rule="evenodd" clip-rule="evenodd" d="M188.407 193.219C189.505 192.437 190.63 192.208 191.55 193.151C192.674 194.302 193.065 196.354 193.077 199.225C193.083 200.498 193.006 201.849 192.875 203.196L192.82 203.724C192.811 203.809 192.802 203.893 192.792 203.976L192.702 204.71C192.689 204.809 192.678 204.886 192.67 204.939C192.554 205.73 191.818 206.277 191.027 206.161C190.236 206.045 189.689 205.309 189.806 204.518L189.842 204.253L189.863 204.089C189.907 203.736 189.952 203.341 189.993 202.915C190.116 201.658 190.187 200.4 190.182 199.238C190.176 197.812 190.042 196.653 189.833 195.921L189.798 195.805L189.758 195.838C189.401 196.146 188.959 196.596 188.441 197.178L188.007 197.676C187.107 198.721 186.265 199.797 184.421 202.24L182.109 205.312C177.849 210.944 175.92 213.115 174.143 213.722C173.386 213.981 172.563 213.577 172.305 212.821C172.055 212.091 172.422 211.3 173.127 211.013L173.206 210.983C174.16 210.657 176.213 208.306 179.947 203.371L181.986 200.661C184.053 197.92 184.92 196.815 185.943 195.636L186.133 195.418C187.02 194.407 187.759 193.681 188.407 193.219Z" fill="black"/>
<path fill-rule="evenodd" clip-rule="evenodd" d="M197.126 206.225C197.126 206.225 199.78 200 196.257 197.009C192.783 194.017 184.146 211.05 180.383 213.221" fill="white"/>
<path fill-rule="evenodd" clip-rule="evenodd" d="M191.744 197.013C193.746 195.181 195.612 194.544 197.193 195.905C198.615 197.113 199.342 198.776 199.498 200.715C199.617 202.173 199.411 203.69 198.999 205.18C198.801 205.898 198.599 206.455 198.456 206.792C198.142 207.527 197.292 207.869 196.557 207.556C195.848 207.254 195.504 206.452 195.762 205.736L195.867 205.467C195.881 205.43 195.896 205.389 195.913 205.343C196.013 205.066 196.114 204.751 196.209 204.409C196.537 203.219 196.7 202.022 196.613 200.949C196.518 199.779 196.136 198.861 195.416 198.198L195.301 198.097C195.289 198.092 195.27 198.102 195.148 198.144C194.797 198.264 194.298 198.6 193.698 199.149C192.578 200.173 191.263 201.765 189.502 204.16L188.818 205.099L186.385 208.482C183.2 212.883 182.463 213.691 181.105 214.474C180.412 214.874 179.527 214.636 179.128 213.944C178.728 213.252 178.966 212.366 179.658 211.967L179.727 211.926C180.628 211.377 181.553 210.237 184.813 205.711L186.192 203.791C186.385 203.522 186.565 203.273 186.738 203.035L186.994 202.685C188.949 200.012 190.406 198.237 191.744 197.013Z" fill="black"/>
<path fill-rule="evenodd" clip-rule="evenodd" d="M198.671 213.366C198.671 213.366 203.11 202.22 200.022 199.855C196.934 197.491 191.867 211.966 185.836 215.296" fill="white"/>
<path fill-rule="evenodd" clip-rule="evenodd" d="M197.783 198.576C198.829 197.985 199.954 197.982 200.9 198.706C202.727 200.105 202.91 202.852 202.162 206.67C201.941 207.795 201.64 208.98 201.278 210.195C201.042 210.986 200.792 211.753 200.54 212.474L200.414 212.83C200.331 213.061 200.253 213.274 200.18 213.467L200.014 213.901C199.718 214.644 198.876 215.006 198.133 214.71C197.391 214.415 197.028 213.573 197.324 212.83L197.421 212.58L197.575 212.166C197.612 212.067 197.649 211.963 197.688 211.854C197.966 211.078 198.244 210.238 198.504 209.368C198.841 208.236 199.12 207.139 199.321 206.113L199.394 205.724C199.816 203.359 199.724 201.692 199.255 201.118L199.227 201.086L199.208 201.096C198.902 201.27 198.476 201.674 197.958 202.307L197.854 202.436L197.674 202.665C197.248 203.216 196.777 203.889 196.193 204.772L195.712 205.507C195.197 206.304 194.094 208.018 193.728 208.576L193.389 209.088C190.767 213.026 188.786 215.32 186.534 216.563C185.834 216.949 184.954 216.695 184.567 215.995C184.181 215.295 184.435 214.415 185.135 214.028C186.851 213.081 188.62 211.026 190.994 207.461L191.521 206.66C192.097 205.773 193.254 203.973 193.512 203.579L193.801 203.14C194.503 202.081 195.061 201.293 195.593 200.628C196.369 199.657 197.066 198.982 197.783 198.576Z" fill="black"/>
<path fill-rule="evenodd" clip-rule="evenodd" d="M174.497 211.918C174.014 209.506 174.255 206.997 175.22 204.777C176.33 202.172 177.633 198.698 177.729 196.43C177.922 192.521 171.553 194.355 171.264 196.768C170.974 199.18 169.768 199.035 166.969 201.544C164.171 204.053 164.702 213.848 164.702 213.848C164.702 213.848 162.241 218.915 170.154 224.946C178.067 230.977 186.559 226.297 186.559 226.297C186.559 226.297 201.903 220.652 201.903 209.602C201.903 198.553 197.85 214.668 190.178 219.204" fill="white"/>
<path fill-rule="evenodd" clip-rule="evenodd" d="M174.436 192.801C177.106 192.349 179.315 193.657 179.175 196.491C179.088 198.548 178.208 201.372 176.795 204.767L176.547 205.354C175.708 207.285 175.487 209.492 175.916 211.634C176.072 212.418 175.564 213.181 174.78 213.337C173.996 213.494 173.234 212.986 173.077 212.202C172.551 209.574 172.797 206.86 173.787 204.45L174.102 203.702C175.397 200.596 176.214 197.989 176.283 196.358C176.317 195.678 175.976 195.476 174.919 195.655C173.765 195.851 172.745 196.574 172.701 196.94C172.531 198.351 172.071 199.261 171.149 200.088L171.036 200.187C170.937 200.272 168.81 201.838 167.935 202.622C167.216 203.267 166.638 205.067 166.343 207.575C166.137 209.33 166.081 211.194 166.117 212.876L166.133 213.454C166.139 213.602 166.143 213.708 166.147 213.77C166.158 213.98 166.123 214.19 166.046 214.384L166.003 214.481C165.998 214.492 165.963 214.583 165.92 214.746C165.7 215.583 165.717 216.643 166.16 217.893C166.828 219.778 168.369 221.766 171.031 223.795C171.484 224.14 171.945 224.451 172.413 224.73C176.181 226.97 180.214 227.035 184.006 225.787C184.457 225.639 184.866 225.482 185.23 225.326L185.408 225.247C185.613 225.155 185.756 225.085 185.832 225.044L185.86 225.029C185.903 225.006 185.947 224.984 185.991 224.965L186.203 224.883C186.301 224.845 186.411 224.8 186.533 224.75L186.658 224.698C187.158 224.488 187.718 224.236 188.322 223.941C190.048 223.099 191.775 222.09 193.379 220.923C197.837 217.677 200.455 213.886 200.455 209.602L200.455 209.377L200.448 208.881L199.591 210.237C198.746 211.581 197.849 213.019 197.377 213.726L197.27 213.885C195.188 216.929 193.169 219.117 190.914 220.45C190.226 220.857 189.339 220.629 188.932 219.941C188.525 219.252 188.753 218.365 189.441 217.958C191.254 216.886 193.017 214.975 194.881 212.251L194.975 212.111C195.84 210.806 198.71 206.103 199.331 205.383C199.76 204.884 200.165 204.558 200.699 204.417C201.611 204.175 202.408 204.632 202.817 205.421C203.215 206.19 203.35 207.45 203.35 209.602C203.35 214.986 200.215 219.527 195.083 223.263C193.33 224.539 191.461 225.631 189.591 226.543C188.936 226.862 188.327 227.137 187.778 227.368L187.386 227.528L187.161 227.616L187.079 227.659L186.873 227.762C186.435 227.974 185.836 228.224 185.098 228.475L184.911 228.537C180.393 230.024 175.52 229.945 170.934 227.218C170.37 226.883 169.817 226.509 169.276 226.097C166.188 223.743 164.298 221.306 163.431 218.861C162.784 217.036 162.758 215.385 163.121 214.009C163.144 213.921 163.167 213.839 163.191 213.761L163.242 213.605L163.234 213.381C163.175 211.464 163.225 209.303 163.468 207.237C163.841 204.062 164.589 201.734 166.003 200.466L166.224 200.273C167.293 199.355 169.171 197.973 169.154 197.988C169.596 197.609 169.736 197.345 169.826 196.595C170.056 194.678 172.161 193.186 174.436 192.801Z" fill="black"/>
<path fill-rule="evenodd" clip-rule="evenodd" d="M427.862 103.209L395.63 98.0942L392.156 87.1411C398.188 83.3293 418.453 85.1146 434.279 90.953L427.862 103.209Z" fill="black"/>
<path fill-rule="evenodd" clip-rule="evenodd" d="M480.745 164.15L456.764 108.082C455.22 104.608 451.988 102.051 448.079 100.989C446.101 100.072 443.93 99.4935 441.662 99.3005L433.507 98.6249L434.231 90.9531C434.231 90.9531 433.121 93.7034 424.147 95.3921C412.036 97.6599 392.108 87.1412 392.108 87.1412C392.108 87.1412 392.108 97.5634 392.108 99.011L379.756 98.6732C374.448 98.5284 364.171 98.0942 358.188 109.916L329.189 182.726C324.026 192.135 326.728 206.031 335.268 213.221L352.204 222.582L350.612 241.399L478.767 240.965L478.043 224.27C517.03 200.097 480.745 164.15 480.745 164.15Z" fill="#787885"/>
<path fill-rule="evenodd" clip-rule="evenodd" d="M342.87 182.177C348.944 177.826 354.831 175.952 360.438 176.192C364.858 176.382 368.836 177.862 372.314 180.203C373.617 181.08 374.76 182.02 375.737 182.964L375.965 183.187C376.439 183.657 376.776 184.033 376.973 184.276C377.476 184.897 377.381 185.809 376.759 186.312C376.162 186.796 375.296 186.726 374.783 186.167L374.586 185.939C374.559 185.907 374.527 185.873 374.492 185.834C374.279 185.599 374.023 185.333 373.725 185.046C372.866 184.215 371.853 183.382 370.697 182.604C367.635 180.543 364.158 179.249 360.313 179.085C355.374 178.873 350.118 180.546 344.556 184.53C343.906 184.996 343.002 184.846 342.537 184.197C342.071 183.547 342.22 182.642 342.87 182.177Z" fill="white"/>
<path fill-rule="evenodd" clip-rule="evenodd" d="M346.326 174.687C352.714 171.362 358.371 170.266 363.313 171.091C367.315 171.759 370.632 173.641 373.298 176.345C374.444 177.506 375.396 178.748 376.17 179.998C376.449 180.447 376.687 180.87 376.887 181.26L376.987 181.458C377.063 181.611 377.12 181.733 377.171 181.849C377.496 182.58 377.167 183.435 376.436 183.76C375.706 184.085 374.85 183.755 374.526 183.025C374.365 182.662 374.117 182.18 373.709 181.522C373.043 180.448 372.221 179.376 371.237 178.378C368.976 176.085 366.196 174.508 362.836 173.947C358.551 173.231 353.521 174.206 347.663 177.255C346.954 177.624 346.08 177.349 345.711 176.64C345.342 175.931 345.617 175.056 346.326 174.687Z" fill="white"/>
<path fill-rule="evenodd" clip-rule="evenodd" d="M466.541 172.544C472.296 171.729 478.551 173.285 485.245 177.601C485.917 178.035 486.11 178.931 485.677 179.602C485.244 180.274 484.348 180.468 483.676 180.034C477.545 176.08 471.983 174.697 466.947 175.411C462.973 175.974 459.471 177.819 456.448 180.558C455.147 181.738 454.025 183.004 453.088 184.268C452.808 184.645 452.564 184.997 452.354 185.318L452.161 185.621C452.078 185.753 452.023 185.846 451.996 185.895C451.605 186.592 450.722 186.841 450.025 186.45C449.328 186.059 449.079 185.176 449.47 184.479L449.559 184.324C449.803 183.91 450.204 183.296 450.763 182.543C451.807 181.135 453.054 179.728 454.504 178.413C457.927 175.311 461.941 173.196 466.541 172.544Z" fill="white"/>
<path fill-rule="evenodd" clip-rule="evenodd" d="M452.715 173.846C458.22 168.353 465.991 165.744 476.229 167.599C477.015 167.741 477.537 168.495 477.395 169.281C477.252 170.068 476.499 170.59 475.712 170.448C466.432 168.766 459.61 171.056 454.76 175.895C453.446 177.206 452.384 178.612 451.554 180.014C451.307 180.431 451.098 180.821 450.923 181.175L450.839 181.349C450.771 181.492 450.72 181.607 450.684 181.689L450.638 181.801C450.35 182.547 449.511 182.917 448.766 182.629C448.02 182.341 447.649 181.503 447.938 180.757L448.01 180.578C448.209 180.101 448.554 179.398 449.063 178.539C450.011 176.937 451.219 175.339 452.715 173.846Z" fill="white"/>
<path fill-rule="evenodd" clip-rule="evenodd" d="M396.5 97.6599V65.2834L424.968 82.4125L424.292 99.8312L396.5 97.6599Z" fill="white"/>
<path fill-rule="evenodd" clip-rule="evenodd" d="M395.051 65.2836V97.66C395.051 98.4157 395.632 99.0443 396.386 99.1031L424.178 101.274C424.997 101.338 425.705 100.708 425.737 99.8874L426.412 82.4688C426.433 81.9413 426.165 81.4445 425.712 81.1724L397.245 64.0433C396.28 63.4628 395.051 64.1577 395.051 65.2836ZM397.945 67.8438L423.487 83.2117L422.903 98.2708L397.945 96.321V67.8438Z" fill="black"/>
<path fill-rule="evenodd" clip-rule="evenodd" d="M434.181 30.543C422.601 22.5333 412.179 19.59 395.821 40.5309L393.602 54.3307C386.75 52.2559 383.131 55.6334 384.627 61.6166C386.219 68.0822 389.983 70.9772 396.207 69.2885C396.207 69.2885 395.87 68.4682 396.207 69.2885C399.199 76.0436 404.844 83.812 415.315 86.0798C431.72 89.6504 435.484 79.4694 437.317 75.5128C439.103 71.4597 445.761 38.5526 434.181 30.543Z" fill="white"/>
<path fill-rule="evenodd" clip-rule="evenodd" d="M416.586 23.2478C409.691 24.2434 402.677 29.4026 394.681 39.6398L394.62 39.7244C394.503 39.8976 394.426 40.0943 394.392 40.301L392.423 52.5434L392.219 52.5045C385.538 51.2778 381.555 55.2967 383.223 61.9676L383.278 62.1858C385.023 68.9838 389.208 72.1515 395.384 70.9647L395.512 71.2293C399.569 79.591 405.907 85.5233 415.009 87.4945C425.259 89.7255 431.831 87.14 435.908 81.2432C436.524 80.3528 437.059 79.4221 437.575 78.3851L437.767 77.9933C437.863 77.795 437.959 77.5906 438.061 77.3701L438.631 76.1215C439.974 73.0743 441.828 62.9809 442.208 54.577C442.76 42.3554 440.689 33.2836 435.005 29.3524C427.88 24.4242 422.483 22.3962 416.586 23.2478ZM433.358 31.7334C437.941 34.9034 439.826 43.1568 439.315 54.4461L439.289 54.9752C438.872 62.9446 437.131 72.3445 435.993 74.9292L435.532 75.9388C435.332 76.3774 435.162 76.7367 434.984 77.0944C434.525 78.0161 434.056 78.8304 433.526 79.5968C430.117 84.5276 424.729 86.6473 415.623 84.6653C407.06 82.8106 401.208 77.004 397.531 68.7022C397.243 68.0516 396.525 67.7069 395.837 67.8892L395.651 67.9384C390.53 69.2628 387.471 67.1105 386.033 61.2704C384.788 56.2916 387.5 53.9953 393.182 55.716L393.266 55.7388C394.079 55.9334 394.897 55.3971 395.031 54.5605L397.191 41.1301L397.655 40.5446C404.936 31.4309 411.164 26.9558 416.999 26.1131C422.008 25.3899 426.777 27.1821 433.358 31.7334Z" fill="black"/>
<path fill-rule="evenodd" clip-rule="evenodd" d="M428.567 54.3399C429.333 54.2531 430.027 54.781 430.156 55.531L430.168 55.6153L431.567 67.9675C431.663 68.81 431.018 69.547 430.183 69.577L430.098 69.5776L425.515 69.4811C424.715 69.4643 424.081 68.8027 424.098 68.0034C424.114 67.2327 424.73 66.6154 425.491 66.5874L425.576 66.5867L428.504 66.6481L427.291 55.9412C427.205 55.1752 427.732 54.4812 428.482 54.3519L428.567 54.3399Z" fill="black"/>
<path fill-rule="evenodd" clip-rule="evenodd" d="M434.087 57.9013C434.859 57.9013 435.486 56.9507 435.486 55.7782C435.486 54.6057 434.859 53.6552 434.087 53.6552C433.314 53.6552 432.688 54.6057 432.688 55.7782C432.688 56.9507 433.314 57.9013 434.087 57.9013Z" fill="black"/>
<path fill-rule="evenodd" clip-rule="evenodd" d="M420.817 57.6599C421.59 57.6599 422.216 56.7094 422.216 55.5368C422.216 54.3643 421.59 53.4138 420.817 53.4138C420.044 53.4138 419.418 54.3643 419.418 55.5368C419.418 56.7094 420.044 57.6599 420.817 57.6599Z" fill="black"/>
<path fill-rule="evenodd" clip-rule="evenodd" d="M433.234 41.8704C434.098 41.7318 435.013 41.7242 435.914 41.9437C437.492 42.3284 438.706 43.3613 439.233 45.0751C439.468 45.8391 439.039 46.6492 438.275 46.8843C437.539 47.111 436.759 46.7203 436.494 46.007L436.466 45.9264C436.257 45.2451 435.865 44.9115 435.228 44.7565C434.757 44.6416 434.208 44.6462 433.692 44.7289L433.576 44.749C433.526 44.7583 433.488 44.7664 433.464 44.7719L433.445 44.7767C432.672 44.982 431.879 44.5222 431.674 43.7496C431.469 42.977 431.928 42.1841 432.701 41.9788L432.818 41.9501C432.927 41.9249 433.067 41.8971 433.234 41.8704Z" fill="black"/>
<path fill-rule="evenodd" clip-rule="evenodd" d="M419.657 70.6877C419.657 70.6877 424.096 72.28 427.812 71.6528C427.812 71.6528 426.412 78.0701 422.794 77.2981C419.223 76.4778 419.657 70.6877 419.657 70.6877Z" fill="black"/>
<path fill-rule="evenodd" clip-rule="evenodd" d="M373.772 15.7299C366.39 1.30288 354.569 0.0483593 340.914 2.79866C327.259 5.50071 319.635 23.8843 319.153 25.5731C313.604 45.4525 320.938 66.6829 337.343 79.2281C339.177 80.6274 340.962 82.0267 342.699 83.3777C352.349 90.9048 330.974 97.3705 330.974 97.3705C371.842 100.652 362.916 59.7347 362.048 56.1159C375.172 51.1461 380.624 29.1437 373.772 15.7299Z" fill="black"/>
<path fill-rule="evenodd" clip-rule="evenodd" d="M395.775 44.2945C394.472 47.6238 390.709 49.2643 387.379 47.9616L363.688 38.7456C360.359 37.4428 358.719 33.6793 360.021 30.3499C361.324 27.0206 365.088 25.3801 368.417 26.6829L392.108 35.8988C395.437 37.2016 397.078 40.9652 395.775 44.2945Z" fill="#AEAEAE"/>
<path fill-rule="evenodd" clip-rule="evenodd" d="M445.665 44.6322C445.52 34.596 443.108 25.8143 437.076 20.0242C436.256 19.011 435.146 18.1425 433.65 17.3222C428.729 14.1376 422.022 12.4006 413.096 12.7384C412.951 12.7384 412.758 12.7866 412.565 12.8831C411.166 13.0279 409.766 13.2209 408.415 13.5104C407.692 13.6069 406.968 13.7999 406.196 14.0411C403.638 14.7166 401.274 15.6334 399.055 16.6467C379.079 25.2353 371.262 40.7239 380.189 62.099C384.772 73.1002 390.756 76.6708 396.546 76.6708V70.0121C396.063 68.9506 395.243 69.3849 395.243 69.3849C389.018 71.0737 386.268 68.0821 384.628 61.6165C383.856 58.4802 384.483 56.1159 386.172 54.8131C386.22 54.7649 386.268 54.7649 386.316 54.7166C386.365 54.6684 386.461 54.6201 386.509 54.5719C386.558 54.5236 386.606 54.5236 386.654 54.4754C386.751 54.4271 386.799 54.3789 386.895 54.3306C386.944 54.3306 386.992 54.2824 387.04 54.2824C387.137 54.2341 387.233 54.1859 387.281 54.1859C387.33 54.1859 387.378 54.1376 387.426 54.1376C387.523 54.0894 387.619 54.0894 387.716 54.0411C387.764 54.0411 387.764 54.0411 387.812 53.9929C388.343 53.8481 388.922 53.7516 389.549 53.7516H389.597C389.742 53.7516 389.887 53.7516 390.032 53.7516C390.08 53.7516 390.08 53.7516 390.128 53.7516C390.273 53.7516 390.418 53.7516 390.563 53.7516C390.611 53.7516 390.611 53.7516 390.659 53.7516C390.804 53.7516 390.997 53.7999 391.142 53.7999H391.19C391.914 53.8964 392.734 54.0894 393.554 54.3306C394.085 54.4754 393.699 54.7166 394.278 54.9579L395.725 54.8614C396.208 54.8614 396.739 54.8131 397.269 54.7649C409.863 53.2691 429.453 44.2462 436.401 32.666C441.322 38.6491 441.853 50.374 440.936 60.3137C443.928 55.6334 445.761 50.374 445.665 44.6322Z" fill="black"/>
<path fill-rule="evenodd" clip-rule="evenodd" d="M415.857 40.9427C417.44 39.7813 419.393 39.2016 421.656 39.5329C422.447 39.6486 422.995 40.3837 422.879 41.1747C422.763 41.9657 422.028 42.5132 421.237 42.3974C419.777 42.1837 418.572 42.5412 417.571 43.2764C417.288 43.484 417.046 43.7058 416.846 43.9242L416.763 44.0175C416.715 44.0728 416.683 44.1137 416.666 44.1366L416.656 44.1503C416.202 44.8088 415.301 44.975 414.642 44.5217C413.984 44.0683 413.818 43.167 414.271 42.5085L414.348 42.4018C414.436 42.2851 414.556 42.1392 414.708 41.9722C415.031 41.6188 415.413 41.2688 415.857 40.9427Z" fill="white"/>
<path fill-rule="evenodd" clip-rule="evenodd" d="M454.208 132.352L451.168 116.237C449.914 109.674 443.593 105.38 437.079 106.586L432.447 107.455C429.359 91.1461 413.677 80.4344 397.368 83.4742C381.06 86.5622 370.348 102.244 373.388 118.553L368.755 119.421C362.193 120.676 357.899 126.996 359.105 133.51L362.145 149.626C378.454 146.538 394.184 157.298 397.224 173.607C400.312 189.916 389.552 205.645 373.243 208.733L375.269 219.397C376.524 225.959 382.845 230.253 389.359 229.047L457.682 216.164C464.245 214.91 468.539 208.589 467.333 202.075L465.306 191.411C448.997 194.499 433.267 183.739 430.227 167.431C427.139 151.17 437.851 135.44 454.208 132.352Z" fill="#FFDD2D"/>
<path fill-rule="evenodd" clip-rule="evenodd" d="M389.452 217.805C395.966 222.437 396.835 218.915 394.905 216.695C392.54 213.896 381.153 204.97 381.153 204.97C381.153 204.97 390.272 207.672 392.492 202.557C394.712 197.443 392.299 196.43 388.873 198.167C385.447 199.904 374.784 193.631 374.784 193.631L371.31 190.398C371.31 190.398 359.585 186.635 356.593 199.614C354.277 207.045 359.15 212.159 359.15 212.159C360.55 213.752 365.375 220.024 380.67 227.648C380.67 227.648 387.86 230.302 382.456 225.139C381.056 223.788 379.609 222.582 378.21 221.568" fill="white"/>
<path fill-rule="evenodd" clip-rule="evenodd" d="M363.118 189.188C365.571 188.304 368.136 188.266 370.525 188.723L370.792 188.776C371.218 188.865 371.545 188.953 371.754 189.02C371.922 189.074 372.079 189.159 372.217 189.269L372.297 189.338L375.652 192.46L375.861 192.58L376.221 192.781C376.409 192.886 376.612 192.998 376.827 193.114C377.852 193.668 378.943 194.222 380.051 194.739C381.028 195.194 381.973 195.598 382.866 195.936L383.245 196.076C385.683 196.96 387.51 197.235 388.22 196.875C390.447 195.747 392.456 195.54 393.767 196.715C395.183 197.984 395.092 200.206 393.821 203.134C392.713 205.689 390.303 206.899 387.158 207.101C386.938 207.115 386.717 207.124 386.494 207.128L386.181 207.131L386.762 207.602C387.377 208.102 387.985 208.599 388.579 209.09L389.506 209.859L390.458 210.656C393.148 212.923 395.041 214.638 395.933 215.669L395.998 215.745C397.47 217.437 397.834 219.791 396.202 220.987C394.593 222.166 392.016 221.403 388.615 218.984C387.963 218.521 387.811 217.617 388.274 216.966C388.737 216.314 389.641 216.162 390.293 216.625C391.714 217.636 392.876 218.255 393.736 218.51C393.949 218.572 394.129 218.609 394.275 218.623L394.344 218.629L394.338 218.594C394.278 218.338 394.123 218.029 393.883 217.729L393.8 217.629C393.011 216.695 390.928 214.822 387.982 212.357L387.319 211.805C385.776 210.524 384.121 209.181 382.466 207.858L381.516 207.101L380.261 206.109C379.027 205.141 379.999 203.198 381.486 203.56L381.784 203.642C381.826 203.652 381.872 203.664 381.924 203.677C382.232 203.754 382.58 203.832 382.96 203.905C384.328 204.166 385.712 204.293 386.973 204.212C389.146 204.073 390.568 203.358 391.166 201.981C391.638 200.892 391.875 200.023 391.9 199.41C391.909 199.189 391.889 199.027 391.854 198.922L391.835 198.871L391.815 198.863C391.806 198.86 391.792 198.856 391.774 198.852C391.675 198.828 391.531 198.821 391.346 198.84C390.905 198.886 390.336 199.066 389.692 199.377L389.529 199.458C387.785 200.342 385.222 199.923 381.84 198.643C380.876 198.278 379.867 197.847 378.828 197.363C377.664 196.82 376.522 196.24 375.45 195.66L375.016 195.424C374.877 195.347 374.745 195.273 374.618 195.202L374.229 194.982C374.151 194.937 374.092 194.902 374.051 194.879C373.991 194.843 373.933 194.803 373.879 194.759L373.799 194.691L370.584 191.699L370.543 191.688C370.417 191.657 370.28 191.626 370.132 191.596L369.981 191.566C368.059 191.199 365.993 191.229 364.1 191.912C361.169 192.968 359.038 195.46 358.005 199.939C357.997 199.975 357.988 200.01 357.977 200.045C356.928 203.41 357.402 206.477 358.837 209.156C359.148 209.736 359.48 210.248 359.809 210.683L359.928 210.837C360.038 210.977 360.123 211.077 360.176 211.135L360.239 211.204L360.942 212.017C361.286 212.412 361.624 212.784 362.001 213.18C363.02 214.248 364.199 215.35 365.623 216.526C369.411 219.655 374.399 222.872 380.883 226.135L381.242 226.314L381.438 226.382L381.661 226.455L381.768 226.488L381.583 226.306L381.452 226.18C380.134 224.907 378.742 223.739 377.362 222.741C376.715 222.272 376.57 221.367 377.039 220.719C377.508 220.072 378.413 219.927 379.06 220.396C380.551 221.475 382.047 222.73 383.457 224.092L383.722 224.348C385.614 226.198 386.338 227.416 385.729 228.665C385.344 229.453 384.635 229.74 383.797 229.774C383.346 229.792 382.843 229.732 382.275 229.614C381.974 229.551 381.661 229.472 381.341 229.381L381.055 229.298C380.689 229.188 380.381 229.083 380.171 229.006C380.121 228.988 380.073 228.967 380.026 228.943C373.137 225.51 367.826 222.1 363.779 218.758C362.266 217.508 361.003 216.328 359.906 215.178C359.579 214.835 359.28 214.508 358.983 214.174L358.075 213.127L358.056 213.106C357.938 212.978 357.777 212.788 357.585 212.54L357.5 212.429C357.084 211.879 356.67 211.242 356.285 210.523C354.543 207.27 353.936 203.506 355.138 199.428L355.198 199.232L355.246 199.028C356.503 193.85 359.215 190.668 362.931 189.257L363.118 189.188Z" fill="black"/>
<path fill-rule="evenodd" clip-rule="evenodd" d="M379.273 210.857C381.541 212.545 391.095 217.901 393.363 221.327C395.631 224.753 392.784 225.863 384.629 219.976" fill="white"/>
<path fill-rule="evenodd" clip-rule="evenodd" d="M378.111 209.992C378.57 209.375 379.426 209.229 380.061 209.643L380.262 209.784C381.224 210.448 385.832 213.374 387.122 214.237L387.781 214.683C388.534 215.195 389.228 215.685 389.871 216.158C392.15 217.835 393.729 219.261 394.568 220.528C395.309 221.647 395.673 222.673 395.531 223.607C395.331 224.917 394.244 225.619 392.873 225.591C390.892 225.549 387.776 224.034 383.78 221.15C383.132 220.682 382.986 219.777 383.454 219.129C383.922 218.48 384.827 218.334 385.475 218.802L385.901 219.106C388.78 221.143 391.05 222.319 392.373 222.619L392.459 222.637L392.418 222.562C392.362 222.458 392.294 222.344 392.215 222.22L392.154 222.126C391.556 221.223 390.175 219.976 388.156 218.49C387.454 217.974 386.683 217.433 385.834 216.86L385.273 216.485C383.691 215.443 379.039 212.488 378.407 212.018C377.766 211.54 377.633 210.633 378.111 209.992Z" fill="black"/>
<path fill-rule="evenodd" clip-rule="evenodd" d="M375.749 214.524C375.991 214.958 391.624 223.402 390.61 225.621C389.79 227.455 387.571 227.551 378.886 222.051L371.938 217.226" fill="white"/>
<path fill-rule="evenodd" clip-rule="evenodd" d="M375.049 213.258C375.592 212.956 376.246 213.041 376.693 213.423L376.75 213.475L376.92 213.588L377.406 213.891C377.661 214.047 377.976 214.237 378.528 214.567L380.416 215.699C381.786 216.524 382.742 217.111 383.824 217.796L383.98 217.895C384.515 218.235 385.026 218.564 385.513 218.885L385.874 219.124C387.635 220.297 389.039 221.328 390.051 222.219L390.193 222.345C391.794 223.786 392.531 224.906 391.934 226.212C391.167 227.928 389.59 228.549 387.35 227.991C385.419 227.51 382.649 226.117 378.623 223.595L378.113 223.274L378.062 223.24L371.114 218.414C370.458 217.958 370.295 217.057 370.751 216.4C371.19 215.768 372.043 215.593 372.692 215.988L372.765 216.037L379.691 220.845L379.904 220.981C383.748 223.402 386.347 224.729 387.951 225.156L388.05 225.182C388.584 225.315 388.861 225.358 389.028 225.311L389.047 225.304L389.033 225.286C388.877 225.094 388.653 224.861 388.367 224.598L388.257 224.497C387.4 223.726 386.124 222.778 384.494 221.684L384.269 221.534C383.809 221.227 383.325 220.912 382.816 220.586L382.429 220.339C381.303 219.625 380.335 219.03 378.915 218.175L375.838 216.326L375.5 216.116C375.355 216.025 375.236 215.948 375.14 215.882C375.053 215.823 374.98 215.77 374.914 215.718C374.73 215.572 374.618 215.463 374.486 215.226C374.098 214.528 374.35 213.646 375.049 213.258Z" fill="black"/>
<path fill-rule="evenodd" clip-rule="evenodd" d="M446.534 203.329C438.91 205.79 439.152 202.22 441.661 200.627C444.797 198.649 458.307 193.534 458.307 193.534C458.307 193.534 448.802 193.39 448.223 187.841C447.644 182.292 450.249 182.051 453 184.753C455.75 187.455 467.813 184.608 467.813 184.608L472.107 182.581C472.107 182.581 484.411 182.485 483.446 195.754C483.446 203.571 477.27 206.948 477.27 206.948C475.485 208.058 468.971 212.593 452.083 215.344C452.083 215.344 444.411 215.73 451.118 212.4C452.855 211.532 454.592 210.856 456.233 210.277" fill="white"/>
<path fill-rule="evenodd" clip-rule="evenodd" d="M471.993 181.139L472.098 181.134L472.244 181.135C472.375 181.138 472.542 181.146 472.743 181.16C473.181 181.19 473.663 181.246 474.178 181.333C475.635 181.578 477.091 182.024 478.464 182.725C482.82 184.949 485.307 189.171 484.909 195.61L484.895 195.814L484.894 196.017C484.837 199.596 483.616 202.605 481.613 205.041L481.465 205.218C480.717 206.1 479.916 206.843 479.112 207.452C478.741 207.733 478.425 207.946 478.183 208.093L478.01 208.194L477.505 208.513C477.233 208.684 476.991 208.834 476.728 208.991C476.02 209.417 475.274 209.832 474.435 210.258C472.211 211.389 469.593 212.467 466.46 213.476C462.421 214.776 457.733 215.891 452.318 216.773L452.238 216.783L452.158 216.79C452.114 216.792 452.04 216.795 451.941 216.798C451.36 216.815 450.722 216.807 450.104 216.754C449.518 216.704 449.007 216.618 448.571 216.476C447.773 216.217 447.174 215.782 446.974 214.955C446.609 213.449 447.796 212.435 450.472 211.106C452.085 210.3 453.754 209.618 455.753 208.913C456.507 208.647 457.333 209.042 457.6 209.796C457.866 210.55 457.47 211.377 456.716 211.643C454.822 212.311 453.258 212.95 451.763 213.697L451.44 213.861L451.346 213.91L451.563 213.91L451.936 213.901L452.395 213.826C457.26 213.012 461.496 212.007 465.167 210.85L465.573 210.72C468.56 209.759 471.036 208.739 473.122 207.678C473.899 207.283 474.586 206.9 475.239 206.509C475.421 206.4 475.593 206.294 475.776 206.18L476.508 205.719L476.673 205.622L476.76 205.567C476.939 205.453 477.142 205.313 477.363 205.145C478.006 204.657 478.653 204.058 479.256 203.346C480.928 201.375 481.943 198.95 481.999 196.008L482.001 195.754L482.005 195.649C482.398 190.245 480.535 187.033 477.147 185.303C476.06 184.748 474.881 184.387 473.697 184.188C473.348 184.129 473.019 184.088 472.718 184.062L472.456 184.042L472.412 184.039L468.433 185.917C468.372 185.946 468.309 185.97 468.245 185.99L468.147 186.017L467.883 186.077C467.718 186.114 467.533 186.154 467.33 186.197L467.174 186.23C466.42 186.387 465.596 186.544 464.728 186.69C463.186 186.95 461.673 187.149 460.246 187.262C456.284 187.576 453.472 187.245 451.987 185.785C451.416 185.224 450.877 184.835 450.436 184.642C450.265 184.568 450.125 184.531 450.023 184.523L449.96 184.522C449.961 184.522 449.953 184.528 449.927 184.564C449.862 184.653 449.795 184.802 449.737 185.016C449.577 185.608 449.541 186.509 449.664 187.691C449.838 189.351 451.247 190.546 453.689 191.317C454.698 191.636 455.795 191.851 456.895 191.978C457.204 192.013 457.495 192.04 457.763 192.058L457.959 192.071C458.118 192.08 458.235 192.085 458.302 192.087L458.331 192.087C459.898 192.111 460.3 194.242 458.903 194.855L456.726 195.694L456.133 195.924C454.367 196.612 452.601 197.314 450.926 197.997L449.797 198.462L448.527 198.992C445.525 200.258 443.373 201.26 442.438 201.85C442.072 202.082 441.785 202.371 441.633 202.63L441.618 202.658C441.747 202.689 441.908 202.711 442.103 202.719L442.225 202.722C443.124 202.734 444.424 202.49 446.091 201.952C446.852 201.706 447.668 202.124 447.913 202.885C448.159 203.646 447.741 204.461 446.981 204.707C442.997 205.993 440.315 205.957 439.135 204.358C437.937 202.736 438.983 200.614 440.89 199.403L441.075 199.289C442.306 198.552 444.636 197.482 447.865 196.13L449.112 195.612C450.063 195.221 451.047 194.823 452.047 194.423L452.872 194.095L452.817 194.078C449.459 193.017 447.188 191.125 446.804 188.157L446.785 187.991C446.453 184.814 447.035 182.666 448.77 181.883C450.376 181.159 452.23 181.966 454.016 183.72C454.666 184.359 456.903 184.623 460.017 184.376C461.351 184.27 462.782 184.082 464.247 183.835C465.076 183.695 465.864 183.545 466.584 183.396L467.006 183.306L467.338 183.232L471.492 181.272C471.65 181.198 471.82 181.153 471.993 181.139Z" fill="black"/>
<path fill-rule="evenodd" clip-rule="evenodd" d="M458.359 199.711C455.656 200.627 444.993 202.895 441.76 205.501C438.575 208.058 440.94 210.036 450.494 206.852" fill="white"/>
<path fill-rule="evenodd" clip-rule="evenodd" d="M457.893 198.34C458.65 198.083 459.472 198.488 459.729 199.246C459.977 199.976 459.609 200.766 458.903 201.052L458.823 201.081C458.117 201.321 452.147 202.917 450.321 203.464L449.557 203.697C446.149 204.753 443.769 205.74 442.666 206.629C442.51 206.755 442.377 206.873 442.268 206.978L442.216 207.03L442.231 207.032C443.591 207.181 446.241 206.725 449.802 205.556L450.036 205.478C450.794 205.226 451.614 205.635 451.867 206.394C452.12 207.152 451.71 207.972 450.951 208.225L450.427 208.397C446.017 209.82 442.769 210.266 440.934 209.716C439.622 209.322 438.805 208.322 439.007 207.016C439.153 206.079 439.812 205.209 440.852 204.374C442.394 203.131 445.172 201.998 449.2 200.778L449.811 200.596C451.829 200.008 456.579 198.733 457.701 198.399L457.893 198.34Z" fill="black"/>
<path fill-rule="evenodd" clip-rule="evenodd" d="M460.624 204.294C460.238 204.632 442.82 208.01 443.109 210.422C443.35 212.401 445.473 213.173 455.365 210.519L463.423 207.962" fill="white"/>
<path fill-rule="evenodd" clip-rule="evenodd" d="M460.051 202.966C460.613 202.722 461.291 202.855 461.717 203.341C462.243 203.943 462.182 204.857 461.58 205.384L461.478 205.471C461.299 205.62 461.178 205.678 460.738 205.796L459.895 206.012L456.351 206.865C455.126 207.162 454.146 207.407 453.17 207.664L452.248 207.909C449.602 208.622 447.507 209.287 446.067 209.898C445.541 210.122 445.121 210.332 444.82 210.517L444.714 210.585L444.722 210.591C444.862 210.679 445.117 210.723 445.601 210.756L445.708 210.763C447.358 210.862 450.262 210.378 454.718 209.194L454.961 209.129L462.988 206.582C463.723 206.348 464.506 206.732 464.777 207.443L464.805 207.523C465.039 208.258 464.655 209.041 463.944 209.313L463.864 209.341L455.806 211.898L455.743 211.917L454.88 212.145C450.465 213.293 447.488 213.77 445.534 213.652C443.23 213.513 441.902 212.454 441.675 210.595C441.496 209.104 442.605 208.241 444.782 207.3L444.936 207.234C446.465 206.584 448.561 205.913 451.178 205.199L452.247 204.913C453.552 204.568 454.832 204.251 456.64 203.817L459.38 203.156L459.777 203.053L459.998 202.99L460.051 202.966Z" fill="black"/>
<path fill-rule="evenodd" clip-rule="evenodd" d="M713.458 139.638C713.603 113.293 675.147 104.222 675.147 104.222C678.042 91.1461 676.739 58.7697 621.926 68.6612C593.844 73.5345 585.931 88.2511 591.914 100.169C581.009 105.573 553.747 144.656 553.747 144.656L554.278 178.239C552.252 177.805 550.129 177.564 547.957 177.564C530.732 177.467 516.642 191.412 516.594 208.685C516.498 225.911 531.89 241.351 549.164 241.448C551.238 241.448 553.265 241.255 555.243 240.821V241.448L704.194 241.062C704.194 241.062 704.918 211.194 701.347 179.542C707.572 165.211 713.458 149.192 713.458 139.638Z" fill="#AEAEAE"/>
<path fill-rule="evenodd" clip-rule="evenodd" d="M651.019 88.1544L660.959 93.655C660.959 93.655 635.097 104.801 630.416 156.381C627.377 189.867 629.789 242.123 629.789 242.123L612.708 241.882C612.708 241.882 617.292 138.287 609.862 121.399C602.431 104.56 610.634 103.498 614.397 99.9759C618.209 96.5018 651.019 88.1544 651.019 88.1544Z" fill="white"/>
<path fill-rule="evenodd" clip-rule="evenodd" d="M542.41 230.639C556.107 230.639 567.211 219.536 567.211 205.838C567.211 192.141 556.107 181.037 542.41 181.037C528.713 181.037 517.609 192.141 517.609 205.838C517.609 219.536 528.713 230.639 542.41 230.639Z" fill="black"/>
<path fill-rule="evenodd" clip-rule="evenodd" d="M632.83 229.481C644.742 229.481 654.399 219.825 654.399 207.913C654.399 196.001 644.742 186.345 632.83 186.345C620.918 186.345 611.262 196.001 611.262 207.913C611.262 219.825 620.918 229.481 632.83 229.481Z" fill="black"/>
<path fill-rule="evenodd" clip-rule="evenodd" d="M650.539 134.716C654.833 132.786 668.488 117.153 675.147 104.125C680.696 104.029 688.705 107.841 692.179 110.543C676.401 135.44 650.491 134.716 650.539 134.716Z" fill="black"/>
<path fill-rule="evenodd" clip-rule="evenodd" d="M649.478 177.393C652.384 176.695 655.65 176.435 659.125 176.869C663.788 177.451 668.338 179.237 672.595 182.47C676.023 185.073 679.179 188.558 682.01 192.997C682.44 193.672 682.242 194.566 681.568 194.996C680.894 195.426 679.999 195.228 679.569 194.554C676.918 190.396 673.993 187.166 670.845 184.775C667.004 181.859 662.936 180.262 658.766 179.742C655.662 179.354 652.741 179.587 650.154 180.208C649.64 180.332 649.177 180.463 648.771 180.593L648.6 180.649C648.344 180.736 648.176 180.799 648.103 180.829C647.366 181.137 646.518 180.789 646.21 180.051C645.902 179.314 646.25 178.466 646.988 178.158L647.162 178.088C647.663 177.893 648.447 177.641 649.478 177.393Z" fill="black"/>
<path fill-rule="evenodd" clip-rule="evenodd" d="M649.407 175.597C653.339 173.384 657.855 172.205 662.84 172.614C669.283 173.143 675.929 176.31 682.647 182.585C683.231 183.131 683.262 184.047 682.717 184.631C682.171 185.215 681.255 185.247 680.671 184.701C674.41 178.853 668.366 175.973 662.603 175.5C658.239 175.141 654.285 176.174 650.827 178.12C649.78 178.709 648.861 179.339 648.079 179.966L647.821 180.176C647.699 180.278 647.586 180.376 647.483 180.468L647.264 180.667L647.178 180.75C646.618 181.32 645.701 181.327 645.131 180.766C644.562 180.206 644.554 179.289 645.115 178.719L645.218 178.617C645.444 178.398 645.796 178.085 646.269 177.706C647.169 176.985 648.218 176.267 649.407 175.597Z" fill="black"/>
<path fill-rule="evenodd" clip-rule="evenodd" d="M701.059 179.644C701.802 179.852 702.246 180.602 702.083 181.346L702.057 181.45L701.914 181.933L701.755 182.454C701.649 182.793 701.531 183.162 701.401 183.56L701.321 183.802C700.703 185.665 699.95 187.738 699.058 189.97C696.508 196.346 693.347 202.722 689.536 208.682C683.436 218.221 676.256 225.769 667.906 230.566C657.858 236.338 646.551 237.849 634.017 234.358L633.638 234.252L633.447 234.201C633.348 234.174 633.23 234.141 633.095 234.101L632.99 234.07C632.46 233.913 631.872 233.72 631.241 233.49C629.436 232.833 627.631 232.008 625.936 230.996C623.581 229.589 621.628 227.931 620.221 225.988C619.752 225.34 619.896 224.435 620.544 223.967C621.191 223.498 622.096 223.642 622.565 224.29C623.717 225.881 625.378 227.29 627.421 228.51C628.944 229.42 630.587 230.171 632.231 230.77C632.724 230.949 633.186 231.103 633.607 231.233L633.988 231.346C634.149 231.392 634.27 231.425 634.347 231.445L634.433 231.467C646.359 234.878 656.986 233.5 666.464 228.055C674.361 223.519 681.229 216.299 687.097 207.122C690.802 201.329 693.883 195.112 696.37 188.895C697.182 186.865 697.875 184.97 698.451 183.256L698.573 182.891C698.73 182.417 698.869 181.985 698.99 181.595L699.176 180.986L699.275 180.647C699.491 179.877 700.29 179.428 701.059 179.644Z" fill="black"/>
<path fill-rule="evenodd" clip-rule="evenodd" d="M661.739 146.305C662.481 146.603 662.84 147.446 662.542 148.188L661.98 149.572C661.532 150.67 661.028 151.893 660.479 153.21L659.692 155.092C658.375 158.223 657.037 161.326 655.73 164.256L655.188 165.466C655.008 165.864 654.831 166.256 654.655 166.642L654.392 167.216C653.405 169.369 652.483 171.307 651.639 172.997C651.501 173.273 651.363 173.548 651.223 173.823C649.183 177.831 646.998 181.481 644.811 184.703C644.044 185.834 643.33 186.831 642.688 187.687L642.368 188.109L641.99 188.596C641.933 188.668 641.891 188.721 641.863 188.755C641.358 189.375 640.446 189.468 639.826 188.963C639.23 188.478 639.121 187.616 639.563 187L639.618 186.927C639.648 186.89 639.712 186.81 639.807 186.688L640.071 186.348C640.165 186.225 640.266 186.092 640.373 185.949L640.715 185.488C641.239 184.776 641.809 183.971 642.415 183.078C644.537 179.951 646.661 176.404 648.643 172.51L648.846 172.109L649.048 171.705C649.878 170.045 650.786 168.135 651.76 166.01L652.283 164.863C652.547 164.28 652.815 163.685 653.086 163.077C654.513 159.876 655.98 156.463 657.416 153.033L658.286 150.944C658.545 150.318 658.792 149.718 659.026 149.147L659.856 147.108C660.154 146.366 660.997 146.007 661.739 146.305Z" fill="black"/>
<path fill-rule="evenodd" clip-rule="evenodd" d="M651.792 67.2617L651.068 90.1327C651.164 93.1725 649.813 96.0675 647.497 98.0458C643.058 101.713 634.952 108.999 624.771 120.531C624.771 120.531 612.033 106.972 609.91 85.8383L651.792 67.2617Z" fill="white"/>
<path fill-rule="evenodd" clip-rule="evenodd" d="M651.207 65.9387L609.326 84.5153C608.754 84.7689 608.41 85.3609 608.472 85.9832C609.348 94.6987 612.017 102.778 615.917 110.082C617.611 113.255 619.428 116.069 621.247 118.495C621.822 119.263 622.362 119.943 622.855 120.532L623.174 120.909C623.422 121.197 623.606 121.402 623.719 121.522C624.303 122.143 625.294 122.128 625.859 121.489C634.37 111.848 642.101 104.384 648.422 99.1619L648.585 99.02C651.12 96.7757 652.564 93.6035 652.522 90.298L652.518 90.1396L653.241 67.3077C653.275 66.2414 652.183 65.5062 651.207 65.9387ZM650.274 69.5196L649.623 90.087L649.623 90.1788C649.704 92.7395 648.572 95.2258 646.559 96.9453L646.253 97.1995C640.404 102.062 633.401 108.78 625.724 117.291L624.791 118.331L624.761 118.293C624.387 117.835 623.986 117.322 623.563 116.758C621.829 114.446 620.092 111.755 618.471 108.718L618.248 108.298C614.858 101.842 612.477 94.7668 611.521 87.1839L611.466 86.7326L650.274 69.5196Z" fill="black"/>
<path fill-rule="evenodd" clip-rule="evenodd" d="M654.881 55.4886C654.881 55.4886 664.965 55.7299 663.132 64.7528C661.298 73.7757 650.152 68.5164 650.152 68.5164L651.696 55.6817L654.881 55.4886Z" fill="white"/>
<path fill-rule="evenodd" clip-rule="evenodd" d="M654.927 54.0418C654.883 54.0405 654.839 54.0411 654.796 54.0438L651.611 54.2368C650.913 54.2791 650.345 54.8144 650.261 55.5088L648.717 68.3435C648.643 68.9624 648.973 69.5595 649.537 69.8255L649.723 69.911C650.192 70.1197 650.887 70.3906 651.745 70.6596C653.443 71.1916 655.153 71.5057 656.788 71.4869C660.77 71.4413 663.667 69.3989 664.553 65.0411C665.473 60.5147 663.838 57.3293 660.522 55.5365C659.394 54.9267 658.152 54.5221 656.871 54.2767C656.415 54.1894 655.98 54.1279 655.578 54.0877L655.362 54.068C655.295 54.0624 655.232 54.0577 655.173 54.0539L654.927 54.0418ZM652.991 57.0535L654.901 56.9377L655.013 56.9438C655.333 56.9641 655.789 57.0172 656.326 57.1201C657.337 57.3137 658.306 57.6291 659.145 58.0831C661.376 59.2892 662.373 61.2317 661.716 64.4645C661.123 67.3862 659.456 68.5611 656.755 68.592C655.466 68.6068 654.042 68.3452 652.611 67.8969L652.367 67.8188C652.207 67.7662 652.051 67.7125 651.899 67.6584L651.723 67.5938L652.991 57.0535Z" fill="black"/>
<path fill-rule="evenodd" clip-rule="evenodd" d="M626.22 26.8276C623.566 26.5863 605.327 25.3801 603.252 40.5791C601.177 55.7782 603.252 72.6178 604.941 80.2897C606.582 87.9616 641.563 84.584 643.542 83.9085C645.52 83.233 647.884 80.9169 647.884 80.9169L652.758 57.5635C652.758 57.5635 654.832 29.3366 626.22 26.8276Z" fill="white"/>
<path fill-rule="evenodd" clip-rule="evenodd" d="M621.744 25.2909C619.11 25.4035 616.524 25.7904 614.1 26.5284C607.334 28.5883 602.821 33.0508 601.821 40.3833C600.041 53.4162 601.123 69.6665 603.53 80.6008C604.472 85.005 611.811 86.6049 623.749 86.6751L624.585 86.6773C632.341 86.6687 642.353 85.8449 644.012 85.2783C644.354 85.1617 644.703 85.0084 645.061 84.8219C645.649 84.5156 646.255 84.124 646.871 83.6662C647.375 83.2922 647.859 82.8944 648.308 82.4966L648.628 82.2081C648.743 82.1021 648.835 82.015 648.9 81.9509C649.105 81.7502 649.246 81.4932 649.304 81.2125L654.177 57.8591C654.19 57.7966 654.199 57.7332 654.204 57.6695L654.219 57.3983L654.223 57.3031C654.234 57.0256 654.241 56.7059 654.241 56.3472C654.242 55.332 654.194 54.2004 654.079 52.9782C653.75 49.4863 652.956 45.9514 651.558 42.5816C647.576 32.983 639.585 26.6594 626.739 25.4215L626.349 25.3856C625.063 25.2687 623.521 25.2149 621.744 25.2909ZM626.091 28.2692C638.057 29.3185 645.261 34.9609 648.883 43.6911C650.161 46.7704 650.893 50.0276 651.196 53.2493C651.29 54.2516 651.336 55.1851 651.344 56.031L651.345 56.3441C651.345 56.665 651.339 56.9476 651.33 57.1885L651.321 57.3714L646.563 80.1719L646.388 80.3291C645.997 80.6753 645.576 81.0216 645.145 81.342C644.642 81.715 644.161 82.0262 643.724 82.254C643.488 82.3767 643.27 82.4722 643.076 82.5386C641.8 82.9741 631.823 83.7898 624.347 83.7823L624.122 83.7818C613.716 83.7477 606.851 82.2905 606.359 79.9869C604.019 69.3564 602.96 53.4416 604.689 40.7749C605.522 34.6701 609.18 31.0523 614.943 29.298C617.111 28.6378 619.461 28.2862 621.867 28.1833C623.503 28.1134 624.92 28.1628 626.091 28.2692Z" fill="black"/>
<path fill-rule="evenodd" clip-rule="evenodd" d="M649.382 57.3704C647.645 59.0591 643.061 68.7093 641.903 73.1967C641.903 73.1967 630.564 69.3366 614.303 69.0471C614.303 69.0471 605.425 69.1918 601.902 70.2051C601.902 70.2051 602.578 86.1762 609.767 94.4753C616.909 102.774 632.108 100.507 639.249 95.5851C646.39 90.6635 647.596 88.2992 649.237 82.9433C650.926 77.6357 655.365 57.8046 655.365 57.8046L649.382 57.3704Z" fill="#606060"/>
<path fill-rule="evenodd" clip-rule="evenodd" d="M654.012 60.7962C654.012 60.7962 658.789 53.4621 660.671 45.8384C662.408 38.649 659.127 31.1219 652.468 27.8891C646.92 25.187 642.77 27.2618 642.77 27.2618C642.77 27.2618 648.705 17.2256 639.875 8.29922C636.787 5.16291 632.444 3.42588 628.053 3.52238C617.245 3.81188 613.868 12.9313 613.868 12.9313C613.868 12.9313 602.384 -8.3956 578.596 4.10139C576.184 5.35591 573.482 8.87823 572.179 11.2908C564.266 25.7178 590.032 42.9434 603.494 44.3427C618.259 45.8867 626.944 43.4741 631.672 39.9036C628.102 41.9784 632.01 64.1255 654.012 60.7962Z" fill="black"/>
<path fill-rule="evenodd" clip-rule="evenodd" d="M623.491 79.2593C623.959 78.3516 625.061 77.9607 626.002 78.3867C626.973 78.8264 627.404 79.97 626.964 80.941L626.892 81.0921C626.809 81.2579 626.694 81.4663 626.545 81.7064C626.225 82.2218 625.838 82.7351 625.375 83.2189C623.252 85.4387 620.323 86.288 616.893 84.8721C615.908 84.4654 615.439 83.3369 615.846 82.3516C616.253 81.3664 617.381 80.8974 618.366 81.3042C620.21 82.065 621.493 81.693 622.585 80.5511C622.85 80.2736 623.079 79.9711 623.265 79.6709L623.352 79.5255L623.448 79.3487L623.491 79.2593Z" fill="black"/>
<path fill-rule="evenodd" clip-rule="evenodd" d="M612.527 62.46C612.78 61.4247 613.825 60.791 614.861 61.0447C615.864 61.2904 616.49 62.2786 616.297 63.2814L616.276 63.3785L613.86 73.2377L617.829 73.6409C618.857 73.7453 619.615 74.6389 619.562 75.66L619.554 75.756C619.45 76.7844 618.556 77.5418 617.535 77.4886L617.439 77.4812L611.263 76.8539C610.129 76.7388 609.349 75.6747 609.563 74.5693L609.583 74.4745L612.527 62.46Z" fill="black"/>
<path fill-rule="evenodd" clip-rule="evenodd" d="M609.847 61.0635C609.852 59.8377 609.208 58.8412 608.408 58.8377C607.609 58.8343 606.956 59.8252 606.951 61.0511C606.946 62.2769 607.59 63.2734 608.389 63.2769C609.189 63.2803 609.841 62.2894 609.847 61.0635Z" fill="black"/>
<path fill-rule="evenodd" clip-rule="evenodd" d="M623.561 60.9033C623.567 59.6775 622.923 58.681 622.123 58.6775C621.324 58.6741 620.671 59.665 620.666 60.8908C620.661 62.1166 621.304 63.1131 622.104 63.1166C622.904 63.12 623.556 62.1291 623.561 60.9033Z" fill="black"/>
<path fill-rule="evenodd" clip-rule="evenodd" d="M622.763 48.4151C625.2 48.0669 627.319 48.702 629.042 49.9614C629.527 50.3164 629.946 50.6972 630.301 51.0826L630.459 51.2589C630.605 51.4272 630.717 51.5708 630.794 51.6814C631.404 52.5553 631.19 53.7585 630.317 54.3688C629.471 54.9595 628.317 54.7784 627.69 53.9741L627.611 53.868C627.586 53.8369 627.536 53.7779 627.463 53.6985C627.271 53.49 627.036 53.2769 626.764 53.0775C625.849 52.4087 624.772 52.0696 623.479 52.2147L623.309 52.2364C622.253 52.3871 621.276 51.6539 621.125 50.5987C620.974 49.5435 621.708 48.5659 622.763 48.4151Z" fill="black"/>
<path fill-rule="evenodd" clip-rule="evenodd" d="M606.907 48.1221C607.904 47.8831 608.907 47.8939 609.855 48.0477L610.065 48.0844C610.228 48.1152 610.36 48.1457 610.459 48.1721C611.488 48.4483 612.099 49.5069 611.823 50.5364C611.555 51.5337 610.553 52.138 609.555 51.9237L609.403 51.8881C609.365 51.8802 609.308 51.8695 609.237 51.858C608.751 51.7791 608.233 51.7735 607.807 51.8759C607.317 51.9933 607.036 52.2122 606.862 52.6918L606.831 52.7848C606.512 53.8019 605.429 54.368 604.412 54.0492C603.395 53.7304 602.829 52.6474 603.147 51.6303C603.749 49.7111 605.132 48.5474 606.907 48.1221Z" fill="black"/>
<path fill-rule="evenodd" clip-rule="evenodd" d="M621.059 98.7696L550.565 98.4801C543.81 98.4318 538.309 103.932 538.261 110.688L538.213 127.286C521.373 127.189 507.67 140.796 507.622 157.636C507.525 174.475 521.132 188.179 537.971 188.227L537.923 199.228C537.875 205.983 543.375 211.484 550.131 211.532L620.625 211.822C627.38 211.87 632.881 206.369 632.929 199.614L633.315 111.074C633.267 104.318 627.814 98.8178 621.059 98.7696Z" fill="#FFDD2D"/>
<path fill-rule="evenodd" clip-rule="evenodd" d="M532.906 205.404C532.955 205.211 543.57 192.811 543.907 193.1C544.245 193.39 558.769 199.855 559.106 200.386C559.444 200.869 559.975 203.812 558.527 206.514C557.08 209.216 555.439 215.441 548.877 215.923C542.315 216.406 532.906 205.404 532.906 205.404Z" fill="white"/>
<path fill-rule="evenodd" clip-rule="evenodd" d="M552.254 195.947C552.254 195.947 553.509 187.407 551.531 185.38C549.552 183.353 538.503 202.268 534.691 203.571" fill="white"/>
<path fill-rule="evenodd" clip-rule="evenodd" d="M549.423 184.437C550.521 183.655 551.646 183.426 552.566 184.369C553.69 185.52 554.081 187.572 554.093 190.443C554.099 191.716 554.022 193.067 553.891 194.414L553.836 194.942C553.827 195.028 553.818 195.111 553.808 195.194L553.718 195.928C553.705 196.027 553.694 196.104 553.686 196.157C553.57 196.948 552.835 197.495 552.044 197.379C551.253 197.263 550.706 196.528 550.822 195.737L550.858 195.471L550.879 195.307C550.923 194.954 550.968 194.559 551.009 194.133C551.132 192.876 551.203 191.618 551.198 190.456C551.192 189.03 551.058 187.871 550.849 187.139L550.814 187.023L550.774 187.056C550.417 187.364 549.975 187.814 549.457 188.396L549.023 188.894C548.123 189.939 547.281 191.015 545.437 193.458L543.125 196.53C538.865 202.162 536.935 204.333 535.158 204.94C534.402 205.199 533.579 204.795 533.32 204.039C533.071 203.309 533.438 202.518 534.142 202.231L534.222 202.201C535.175 201.875 537.229 199.525 540.963 194.589L543.002 191.879C545.069 189.138 545.936 188.033 546.959 186.854L547.149 186.636C548.036 185.625 548.775 184.899 549.423 184.437Z" fill="black"/>
<path fill-rule="evenodd" clip-rule="evenodd" d="M558.141 197.443C558.141 197.443 560.795 191.218 557.273 188.227C553.799 185.235 545.162 202.268 541.398 204.439" fill="white"/>
<path fill-rule="evenodd" clip-rule="evenodd" d="M552.76 188.231C554.762 186.399 556.628 185.762 558.209 187.124C559.631 188.331 560.357 189.995 560.514 191.933C560.632 193.392 560.426 194.909 560.015 196.398C559.817 197.117 559.615 197.674 559.472 198.011C559.158 198.746 558.308 199.088 557.573 198.774C556.863 198.472 556.52 197.671 556.778 196.954L556.883 196.686C556.897 196.649 556.912 196.607 556.929 196.562C557.029 196.284 557.13 195.97 557.224 195.627C557.553 194.438 557.716 193.241 557.629 192.167C557.534 190.997 557.152 190.08 556.432 189.417L556.317 189.316C556.305 189.31 556.285 189.321 556.164 189.362C555.812 189.482 555.314 189.818 554.714 190.367C553.594 191.392 552.279 192.984 550.518 195.379L549.834 196.318L547.401 199.7C544.216 204.102 543.478 204.91 542.12 205.693C541.428 206.092 540.543 205.855 540.143 205.163C539.744 204.47 539.981 203.585 540.674 203.185L540.743 203.144C541.644 202.596 542.569 201.456 545.828 196.93L547.208 195.009C547.401 194.741 547.581 194.492 547.754 194.254L548.009 193.903C549.965 191.231 551.422 189.455 552.76 188.231Z" fill="black"/>
<path fill-rule="evenodd" clip-rule="evenodd" d="M559.733 204.584C559.733 204.584 564.172 193.438 561.084 191.074C557.996 188.71 552.93 203.185 546.898 206.514" fill="white"/>
<path fill-rule="evenodd" clip-rule="evenodd" d="M558.85 189.794C559.895 189.204 561.021 189.2 561.967 189.924C563.794 191.323 563.977 194.07 563.229 197.888C563.008 199.013 562.707 200.198 562.345 201.413C562.109 202.205 561.859 202.971 561.607 203.692L561.48 204.049C561.398 204.28 561.319 204.493 561.247 204.685L561.081 205.119C560.785 205.862 559.943 206.224 559.2 205.929C558.457 205.633 558.095 204.791 558.391 204.048L558.488 203.798L558.642 203.384C558.678 203.285 558.716 203.181 558.755 203.073C559.033 202.296 559.311 201.456 559.57 200.586C559.907 199.455 560.186 198.357 560.388 197.331L560.461 196.942C560.883 194.578 560.791 192.91 560.322 192.336L560.294 192.304L560.275 192.315C559.968 192.488 559.543 192.893 559.025 193.525L558.92 193.654L558.741 193.883C558.315 194.434 557.844 195.107 557.259 195.99L556.779 196.725C556.263 197.523 555.161 199.236 554.794 199.794L554.456 200.306C551.833 204.244 549.852 206.538 547.6 207.781C546.901 208.167 546.02 207.913 545.634 207.213C545.247 206.513 545.501 205.633 546.201 205.247C547.918 204.299 549.686 202.244 552.061 198.679L552.587 197.878C553.164 196.991 554.321 195.191 554.579 194.797L554.868 194.358C555.569 193.299 556.128 192.511 556.659 191.846C557.436 190.876 558.132 190.2 558.85 189.794Z" fill="black"/>
<path fill-rule="evenodd" clip-rule="evenodd" d="M535.512 203.185C535.03 200.772 535.271 198.263 536.236 196.044C537.346 193.438 538.648 189.964 538.745 187.696C538.938 183.788 532.569 185.621 532.279 188.034C531.99 190.446 530.784 190.302 527.985 192.811C525.187 195.272 525.717 205.115 525.717 205.115C525.717 205.115 523.257 210.181 531.17 216.212C539.083 222.244 547.575 217.563 547.575 217.563C547.575 217.563 562.918 211.918 562.918 200.869C562.918 189.819 558.865 205.935 551.193 210.471" fill="white"/>
<path fill-rule="evenodd" clip-rule="evenodd" d="M535.451 184.067C538.122 183.616 540.331 184.923 540.191 187.758C540.103 189.814 539.224 192.639 537.811 196.033L537.563 196.621C536.724 198.552 536.503 200.759 536.931 202.901C537.088 203.685 536.58 204.447 535.796 204.604C535.012 204.761 534.249 204.253 534.092 203.469C533.567 200.841 533.813 198.127 534.802 195.716L535.118 194.968C536.412 191.863 537.229 189.256 537.299 187.625C537.332 186.945 536.992 186.743 535.934 186.922C534.78 187.117 533.76 187.84 533.716 188.206C533.547 189.617 533.086 190.528 532.165 191.355L532.052 191.454C531.953 191.538 529.825 193.105 528.941 193.898C528.227 194.525 527.648 196.331 527.355 198.854C527.152 200.603 527.097 202.462 527.133 204.141L527.144 204.557C527.151 204.791 527.158 204.955 527.162 205.037C527.174 205.247 527.139 205.457 527.061 205.651L527.019 205.747C527.013 205.759 526.979 205.85 526.936 206.013C526.716 206.849 526.732 207.91 527.175 209.16C527.844 211.045 529.385 213.033 532.047 215.061C532.5 215.407 532.961 215.718 533.429 215.996C537.197 218.236 541.229 218.302 545.022 217.054C545.472 216.906 545.882 216.749 546.246 216.592L546.424 216.514C546.628 216.422 546.771 216.351 546.847 216.311L546.876 216.296C546.919 216.272 546.962 216.251 547.007 216.232L547.219 216.15C547.316 216.112 547.426 216.067 547.548 216.017L547.674 215.965C548.174 215.755 548.733 215.503 549.337 215.208C551.064 214.365 552.791 213.357 554.395 212.189C558.853 208.944 561.471 205.153 561.471 200.869L561.47 200.644L561.464 200.147L560.606 201.504C559.761 202.848 558.864 204.285 558.393 204.993L558.286 205.152C556.204 208.196 554.185 210.384 551.93 211.717C551.242 212.124 550.354 211.896 549.947 211.207C549.541 210.519 549.769 209.631 550.457 209.225C552.269 208.153 554.033 206.242 555.896 203.518L555.99 203.378C556.856 202.073 559.726 197.369 560.346 196.649C560.776 196.151 561.18 195.825 561.715 195.683C562.626 195.442 563.424 195.899 563.832 196.688C564.231 197.456 564.366 198.717 564.366 200.869C564.366 206.253 561.23 210.794 556.098 214.53C554.346 215.806 552.476 216.898 550.607 217.81C549.952 218.129 549.343 218.404 548.794 218.634L548.402 218.795L548.176 218.883L548.095 218.926L547.889 219.029C547.45 219.24 546.852 219.491 546.114 219.742L545.926 219.804C541.408 221.291 536.536 221.212 531.95 218.485C531.386 218.15 530.833 217.776 530.292 217.364C527.204 215.01 525.314 212.573 524.447 210.127C523.8 208.302 523.774 206.652 524.136 205.276C524.171 205.144 524.207 205.024 524.243 204.916L524.258 204.872L524.25 204.646C524.191 202.733 524.24 200.579 524.479 198.519C524.842 195.399 525.563 193.1 526.911 191.831L527.018 191.733C528.024 190.831 530.188 189.239 530.169 189.254C530.612 188.875 530.752 188.612 530.842 187.861C531.072 185.945 533.177 184.452 535.451 184.067Z" fill="black"/>
<path fill-rule="evenodd" clip-rule="evenodd" d="M631.916 206.804C631.868 206.611 621.253 194.21 620.915 194.5C620.577 194.789 606.054 201.255 605.716 201.785C605.378 202.268 604.848 205.211 606.295 207.913C607.743 210.615 609.383 216.84 615.945 217.322C622.507 217.805 631.916 206.804 631.916 206.804Z" fill="white"/>
<path fill-rule="evenodd" clip-rule="evenodd" d="M612.568 197.346C612.568 197.346 611.313 188.806 613.292 186.779C615.27 184.753 626.319 203.667 630.131 204.97" fill="white"/>
<path fill-rule="evenodd" clip-rule="evenodd" d="M612.254 185.768C613.175 184.825 614.299 185.055 615.397 185.837C616.007 186.271 616.698 186.94 617.516 187.86L617.861 188.253C618.843 189.384 619.68 190.447 621.571 192.951L623.858 195.988C627.537 200.852 629.585 203.206 630.556 203.585L630.598 203.6C631.355 203.859 631.758 204.682 631.5 205.438C631.241 206.194 630.418 206.598 629.662 206.34L629.53 206.292C627.788 205.623 625.85 203.422 621.695 197.929L618.591 193.811C617.207 191.989 616.483 191.083 615.677 190.154L615.494 189.944C614.964 189.339 614.508 188.867 614.137 188.536L614.006 188.422L614.004 188.431C613.785 189.125 613.641 190.258 613.623 191.67L613.622 191.855C613.617 193.018 613.688 194.275 613.811 195.532C613.836 195.788 613.862 196.032 613.888 196.263L613.962 196.87C613.978 196.993 613.991 197.083 613.999 197.136C614.115 197.927 613.568 198.662 612.777 198.778C611.986 198.895 611.25 198.348 611.134 197.557L611.069 197.067L611.012 196.593C610.984 196.346 610.956 196.086 610.93 195.813C610.798 194.466 610.721 193.115 610.727 191.843C610.739 188.972 611.131 186.919 612.254 185.768Z" fill="black"/>
<path fill-rule="evenodd" clip-rule="evenodd" d="M606.678 198.842C606.678 198.842 604.024 192.618 607.546 189.626C611.02 186.634 619.658 203.667 623.421 205.838" fill="white"/>
<path fill-rule="evenodd" clip-rule="evenodd" d="M606.604 188.529C608.193 187.162 610.058 187.798 612.061 189.63C613.315 190.778 614.674 192.41 616.45 194.812L617.066 195.653C617.239 195.891 617.419 196.14 617.612 196.408L619.59 199.158C622.446 203.104 623.28 204.085 624.146 204.585C624.839 204.984 625.076 205.869 624.677 206.562C624.277 207.254 623.392 207.492 622.7 207.092L622.457 206.948C621.132 206.129 620.261 205.055 616.549 199.891L614.987 197.717C614.808 197.47 614.639 197.237 614.474 197.012L614.133 196.549C612.457 194.281 611.19 192.758 610.106 191.766C609.506 191.218 609.008 190.881 608.657 190.761L608.53 190.718C608.514 190.714 608.507 190.714 608.5 190.718L608.486 190.729C607.705 191.392 607.291 192.341 607.192 193.566C607.105 194.64 607.268 195.837 607.596 197.027C607.672 197.301 607.752 197.556 607.832 197.79L607.938 198.085L608.012 198.274C608.325 199.01 607.984 199.86 607.248 200.174C606.513 200.487 605.662 200.145 605.349 199.41C605.205 199.073 605.004 198.516 604.806 197.798C604.394 196.308 604.188 194.791 604.306 193.333C604.463 191.394 605.19 189.73 606.604 188.529Z" fill="black"/>
<path fill-rule="evenodd" clip-rule="evenodd" d="M605.139 206.032C605.139 206.032 600.7 194.886 603.788 192.521C606.876 190.157 611.942 204.632 617.974 207.962" fill="white"/>
<path fill-rule="evenodd" clip-rule="evenodd" d="M602.905 191.372C603.851 190.648 604.977 190.651 606.022 191.242C606.74 191.648 607.436 192.323 608.212 193.294L608.427 193.567C608.932 194.22 609.473 194.998 610.147 196.021L612.497 199.653L612.811 200.126C615.185 203.692 616.954 205.747 618.67 206.694C619.37 207.08 619.624 207.961 619.238 208.661C618.851 209.361 617.971 209.615 617.271 209.229C614.971 207.959 612.954 205.593 610.248 201.5L609.569 200.459C608.955 199.51 608.083 198.155 607.87 197.829L607.613 197.438C606.945 196.428 606.424 195.693 605.952 195.102C605.422 194.439 604.982 194.004 604.66 193.8L604.578 193.751L604.55 193.783C604.068 194.374 603.984 196.121 604.449 198.592L604.484 198.779C604.685 199.805 604.965 200.902 605.302 202.034C605.518 202.759 605.747 203.463 605.978 204.127L606.117 204.52C606.175 204.683 606.231 204.835 606.284 204.977L606.481 205.496C606.777 206.238 606.414 207.08 605.672 207.376C604.929 207.672 604.087 207.31 603.791 206.567L603.678 206.274C603.609 206.091 603.533 205.888 603.453 205.666L603.392 205.496C603.097 204.673 602.802 203.784 602.527 202.86C602.165 201.646 601.864 200.461 601.643 199.336C600.895 195.517 601.078 192.77 602.905 191.372Z" fill="black"/>
<path fill-rule="evenodd" clip-rule="evenodd" d="M629.359 204.584C629.842 202.172 629.601 199.663 628.636 197.443C627.526 194.837 626.223 191.363 626.127 189.096C625.934 185.187 632.303 187.021 632.592 189.433C632.882 191.846 634.088 191.701 636.886 194.21C639.685 196.719 639.154 206.514 639.154 206.514C639.154 206.514 641.615 211.58 633.702 217.612C625.789 223.643 617.297 218.963 617.297 218.963C617.297 218.963 601.953 213.318 601.953 202.268C601.953 191.219 606.006 207.334 613.678 211.87" fill="white"/>
<path fill-rule="evenodd" clip-rule="evenodd" d="M624.679 189.167C624.539 186.323 626.748 185.015 629.418 185.467C631.693 185.852 633.798 187.344 634.028 189.261C634.113 189.969 634.242 190.244 634.63 190.592L634.701 190.654C634.682 190.638 636.846 192.231 637.851 193.132C639.265 194.4 640.013 196.728 640.386 199.903C640.612 201.821 640.671 203.821 640.631 205.633L640.617 206.14L640.612 206.271L640.627 206.315C640.651 206.387 640.675 206.464 640.699 206.547L640.734 206.675C641.096 208.051 641.07 209.701 640.423 211.526C639.556 213.972 637.666 216.409 634.578 218.763C634.037 219.175 633.484 219.549 632.92 219.884C628.334 222.611 623.462 222.69 618.943 221.203C617.992 220.89 617.256 220.573 616.775 220.325L616.693 220.282L616.381 220.159L616.076 220.033C615.527 219.803 614.918 219.528 614.263 219.209C612.394 218.297 610.524 217.205 608.771 215.929C603.64 212.193 600.504 207.652 600.504 202.268C600.504 200.116 600.639 198.856 601.037 198.087C601.446 197.298 602.244 196.841 603.155 197.083C603.69 197.224 604.094 197.55 604.523 198.048C605.169 198.797 608.247 203.855 608.974 204.917C610.837 207.641 612.601 209.552 614.413 210.624C615.101 211.031 615.329 211.918 614.922 212.606C614.516 213.295 613.628 213.523 612.94 213.116C610.756 211.825 608.792 209.731 606.779 206.834L606.584 206.551C606.066 205.794 604.763 203.69 603.724 202.047L603.406 201.547L603.405 201.618C603.402 201.771 603.4 201.931 603.399 202.098L603.399 202.268C603.399 206.552 606.017 210.343 610.475 213.589C612.079 214.756 613.806 215.764 615.533 216.607C616.05 216.86 616.535 217.081 616.978 217.271L617.196 217.364C617.325 217.418 617.444 217.466 617.549 217.509L617.795 217.604C617.841 217.621 617.885 217.64 617.929 217.661L618.104 217.752C618.185 217.793 618.3 217.847 618.446 217.913C618.852 218.096 619.323 218.28 619.848 218.453C623.641 219.701 627.673 219.635 631.441 217.395C631.909 217.117 632.37 216.806 632.823 216.46C635.485 214.432 637.026 212.444 637.694 210.559C638.138 209.309 638.154 208.249 637.934 207.412L637.904 207.304C637.876 207.209 637.855 207.155 637.851 207.146C637.744 206.926 637.694 206.681 637.708 206.436L637.721 206.12C637.723 206.07 637.724 206.017 637.726 205.958C637.781 204.171 637.735 202.142 637.511 200.241C637.216 197.733 636.638 195.933 635.919 195.288L635.775 195.161C634.832 194.347 632.912 192.933 632.818 192.853C631.821 191.999 631.33 191.073 631.154 189.606C631.11 189.24 630.09 188.517 628.936 188.321C627.878 188.142 627.537 188.344 627.571 189.034C627.64 190.656 628.458 193.262 629.748 196.359L629.962 196.866C631.04 199.345 631.32 202.153 630.777 204.868C630.621 205.652 629.858 206.16 629.074 206.003C628.29 205.847 627.782 205.084 627.939 204.3C628.352 202.234 628.161 200.109 627.39 198.219L627.056 197.424C625.646 194.038 624.766 191.214 624.679 189.167Z" fill="black"/>
<path fill-rule="evenodd" clip-rule="evenodd" d="M801.662 240.675C802.461 240.675 803.109 241.324 803.109 242.123C803.109 242.894 802.507 243.524 801.747 243.568L801.662 243.571H2.33815C1.5387 243.571 0.890625 242.923 0.890625 242.123C0.890625 241.352 1.49324 240.722 2.2531 240.678L2.33815 240.675H801.662Z" fill="black"/>
</svg>
