<svg width="28" height="27" viewBox="0 0 28 27" fill="none" xmlns="http://www.w3.org/2000/svg">
<path fill-rule="evenodd" clip-rule="evenodd" d="M2.78492 3.76912L4.16593 12.1195H12.687C13.4119 12.1195 13.9995 12.7375 13.9995 13.4998C13.9995 14.262 13.4119 14.88 12.687 14.88H4.16593L2.78492 23.2303L24.3759 13.4998L2.78492 3.76912ZM1.72979 13.4998L0.110912 3.71101C-0.019961 2.91967 0.223537 2.11085 0.763638 1.54288C1.44226 0.829261 2.46569 0.621991 3.34781 1.01955L26.802 11.5898C27.5284 11.9173 27.9995 12.6685 27.9995 13.4998C27.9995 14.331 27.5284 15.0822 26.802 15.4097L3.34781 25.9799C2.46569 26.3776 1.44226 26.1702 0.763638 25.4567C0.223537 24.8886 -0.0199613 24.0798 0.110912 23.2885L1.72979 13.4998Z" fill="#FEDC2E"/>
</svg>
