<svg width="34" height="22" viewBox="0 0 34 22" fill="none" xmlns="http://www.w3.org/2000/svg">
<path d="M8.82454 6.74143C8.68087 6.59414 8.50995 6.47724 8.32162 6.39746C8.13329 6.31768 7.93129 6.2766 7.72727 6.2766C7.52325 6.2766 7.32125 6.31768 7.13293 6.39746C6.9446 6.47724 6.77367 6.59414 6.63 6.74143C6.4893 6.89088 6.37901 7.0671 6.30545 7.26C6.1871 7.54617 6.15477 7.86158 6.21253 8.16642C6.27029 8.47126 6.41556 8.75188 6.63 8.97286C6.78022 9.11166 6.95271 9.22328 7.14 9.30286C7.32341 9.39083 7.52455 9.43388 7.72727 9.42857C7.98039 9.42729 8.22933 9.36281 8.4522 9.2408C8.67507 9.11879 8.86506 8.94298 9.00547 8.72883C9.14588 8.51468 9.2324 8.26874 9.25745 8.01263C9.28249 7.75652 9.24528 7.49807 9.14909 7.26C9.07554 7.0671 8.96524 6.89088 8.82454 6.74143ZM13.9091 9.42857C14.1622 9.42729 14.4111 9.36281 14.634 9.2408C14.8569 9.11879 15.0469 8.94298 15.1873 8.72883C15.3277 8.51468 15.4142 8.26874 15.4393 8.01263C15.4643 7.75652 15.4271 7.49807 15.3309 7.26C15.2574 7.0671 15.1471 6.89088 15.0064 6.74143C14.8295 6.5547 14.6099 6.41536 14.3672 6.33585C14.1245 6.25634 13.8663 6.23911 13.6155 6.28571C13.5131 6.30028 13.4138 6.33215 13.3218 6.38L13.0436 6.52143L12.8118 6.71C12.5221 7.01902 12.3614 7.4302 12.3636 7.85714C12.3636 8.27391 12.5265 8.67361 12.8163 8.96831C13.1061 9.26301 13.4992 9.42857 13.9091 9.42857ZM8.31455 12.6971C7.93829 12.54 7.51626 12.54 7.14 12.6971C6.85777 12.815 6.61617 13.0152 6.44566 13.2725C6.27514 13.5298 6.18334 13.8326 6.18182 14.1429C6.18308 14.4002 6.24649 14.6533 6.36649 14.88C6.48648 15.1066 6.65938 15.2998 6.86999 15.4425C7.0806 15.5853 7.32247 15.6733 7.57436 15.6987C7.82624 15.7242 8.08041 15.6864 8.31455 15.5886C8.50183 15.509 8.67433 15.3974 8.82454 15.2586C8.96778 15.1117 9.0811 14.9376 9.15801 14.7461C9.23492 14.5547 9.2739 14.3497 9.27273 14.1429C9.2739 13.936 9.23492 13.731 9.15801 13.5396C9.0811 13.3481 8.96778 13.174 8.82454 13.0271C8.67947 12.8816 8.50563 12.7691 8.31455 12.6971ZM20.0909 12.5714H13.9091C13.4992 12.5714 13.1061 12.737 12.8163 13.0317C12.5265 13.3264 12.3636 13.7261 12.3636 14.1429C12.3636 14.5596 12.5265 14.9593 12.8163 15.254C13.1061 15.5487 13.4992 15.7143 13.9091 15.7143H20.0909C20.5008 15.7143 20.8939 15.5487 21.1837 15.254C21.4735 14.9593 21.6364 14.5596 21.6364 14.1429C21.6364 13.7261 21.4735 13.3264 21.1837 13.0317C20.8939 12.737 20.5008 12.5714 20.0909 12.5714ZM21.1882 6.74143C21.0445 6.59414 20.8736 6.47724 20.6853 6.39746C20.4969 6.31768 20.2949 6.2766 20.0909 6.2766C19.8869 6.2766 19.6849 6.31768 19.4966 6.39746C19.3082 6.47724 19.1373 6.59414 18.9936 6.74143C18.8529 6.89088 18.7426 7.0671 18.6691 7.26C18.579 7.4751 18.5373 7.70793 18.5469 7.94151C18.5566 8.1751 18.6173 8.40355 18.7248 8.61022C18.8323 8.81689 18.9838 8.99657 19.1682 9.13617C19.3527 9.27576 19.5654 9.37175 19.791 9.41714C20.0165 9.46253 20.2492 9.45618 20.472 9.39854C20.6948 9.34091 20.9022 9.23345 21.079 9.08399C21.2558 8.93452 21.3976 8.74684 21.494 8.5346C21.5904 8.32236 21.6391 8.09092 21.6364 7.85714C21.6416 7.65101 21.5992 7.4465 21.5127 7.26C21.4392 7.0671 21.3289 6.89088 21.1882 6.74143ZM27.1382 12.8386C27.052 12.7791 26.9585 12.7315 26.86 12.6971C26.4837 12.54 26.0617 12.54 25.6855 12.6971C25.4982 12.7767 25.3257 12.8883 25.1755 13.0271C24.893 13.3283 24.733 13.7268 24.7273 14.1429C24.7273 14.5596 24.8901 14.9593 25.1799 15.254C25.4698 15.5487 25.8628 15.7143 26.2727 15.7143C26.6826 15.7143 27.0757 15.5487 27.3655 15.254C27.6554 14.9593 27.8182 14.5596 27.8182 14.1429C27.8125 13.7268 27.6524 13.3283 27.37 13.0271L27.1382 12.8386ZM29.3636 0H4.63636C3.40672 0 2.22745 0.496682 1.35796 1.38078C0.488473 2.26488 0 3.46398 0 4.71429V17.2857C0 18.536 0.488473 19.7351 1.35796 20.6192C2.22745 21.5033 3.40672 22 4.63636 22H29.3636C30.5933 22 31.7726 21.5033 32.642 20.6192C33.5115 19.7351 34 18.536 34 17.2857V4.71429C34 3.46398 33.5115 2.26488 32.642 1.38078C31.7726 0.496682 30.5933 0 29.3636 0ZM30.9091 17.2857C30.9091 17.7025 30.7463 18.1022 30.4564 18.3969C30.1666 18.6916 29.7735 18.8571 29.3636 18.8571H4.63636C4.22648 18.8571 3.83339 18.6916 3.54356 18.3969C3.25373 18.1022 3.09091 17.7025 3.09091 17.2857V4.71429C3.09091 4.29752 3.25373 3.89782 3.54356 3.60312C3.83339 3.30842 4.22648 3.14286 4.63636 3.14286H29.3636C29.7735 3.14286 30.1666 3.30842 30.4564 3.60312C30.7463 3.89782 30.9091 4.29752 30.9091 4.71429V17.2857ZM27.37 6.74143C27.1538 6.51981 26.8777 6.36867 26.5767 6.30727C26.2757 6.24588 25.9636 6.27701 25.6801 6.3967C25.3966 6.51639 25.1545 6.71922 24.9848 6.97932C24.8152 7.23942 24.7255 7.54502 24.7273 7.85714C24.7246 8.09092 24.7732 8.32236 24.8696 8.5346C24.966 8.74684 25.1078 8.93452 25.2846 9.08399C25.4614 9.23345 25.6688 9.34091 25.8916 9.39854C26.1145 9.45618 26.3471 9.46253 26.5727 9.41714C26.7982 9.37175 27.011 9.27576 27.1954 9.13617C27.3798 8.99657 27.5313 8.81689 27.6388 8.61022C27.7463 8.40355 27.8071 8.1751 27.8167 7.94151C27.8264 7.70793 27.7846 7.4751 27.6945 7.26C27.621 7.0671 27.5107 6.89088 27.37 6.74143Z" fill="#FEDC2E"/>
</svg>
