<svg width="551" height="260" viewBox="0 0 551 260" fill="none" xmlns="http://www.w3.org/2000/svg">
<rect x="110.742" y="163.193" width="94.9553" height="23.6102" transform="rotate(90 110.742 163.193)" fill="#FEDC2E"/>
<rect x="104.652" y="171.262" width="44.2033" height="12.6832" transform="rotate(90 104.652 171.262)" fill="white"/>
<rect x="104.648" y="217.326" width="4.12564" height="12.6832" transform="rotate(90 104.648 217.326)" fill="#AEAEAE"/>
<path fill-rule="evenodd" clip-rule="evenodd" d="M98.0794 236.359C95.08 236.359 92.6484 238.808 92.6484 241.827C92.6484 244.847 95.08 247.296 98.0794 247.296C101.079 247.296 103.51 244.847 103.51 241.827C103.51 238.808 101.079 236.359 98.0794 236.359ZM98.0794 238.324C100.001 238.324 101.559 239.892 101.559 241.827C101.559 243.762 100.001 245.331 98.0794 245.331C96.1576 245.331 94.5997 243.762 94.5997 241.827C94.5997 239.892 96.1576 238.324 98.0794 238.324Z" fill="white"/>
<path fill-rule="evenodd" clip-rule="evenodd" d="M103.187 180.794C103.725 180.794 104.162 181.234 104.162 181.776C104.162 182.3 103.756 182.727 103.244 182.757L103.187 182.759H93.7881C93.2493 182.759 92.8125 182.319 92.8125 181.776C92.8125 181.253 93.2187 180.826 93.7308 180.796L93.7881 180.794H103.187Z" fill="#AEAEAE"/>
<path fill-rule="evenodd" clip-rule="evenodd" d="M103.187 185.673C103.725 185.673 104.162 186.113 104.162 186.655C104.162 187.178 103.756 187.606 103.244 187.636L103.187 187.637H93.7881C93.2493 187.637 92.8125 187.198 92.8125 186.655C92.8125 186.132 93.2187 185.704 93.7308 185.675L93.7881 185.673H103.187Z" fill="#AEAEAE"/>
<path fill-rule="evenodd" clip-rule="evenodd" d="M103.187 190.552C103.725 190.552 104.162 190.991 104.162 191.534C104.162 192.057 103.756 192.485 103.244 192.514L103.187 192.516H93.7881C93.2493 192.516 92.8125 192.076 92.8125 191.534C92.8125 191.011 93.2187 190.583 93.7308 190.553L93.7881 190.552H103.187Z" fill="#AEAEAE"/>
<rect x="134.246" y="163.268" width="94.9553" height="23.6102" transform="rotate(90 134.246 163.268)" fill="#FEDC2E"/>
<rect x="128.16" y="171.37" width="44.2033" height="12.6832" transform="rotate(90 128.16 171.37)" fill="white"/>
<rect x="128.152" y="217.434" width="4.12564" height="12.6832" transform="rotate(90 128.152 217.434)" fill="black"/>
<path fill-rule="evenodd" clip-rule="evenodd" d="M121.56 236.458C118.56 236.458 116.129 238.906 116.129 241.926C116.129 244.946 118.56 247.394 121.56 247.394C124.559 247.394 126.991 244.946 126.991 241.926C126.991 238.906 124.559 236.458 121.56 236.458ZM121.56 238.422C123.482 238.422 125.04 239.991 125.04 241.926C125.04 243.861 123.482 245.429 121.56 245.429C119.638 245.429 118.08 243.861 118.08 241.926C118.08 239.991 119.638 238.422 121.56 238.422Z" fill="white"/>
<path fill-rule="evenodd" clip-rule="evenodd" d="M126.571 201.16C127.11 201.16 127.546 201.6 127.546 202.143C127.546 202.666 127.14 203.093 126.628 203.123L126.571 203.125H117.14C116.601 203.125 116.164 202.685 116.164 202.143C116.164 201.62 116.57 201.192 117.082 201.162L117.14 201.16H126.571Z" fill="black"/>
<path fill-rule="evenodd" clip-rule="evenodd" d="M126.571 176.014C127.11 176.014 127.546 176.453 127.546 176.996C127.546 177.519 127.14 177.947 126.628 177.977L126.571 177.978H117.14C116.601 177.978 116.164 177.538 116.164 176.996C116.164 176.473 116.57 176.045 117.082 176.015L117.14 176.014H126.571Z" fill="black"/>
<path fill-rule="evenodd" clip-rule="evenodd" d="M126.571 206.006C127.11 206.006 127.546 206.446 127.546 206.989C127.546 207.512 127.14 207.939 126.628 207.969L126.571 207.971H117.14C116.601 207.971 116.164 207.531 116.164 206.989C116.164 206.466 116.57 206.038 117.082 206.008L117.14 206.006H126.571Z" fill="black"/>
<path fill-rule="evenodd" clip-rule="evenodd" d="M126.571 210.885C127.11 210.885 127.546 211.325 127.546 211.868C127.546 212.391 127.14 212.818 126.628 212.848L126.571 212.85H117.14C116.601 212.85 116.164 212.41 116.164 211.868C116.164 211.344 116.57 210.917 117.082 210.887L117.14 210.885H126.571Z" fill="black"/>
<rect x="87.4727" y="163.275" width="94.9553" height="23.6102" transform="rotate(90 87.4727 163.275)" fill="#FEDC2E"/>
<rect x="81.3828" y="171.376" width="44.2034" height="12.6832" transform="rotate(90 81.3828 171.376)" fill="white"/>
<rect x="81.3789" y="217.407" width="4.12566" height="12.6832" transform="rotate(90 81.3789 217.407)" fill="#AEAEAE"/>
<path fill-rule="evenodd" clip-rule="evenodd" d="M74.7943 236.457C71.7948 236.457 69.3633 238.905 69.3633 241.925C69.3633 244.945 71.7948 247.393 74.7943 247.393C77.7937 247.393 80.2253 244.945 80.2253 241.925C80.2253 238.905 77.7937 236.457 74.7943 236.457ZM74.7943 238.422C76.7161 238.422 78.274 239.99 78.274 241.925C78.274 243.86 76.7161 245.429 74.7943 245.429C72.8725 245.429 71.3146 243.86 71.3146 241.925C71.3146 239.99 72.8725 238.422 74.7943 238.422Z" fill="white"/>
<path fill-rule="evenodd" clip-rule="evenodd" d="M79.7726 201.16C80.3114 201.16 80.7482 201.6 80.7482 202.142C80.7482 202.666 80.3421 203.093 79.8299 203.123L79.7726 203.125H70.3741C69.8352 203.125 69.3984 202.685 69.3984 202.142C69.3984 201.619 69.8046 201.192 70.3167 201.162L70.3741 201.16H79.7726Z" fill="black"/>
<path fill-rule="evenodd" clip-rule="evenodd" d="M79.7726 176.013C80.3114 176.013 80.7482 176.453 80.7482 176.996C80.7482 177.519 80.3421 177.946 79.8299 177.976L79.7726 177.978H70.3741C69.8352 177.978 69.3984 177.538 69.3984 176.996C69.3984 176.473 69.8046 176.045 70.3167 176.015L70.3741 176.013H79.7726Z" fill="black"/>
<path fill-rule="evenodd" clip-rule="evenodd" d="M79.7726 206.006C80.3114 206.006 80.7482 206.446 80.7482 206.988C80.7482 207.512 80.3421 207.939 79.8299 207.969L79.7726 207.971H70.3741C69.8352 207.971 69.3984 207.531 69.3984 206.988C69.3984 206.465 69.8046 206.038 70.3167 206.008L70.3741 206.006H79.7726Z" fill="black"/>
<path fill-rule="evenodd" clip-rule="evenodd" d="M79.7726 210.885C80.3114 210.885 80.7482 211.325 80.7482 211.867C80.7482 212.39 80.3421 212.818 79.8299 212.848L79.7726 212.849H70.3741C69.8352 212.849 69.3984 212.41 69.3984 211.867C69.3984 211.344 69.8046 210.916 70.3167 210.886L70.3741 210.885H79.7726Z" fill="black"/>
<path fill-rule="evenodd" clip-rule="evenodd" d="M113.689 132.793C113.689 132.793 114.274 127.226 110.209 122.249C106.144 117.272 106.111 114.129 103.835 111.771C101.558 109.381 97.9484 110.494 101.201 118.549C104.453 126.604 105.851 129.911 105.851 129.911L113.689 132.793Z" fill="white"/>
<path fill-rule="evenodd" clip-rule="evenodd" d="M99.6808 110.631C98.5025 112.121 98.7001 114.966 100.296 118.919L102.249 123.735C102.736 124.929 103.181 126.018 103.588 127.006L104.528 129.281L104.953 130.296C105.059 130.546 105.262 130.741 105.516 130.834L113.353 133.715C113.95 133.934 114.592 133.531 114.658 132.896L114.67 132.752C114.673 132.721 114.675 132.686 114.677 132.648C114.73 131.7 114.671 130.489 114.414 129.109C114.033 127.064 113.282 125.046 112.073 123.157C111.736 122.631 111.366 122.12 110.962 121.625C109.82 120.227 108.944 118.908 108.187 117.514C107.927 117.035 107.687 116.561 107.421 116.004L106.58 114.22C105.904 112.819 105.342 111.924 104.534 111.087C103.007 109.483 100.882 109.113 99.6808 110.631ZM103.13 112.451C103.717 113.06 104.153 113.728 104.679 114.781L104.825 115.079C104.969 115.378 105.489 116.491 105.558 116.638C105.881 117.319 106.162 117.882 106.475 118.457C107.289 119.956 108.233 121.377 109.455 122.873C109.811 123.309 110.136 123.759 110.433 124.222C111.497 125.885 112.16 127.664 112.496 129.471L112.528 129.652C112.633 130.25 112.694 130.808 112.723 131.313L112.727 131.393L106.584 129.135L105.646 126.874L104.361 123.741C103.725 122.184 103.015 120.436 102.229 118.488L102.104 118.179C100.748 114.822 100.596 112.628 101.207 111.856C101.515 111.467 102.271 111.587 103.064 112.383L103.13 112.451Z" fill="black"/>
<path fill-rule="evenodd" clip-rule="evenodd" d="M95.0859 121.431C95.4437 121.431 117.59 120.285 120.225 142.386L95.0859 121.431Z" fill="white"/>
<path fill-rule="evenodd" clip-rule="evenodd" d="M99.9497 120.753C102.779 121.157 105.575 121.931 108.197 123.166C115.328 126.523 120.056 132.703 121.196 142.269C121.26 142.808 120.879 143.297 120.344 143.361C119.809 143.426 119.323 143.042 119.259 142.503C118.202 133.634 113.91 128.024 107.37 124.945C104.937 123.8 102.325 123.077 99.6752 122.698C98.0036 122.458 96.594 122.387 95.4554 122.404L95.0889 122.413C94.5501 122.413 94.1133 121.973 94.1133 121.43C94.1133 120.907 94.5194 120.48 95.0316 120.45L95.2568 120.443C96.5212 120.414 98.0864 120.486 99.9497 120.753Z" fill="black"/>
<path fill-rule="evenodd" clip-rule="evenodd" d="M110.046 165.536C110.046 165.536 107.314 149.23 103.705 143.565C100.095 137.9 92.0621 138.326 92.0621 138.326C92.0621 138.326 71.639 120.088 68.6796 116.814C65.7202 113.507 66.8584 110.363 72.1268 114.031C77.3952 117.698 93.2979 129.289 93.2979 129.289C93.2979 129.289 119.77 120.252 124.095 145.857L128.973 161.05L110.046 165.536Z" fill="white"/>
<path fill-rule="evenodd" clip-rule="evenodd" d="M66.5489 112.203C65.5705 113.468 66.248 115.563 67.9556 117.471L68.0728 117.599C69.3201 118.942 72.8106 122.217 77.9676 126.924L79.5397 128.357L81.1193 129.792C83.0734 131.564 85.1072 133.399 87.1476 135.234L91.4156 139.061C91.5899 139.217 91.8132 139.304 92.0446 139.308L92.1894 139.304C92.7517 139.289 93.5223 139.318 94.4233 139.432C95.7844 139.603 97.1264 139.931 98.3712 140.45C100.291 141.251 101.832 142.445 102.884 144.095C104.099 146.002 105.333 149.409 106.515 153.849C107.204 156.439 107.835 159.218 108.392 161.998L108.561 162.855C108.634 163.227 108.702 163.586 108.767 163.932L108.955 164.959L109.085 165.699C109.179 166.258 109.722 166.622 110.271 166.492L129.198 162.006L129.254 161.991C129.775 161.835 130.072 161.275 129.903 160.748L125.045 145.621L125.058 145.692C123.244 134.954 117.522 129.136 109.199 127.342C104.935 126.422 100.407 126.639 96.0678 127.554C95.325 127.71 94.6431 127.877 94.032 128.045L93.6537 128.152L93.475 128.205L90.3571 125.937C88.9365 124.904 87.5141 123.872 86.117 122.859L81.2001 119.304C77.3503 116.527 74.4069 114.423 72.6824 113.223L72.4402 113.057C69.7509 111.246 67.6048 110.838 66.5489 112.203ZM68.7498 113.415C69.4262 113.558 70.3424 113.998 71.4402 114.747L72.1541 115.245C73.4657 116.166 75.3064 117.478 77.5815 119.113L81.4597 121.909L83.1981 123.166C84.1764 123.874 85.1735 124.596 86.1797 125.326L92.7266 130.085C92.9827 130.271 93.3127 130.321 93.612 130.219L93.7946 130.16L94.0003 130.097C94.0733 130.075 94.1508 130.052 94.2327 130.029L94.3587 129.993C94.9791 129.817 95.6866 129.641 96.4675 129.477C100.563 128.614 104.831 128.409 108.79 129.263C116.345 130.892 121.456 136.089 123.134 146.022L123.149 146.091C123.154 146.114 123.161 146.137 123.168 146.159L127.72 160.338L110.827 164.341L110.685 163.568C110.57 162.955 110.443 162.3 110.305 161.61C109.74 158.792 109.101 155.975 108.399 153.34L108.265 152.84C107.074 148.459 105.832 145.083 104.527 143.035C103.243 141.02 101.384 139.58 99.1181 138.635C97.6978 138.043 96.1889 137.674 94.6649 137.482L94.4779 137.46C93.7982 137.38 93.1861 137.344 92.6656 137.337L92.4246 137.336L89.0035 134.269L87.3367 132.769C85.8577 131.438 84.3894 130.112 82.9597 128.816L79.9801 126.109C74.3306 120.96 70.5187 117.388 69.402 116.153C68.257 114.873 67.8737 113.688 68.0883 113.411C68.0918 113.406 68.1051 113.398 68.161 113.385C68.2895 113.355 68.4877 113.359 68.7498 113.415Z" fill="black"/>
<path fill-rule="evenodd" clip-rule="evenodd" d="M91.7361 137.54C91.7361 137.54 81.2644 114.063 79.6708 109.643C78.0773 105.223 80.2237 102.898 83.801 108.759C87.3783 114.62 95.476 128.208 95.476 128.208" fill="white"/>
<path fill-rule="evenodd" clip-rule="evenodd" d="M79.3586 104.47C80.8738 103.695 82.6923 105.105 84.5558 108.115L85.1206 109.041C85.7468 110.071 86.4943 111.307 87.3473 112.723L89.7112 116.656C90.8263 118.515 92.0002 120.476 93.1864 122.461L96.3161 127.703C96.5933 128.168 96.4435 128.772 95.9814 129.051C95.5365 129.32 94.9643 129.19 94.675 128.764L94.6377 128.705L91.8707 124.069C90.9205 122.479 89.9752 120.899 89.0587 119.37L85.3373 113.175C84.4023 111.625 83.6065 110.311 82.9732 109.273C82.1769 107.968 81.439 107.062 80.8233 106.575C80.6119 106.408 80.4335 106.306 80.2998 106.26L80.2569 106.247L80.2428 106.244L80.2279 106.277C80.1712 106.405 80.1303 106.603 80.119 106.859C80.0923 107.463 80.2315 108.264 80.5387 109.158L80.5914 109.308C81.1292 110.8 82.7378 114.615 85.1234 120.105L86.4987 123.258L87.6542 125.894C88.339 127.453 89.0407 129.044 89.7476 130.643L92.6296 137.138C92.8503 137.633 92.6308 138.214 92.1393 138.436C91.6477 138.659 91.0703 138.438 90.8496 137.943L89.0569 133.909L87.607 130.632C86.8375 128.89 86.0765 127.161 85.339 125.48L83.5953 121.489C81.0456 115.631 79.3343 111.579 78.7572 109.978C77.838 107.428 77.9365 105.197 79.3586 104.47Z" fill="black"/>
<path fill-rule="evenodd" clip-rule="evenodd" d="M90.7284 135.641C90.7284 135.641 89.8828 115.504 89.8828 111.608C89.8828 105.19 93.7203 103.356 94.6959 112.001C95.3463 117.796 96.0943 128.438 96.0943 128.438" fill="white"/>
<path fill-rule="evenodd" clip-rule="evenodd" d="M91.7672 105.187C93.7856 104.851 95.1328 107.361 95.6508 111.739L95.6683 111.89C95.7254 112.399 95.7844 112.955 95.845 113.554L95.8975 114.079C96.0213 115.335 96.1507 116.753 96.2841 118.305C96.4563 120.307 96.6272 122.437 96.7907 124.58L96.9741 127.033L97.0705 128.368C97.1085 128.909 96.7036 129.379 96.1661 129.417C95.6479 129.454 95.1955 129.077 95.1298 128.564L95.1225 128.484L94.9345 125.912L94.7961 124.09C94.6645 122.384 94.5286 120.692 94.3916 119.077L94.2554 117.5C94.1712 116.546 94.0889 115.649 94.0088 114.818L93.9039 113.754C93.8439 113.161 93.7857 112.612 93.7295 112.111C93.5106 110.172 93.1364 108.729 92.6733 107.85C92.4941 107.51 92.3178 107.287 92.1691 107.177L92.1249 107.145C92.0966 107.127 92.0881 107.125 92.0857 107.125C92.0526 107.13 91.979 107.176 91.8743 107.292C91.7142 107.47 91.5513 107.748 91.4059 108.112C91.062 108.974 90.8614 110.189 90.8614 111.608L90.8636 111.995C90.8784 113.458 90.9676 116.418 91.1143 120.502L91.2323 123.702L91.2835 125.048C91.3297 126.255 91.3776 127.483 91.4263 128.713L91.7061 135.6C91.7288 136.142 91.3109 136.6 90.7725 136.623C90.2534 136.645 89.8119 136.254 89.7606 135.74L89.7471 135.455L89.6244 132.474C89.5583 130.85 89.4922 129.198 89.4281 127.562L89.2825 123.777L89.1025 118.821C88.979 115.244 88.9102 112.741 88.9102 111.608C88.9102 108.136 89.968 105.486 91.7672 105.187Z" fill="black"/>
<path fill-rule="evenodd" clip-rule="evenodd" d="M391.971 132.793C391.971 132.793 391.385 127.226 395.45 122.249C399.515 117.272 399.548 114.129 401.824 111.771C404.101 109.414 407.711 110.494 404.459 118.549C401.207 126.604 399.808 129.911 399.808 129.911L391.971 132.793Z" fill="white"/>
<path fill-rule="evenodd" clip-rule="evenodd" d="M401.126 111.087C400.349 111.891 399.801 112.748 399.16 114.054L398.801 114.81C398.603 115.229 398.381 115.706 398.34 115.792C398.032 116.443 397.766 116.975 397.472 117.514C396.715 118.908 395.84 120.227 394.698 121.625C394.294 122.12 393.924 122.631 393.587 123.157C392.377 125.046 391.626 127.064 391.246 129.109C391.001 130.424 390.936 131.585 390.976 132.511L390.983 132.648C390.989 132.762 390.996 132.845 391.001 132.896C391.068 133.531 391.71 133.934 392.306 133.715L400.144 130.834C400.397 130.741 400.601 130.546 400.707 130.296L401.186 129.15L402.159 126.793C403.042 124.645 404.107 122.031 405.363 118.919C406.96 114.965 407.157 112.127 405.977 110.642C404.779 109.134 402.66 109.497 401.126 111.087ZM404.454 111.869C405.054 112.624 404.916 114.753 403.619 118.02L402.364 121.122C401.838 122.419 401.353 123.61 400.907 124.699L399.944 127.044L399.076 129.135L392.932 131.393L392.936 131.313C392.968 130.758 393.039 130.138 393.164 129.471C393.5 127.664 394.162 125.885 395.227 124.222C395.523 123.759 395.849 123.309 396.205 122.873C397.427 121.377 398.37 119.956 399.184 118.457C399.462 117.945 399.716 117.444 399.995 116.86L400.816 115.117L400.98 114.781C401.506 113.728 401.942 113.06 402.525 112.456C403.344 111.608 404.138 111.472 404.454 111.869Z" fill="black"/>
<path fill-rule="evenodd" clip-rule="evenodd" d="M410.572 121.431C410.215 121.431 388.068 120.285 385.434 142.386L410.572 121.431Z" fill="white"/>
<path fill-rule="evenodd" clip-rule="evenodd" d="M405.715 120.753C407.497 120.498 409.006 120.421 410.241 120.44L410.575 120.448C411.114 120.448 411.551 120.888 411.551 121.43C411.551 121.954 411.145 122.381 410.633 122.411L410.575 122.413C410.552 122.413 410.41 122.409 410.362 122.407C409.198 122.38 407.737 122.448 405.989 122.698C403.339 123.077 400.727 123.8 398.294 124.945C391.755 128.024 387.462 133.634 386.405 142.503C386.341 143.042 385.855 143.426 385.32 143.361C384.785 143.297 384.404 142.808 384.468 142.269C385.608 132.703 390.336 126.523 397.467 123.166C400.09 121.931 402.885 121.157 405.715 120.753Z" fill="black"/>
<path fill-rule="evenodd" clip-rule="evenodd" d="M395.615 165.536C395.615 165.536 398.346 149.23 401.956 143.565C405.566 137.9 413.599 138.326 413.599 138.326C413.599 138.326 434.022 120.088 436.981 116.814C439.941 113.507 438.802 110.363 433.534 114.031C428.266 117.698 412.363 129.289 412.363 129.289C412.363 129.289 385.891 120.252 381.566 145.857L376.688 161.05L395.615 165.536Z" fill="white"/>
<path fill-rule="evenodd" clip-rule="evenodd" d="M432.979 113.223L431.73 114.099C430.443 115.008 428.769 116.204 426.769 117.642L423.064 120.312L420.735 121.997C419.552 122.854 418.344 123.729 417.129 124.611L412.186 128.205L411.921 128.127L411.83 128.102C411.169 127.914 410.419 127.728 409.593 127.554C405.254 126.639 400.726 126.422 396.462 127.342L396.213 127.397C388.108 129.235 382.513 134.945 380.659 145.372L380.615 145.621L375.759 160.748C375.583 161.294 375.908 161.874 376.463 162.006L395.391 166.492C395.939 166.622 396.482 166.258 396.576 165.699L396.706 164.959L396.846 164.189C396.972 163.511 397.113 162.777 397.269 161.998C397.827 159.218 398.457 156.439 399.146 153.849L399.276 153.369C400.418 149.164 401.606 145.933 402.777 144.095C403.829 142.444 405.37 141.251 407.29 140.45C408.535 139.931 409.877 139.603 411.238 139.432C412.083 139.325 412.813 139.293 413.364 139.302L413.547 139.307C413.78 139.319 414.008 139.247 414.192 139.106L414.267 139.042L417.957 135.734L419.625 134.234C421.661 132.401 423.677 130.579 425.599 128.831L428.371 126.305C433.323 121.777 436.62 118.672 437.702 117.475C439.413 115.563 440.091 113.468 439.112 112.203C438.025 110.798 435.781 111.272 432.979 113.223ZM437.5 113.385L437.543 113.396C437.564 113.403 437.57 113.407 437.573 113.411C437.787 113.688 437.404 114.873 436.256 116.156L436.104 116.321C434.88 117.627 431.413 120.877 426.37 125.48L424.813 126.899L423.235 128.332C421.461 129.941 419.621 131.603 417.769 133.269L413.236 137.336L413.135 137.336C412.54 137.338 411.814 137.379 410.996 137.482C409.472 137.674 407.963 138.043 406.543 138.635C404.277 139.58 402.418 141.02 401.134 143.035C399.78 145.16 398.493 148.716 397.262 153.34C396.56 155.975 395.921 158.792 395.357 161.61L395.185 162.477C395.075 163.042 394.974 163.579 394.881 164.083L394.834 164.341L377.941 160.338L382.493 146.159C382.508 146.114 382.519 146.068 382.527 146.022C384.205 136.089 389.316 130.892 396.871 129.263C400.83 128.409 405.098 128.614 409.193 129.477C409.896 129.625 410.54 129.782 411.114 129.94L411.302 129.993C411.432 130.029 411.551 130.064 411.661 130.097L411.982 130.197C412.013 130.207 412.035 130.214 412.049 130.219C412.327 130.314 412.631 130.278 412.878 130.123L413.276 129.836L417.663 126.646C419.284 125.468 420.898 124.298 422.463 123.166L428.079 119.113C430.714 117.22 432.766 115.759 434.088 114.839C435.245 114.033 436.208 113.563 436.911 113.415C437.173 113.359 437.371 113.355 437.5 113.385Z" fill="black"/>
<path fill-rule="evenodd" clip-rule="evenodd" d="M413.924 137.54C413.924 137.54 424.395 114.063 425.989 109.643C427.55 105.223 425.436 102.898 421.859 108.759C418.281 114.62 410.184 128.208 410.184 128.208" fill="white"/>
<path fill-rule="evenodd" clip-rule="evenodd" d="M421.027 108.245C422.92 105.143 424.76 103.682 426.293 104.471C427.683 105.185 427.805 107.348 426.948 109.855L426.905 109.978C426.294 111.673 424.411 116.116 421.608 122.542L420.949 124.05L420.006 126.203C419.049 128.382 418.058 130.63 417.062 132.877L414.813 137.943C414.592 138.438 414.015 138.659 413.523 138.436C413.031 138.214 412.812 137.633 413.033 137.138L414.824 133.108L416.601 129.089C417.258 127.601 417.907 126.126 418.538 124.686L420.527 120.132C422.919 114.628 424.532 110.803 425.069 109.314C425.406 108.358 425.559 107.5 425.53 106.861C425.519 106.632 425.485 106.449 425.438 106.321L425.406 106.245L425.398 106.247C425.276 106.28 425.108 106.368 424.905 106.521L424.836 106.574C424.245 107.043 423.54 107.901 422.777 109.13L422.689 109.273C422.132 110.186 421.449 111.313 420.656 112.627L417.621 117.672L414.857 122.287L411.019 128.714C410.742 129.179 410.143 129.33 409.681 129.051C409.236 128.782 409.081 128.212 409.317 127.755L409.356 127.686L411.406 124.251L413.89 120.096L417.469 114.129C418.931 111.698 420.138 109.701 421.027 108.245Z" fill="black"/>
<path fill-rule="evenodd" clip-rule="evenodd" d="M414.932 135.641C414.932 135.641 415.778 115.504 415.778 111.608C415.778 105.19 411.94 103.356 410.965 112.001C410.314 117.796 409.566 128.438 409.566 128.438" fill="white"/>
<path fill-rule="evenodd" clip-rule="evenodd" d="M409.995 111.89L410.03 111.588C410.561 107.303 411.9 104.854 413.896 105.187C415.669 105.482 416.723 108.062 416.752 111.461L416.752 111.794C416.744 113.289 416.642 116.644 416.469 121.384L416.346 124.67L416.235 127.562C416.187 128.789 416.137 130.025 416.088 131.251L415.906 135.683C415.883 136.225 415.429 136.645 414.89 136.623C414.371 136.6 413.964 136.174 413.956 135.657L413.966 135.373L414.089 132.394L414.237 128.713L414.397 124.595L414.6 119.042C414.725 115.461 414.796 112.919 414.801 111.727L414.801 111.608C414.801 110.189 414.601 108.974 414.257 108.112C414.111 107.748 413.949 107.47 413.788 107.292C413.684 107.176 413.61 107.13 413.577 107.125L413.57 107.127C413.561 107.13 413.54 107.142 413.494 107.177C413.345 107.287 413.169 107.51 412.989 107.85C412.541 108.701 412.176 110.08 411.955 111.925L411.933 112.111C411.877 112.612 411.819 113.161 411.759 113.754L411.654 114.818C411.547 115.926 411.436 117.151 411.323 118.474C411.168 120.27 411.015 122.17 410.867 124.09L410.671 126.686L410.539 128.507C410.501 129.048 410.034 129.456 409.497 129.417C408.959 129.379 408.554 128.909 408.592 128.368L408.763 126.028L408.823 125.223C408.985 123.079 409.155 120.935 409.327 118.909L409.492 117.008C409.576 116.061 409.659 115.173 409.739 114.351L409.818 113.554C409.878 112.955 409.937 112.399 409.995 111.89Z" fill="black"/>
<path fill-rule="evenodd" clip-rule="evenodd" d="M401.695 156.793C402.117 151.784 401.467 149.786 401.467 149.786C390.02 150.998 380.849 139.996 380.849 139.996C380.849 139.996 379.743 141.24 376.686 145.235C373.596 149.23 367.775 144.711 364.295 150.441C361.499 155.091 351.612 179.386 347.905 188.521C336.685 154.927 322.246 137.868 298.701 133.578C295.644 114.849 282.375 91.0776 229.626 95.236C196.845 101.195 186.829 118.091 189.105 135.936H188.943C188.943 135.936 167.706 135.641 155.836 171.2C152.357 162.949 148.812 154.861 147.316 152.34C143.869 146.61 132.063 149.164 128.974 145.202C125.885 141.207 124.811 139.963 124.811 139.963C124.811 139.963 115.64 150.965 104.193 149.753C104.193 149.753 103.543 151.751 103.965 156.76C104.388 161.77 98.3393 162.36 99.7052 168.908C101.039 175.457 122.372 234.231 122.372 234.231C124.389 239.699 127.023 256.791 138.047 257.38C138.145 257.577 138.275 257.675 138.438 257.675C155.901 257.61 369.401 257.806 369.401 257.806C369.401 257.806 369.434 257.577 369.434 257.118C378.93 254.859 381.401 239.372 383.32 234.198C383.32 234.198 404.621 175.457 405.987 168.875C407.321 162.36 401.272 161.803 401.695 156.793Z" fill="#AEAEAE"/>
<path fill-rule="evenodd" clip-rule="evenodd" d="M401.792 155.975C402.605 150.736 401.597 148.771 401.597 148.771C391.157 151.063 381.499 139.079 381.499 139.079C381.499 139.079 380.198 140.225 377.076 144.645C375.807 146.414 374.539 146.61 373.238 146.97C377.564 161.181 397.922 163.145 405.011 163.342C404.458 160.264 401.174 159.969 401.792 155.975Z" fill="black"/>
<path fill-rule="evenodd" clip-rule="evenodd" d="M103.835 156.007C103.022 150.768 104.063 148.771 104.063 148.771C114.502 151.063 124.161 139.079 124.161 139.079C124.161 139.079 125.722 139.243 128.876 143.663C130.145 145.431 132.291 146.937 133.592 147.298C129.267 161.508 107.543 163.44 100.453 163.604C100.973 160.559 104.453 160.002 103.835 156.007Z" fill="black"/>
<path fill-rule="evenodd" clip-rule="evenodd" d="M189.007 134.855C182.665 136.165 176.063 139.538 170.242 146.021C175.673 153.912 194.6 180.794 229.495 186.491C229.495 186.328 229.43 186.066 229.333 185.771C209.983 177.782 191.056 155.549 189.007 134.855Z" fill="black"/>
<path fill-rule="evenodd" clip-rule="evenodd" d="M298.701 133.447C299.904 140.716 299.579 147.265 299.416 151.129C298.863 163.866 293.205 172.772 289.627 179.124L289.367 185.64C304.132 182.136 315.709 154.632 317.693 141.109C312.457 138.195 311.514 136.067 298.701 133.447Z" fill="black"/>
<path fill-rule="evenodd" clip-rule="evenodd" d="M226.372 177.467C226.973 177.116 227.738 177.305 228.113 177.884L228.197 178.026L228.459 178.491C228.572 178.692 228.696 178.914 228.83 179.157L229.306 180.023C229.673 180.696 230.064 181.423 230.474 182.199L230.611 182.459C232.451 185.953 234.291 189.684 236.01 193.5C237.666 197.176 239.122 200.743 240.323 204.133C242.215 209.47 243.418 214.204 243.799 218.193C243.867 218.913 243.343 219.552 242.628 219.621C241.913 219.69 241.277 219.163 241.209 218.443C240.852 214.702 239.699 210.164 237.873 205.013C236.698 201.697 235.268 198.196 233.641 194.581C232.052 191.054 230.356 187.596 228.653 184.336L228.312 183.686C227.677 182.479 227.087 181.388 226.558 180.432L226.195 179.78L225.898 179.257C225.538 178.631 225.75 177.83 226.372 177.467Z" fill="black"/>
<path fill-rule="evenodd" clip-rule="evenodd" d="M287.793 175.831C288.464 176.017 288.868 176.699 288.719 177.376L288.484 178.272L288.284 179.056C288.18 179.468 288.071 179.909 287.957 180.379L287.9 180.616C287.295 183.124 286.689 185.867 286.124 188.753C285.148 193.735 284.399 198.608 283.963 203.17C283.482 208.21 283.406 212.668 283.799 216.378C283.875 217.097 283.358 217.742 282.643 217.819C281.929 217.896 281.288 217.375 281.212 216.656C280.798 212.747 280.877 208.121 281.373 202.919C281.818 198.263 282.58 193.307 283.571 188.247C284.111 185.493 284.686 182.869 285.263 180.449L285.372 179.997C285.528 179.349 285.677 178.75 285.815 178.204L285.997 177.493L286.194 176.747C286.385 176.049 287.101 175.639 287.793 175.831Z" fill="black"/>
<path fill-rule="evenodd" clip-rule="evenodd" d="M154.723 171.14C155.223 170.996 155.743 171.272 155.912 171.759L155.93 171.814C155.957 171.912 158.467 177.326 162.021 184.954L165.686 192.81L171.549 205.359C171.779 205.849 171.57 206.435 171.082 206.666C170.595 206.897 170.014 206.686 169.784 206.196L163.92 193.645L157.914 180.762C155.364 175.281 154.11 172.555 154.053 172.354C153.905 171.833 154.205 171.289 154.723 171.14Z" fill="black"/>
<path fill-rule="evenodd" clip-rule="evenodd" d="M347.873 188.786C348.141 188.315 348.738 188.152 349.205 188.422C349.655 188.682 349.821 189.249 349.594 189.71L349.566 189.763L338.931 208.427C338.663 208.898 338.067 209.06 337.6 208.79C337.15 208.53 336.983 207.964 337.211 207.502L337.239 207.449L347.873 188.786Z" fill="black"/>
<path fill-rule="evenodd" clip-rule="evenodd" d="M200.991 230.925C201.529 230.952 201.944 231.412 201.917 231.954L201.899 232.264L201.866 232.72C201.856 232.843 201.846 232.973 201.834 233.109C201.757 234.015 201.648 235.022 201.502 236.107C201.084 239.208 200.453 242.311 199.564 245.216C198.377 249.09 196.817 252.318 194.815 254.685C192.374 257.571 189.347 259.08 185.745 258.918C185.206 258.894 184.789 258.435 184.813 257.893C184.837 257.351 185.293 256.931 185.832 256.956C191.38 257.205 195.252 252.626 197.699 244.637C198.554 241.846 199.164 238.845 199.568 235.843C199.697 234.887 199.796 233.994 199.869 233.182L199.89 232.941C199.903 232.788 199.915 232.644 199.925 232.51L199.967 231.88C199.968 231.872 199.968 231.864 199.968 231.858C199.994 231.335 200.42 230.928 200.933 230.924L200.991 230.925Z" fill="black"/>
<path fill-rule="evenodd" clip-rule="evenodd" d="M279.613 257.871C276.719 235.377 273.662 202.077 278.377 187.998C285.825 165.83 282.93 137.966 277.889 133.939C272.849 129.911 217.335 130.664 217.335 130.664L207.352 134.135C207.352 134.135 245.369 169.694 256.621 234.558C258.377 244.741 259.58 252.731 260.361 258.985" fill="white"/>
<path fill-rule="evenodd" clip-rule="evenodd" d="M225.985 111.837L225.172 126.015L216.879 131.778C216.879 131.778 238.603 146.938 258.018 169.53C258.018 169.53 269.953 161.05 272.717 134.168L266.473 133.185L236.554 115.34L225.985 111.837Z" fill="white"/>
<path fill-rule="evenodd" clip-rule="evenodd" d="M225.01 111.78L224.224 125.479L216.324 130.969C215.78 131.347 215.762 132.142 216.271 132.547L216.92 133.011L217.411 133.366C217.984 133.783 218.631 134.261 219.345 134.798L219.93 135.24C222.193 136.954 224.686 138.918 227.354 141.115C235.643 147.939 243.933 155.595 251.667 163.903C253.595 165.974 255.467 168.065 257.279 170.173C257.607 170.555 258.17 170.624 258.579 170.333L258.654 170.278C258.805 170.166 259.028 169.986 259.315 169.734C259.864 169.251 260.472 168.653 261.123 167.934C262.966 165.899 264.803 163.294 266.511 160.063C270.067 153.338 272.603 144.805 273.687 134.269L273.691 134.211C273.713 133.715 273.361 133.275 272.867 133.197L266.808 132.244L237.05 114.495C236.99 114.459 236.925 114.43 236.858 114.407L226.289 110.904C225.68 110.702 225.047 111.136 225.01 111.78ZM226.885 113.17L236.146 116.24L265.975 134.031L266.04 134.066C266.129 134.11 266.224 134.141 266.322 134.156L271.646 134.994L271.618 135.245C270.497 144.989 268.093 152.891 264.789 159.139C263.158 162.224 261.416 164.695 259.681 166.61L259.544 166.761C259.091 167.253 258.666 167.676 258.275 168.035L258.13 168.165L258.755 168.888C256.926 166.759 255.036 164.649 253.09 162.56C245.293 154.184 236.941 146.47 228.589 139.594L227.892 139.022C225.233 136.848 222.755 134.91 220.512 133.224L219.89 132.758C219.541 132.498 219.21 132.254 218.899 132.026L218.577 131.79L225.725 126.823C225.973 126.651 226.127 126.374 226.145 126.071L226.885 113.17Z" fill="black"/>
<path fill-rule="evenodd" clip-rule="evenodd" d="M216.584 85.937C216.584 85.937 203.771 87.7051 207.413 99.198C211.056 110.691 224.487 102.21 224.487 102.21L220.682 85.7078L216.584 85.937Z" fill="white"/>
<path fill-rule="evenodd" clip-rule="evenodd" d="M220.627 84.7269L216.529 84.9561C216.503 84.9575 216.477 84.9601 216.451 84.9637L216.319 84.9833C215.966 85.0394 215.44 85.1488 214.792 85.3268C213.572 85.6616 212.352 86.13 211.206 86.7582C206.654 89.2516 204.569 93.4594 206.483 99.4965C207.995 104.269 211.241 106.358 215.534 106.197C217.584 106.121 219.743 105.54 221.901 104.622C222.617 104.317 223.288 103.994 223.903 103.668L224.131 103.545C224.541 103.323 224.838 103.147 225.004 103.042C225.357 102.82 225.53 102.396 225.436 101.988L221.631 85.4855C221.524 85.0205 221.1 84.7004 220.627 84.7269ZM219.916 86.7342L223.372 101.724L223.204 101.817C222.581 102.156 221.886 102.495 221.142 102.812C219.183 103.645 217.241 104.168 215.462 104.234C212.011 104.363 209.577 102.796 208.342 98.8993C206.735 93.8296 208.357 90.5552 212.138 88.4838C213.14 87.9349 214.222 87.5195 215.305 87.2221C215.63 87.1329 215.934 87.0602 216.212 87.0025L216.407 86.9635L216.628 86.9237L216.679 86.9152L219.916 86.7342Z" fill="black"/>
<path fill-rule="evenodd" clip-rule="evenodd" d="M247.091 40.031C250.441 39.3434 273.465 35.0868 278.246 54.6018C283.027 74.1167 282.766 96.2839 281.758 106.532C280.75 116.781 235.806 117.403 233.205 116.814C230.603 116.224 227.253 113.572 227.253 113.572L217.725 83.8742C217.725 83.8742 211.058 47.431 247.091 40.031Z" fill="white"/>
<path fill-rule="evenodd" clip-rule="evenodd" d="M252.631 38.2933C250.411 38.45 248.539 38.7311 246.895 39.0684C238.268 40.8402 231.563 44.3397 226.612 49.3075C222.414 53.519 219.596 58.6599 217.956 64.4585C216.686 68.9503 216.191 73.5756 216.27 78.0815C216.296 79.5534 216.382 80.9154 216.51 82.1418L216.538 82.4025C216.582 82.8005 216.628 83.159 216.674 83.4756L216.722 83.7999C216.74 83.9131 216.755 83.9975 216.764 84.052C216.772 84.0939 216.783 84.1354 216.796 84.176L226.324 113.874C226.384 114.06 226.497 114.224 226.649 114.344L226.853 114.501L227.053 114.651C227.158 114.729 227.271 114.811 227.39 114.897C227.958 115.304 228.569 115.712 229.201 116.093C229.938 116.537 230.656 116.918 231.344 117.216C231.923 117.467 232.473 117.655 232.99 117.772C235.102 118.25 248.362 117.859 258.191 116.713L258.901 116.629C265.139 115.871 270.436 114.828 274.423 113.476L274.774 113.355C279.636 111.652 282.448 109.484 282.729 106.629C283.319 100.629 283.516 92.3976 283.147 83.9985C282.687 73.5193 281.401 63.3801 279.193 54.3664C276.98 45.3334 270.899 40.4096 262.313 38.7751C259.204 38.1834 255.933 38.0603 252.631 38.2933ZM261.95 40.7055C269.838 42.207 275.285 46.6175 277.298 54.8368C279.473 63.7131 280.743 73.727 281.198 84.0852C281.562 92.3928 281.368 100.531 280.787 106.436C280.419 110.172 271.896 113.098 258.377 114.713L257.966 114.761C248.352 115.883 235.246 116.269 233.418 115.855C233.029 115.767 232.591 115.617 232.115 115.411C231.515 115.151 230.871 114.81 230.204 114.408C229.62 114.055 229.051 113.676 228.522 113.297L228.31 113.142L228.087 112.977L218.673 83.6376L218.632 83.3784L218.623 83.3172C218.574 82.9934 218.525 82.6146 218.477 82.1848C218.341 80.9505 218.247 79.5604 218.221 78.0468C218.145 73.7222 218.62 69.2859 219.833 64.9964C221.386 59.5047 224.042 54.659 227.989 50.699C232.663 46.0096 239.022 42.6902 247.285 40.9933C248.851 40.6719 250.642 40.4031 252.767 40.2531C255.913 40.0311 259.022 40.148 261.95 40.7055Z" fill="black"/>
<path fill-rule="evenodd" clip-rule="evenodd" d="M221.917 83.1211C224.324 85.0529 231.478 96.9387 233.56 102.636C233.56 102.636 247.251 96.0219 267.609 93.2715C267.609 93.2715 278.764 92.191 283.349 93.0095C283.349 93.0095 284.748 113.9 276.943 125.72C269.138 137.54 249.723 136.82 240.064 131.417C230.373 126.015 228.552 123.101 225.69 116.421C222.828 109.741 214.438 84.5945 214.438 84.5945L221.917 83.1211Z" fill="#828282"/>
<path fill-rule="evenodd" clip-rule="evenodd" d="M216.585 88.2617C216.585 88.2617 209.495 79.3883 206.048 69.7291C202.828 60.6265 205.95 50.3451 213.95 45.1717C220.617 40.8496 226.178 42.9779 226.178 42.9779C226.178 42.9779 217.203 30.7647 227.186 17.8966C230.699 13.3453 235.935 10.4639 241.561 9.97273C255.35 8.76124 260.943 20.1886 260.943 20.1886C260.943 20.1886 272.586 -9.21478 304.586 3.62055C307.806 4.93028 311.773 9.12141 313.757 12.0356C325.822 29.6841 295.448 55.7805 278.537 59.5459C259.968 63.6716 248.618 61.7725 242.049 57.7778C246.862 60.0698 245.008 89.4077 216.585 88.2617Z" fill="black"/>
<path fill-rule="evenodd" clip-rule="evenodd" d="M265.044 78.9958C265.723 78.8392 266.399 79.2476 266.586 79.9143L266.603 79.9796L270.668 97.8247C270.824 98.5074 270.418 99.188 269.756 99.3771L269.692 99.3939L264.456 100.605C263.756 100.767 263.058 100.327 262.897 99.6223C262.741 98.9394 263.146 98.2584 263.808 98.0692L263.873 98.0525L267.842 97.1342L264.067 80.5652C263.912 79.8822 264.317 79.2015 264.979 79.0126L265.044 78.9958Z" fill="black"/>
<path fill-rule="evenodd" clip-rule="evenodd" d="M272.286 87.4523C273.285 87.3398 273.953 85.9665 273.778 84.3851C273.602 82.8036 272.649 81.6127 271.65 81.7252C270.65 81.8377 269.982 83.211 270.158 84.7925C270.333 86.374 271.286 87.5648 272.286 87.4523Z" fill="black"/>
<path fill-rule="evenodd" clip-rule="evenodd" d="M254.95 88.5986C255.949 88.4861 256.617 87.1128 256.442 85.5313C256.266 83.9498 255.313 82.759 254.314 82.8715C253.314 82.984 252.646 84.3572 252.822 85.9387C252.997 87.5202 253.95 88.7111 254.95 88.5986Z" fill="black"/>
<path fill-rule="evenodd" clip-rule="evenodd" d="M255.487 74.3462C256.205 74.3319 256.799 74.9066 256.813 75.6298C256.869 78.4689 255.106 80.375 252.33 81.4731C251.439 81.8257 250.498 82.0723 249.559 82.2348L249.34 82.2713C248.879 82.345 248.512 82.3837 248.275 82.3983C247.558 82.4427 246.941 81.8933 246.897 81.1713C246.854 80.4712 247.366 79.8659 248.051 79.7894L248.227 79.7746C248.266 79.7709 248.314 79.7661 248.369 79.76C248.594 79.7355 248.846 79.7004 249.118 79.6532C249.895 79.5189 250.669 79.3159 251.379 79.0351C253.211 78.3104 254.201 77.2663 254.213 75.7772L254.212 75.6815C254.198 74.9583 254.769 74.3605 255.487 74.3462Z" fill="black"/>
<path fill-rule="evenodd" clip-rule="evenodd" d="M270.006 66.9833C271.121 66.7068 272.28 66.6169 273.408 66.836C275.168 67.1783 276.574 68.2447 277.361 70.0983C277.643 70.7634 277.336 71.5331 276.676 71.8174C276.015 72.1017 275.251 71.7929 274.968 71.1278C274.534 70.1055 273.857 69.5912 272.914 69.408C272.21 69.2711 271.409 69.3333 270.627 69.5269C270.491 69.5605 270.366 69.5958 270.253 69.6311L270.137 69.6689L270.039 69.7036C269.37 69.9683 268.615 69.6373 268.352 68.9641C268.089 68.291 268.418 67.5307 269.087 67.2659C269.283 67.1883 269.598 67.0844 270.006 66.9833Z" fill="black"/>
<path fill-rule="evenodd" clip-rule="evenodd" d="M263.515 106.322C261.064 106.816 258.447 106.951 255.85 106.828C253.594 106.737 251.656 108.337 252.552 110.202C253.885 113.042 256.7 114.645 261.184 114.122C265.63 113.598 267.681 111.567 267.675 108.771L267.674 108.675C267.674 106.973 265.566 105.954 263.607 106.305L263.515 106.322ZM265.338 108.4C265.5 108.477 265.62 108.565 265.687 108.646L265.723 108.694C265.757 110.488 264.507 111.752 260.959 112.171C257.365 112.589 255.353 111.479 254.355 109.445L254.312 109.354C254.286 109.301 254.297 109.267 254.443 109.146C254.72 108.917 255.212 108.769 255.765 108.791C258.503 108.92 261.273 108.777 263.898 108.249C264.399 108.148 264.937 108.212 265.338 108.4Z" fill="black"/>
<rect width="99.9705" height="23.7718" transform="matrix(-0.999989 0.00478286 -0.00471815 -0.999989 373.652 257.142)" fill="black"/>
<rect width="43.9038" height="12.77" transform="matrix(-0.999989 0.00478286 -0.00471816 -0.999989 372.105 251.095)" fill="white"/>
<rect width="4.09769" height="12.7701" transform="matrix(-0.999989 0.00478288 -0.00471813 -0.999989 326.363 251.307)" fill="#AEAEAE"/>
<path fill-rule="evenodd" clip-rule="evenodd" d="M295.935 239.961C292.935 239.961 290.504 242.409 290.504 245.429C290.504 248.449 292.935 250.897 295.935 250.897C298.934 250.897 301.366 248.449 301.366 245.429C301.366 242.409 298.934 239.961 295.935 239.961ZM295.935 241.926C297.857 241.926 299.415 243.494 299.415 245.429C299.415 247.364 297.857 248.933 295.935 248.933C294.013 248.933 292.455 247.364 292.455 245.429C292.455 243.494 294.013 241.926 295.935 241.926Z" fill="white"/>
<path fill-rule="evenodd" clip-rule="evenodd" d="M361.59 239.208C362.109 239.204 362.537 239.61 362.57 240.126L362.572 240.183L362.637 249.679C362.641 250.221 362.207 250.664 361.668 250.668C361.149 250.671 360.721 250.266 360.688 249.75L360.686 249.692L360.621 240.197C360.617 239.654 361.051 239.212 361.59 239.208Z" fill="#AEAEAE"/>
<path fill-rule="evenodd" clip-rule="evenodd" d="M356.781 239.24C357.3 239.239 357.727 239.646 357.758 240.162L357.76 240.219L357.792 249.682C357.794 250.225 357.359 250.666 356.82 250.668C356.301 250.67 355.874 250.262 355.843 249.747L355.841 249.689L355.809 240.226C355.807 239.684 356.242 239.242 356.781 239.24Z" fill="#AEAEAE"/>
<path fill-rule="evenodd" clip-rule="evenodd" d="M351.933 239.273C352.453 239.272 352.879 239.679 352.91 240.195L352.912 240.252L352.945 249.715C352.946 250.258 352.511 250.699 351.972 250.701C351.453 250.703 351.027 250.295 350.995 249.78L350.993 249.722L350.961 240.259C350.959 239.717 351.394 239.275 351.933 239.273Z" fill="#AEAEAE"/>
<rect x="385.227" y="234.781" width="94.3108" height="24.9831" transform="rotate(-180 385.227 234.781)" fill="black"/>
<rect x="377.184" y="227.428" width="43.9033" height="12.7699" transform="rotate(-180 377.184 227.428)" fill="white"/>
<rect x="331.441" y="227.428" width="4.09763" height="12.7699" transform="rotate(-180 331.441 227.428)" fill="#AEAEAE"/>
<path fill-rule="evenodd" clip-rule="evenodd" d="M307.126 215.338C304.127 215.338 301.695 217.786 301.695 220.806C301.695 223.826 304.127 226.274 307.126 226.274C310.126 226.274 312.557 223.826 312.557 220.806C312.557 217.786 310.126 215.338 307.126 215.338ZM307.126 217.303C309.048 217.303 310.606 218.871 310.606 220.806C310.606 222.741 309.048 224.31 307.126 224.31C305.205 224.31 303.647 222.741 303.647 220.806C303.647 218.871 305.205 217.303 307.126 217.303Z" fill="white"/>
<path fill-rule="evenodd" clip-rule="evenodd" d="M346.64 215.371C347.159 215.371 347.584 215.78 347.614 216.295L347.615 216.353V225.816C347.615 226.358 347.178 226.798 346.64 226.798C346.12 226.798 345.695 226.389 345.666 225.874L345.664 225.816V216.353C345.664 215.811 346.101 215.371 346.64 215.371Z" fill="#AEAEAE"/>
<path fill-rule="evenodd" clip-rule="evenodd" d="M371.581 215.371C372.101 215.371 372.525 215.78 372.555 216.295L372.557 216.353V225.816C372.557 226.358 372.12 226.798 371.581 226.798C371.062 226.798 370.637 226.389 370.607 225.874L370.605 225.816V216.353C370.605 215.811 371.042 215.371 371.581 215.371Z" fill="#AEAEAE"/>
<path fill-rule="evenodd" clip-rule="evenodd" d="M341.792 215.371C342.312 215.371 342.736 215.78 342.766 216.295L342.768 216.353V225.816C342.768 226.358 342.331 226.798 341.792 226.798C341.272 226.798 340.848 226.389 340.818 225.874L340.816 225.816V216.353C340.816 215.811 341.253 215.371 341.792 215.371Z" fill="#AEAEAE"/>
<path fill-rule="evenodd" clip-rule="evenodd" d="M336.98 215.371C337.499 215.371 337.924 215.78 337.954 216.295L337.955 216.353V225.816C337.955 226.358 337.518 226.798 336.98 226.798C336.46 226.798 336.035 226.389 336.006 225.874L336.004 225.816V216.353C336.004 215.811 336.441 215.371 336.98 215.371Z" fill="#AEAEAE"/>
<rect x="367.383" y="175.162" width="116.783" height="82.9385" fill="#FEDC2E"/>
<path fill-rule="evenodd" clip-rule="evenodd" d="M433.889 174.376V258.592H431.938V174.376H433.889Z" fill="white"/>
<path fill-rule="evenodd" clip-rule="evenodd" d="M470.053 183.348C470.591 183.348 471.028 183.788 471.028 184.33C471.028 184.854 470.622 185.281 470.11 185.311L470.053 185.313H417.206C416.667 185.313 416.23 184.873 416.23 184.33C416.23 183.807 416.637 183.38 417.149 183.35L417.206 183.348H470.053Z" fill="white"/>
<path fill-rule="evenodd" clip-rule="evenodd" d="M483.123 213.145C483.662 213.145 484.099 213.584 484.099 214.127C484.099 214.65 483.692 215.078 483.18 215.107L483.123 215.109H449.171C448.632 215.109 448.195 214.669 448.195 214.127C448.195 213.604 448.601 213.176 449.114 213.146L449.171 213.145H483.123Z" fill="white"/>
<path fill-rule="evenodd" clip-rule="evenodd" d="M478.118 240.943C478.657 240.943 479.093 241.383 479.093 241.926C479.093 242.449 478.687 242.876 478.175 242.906L478.118 242.908H411.905C411.366 242.908 410.93 242.468 410.93 241.926C410.93 241.403 411.336 240.975 411.848 240.945L411.905 240.943H478.118Z" fill="white"/>
<path fill-rule="evenodd" clip-rule="evenodd" d="M421.172 205.712C421.711 205.712 422.148 206.151 422.148 206.694C422.148 207.217 421.742 207.645 421.229 207.675L421.172 207.676H386.96C386.421 207.676 385.984 207.236 385.984 206.694C385.984 206.171 386.391 205.743 386.903 205.713L386.96 205.712H421.172Z" fill="white"/>
<path fill-rule="evenodd" clip-rule="evenodd" d="M388.263 192.68C388.802 192.68 389.239 193.12 389.239 193.662C389.239 194.185 388.832 194.613 388.32 194.643L388.263 194.645H367.515C366.976 194.645 366.539 194.205 366.539 193.662C366.539 193.139 366.945 192.711 367.457 192.682L367.515 192.68H388.263Z" fill="white"/>
<path fill-rule="evenodd" clip-rule="evenodd" d="M407.968 230.99C408.507 230.99 408.944 231.429 408.944 231.972C408.944 232.495 408.537 232.923 408.025 232.952L407.968 232.954H367.382C366.843 232.954 366.406 232.514 366.406 231.972C366.406 231.449 366.812 231.021 367.325 230.991L367.382 230.99H407.968Z" fill="white"/>
<path fill-rule="evenodd" clip-rule="evenodd" d="M367.221 193.793C358.506 197.264 367.482 203.027 367.482 203.027C367.482 203.027 369.725 196.478 381.238 193.793C379.742 193.793 367.221 193.793 367.221 193.793Z" fill="#FEDC2E"/>
<path fill-rule="evenodd" clip-rule="evenodd" d="M381.237 192.811H367.22C367.097 192.811 366.976 192.834 366.861 192.88C364.279 193.908 362.833 195.265 362.506 196.938C362.159 198.709 363.085 200.428 364.765 202.079C365.243 202.548 365.751 202.977 366.259 203.361L366.407 203.472C366.644 203.647 366.833 203.777 366.956 203.855C367.471 204.186 368.153 203.963 368.382 203.402L368.417 203.308C368.44 203.25 368.483 203.151 368.55 203.015C368.702 202.703 368.906 202.349 369.169 201.964C369.935 200.84 371.016 199.706 372.466 198.639C374.743 196.965 377.707 195.625 381.457 194.75C382.587 194.487 382.397 192.811 381.237 192.811ZM375.225 194.775L375.165 194.803C373.729 195.465 372.448 196.22 371.315 197.053C369.683 198.253 368.449 199.548 367.56 200.852L367.457 201.006C367.356 201.159 367.262 201.308 367.176 201.453L367.12 201.548L367.049 201.492C366.733 201.236 366.422 200.961 366.128 200.672C364.875 199.442 364.236 198.256 364.42 197.317L364.433 197.258C364.63 196.411 365.514 195.573 367.321 194.812L367.409 194.775H375.225Z" fill="white"/>
<path fill-rule="evenodd" clip-rule="evenodd" d="M484.524 213.996C493.24 217.467 484.264 223.229 484.264 223.229C484.264 223.229 482.02 216.681 470.508 213.996C472.036 214.029 484.524 213.996 484.524 213.996Z" fill="#FEDC2E"/>
<path fill-rule="evenodd" clip-rule="evenodd" d="M484.522 213.013L477.892 213.026L471.431 213.022C471.001 213.02 470.696 213.017 470.528 213.014C469.355 212.989 469.145 214.686 470.287 214.953C474.037 215.827 477.001 217.168 479.278 218.842C480.729 219.909 481.809 221.042 482.575 222.166C482.838 222.551 483.042 222.905 483.195 223.217L483.246 223.325C483.292 223.423 483.321 223.494 483.336 223.533L483.342 223.55C483.547 224.15 484.257 224.399 484.789 224.058L484.916 223.973C485.061 223.876 485.255 223.738 485.485 223.564C485.993 223.18 486.501 222.75 486.979 222.281C488.659 220.631 489.585 218.911 489.239 217.14C488.911 215.467 487.465 214.111 484.883 213.082C484.768 213.037 484.645 213.013 484.522 213.013ZM484.336 214.978L484.423 215.015C486.272 215.794 487.154 216.652 487.324 217.52C487.508 218.459 486.869 219.644 485.616 220.875L485.438 221.046C485.197 221.273 484.947 221.49 484.695 221.695L484.624 221.751L484.568 221.656C484.453 221.462 484.325 221.261 484.184 221.055C483.295 219.75 482.061 218.455 480.429 217.255L480.258 217.131C479.24 216.399 478.106 215.73 476.85 215.133L476.55 214.992L484.336 214.978Z" fill="white"/>
<path fill-rule="evenodd" clip-rule="evenodd" d="M398.05 232.037C398.05 232.037 377.823 235.868 378.31 247.885C378.31 247.885 362.082 241.893 367.546 232.037H398.05Z" fill="#FEDC2E"/>
<path fill-rule="evenodd" clip-rule="evenodd" d="M398.051 231.055H367.547C367.193 231.055 366.867 231.248 366.695 231.558C365.082 234.468 365.071 237.307 366.429 239.948C367.504 242.039 369.378 243.907 371.82 245.573C373.166 246.491 374.602 247.291 376.038 247.972C376.478 248.18 376.891 248.364 377.269 248.523L377.429 248.59C377.685 248.696 377.871 248.769 377.975 248.807C378.628 249.048 379.314 248.544 379.286 247.845C379.09 243.021 382.562 239.182 388.6 236.252C390.706 235.231 392.969 234.401 395.234 233.749C395.939 233.546 396.598 233.373 397.199 233.23L397.642 233.128C397.713 233.112 397.78 233.097 397.844 233.083L398.232 233.003C399.397 232.782 399.237 231.055 398.051 231.055ZM391.181 233.02L390.964 233.101C389.871 233.517 388.796 233.977 387.753 234.483L387.554 234.58C381.667 237.48 377.914 241.318 377.39 246.239L377.371 246.426L377.217 246.356C377.103 246.304 376.987 246.25 376.869 246.194C375.519 245.554 374.169 244.802 372.914 243.946L372.767 243.845C368.182 240.67 366.25 237.121 368.078 233.147L368.138 233.02H391.181Z" fill="white"/>
<path fill-rule="evenodd" clip-rule="evenodd" d="M549.697 256.693C550.415 256.693 550.997 257.279 550.997 258.003C550.997 258.704 550.45 259.277 549.761 259.311L549.697 259.312H1.71881C1.00037 259.312 0.417969 258.726 0.417969 258.003C0.417969 257.301 0.965611 256.729 1.65388 256.694L1.71881 256.693H549.697Z" fill="black"/>
</svg>
