<svg width="24" height="24" viewBox="0 0 24 24" fill="none" xmlns="http://www.w3.org/2000/svg">
<path d="M12 2.18182C17.514 2.18182 22 6.10036 22 10.9167C22 16.2807 16.856 19.6015 12.09 19.6015C10.153 19.6015 8.706 19.1684 7.696 18.8989C6.696 19.5676 6.102 20.0302 3.424 20.8844C3.959 19.3865 4.146 17.8865 4.025 16.2316C3.188 15.1407 2 13.6135 2 10.9167C2 6.10036 6.486 2.18182 12 2.18182ZM12 0C5.662 0 0 4.61018 0 10.9167C0 13.1531 0.739 15.3491 2.047 17.0531C2.102 19.0495 1.024 21.9142 0.054 24C2.656 23.4873 6.355 22.3549 8.032 21.2335C9.449 21.6098 10.806 21.7822 12.091 21.7822C19.175 21.7822 24.001 16.5055 24.001 10.9156C24 4.57636 18.299 0 12 0Z" fill="#2C2C2C"/>
</svg>
