<svg width="24" height="24" viewBox="0 0 24 24" fill="none" xmlns="http://www.w3.org/2000/svg">
<path d="M23.995 24H22C22 20.896 22.119 20.45 20.239 20.014C17.362 19.35 14.645 18.723 13.655 16.556C13.294 15.765 13.054 14.461 13.965 12.742C16.007 8.885 16.519 5.577 15.368 3.666C14.027 1.437 9.955 1.425 8.602 3.7C7.448 5.637 7.967 8.927 10.026 12.725C10.956 14.437 10.723 15.745 10.364 16.54C9.382 18.718 6.689 19.339 3.839 19.996C1.875 20.45 2 20.866 2 24H0.005L0 22.759C0 20.239 0.199 18.784 3.178 18.096C6.543 17.319 9.866 16.623 8.268 13.678C3.535 4.949 6.918 0 12 0C16.983 0 20.451 4.766 15.732 13.678C14.181 16.606 17.382 17.302 20.822 18.096C23.801 18.784 24 20.239 24 22.759L23.995 24ZM10.517 18L11.427 20H12.591L13.511 18H10.517ZM13.512 24L12.808 21H11.193L10.489 24H13.512Z" fill="#606060"/>
</svg>
