<svg width="1300" height="547" viewBox="0 0 1300 547" fill="none" xmlns="http://www.w3.org/2000/svg">
<path fill-rule="evenodd" clip-rule="evenodd" d="M792.731 253.546H772.82C766.694 253.546 761.717 250.454 761.717 246.648V231.473L730.855 236.135L739.126 256.306C747.856 330.138 591.252 338.225 585.356 258.256L488.331 273.003V272.956L425 281.519L467.195 386.131L555.107 372.953C567.207 387.51 576.09 397.596 576.09 397.596H847.408L792.731 253.546Z" fill="#2C2C2C"/>
<path fill-rule="evenodd" clip-rule="evenodd" d="M105.86 91.8263C129.546 92.0102 150.925 93.9178 170.186 97.4015C171.405 97.6218 172.105 98.4139 171.75 99.1707C171.395 99.9275 170.12 100.362 168.902 100.142C150.698 96.8495 130.525 94.992 108.202 94.7051L107.628 94.6981L107.512 95.0231C107.1 96.1904 106.687 97.5517 106.3 99.092C103.236 111.304 103.696 125.462 110.117 140.264C110.447 141.025 109.721 141.809 108.496 142.014C107.271 142.219 106.01 141.768 105.68 141.007C99.1547 125.962 98.6155 111.575 101.65 99.0972L101.76 98.6524C102.161 97.0533 102.592 95.6348 103.024 94.4115L103.152 94.0553C103.215 93.8839 103.275 93.7226 103.333 93.5715L103.581 92.9538C103.595 92.9223 103.606 92.8959 103.616 92.8744C103.893 92.2488 104.815 91.8182 105.86 91.8263Z" fill="#FFDD2D"/>
<path fill-rule="evenodd" clip-rule="evenodd" d="M167.13 98.3766C167.353 97.6007 168.546 97.0841 169.795 97.2227C171.044 97.3613 171.876 98.1027 171.653 98.8786C167.247 114.198 167.605 129.101 172.107 143.696C172.346 144.47 171.529 145.218 170.283 145.366C169.037 145.514 167.833 145.007 167.594 144.233C162.989 129.303 162.622 114.049 167.13 98.3766Z" fill="#FFDD2D"/>
<path fill-rule="evenodd" clip-rule="evenodd" d="M240.651 11.8143C241.352 11.3221 242.504 11.1911 243.44 11.4971L243.814 11.622C244.108 11.7216 244.454 11.8406 244.849 11.9791L245.542 12.2244C246.376 12.5217 247.294 12.8577 248.292 13.2325L248.725 13.3956C252.877 14.966 257.499 16.8601 262.472 19.0823C276.668 25.4249 290.859 33.1292 304.107 42.2303C312.345 47.8905 319.964 53.9293 326.836 60.3514C327.538 61.0078 327.251 61.8937 326.195 62.33C325.138 62.7664 323.712 62.588 323.01 61.9316C316.267 55.6304 308.789 49.7027 300.699 44.1447C287.682 35.2023 273.734 27.6298 259.789 21.3995C255.146 19.3249 250.822 17.5444 246.918 16.0549L246.335 15.8337C245.345 15.4593 244.434 15.1234 243.607 14.8259L242.873 14.5647L242.865 14.5704C202.98 42.7991 180.062 70.6893 171.898 98.0424L171.653 98.8796C171.43 99.6555 170.237 100.172 168.988 100.034C167.738 99.8949 166.907 99.1536 167.13 98.3776C175.308 69.9395 199.059 41.0046 240.651 11.8143Z" fill="#FFDD2D"/>
<path fill-rule="evenodd" clip-rule="evenodd" d="M446.734 121.814C473.585 114.803 504.782 114.132 540.551 120.907C541.592 121.104 542.268 121.728 542.169 122.402L542.123 122.69L542.011 123.314L541.881 123.984C541.729 124.739 541.542 125.585 541.317 126.515C540.532 129.756 539.447 133.365 538.014 137.249C533.919 148.348 527.851 159.449 519.418 169.822C518.846 170.525 517.464 170.808 516.331 170.452C515.199 170.097 514.744 169.239 515.316 168.535C523.567 158.387 529.518 147.5 533.535 136.611C534.941 132.8 536.005 129.263 536.773 126.091L536.927 125.441C537.05 124.913 537.159 124.417 537.255 123.954L537.386 123.298L537.131 123.251C503.588 117.143 474.434 117.82 449.291 124.245L448.514 124.445C427.299 129.984 409.642 139.441 395.243 151.726C386.821 158.912 380.035 166.618 374.747 174.324C372.897 177.02 371.367 179.522 370.139 181.764L369.864 182.272C369.599 182.766 369.364 183.22 369.159 183.631L368.893 184.176L368.722 184.543C368.385 185.303 367.12 185.749 365.897 185.54C364.674 185.33 363.955 184.545 364.292 183.785L364.487 183.365C364.541 183.253 364.6 183.131 364.665 182.999L364.879 182.569C365.141 182.051 365.444 181.475 365.789 180.844C367.053 178.537 368.623 175.969 370.52 173.205C375.937 165.312 382.887 157.42 391.528 150.046C406.388 137.368 424.677 127.573 446.734 121.814Z" fill="#FFDD2D"/>
<path fill-rule="evenodd" clip-rule="evenodd" d="M408.13 17.4827C409.006 17.1553 410.124 17.2267 410.875 17.6577L411.125 17.804L411.621 18.1023C412.135 18.4144 412.719 18.7782 413.368 19.1935L413.649 19.3746C415.817 20.7716 418.227 22.4293 420.82 24.3428C428.212 29.7986 435.598 36.217 442.491 43.5587C449.845 51.3925 456.2 59.832 461.26 68.853C461.678 69.5973 461.045 70.411 459.847 70.6704C458.649 70.9297 457.339 70.5366 456.921 69.7923C451.962 60.9501 445.731 52.6765 438.522 44.9967C431.768 37.8022 424.533 31.5162 417.304 26.1809L416.366 25.4939C414.353 24.0314 412.466 22.7364 410.737 21.6119L410.341 21.3554C410.067 21.1789 409.805 21.0117 409.555 20.8539L408.985 20.4971L408.12 20.8239C369.822 35.3384 339.634 51.5766 316.888 69.2798L316.187 69.8278C295.597 85.9896 281.464 103.14 273.066 121.006C272.71 121.762 271.434 122.197 270.216 121.976C268.999 121.755 268.3 120.962 268.655 120.206C287.043 81.0896 331.651 46.0756 408.13 17.4827Z" fill="#FFDD2D"/>
<path fill-rule="evenodd" clip-rule="evenodd" d="M366.741 77.6419C394.242 98.2327 410.073 117.854 415.63 136.474C415.861 137.249 415.037 137.994 413.79 138.138C412.542 138.281 411.343 137.77 411.112 136.995C405.814 119.244 390.844 100.465 364.813 80.6773L364.335 80.3158L363.472 80.5739C362.848 80.7617 362.179 80.9656 361.467 81.1854L360.592 81.4568L359.227 81.8852C355.314 83.1215 351.017 84.5496 346.427 86.1628C331.764 91.3151 317.102 97.2827 303.428 103.989C275.671 117.602 255.631 132.453 246.588 148.24C235.439 167.704 241.601 187.675 268.5 208.093C269.304 208.703 269.16 209.602 268.178 210.102C267.196 210.601 265.748 210.511 264.945 209.901C237.044 188.723 230.56 167.708 242.259 147.283C251.64 130.905 272.206 115.665 300.581 101.749C314.456 94.9441 329.31 88.8981 344.164 83.6784L345.794 83.1092C350.375 81.5184 354.651 80.1151 358.532 78.9055L359.424 78.6288C360.295 78.3597 361.105 78.1137 361.849 77.891L362.811 77.6054L364.024 77.2536C364.967 76.9877 366.08 77.1468 366.741 77.6419Z" fill="#FFDD2D"/>
<path fill-rule="evenodd" clip-rule="evenodd" d="M107.774 140.069C159.357 137.248 205.612 146.629 246.298 165.033C261.936 172.107 276.117 180.251 288.828 189.074C298.37 195.699 306.394 202.216 312.895 208.25C313.6 208.905 313.318 209.792 312.263 210.23C311.209 210.668 309.782 210.493 309.076 209.838C302.689 203.91 294.795 197.498 285.404 190.978C272.9 182.297 258.954 174.289 243.593 167.341C203.754 149.319 158.573 140.157 108.177 142.913C106.913 142.982 105.798 142.401 105.687 141.616C105.575 140.831 106.51 140.139 107.774 140.069Z" fill="#FFDD2D"/>
<path fill-rule="evenodd" clip-rule="evenodd" d="M107.777 140.071C109.041 140.003 110.155 140.585 110.264 141.37C110.373 142.155 109.436 142.847 108.172 142.915C94.1895 143.664 79.6795 145.399 64.6631 148.136L63.6127 148.329L64.0504 148.892C64.2364 149.129 64.4314 149.375 64.6355 149.629L65.275 150.418C67.6099 153.27 70.4522 156.452 73.814 159.881C83.4262 169.685 95.2625 179.491 109.416 188.64C123.104 197.488 138.276 205.254 154.973 211.636C156.053 212.049 156.39 212.928 155.725 213.599C155.061 214.271 153.646 214.48 152.565 214.067C135.521 207.552 120.051 199.634 106.103 190.618C91.7023 181.309 79.6673 171.338 69.8898 161.366C66.4652 157.873 63.5661 154.628 61.1794 151.712L60.7347 151.165C60.2301 150.54 59.7753 149.962 59.3699 149.433L59.0345 148.992C58.9093 148.826 58.7948 148.672 58.691 148.532L58.3302 148.033L58.3112 148.006C57.7676 147.227 58.4345 146.326 59.7416 146.076C76.3351 142.893 92.3565 140.897 107.777 140.071Z" fill="#FFDD2D"/>
<path fill-rule="evenodd" clip-rule="evenodd" d="M486.504 207.521C493.815 207.521 499.769 211.168 499.903 215.69L499.906 215.847V241.013C499.906 245.554 494.035 249.253 486.756 249.336L486.504 249.338L468.58 249.337L457.118 280.624C456.846 281.365 455.691 281.839 454.5 281.715L454.368 281.699C453.175 281.53 452.412 280.813 452.611 280.073L452.637 279.991L464.507 247.594C464.735 246.972 465.595 246.524 466.608 246.486L466.747 246.483H486.504C491.287 246.483 495.189 244.105 495.308 241.151L495.311 241.013V215.847C495.311 212.876 491.483 210.451 486.728 210.378L486.504 210.376H445.688C444.419 210.376 443.391 209.737 443.391 208.949C443.391 208.189 444.347 207.567 445.553 207.524L445.688 207.521H486.504Z" fill="#2C2C2C"/>
<path fill-rule="evenodd" clip-rule="evenodd" d="M339.779 207.57C341.048 207.57 342.077 208.209 342.077 208.997C342.077 209.758 341.12 210.379 339.914 210.422L339.779 210.425H163.495C158.712 210.425 154.81 212.803 154.691 215.757L154.688 215.896V241.061C154.688 244.033 158.517 246.457 163.271 246.53L163.495 246.532H181.95C182.976 246.532 183.871 246.954 184.156 247.559L184.191 247.643L239.251 397.876C239.532 398.645 238.758 399.41 237.521 399.585C236.328 399.754 235.14 399.312 234.804 398.591L234.771 398.51L180.117 249.387H163.495C156.184 249.387 150.23 245.74 150.096 241.218L150.094 241.061V215.896C150.094 211.354 155.964 207.655 163.243 207.572L163.495 207.57H339.779Z" fill="#2C2C2C"/>
<path fill-rule="evenodd" clip-rule="evenodd" d="M488.805 272.625L488.948 272.676L689.738 350.743C691.501 351.429 691.007 353.101 688.966 353.353L681.685 354.265C679.071 354.595 676.194 354.961 673.068 355.362L664.562 356.458C654.196 357.802 642.996 359.28 631.135 360.878C588.788 366.584 546.443 372.669 506.793 378.894L503.896 379.35C464.497 385.564 429.944 391.587 401.6 397.298L398.749 397.875C396.393 398.355 394.084 398.833 391.822 399.307C390.62 399.56 389.317 399.159 388.911 398.412C388.504 397.665 389.15 396.855 390.352 396.603L393.104 396.029C395.416 395.55 397.776 395.067 400.182 394.583L402.25 394.168C430.306 388.559 464.229 382.661 502.766 376.584C542.339 370.342 584.667 364.238 627.059 358.508L632.998 357.707C645.236 356.063 656.742 354.55 667.323 353.186L678.757 351.722L682.408 351.26L487.317 275.409L484.517 275.816C483.31 275.992 481.99 276.187 480.562 276.399L477.894 276.797C472.474 277.61 466.546 278.521 460.22 279.521C439.134 282.853 417.925 286.482 397.963 290.284C396.75 290.515 395.465 290.091 395.093 289.337C394.722 288.584 395.404 287.786 396.617 287.555C415.856 283.891 436.235 280.389 456.549 277.157L459.087 276.755C465.785 275.696 472.037 274.737 477.718 273.887L482.535 273.173L487.219 272.495C487.758 272.418 488.32 272.466 488.805 272.625Z" fill="#2C2C2C"/>
<path fill-rule="evenodd" clip-rule="evenodd" d="M409.591 162.543C422.523 159.9 435.589 160.191 448.77 163.734L458.524 166.41C488.995 174.792 504.601 179.533 515.22 184.118L515.54 184.257C522.538 187.306 526.333 189.987 526.576 192.626C526.858 195.688 522.562 197.882 514.152 199.41L513.784 199.476C502.749 201.428 485.772 207.341 464.594 216.256C459.942 218.215 455.135 220.298 450.2 222.491C438.432 227.72 426.476 233.325 414.956 238.93L412.854 239.955C410.325 241.191 407.945 242.365 405.736 243.465L403.225 244.719L400.745 245.967L400.764 247.864L400.778 249.916C400.84 260.609 400.723 272.643 400.306 284.187L400.207 286.751C399.651 300.489 398.706 311.238 397.294 317.95L397.194 318.412C394.526 330.865 389.212 344.291 383.065 354.909C382.636 355.651 381.32 356.036 380.126 355.769C378.932 355.503 378.312 354.685 378.741 353.943C384.671 343.7 389.828 330.757 392.498 318.688L392.737 317.582C394.172 310.764 395.127 299.57 395.671 285.236L395.751 283.007C396.136 271.833 396.243 260.252 396.183 249.926L396.143 245.308C396.136 244.876 396.444 244.466 396.981 244.193L399.633 242.852L401.086 242.124C404.176 240.578 407.64 238.867 411.412 237.029L412.123 236.682C423.691 231.054 435.7 225.425 447.527 220.17C452.492 217.963 457.331 215.866 462.017 213.893L463.947 213.084C484.192 204.633 500.538 198.967 511.82 196.859L513.194 196.609C519.522 195.432 522.109 194.094 521.989 192.79C521.853 191.318 518.81 189.168 512.902 186.594L512.279 186.325C502.417 182.105 487.774 177.615 460.248 170.009L447.438 166.488C435.131 163.099 423.063 162.794 411.026 165.254C396.115 168.295 386.199 172.43 375.295 180.323L374.89 180.617C365.171 187.719 356.206 196.147 333.263 219.304L331.093 221.495L331.037 221.549C289.823 259.263 262.216 301.793 253.431 337.794C245.202 371.517 255.029 394.202 278.905 396.739C280.156 396.872 280.996 397.609 280.782 398.386C280.568 399.163 279.381 399.685 278.13 399.552C250.803 396.648 240.325 372.46 248.888 337.366C257.689 301.298 285.089 258.863 325.992 221.089L327.215 219.964L330.715 216.43C352.566 194.401 361.468 186.056 371.083 178.993L371.39 178.768C382.998 170.286 393.688 165.786 409.591 162.543Z" fill="#2C2C2C"/>
<path fill-rule="evenodd" clip-rule="evenodd" d="M550.692 147.248L550.827 147.251C552.093 147.303 553.052 147.983 552.968 148.769C550.899 168.259 554.652 194.516 561.358 216.871C561.59 217.646 560.768 218.391 559.52 218.535C558.273 218.68 557.073 218.168 556.841 217.394C550.071 194.824 546.285 168.342 548.383 148.581C548.464 147.823 549.484 147.242 550.692 147.248Z" fill="#2C2C2C"/>
<path fill-rule="evenodd" clip-rule="evenodd" d="M737.997 173.334C738.109 172.549 739.225 171.969 740.488 172.039C747.599 172.431 754.392 173.688 759.745 176.177C767.208 179.649 770.731 185.066 769.135 192.537C767.688 199.231 762.285 203.411 753.889 205.258C747.543 206.654 739.952 206.637 731.873 205.64C730.629 205.486 729.821 204.735 730.068 203.962C730.315 203.189 731.525 202.686 732.769 202.84C740.11 203.746 746.926 203.762 752.355 202.568C759.117 201.08 763.362 197.796 764.581 192.159C765.961 185.699 763.103 181.305 756.991 178.462C752.44 176.345 746.419 175.231 740.082 174.882C738.819 174.812 737.885 174.119 737.997 173.334Z" fill="#2C2C2C"/>
<path fill-rule="evenodd" clip-rule="evenodd" d="M725.627 224.075C726.813 223.887 728.018 224.31 728.384 225.025L728.421 225.106L740.903 255.552C740.936 255.633 740.958 255.716 740.968 255.8C743.023 273.181 736.15 287.905 722.001 298.71C709.033 308.612 690.527 314.663 670.546 315.833C650.507 317.007 630.538 313.185 614.871 304.869C597.734 295.772 586.589 281.868 583.39 264.151C583.248 263.367 584.156 262.661 585.416 262.573C586.677 262.485 587.814 263.049 587.956 263.832C591.03 280.854 601.639 294.09 617.856 302.699C632.568 310.508 651.301 314.094 670.115 312.992C688.88 311.892 706.253 306.212 718.437 296.908C731.688 286.79 738.226 272.965 736.442 256.508L736.399 256.133L723.968 225.81C723.666 225.073 724.346 224.325 725.498 224.098L725.627 224.075Z" fill="#2C2C2C"/>
<path fill-rule="evenodd" clip-rule="evenodd" d="M704.324 175.321C703.119 175.261 702.046 175.791 701.868 176.534L700.327 182.903L699.578 185.971C698.745 189.373 697.912 192.74 697.107 195.956L696.082 200.02C695.07 204.006 694.182 207.413 693.446 210.123L692.887 212.147L691.856 211.998C691.289 211.918 690.688 211.834 690.055 211.748L689.574 211.684C684.945 211.064 679.591 210.444 673.579 209.866C650.779 207.676 625.229 206.675 597.964 207.525L596.103 207.628L594.13 207.747C592.963 207.819 591.72 207.898 590.414 207.986C585.285 208.33 580.155 208.727 575.306 209.177L573.991 209.301C565.527 210.111 558.854 211.001 554.552 211.988C553.561 212.216 552.947 212.834 553.065 213.486L553.183 214.08L553.303 214.639C553.387 215.022 553.483 215.439 553.592 215.888L553.658 216.161C554.176 218.268 554.845 220.614 555.682 223.139C558.076 230.357 561.342 237.577 565.617 244.328C571.265 253.246 578.26 260.665 586.788 266.083C599.767 274.331 619.199 277.648 641.122 276.36C660.331 275.232 679.868 270.546 692.413 264.245C714.187 253.31 719.516 248.206 724.675 234.852L724.946 234.141C726.398 230.253 728.496 223.136 731.087 213.511L731.977 210.179L732.566 207.951C734.153 201.912 735.794 195.468 737.404 188.999L738.68 183.841L739.954 178.62C740.151 177.802 739.192 177.052 737.865 176.986L704.324 175.321ZM706.096 178.272L735.044 179.709L733.292 186.839L732.259 190.984C731.149 195.418 730.03 199.817 728.928 204.059L727.638 208.981L726.663 212.642C723.97 222.663 721.803 230.006 720.361 233.787L719.969 234.801C717.56 240.953 715.622 244.266 712.18 247.677L711.995 247.86C707.747 252.011 701.108 256.208 689.525 262.026C677.707 267.961 659.027 272.441 640.69 273.518C620.038 274.732 601.969 271.647 590.073 264.088C582.032 258.979 575.335 251.875 569.893 243.283C565.724 236.699 562.527 229.632 560.183 222.563C559.362 220.088 558.707 217.791 558.201 215.731L558.016 214.957L557.867 214.304L558.159 214.248C562.123 213.498 567.785 212.783 574.691 212.122C579.416 211.67 584.457 211.267 589.525 210.918L590.908 210.824C592.414 210.723 593.837 210.632 595.154 210.552L597.297 210.426L598.235 210.374L598.195 210.376C625.128 209.536 650.371 210.525 672.877 212.687C678.516 213.229 683.56 213.807 687.951 214.387L688.605 214.474C690.032 214.665 691.293 214.844 692.382 215.006L693.605 215.193L694.126 215.276C695.424 215.493 696.743 214.974 696.982 214.152L697.373 212.787C698.137 210.07 699.119 206.35 700.278 201.812L701.406 197.356L702.134 194.446C702.705 192.153 703.287 189.798 703.871 187.421L705.804 179.484L706.096 178.272Z" fill="#2C2C2C"/>
<path fill-rule="evenodd" clip-rule="evenodd" d="M736.37 185.136C736.37 185.136 752.375 164.585 757.046 147.649C761.488 131.76 748.01 115.776 723.964 109.734C703.824 104.644 697.238 106.309 697.238 106.309C697.238 106.309 709.185 93.0834 678.094 73.6263C667.143 66.7758 651.98 62.97 636.435 63.2079C598.375 63.8263 586.506 83.8068 586.506 83.8068C586.506 83.8068 545.919 37.2333 462.295 64.6351C453.871 67.3943 444.299 75.101 439.781 80.334C412.059 111.875 502.805 149.457 550.131 152.501C602.128 155.832 634.75 151.835 650.602 143.272C638.732 148.41 660.021 195.65 736.37 185.136Z" fill="#2C2C2C"/>
<path fill-rule="evenodd" clip-rule="evenodd" d="M595.322 193.728C596.961 193.779 598.234 194.62 598.233 195.628L598.229 195.723L595.999 223.556L608.775 220.982C610.334 220.668 612.004 221.172 612.581 222.113L612.634 222.205C613.139 223.174 612.328 224.211 610.814 224.57L610.665 224.603L593.665 228.028C591.67 228.43 589.646 227.497 589.656 226.211L589.66 226.123L592.111 195.534C592.192 194.516 593.547 193.725 595.169 193.726L595.322 193.728Z" fill="#2C2C2C"/>
<path fill-rule="evenodd" clip-rule="evenodd" d="M624.159 168.795C631.904 167.754 638.711 168.775 644.354 171.103C645.785 171.693 647.031 172.327 648.092 172.964L648.405 173.156C648.9 173.464 649.26 173.717 649.486 173.893C650.54 174.715 650.322 175.912 649 176.567C647.677 177.222 645.749 177.087 644.695 176.265C644.582 176.177 644.291 175.976 643.831 175.699C643.028 175.216 642.07 174.729 640.965 174.273C636.62 172.481 631.462 171.707 625.453 172.514C623.8 172.737 622.17 172.084 621.812 171.057C621.454 170.029 622.505 169.017 624.159 168.795Z" fill="#2C2C2C"/>
<path fill-rule="evenodd" clip-rule="evenodd" d="M573.395 161.623C576.365 161.245 579.437 161.346 582.382 161.734L582.858 161.8C583.618 161.909 584.211 162.016 584.599 162.098C586.2 162.439 587.053 163.521 586.504 164.515C585.973 165.479 584.321 166.006 582.764 165.728L582.433 165.664C582.386 165.655 582.332 165.645 582.269 165.634C581.932 165.575 581.543 165.514 581.11 165.457C578.92 165.168 576.648 165.094 574.623 165.351C571.749 165.716 569.716 166.695 568.544 168.58C567.935 169.561 566.162 170.048 564.583 169.67C563.005 169.291 562.22 168.189 562.83 167.209C564.791 164.054 568.564 162.237 573.395 161.623Z" fill="#2C2C2C"/>
<path fill-rule="evenodd" clip-rule="evenodd" d="M650.837 232.07C648.157 229.786 622.044 241.156 632.229 242.203C642.414 243.202 656.581 236.97 650.837 232.07Z" fill="#2C2C2C"/>
<path fill-rule="evenodd" clip-rule="evenodd" d="M541.335 229.977L640.504 209.14C640.504 209.14 653.752 206.001 653.293 195.297C652.833 184.593 631.161 180.597 631.161 180.597L525.406 171.32L541.335 229.977Z" fill="#FFDD2D"/>
<path fill-rule="evenodd" clip-rule="evenodd" d="M435.196 229.977L534.365 209.14C534.365 209.14 547.613 206.001 547.154 195.297C546.695 184.593 525.023 180.597 525.023 180.597L473.868 182.69L419.268 171.32L435.196 229.977Z" fill="#FFDD2D"/>
<path fill-rule="evenodd" clip-rule="evenodd" d="M524.408 231.879C551.434 231.879 573.342 218.269 573.342 201.48C573.342 184.691 551.434 171.081 524.408 171.081C497.383 171.081 475.475 184.691 475.475 201.48C475.475 218.269 497.383 231.879 524.408 231.879Z" fill="#2C2C2C"/>
<path fill-rule="evenodd" clip-rule="evenodd" d="M417.506 232.308C444.531 232.308 466.44 218.698 466.44 201.91C466.44 185.121 444.531 171.511 417.506 171.511C390.481 171.511 368.572 185.121 368.572 201.91C368.572 218.698 390.481 232.308 417.506 232.308Z" fill="#2C2C2C"/>
<path fill-rule="evenodd" clip-rule="evenodd" d="M484.897 150.621L485.866 150.495C497.666 148.979 509.451 148.292 514.251 148.738C520.226 149.278 521.407 152.804 517.449 156.212C513.574 159.547 505.501 162.671 494.376 164.787C493.163 165.018 491.878 164.594 491.507 163.84C491.135 163.087 491.817 162.289 493.031 162.058C503.274 160.11 510.505 157.311 513.723 154.542C515.856 152.705 515.602 151.78 513.699 151.573L513.58 151.561C509.369 151.17 497.787 151.856 486.313 153.353L485.854 153.413C471.089 155.367 458.114 158.343 449.543 162.113C448.508 162.569 447.074 162.417 446.341 161.774C445.607 161.13 445.852 160.24 446.888 159.784C456.061 155.749 469.575 152.649 484.897 150.621Z" fill="#2C2C2C"/>
<path fill-rule="evenodd" clip-rule="evenodd" d="M459.995 160.277C471.082 158.588 486.394 160.296 503.383 164.383L503.977 164.527C517.011 167.697 530.119 172.166 534.421 174.671L534.565 174.756C537.213 176.314 537.528 178.394 535.296 180.036C533.374 181.45 529.787 182.372 525.148 182.676C514.506 183.374 499.762 180.914 483.153 174.992L482.593 174.791L482.084 174.588L481.664 174.425C481.441 174.34 481.2 174.25 480.942 174.156C479.705 173.704 478.34 173.251 476.892 172.829C473.867 171.948 470.902 171.325 468.191 171.07C466.842 170.944 465.586 170.912 464.438 170.981C463.176 171.057 462.053 170.482 461.931 169.697C461.809 168.913 462.734 168.215 463.997 168.14C465.543 168.047 467.173 168.088 468.877 168.248C472.085 168.549 475.449 169.256 478.843 170.245C480.428 170.707 481.917 171.201 483.271 171.695L483.844 171.907C484.256 172.063 484.59 172.194 484.838 172.294L484.952 172.341L485.439 172.516C501.089 178.096 514.769 180.413 524.337 179.858L524.665 179.838C528.233 179.604 530.749 178.957 531.786 178.195C532.369 177.765 532.342 177.408 531.503 176.888L531.389 176.819C527.759 174.64 514.969 170.266 502.301 167.184C485.883 163.191 471.158 161.516 461.089 163.049C459.857 163.237 458.613 162.769 458.311 162.003C458.009 161.237 458.763 160.465 459.995 160.277Z" fill="#2C2C2C"/>
<path fill-rule="evenodd" clip-rule="evenodd" d="M436.85 160.174C447.953 158.666 463.14 160.436 479.894 164.495L480.493 164.641C493.394 167.801 506.289 172.203 510.531 174.671L510.675 174.756C513.323 176.314 513.638 178.394 511.405 180.036C509.484 181.45 505.896 182.372 501.257 182.676C490.616 183.374 475.872 180.914 459.263 174.992L458.702 174.791L458.194 174.588L457.773 174.425C457.551 174.34 457.309 174.25 457.051 174.155C455.814 173.703 454.449 173.251 453.002 172.829C449.976 171.948 447.012 171.324 444.3 171.07C442.951 170.943 441.695 170.912 440.548 170.981C439.285 171.056 438.163 170.482 438.041 169.697C437.919 168.913 438.844 168.215 440.107 168.139C441.653 168.047 443.283 168.088 444.986 168.248C448.194 168.549 451.558 169.256 454.953 170.245C456.537 170.706 458.027 171.2 459.38 171.695L459.953 171.907C460.366 172.062 460.7 172.193 460.948 172.294L461.062 172.341L461.548 172.515C477.199 178.096 490.878 180.413 500.447 179.858L500.775 179.838C504.343 179.604 506.859 178.957 507.895 178.195C508.479 177.765 508.452 177.408 507.613 176.888L507.499 176.819C503.927 174.676 491.345 170.367 478.808 167.296L477.638 167.013C461.891 163.242 447.716 161.619 437.832 162.962C436.592 163.13 435.367 162.643 435.096 161.873C434.825 161.103 435.611 160.342 436.85 160.174Z" fill="#2C2C2C"/>
<path fill-rule="evenodd" clip-rule="evenodd" d="M411.229 162.232C421.942 159.041 438.27 160.267 457.297 164.618L458.214 164.829C472.13 168.077 486.547 172.921 490.993 175.565C493.641 177.123 493.956 179.203 491.723 180.845C489.802 182.259 486.214 183.181 481.575 183.485C470.934 184.183 456.19 181.723 439.581 175.801L439.02 175.6L438.512 175.397L438.091 175.234C437.869 175.149 437.627 175.059 437.369 174.965C436.132 174.513 434.767 174.06 433.32 173.638C430.294 172.757 427.33 172.134 424.618 171.879C423.269 171.753 422.013 171.721 420.866 171.79C419.603 171.866 418.48 171.291 418.359 170.506C418.237 169.722 419.162 169.024 420.425 168.949C421.971 168.856 423.601 168.897 425.304 169.057C428.512 169.358 431.876 170.065 435.271 171.054C436.855 171.516 438.345 172.01 439.698 172.504L440.271 172.716C440.684 172.872 441.018 173.003 441.266 173.103L441.38 173.15L441.866 173.325C457.517 178.905 471.196 181.222 480.765 180.667L481.093 180.647C484.661 180.413 487.177 179.766 488.213 179.004C488.822 178.556 488.766 178.186 487.824 177.632L487.551 177.475C483.245 175.069 469.379 170.454 456.15 167.398L455.71 167.296C437.759 163.191 422.485 162.045 413.215 164.806C412.071 165.146 410.699 164.847 410.15 164.136C409.602 163.425 410.084 162.573 411.229 162.232Z" fill="#2C2C2C"/>
<path fill-rule="evenodd" clip-rule="evenodd" d="M812.764 22.2513C834.173 19.7606 855.092 27.6885 859.787 40.0556L859.925 40.4317L875.087 84.1033C875.355 84.8737 874.566 85.6331 873.326 85.7992C872.13 85.9595 870.951 85.5097 870.628 84.7865L870.596 84.7051L855.434 41.0362C851.568 30.0063 832.854 22.8181 813.61 25.0569C794.552 27.2739 782.2 37.814 785.686 48.7115L785.796 49.0418L808.464 114.216C808.732 114.987 807.943 115.746 806.703 115.913C805.507 116.073 804.328 115.624 804.005 114.9L803.972 114.819L781.306 49.6457C776.895 37.0127 791.042 24.7783 812.764 22.2513Z" fill="#2C2C2C"/>
<path fill-rule="evenodd" clip-rule="evenodd" d="M897.962 22.5629C898.616 9.7124 917.175 -0.391285 939.227 0.0116446C961.142 0.41058 978.443 10.8731 978.152 23.542L975.688 87.5786C975.657 88.3665 974.604 88.9901 973.336 88.9712C972.113 88.953 971.136 88.3442 971.095 87.5942L971.094 87.5103L973.545 23.8473C974.116 12.6236 958.762 3.22284 939.093 2.86477C919.699 2.51041 903.454 11.2452 902.576 22.3173L902.554 22.6535L899.491 82.2619C899.451 83.0497 898.39 83.6679 897.122 83.6428C895.899 83.6185 894.93 83.0049 894.898 82.2547L894.899 82.1708L897.962 22.5629Z" fill="#2C2C2C"/>
<path fill-rule="evenodd" clip-rule="evenodd" d="M1010.81 40.3342C1015.22 27.755 1036.35 19.6407 1057.97 22.1566C1079.46 24.6559 1093.56 36.7095 1089.56 49.172L1089.43 49.5498L1067.91 111.442C1067.65 112.212 1066.42 112.702 1065.18 112.535C1063.99 112.375 1063.21 111.663 1063.4 110.922L1063.42 110.839L1084.94 48.9449C1088.79 37.967 1076.36 27.1989 1057.13 24.9621C1038.08 22.7457 1019.54 29.7688 1015.41 40.6504L1015.29 40.9813L997.293 86.08C996.988 86.8451 995.742 87.3115 994.511 87.1219C993.323 86.939 992.583 86.2128 992.805 85.4752L992.834 85.3932L1010.81 40.3342Z" fill="#2C2C2C"/>
<path fill-rule="evenodd" clip-rule="evenodd" d="M1106.3 84.6801C1116.23 73.2065 1140.21 68.5718 1159.99 74.2608C1179.66 79.92 1187.78 93.6768 1178.26 105.141L1177.97 105.488L1083.62 214.619C1083.02 215.314 1081.63 215.574 1080.51 215.202C1079.44 214.842 1079.01 214.027 1079.51 213.347L1079.57 213.269L1173.92 104.137C1182.62 94.0789 1175.57 81.8891 1158.05 76.8508C1140.63 71.8369 1119.53 75.8298 1110.62 85.729L1110.35 86.0308L1086.38 113.766C1085.78 114.46 1084.39 114.721 1083.27 114.348C1082.19 113.989 1081.76 113.173 1082.27 112.493L1082.33 112.415L1106.3 84.6801Z" fill="#2C2C2C"/>
<path fill-rule="evenodd" clip-rule="evenodd" d="M767.227 188.616C768.303 188.257 769.635 188.486 770.268 189.123L770.338 189.199L791.014 213.128C791.614 213.822 791.194 214.687 790.076 215.06C789 215.419 787.668 215.191 787.035 214.553L786.966 214.478L766.289 190.549C765.689 189.854 766.109 188.989 767.227 188.616Z" fill="#2C2C2C"/>
<path fill-rule="evenodd" clip-rule="evenodd" d="M710.757 74.2608C730.334 68.6287 754.036 73.1148 764.14 84.3384L764.442 84.6805L792.776 117.458C793.376 118.152 792.957 119.018 791.839 119.391C790.763 119.75 789.431 119.521 788.798 118.884L788.728 118.808L760.394 86.0314C751.639 75.9113 730.292 71.7862 712.688 76.8508C695.351 81.8387 688.263 93.8358 696.566 103.835L696.823 104.137L757.933 174.782C758.533 175.477 758.114 176.342 756.996 176.715C755.92 177.074 754.589 176.846 753.955 176.209L753.885 176.134L692.775 105.489C682.798 93.9555 690.888 79.9771 710.757 74.2608Z" fill="#2C2C2C"/>
<path fill-rule="evenodd" clip-rule="evenodd" d="M884.884 80.1341C905.435 78.5194 924.236 89.1989 927.266 103.919L927.353 104.366L935.809 150.443L952 104.133C956.969 89.7437 977.227 81.2256 997.394 85.116L998.005 85.2377C1017.99 89.3425 1030.07 104.104 1025.41 118.384L1025.26 118.816L1010.5 161.106L1037.77 123.918C1047.34 110.826 1069.98 106.069 1088.42 113.243L1088.98 113.464C1107.08 120.78 1114.1 137.038 1104.95 150.061L1104.67 150.455L1057.65 214.678C1057.13 215.395 1055.76 215.712 1054.61 215.386C1053.5 215.071 1052.98 214.273 1053.42 213.574L1053.47 213.496L1100.49 149.274C1109.14 137.443 1102.81 122.459 1086.47 115.857C1070.52 109.41 1050.89 113.342 1042.21 124.752L1041.95 125.1L1005.81 174.385C1004.69 175.914 1001.02 175.187 1001.45 173.575L1001.47 173.491L1020.77 118.21C1025.35 105.163 1014.41 91.6134 996.563 87.9477C979.115 84.3639 961.327 91.6274 956.63 104.348L956.492 104.735L937.347 159.491C936.806 161.039 933.251 160.958 932.84 159.439L932.819 159.35L922.787 104.689C920.323 91.2251 903.499 81.5486 885.461 82.9659C867.6 84.3693 854.841 96.1534 856.984 109.433L857.053 109.835L867.468 166.114C867.77 167.748 864.148 168.333 863.097 166.873L863.043 166.792L840.223 130.209C832.489 117.817 812.855 112.109 796.387 117.312C779.878 122.528 772.473 136.69 779.875 149.069L780.104 149.443L820.078 213.476C820.537 214.211 819.95 215.038 818.767 215.323C817.626 215.597 816.348 215.268 815.847 214.585L815.795 214.508L775.82 150.475C767.225 136.702 775.42 120.735 794.304 114.768C813.154 108.812 835.392 115.162 844.243 128.763L844.507 129.178L860.858 155.389L852.488 110.16C849.778 95.4035 863.885 82.0316 884.265 80.1865L884.884 80.1341Z" fill="#FFDD2D"/>
<path fill-rule="evenodd" clip-rule="evenodd" d="M1096.22 212.612C1103.53 212.612 1109.49 216.259 1109.62 220.781L1109.62 220.937V246.198C1109.62 250.74 1103.75 254.439 1096.48 254.522L1096.22 254.524H1079.43L1048.15 337.009C1047.87 337.748 1046.71 338.217 1045.52 338.087L1045.38 338.071C1044.19 337.896 1043.44 337.175 1043.65 336.436L1043.68 336.354L1075.38 252.769C1075.61 252.153 1076.47 251.709 1077.48 251.672L1077.62 251.669H1096.22C1101.01 251.669 1104.91 249.291 1105.03 246.337L1105.03 246.198V220.937C1105.03 217.966 1101.2 215.542 1096.45 215.468L1096.22 215.467H772.296C767.513 215.467 763.611 217.845 763.492 220.799L763.489 220.937V246.198C763.489 249.17 767.318 251.594 772.072 251.668L772.296 251.669H792.206C793.226 251.669 794.117 252.086 794.407 252.686L794.442 252.769L849.503 397.961C849.793 398.728 849.028 399.496 847.793 399.677C846.602 399.851 845.41 399.415 845.065 398.696L845.03 398.615L790.387 254.524H772.296C764.985 254.524 759.031 250.877 758.897 246.355L758.895 246.198V220.937C758.895 216.396 764.765 212.697 772.044 212.614L772.296 212.612H1096.22Z" fill="#2C2C2C"/>
<path fill-rule="evenodd" clip-rule="evenodd" d="M987.805 314.058C992.967 312.686 996.741 313.066 1000.43 315.1C1001.28 315.569 1002.12 316.11 1003.19 316.868L1003.86 317.35C1004.49 317.807 1006.45 319.239 1007.17 319.745C1010.41 322.022 1013.48 323.832 1017.37 325.596C1017.91 325.841 1018.46 326.083 1019.02 326.32L1019.76 326.628C1023.97 328.374 1027.42 329.562 1035.08 332.007L1037.96 332.927C1041.65 334.113 1043.86 334.857 1046.38 335.771C1055.91 339.239 1063.49 343.169 1070.98 348.966C1071.78 349.581 1071.62 350.479 1070.63 350.973C1069.64 351.466 1068.2 351.368 1067.4 350.753C1060.43 345.356 1053.42 341.689 1044.62 338.441L1043.57 338.059C1041.25 337.222 1039.07 336.496 1035.46 335.339L1031.65 334.123C1024.33 331.771 1020.94 330.578 1016.44 328.68C1015.83 328.424 1015.24 328.164 1014.66 327.901C1010.66 326.085 1007.46 324.224 1004.18 321.948L1003.39 321.397C1002.31 320.62 1000.18 319.068 1000.19 319.074L999.758 318.767C998.792 318.084 998.065 317.614 997.377 317.234C995.021 315.934 993.139 315.745 989.62 316.68C986.966 317.393 986.395 319.069 987.966 322.098C989.469 324.997 992.835 328.71 997.715 333.059C998.44 333.706 998.185 334.596 997.144 335.046C996.103 335.497 994.671 335.338 993.945 334.692C988.826 330.128 985.267 326.203 983.592 322.973C981.385 318.716 982.486 315.486 987.805 314.058Z" fill="#2C2C2C"/>
<path fill-rule="evenodd" clip-rule="evenodd" d="M912.414 323.173L913.247 323.152C921.468 322.976 934.563 323.374 947.473 324.487C966.653 326.14 983.898 329.145 997.545 333.764C998.659 334.141 999.07 335.007 998.463 335.7C997.856 336.392 996.461 336.647 995.347 336.27C982.471 331.913 966.059 329.019 947.744 327.393L946.842 327.314C933.764 326.187 920.49 325.809 912.626 326.024C908.052 326.161 906.919 328.264 910.638 331.528C911.371 332.172 911.126 333.062 910.09 333.518C909.055 333.973 907.621 333.821 906.888 333.177C901.248 328.228 903.833 323.43 912.414 323.173Z" fill="#2C2C2C"/>
<path fill-rule="evenodd" clip-rule="evenodd" d="M897.405 331.025C903.861 330.718 918.267 331.734 933.137 333.686C951.727 336.125 969.358 339.715 983.342 344.266C984.466 344.632 984.899 345.494 984.311 346.192C983.722 346.891 982.333 347.16 981.209 346.794C967.645 342.379 950.397 338.868 932.187 336.478L930.656 336.28C916.728 334.51 903.476 333.599 897.753 333.871C890.688 334.203 892.093 340.206 904.376 346.319C905.367 346.812 905.526 347.71 904.733 348.325C903.94 348.94 902.494 349.04 901.504 348.547C894.244 344.934 889.886 341.007 889.084 337.577C888.238 333.957 891.55 331.3 897.405 331.025Z" fill="#2C2C2C"/>
<path fill-rule="evenodd" clip-rule="evenodd" d="M905.585 345.77C918.306 345.381 951.873 350.218 976.016 356.929C977.174 357.251 977.693 358.096 977.175 358.815C976.656 359.535 975.297 359.857 974.139 359.535C961.924 356.139 947.937 353.308 934.157 351.279L932.976 351.107C921.179 349.407 910.564 348.476 905.82 348.62C902.304 348.737 900.549 350.381 901.292 353.164C902.235 356.696 906.985 360.966 915.069 364.858C916.072 365.341 916.255 366.238 915.478 366.861C914.7 367.484 913.257 367.597 912.254 367.115C903.324 362.815 897.912 357.949 896.759 353.631C895.597 349.277 899.111 345.985 905.585 345.77Z" fill="#2C2C2C"/>
<path fill-rule="evenodd" clip-rule="evenodd" d="M919.127 360.764C927.817 360.103 952.363 363.934 974.655 369.663C975.828 369.964 976.385 370.799 975.9 371.528C975.415 372.256 974.071 372.602 972.899 372.301L971.6 371.97C950.344 366.601 927.209 363.025 919.678 363.598C917.107 363.789 916.08 364.423 916.18 365.508C916.326 367.08 918.609 369.385 923.004 371.967C934.357 378.635 956.541 385.612 987.914 391.451C989.13 391.677 989.82 392.472 989.456 393.227C989.091 393.982 987.811 394.411 986.596 394.185C954.593 388.229 931.797 381.06 919.847 374.041C914.682 371.007 911.819 368.117 911.593 365.672C911.342 362.955 914.313 361.121 919.127 360.764Z" fill="#2C2C2C"/>
<path fill-rule="evenodd" clip-rule="evenodd" d="M997.372 333.256L997.507 333.259C1027.33 334.416 1052.39 339.753 1070.26 348.119C1086.56 355.755 1095.77 365.515 1095.72 374.761C1095.67 384.288 1085.86 392.133 1068.19 396.094C1048.78 400.448 1021 400.014 986.65 394.194C985.426 393.986 984.705 393.202 985.039 392.441C985.372 391.681 986.635 391.232 987.86 391.44C1021.37 397.118 1048.22 397.538 1066.64 393.409C1082.56 389.839 1091.08 383.023 1091.12 374.752C1091.17 366.487 1082.72 357.53 1067.49 350.398C1050.38 342.385 1026.18 337.231 997.22 336.107C995.954 336.058 994.991 335.381 995.07 334.594C995.147 333.836 996.164 333.252 997.372 333.256Z" fill="#2C2C2C"/>
<path fill-rule="evenodd" clip-rule="evenodd" d="M1297.7 397.146C1298.97 397.146 1300 397.784 1300 398.573C1300 399.333 1299.04 399.954 1297.84 399.997L1297.7 400H2.29736C1.02856 400 0 399.361 0 398.573C0 397.813 0.956407 397.191 2.16237 397.148L2.29736 397.146H1297.7Z" fill="#2C2C2C"/>
<rect x="64" y="446" width="1200" height="100" rx="8" fill="#2C2C2C" stroke="white"/>
<path d="M177.577 491.776H173.545V502H170.665V491.776H166.651V489.4H177.577V491.776ZM188.314 492.316L183.94 502.594C183.496 503.71 182.944 504.496 182.284 504.952C181.636 505.408 180.85 505.636 179.926 505.636C179.422 505.636 178.924 505.558 178.432 505.402C177.94 505.246 177.538 505.03 177.226 504.754L178.252 502.756C178.468 502.948 178.714 503.098 178.99 503.206C179.278 503.314 179.56 503.368 179.836 503.368C180.22 503.368 180.532 503.272 180.772 503.08C181.012 502.9 181.228 502.594 181.42 502.162L181.456 502.072L177.262 492.316H180.16L182.878 498.886L185.614 492.316H188.314ZM197.892 494.62H194.616V502H191.826V494.62H188.55V492.316H197.892V494.62ZM214.117 492.316V502H211.309V494.62H207.277V502H204.487V492.316H214.117ZM221.345 502.144C220.325 502.144 219.407 501.934 218.591 501.514C217.787 501.082 217.157 500.488 216.701 499.732C216.245 498.976 216.017 498.118 216.017 497.158C216.017 496.198 216.245 495.34 216.701 494.584C217.157 493.828 217.787 493.24 218.591 492.82C219.407 492.388 220.325 492.172 221.345 492.172C222.365 492.172 223.277 492.388 224.081 492.82C224.885 493.24 225.515 493.828 225.971 494.584C226.427 495.34 226.655 496.198 226.655 497.158C226.655 498.118 226.427 498.976 225.971 499.732C225.515 500.488 224.885 501.082 224.081 501.514C223.277 501.934 222.365 502.144 221.345 502.144ZM221.345 499.84C222.065 499.84 222.653 499.6 223.109 499.12C223.577 498.628 223.811 497.974 223.811 497.158C223.811 496.342 223.577 495.694 223.109 495.214C222.653 494.722 222.065 494.476 221.345 494.476C220.625 494.476 220.031 494.722 219.563 495.214C219.095 495.694 218.861 496.342 218.861 497.158C218.861 497.974 219.095 498.628 219.563 499.12C220.031 499.6 220.625 499.84 221.345 499.84ZM232.852 498.328H231.394V502H228.586V492.316H231.394V496.078H232.906L235.534 492.316H238.522L235.138 496.96L238.756 502H235.444L232.852 498.328ZM243.721 492.172C245.221 492.172 246.373 492.532 247.177 493.252C247.981 493.96 248.383 495.034 248.383 496.474V502H245.755V500.794C245.227 501.694 244.243 502.144 242.803 502.144C242.059 502.144 241.411 502.018 240.859 501.766C240.319 501.514 239.905 501.166 239.617 500.722C239.329 500.278 239.185 499.774 239.185 499.21C239.185 498.31 239.521 497.602 240.193 497.086C240.877 496.57 241.927 496.312 243.343 496.312H245.575C245.575 495.7 245.389 495.232 245.017 494.908C244.645 494.572 244.087 494.404 243.343 494.404C242.827 494.404 242.317 494.488 241.813 494.656C241.321 494.812 240.901 495.028 240.553 495.304L239.545 493.342C240.073 492.97 240.703 492.682 241.435 492.478C242.179 492.274 242.941 492.172 243.721 492.172ZM243.505 500.254C243.985 500.254 244.411 500.146 244.783 499.93C245.155 499.702 245.419 499.372 245.575 498.94V497.95H243.649C242.497 497.95 241.921 498.328 241.921 499.084C241.921 499.444 242.059 499.732 242.335 499.948C242.623 500.152 243.013 500.254 243.505 500.254ZM265.55 492.316V502H262.742V494.62H258.71V502H255.92V492.316H265.55ZM277.945 492.316L273.571 502.594C273.127 503.71 272.575 504.496 271.915 504.952C271.267 505.408 270.481 505.636 269.557 505.636C269.053 505.636 268.555 505.558 268.063 505.402C267.571 505.246 267.169 505.03 266.857 504.754L267.883 502.756C268.099 502.948 268.345 503.098 268.621 503.206C268.909 503.314 269.191 503.368 269.467 503.368C269.851 503.368 270.163 503.272 270.403 503.08C270.643 502.9 270.859 502.594 271.051 502.162L271.087 502.072L266.893 492.316H269.791L272.509 498.886L275.245 492.316H277.945ZM283.644 502.144C282.612 502.144 281.682 501.934 280.854 501.514C280.038 501.082 279.396 500.488 278.928 499.732C278.472 498.976 278.244 498.118 278.244 497.158C278.244 496.198 278.472 495.34 278.928 494.584C279.396 493.828 280.038 493.24 280.854 492.82C281.682 492.388 282.612 492.172 283.644 492.172C284.664 492.172 285.552 492.388 286.308 492.82C287.076 493.24 287.634 493.846 287.982 494.638L285.804 495.808C285.3 494.92 284.574 494.476 283.626 494.476C282.894 494.476 282.288 494.716 281.808 495.196C281.328 495.676 281.088 496.33 281.088 497.158C281.088 497.986 281.328 498.64 281.808 499.12C282.288 499.6 282.894 499.84 283.626 499.84C284.586 499.84 285.312 499.396 285.804 498.508L287.982 499.696C287.634 500.464 287.076 501.064 286.308 501.496C285.552 501.928 284.664 502.144 283.644 502.144ZM297.789 494.62H294.513V502H291.723V494.62H288.447V492.316H297.789V494.62ZM303.417 502.144C302.397 502.144 301.479 501.934 300.663 501.514C299.859 501.082 299.229 500.488 298.773 499.732C298.317 498.976 298.089 498.118 298.089 497.158C298.089 496.198 298.317 495.34 298.773 494.584C299.229 493.828 299.859 493.24 300.663 492.82C301.479 492.388 302.397 492.172 303.417 492.172C304.437 492.172 305.349 492.388 306.153 492.82C306.957 493.24 307.587 493.828 308.043 494.584C308.499 495.34 308.727 496.198 308.727 497.158C308.727 498.118 308.499 498.976 308.043 499.732C307.587 500.488 306.957 501.082 306.153 501.514C305.349 501.934 304.437 502.144 303.417 502.144ZM303.417 499.84C304.137 499.84 304.725 499.6 305.181 499.12C305.649 498.628 305.883 497.974 305.883 497.158C305.883 496.342 305.649 495.694 305.181 495.214C304.725 494.722 304.137 494.476 303.417 494.476C302.697 494.476 302.103 494.722 301.635 495.214C301.167 495.694 300.933 496.342 300.933 497.158C300.933 497.974 301.167 498.628 301.635 499.12C302.103 499.6 302.697 499.84 303.417 499.84ZM311.562 498.652C312.066 498.652 312.48 498.814 312.804 499.138C313.128 499.45 313.29 499.864 313.29 500.38C313.29 500.62 313.26 500.86 313.2 501.1C313.14 501.34 313.008 501.7 312.804 502.18L311.778 504.772H309.996L310.788 501.91C310.488 501.79 310.248 501.598 310.068 501.334C309.9 501.058 309.816 500.74 309.816 500.38C309.816 499.864 309.978 499.45 310.302 499.138C310.638 498.814 311.058 498.652 311.562 498.652ZM320.344 492.316H323.134V496.096H327.346V492.316H330.154V502H327.346V498.382H323.134V502H320.344V492.316ZM337.378 502.144C336.358 502.144 335.44 501.934 334.624 501.514C333.82 501.082 333.19 500.488 332.734 499.732C332.278 498.976 332.05 498.118 332.05 497.158C332.05 496.198 332.278 495.34 332.734 494.584C333.19 493.828 333.82 493.24 334.624 492.82C335.44 492.388 336.358 492.172 337.378 492.172C338.398 492.172 339.31 492.388 340.114 492.82C340.918 493.24 341.548 493.828 342.004 494.584C342.46 495.34 342.688 496.198 342.688 497.158C342.688 498.118 342.46 498.976 342.004 499.732C341.548 500.488 340.918 501.082 340.114 501.514C339.31 501.934 338.398 502.144 337.378 502.144ZM337.378 499.84C338.098 499.84 338.686 499.6 339.142 499.12C339.61 498.628 339.844 497.974 339.844 497.158C339.844 496.342 339.61 495.694 339.142 495.214C338.686 494.722 338.098 494.476 337.378 494.476C336.658 494.476 336.064 494.722 335.596 495.214C335.128 495.694 334.894 496.342 334.894 497.158C334.894 497.974 335.128 498.628 335.596 499.12C336.064 499.6 336.658 499.84 337.378 499.84ZM359.167 502V496.204L356.269 501.064H355.081L352.255 496.186V502H349.717V492.316H352.651L355.747 497.914L359.041 492.316H361.669L361.705 502H359.167ZM369.489 495.412C370.749 495.424 371.703 495.706 372.351 496.258C372.999 496.81 373.323 497.602 373.323 498.634C373.323 499.714 372.957 500.548 372.225 501.136C371.493 501.724 370.455 502.018 369.111 502.018L364.395 502V492.316H367.185V495.412H369.489ZM374.367 492.316H377.157V502H374.367V492.316ZM368.859 500.02C369.399 500.032 369.813 499.918 370.101 499.678C370.389 499.438 370.533 499.078 370.533 498.598C370.533 498.13 370.389 497.788 370.101 497.572C369.825 497.356 369.411 497.242 368.859 497.23L367.185 497.212V500.02H368.859ZM384.961 492.316H387.751V496.096H391.963V492.316H394.771V502H391.963V498.382H387.751V502H384.961V492.316ZM401.221 492.172C402.721 492.172 403.873 492.532 404.677 493.252C405.481 493.96 405.883 495.034 405.883 496.474V502H403.255V500.794C402.727 501.694 401.743 502.144 400.303 502.144C399.559 502.144 398.911 502.018 398.359 501.766C397.819 501.514 397.405 501.166 397.117 500.722C396.829 500.278 396.685 499.774 396.685 499.21C396.685 498.31 397.021 497.602 397.693 497.086C398.377 496.57 399.427 496.312 400.843 496.312H403.075C403.075 495.7 402.889 495.232 402.517 494.908C402.145 494.572 401.587 494.404 400.843 494.404C400.327 494.404 399.817 494.488 399.313 494.656C398.821 494.812 398.401 495.028 398.053 495.304L397.045 493.342C397.573 492.97 398.203 492.682 398.935 492.478C399.679 492.274 400.441 492.172 401.221 492.172ZM401.005 500.254C401.485 500.254 401.911 500.146 402.283 499.93C402.655 499.702 402.919 499.372 403.075 498.94V497.95H401.149C399.997 497.95 399.421 498.328 399.421 499.084C399.421 499.444 399.559 499.732 399.835 499.948C400.123 500.152 400.513 500.254 401.005 500.254ZM419.177 499.696V504.088H416.567V502H409.763V504.088H407.153V499.696H407.549C408.149 499.684 408.563 499.33 408.791 498.634C409.019 497.938 409.163 496.948 409.223 495.664L409.349 492.316H417.791V499.696H419.177ZM411.761 495.862C411.725 496.846 411.647 497.65 411.527 498.274C411.419 498.898 411.209 499.372 410.897 499.696H414.983V494.62H411.815L411.761 495.862ZM430.358 497.194C430.358 497.23 430.34 497.482 430.304 497.95H422.978C423.11 498.55 423.422 499.024 423.914 499.372C424.406 499.72 425.018 499.894 425.75 499.894C426.254 499.894 426.698 499.822 427.082 499.678C427.478 499.522 427.844 499.282 428.18 498.958L429.674 500.578C428.762 501.622 427.43 502.144 425.678 502.144C424.586 502.144 423.62 501.934 422.78 501.514C421.94 501.082 421.292 500.488 420.836 499.732C420.38 498.976 420.152 498.118 420.152 497.158C420.152 496.21 420.374 495.358 420.818 494.602C421.274 493.834 421.892 493.24 422.672 492.82C423.464 492.388 424.346 492.172 425.318 492.172C426.266 492.172 427.124 492.376 427.892 492.784C428.66 493.192 429.26 493.78 429.692 494.548C430.136 495.304 430.358 496.186 430.358 497.194ZM425.336 494.296C424.7 494.296 424.166 494.476 423.734 494.836C423.302 495.196 423.038 495.688 422.942 496.312H427.712C427.616 495.7 427.352 495.214 426.92 494.854C426.488 494.482 425.96 494.296 425.336 494.296ZM441.924 497.194C441.924 497.23 441.906 497.482 441.87 497.95H434.544C434.676 498.55 434.988 499.024 435.48 499.372C435.972 499.72 436.584 499.894 437.316 499.894C437.82 499.894 438.264 499.822 438.648 499.678C439.044 499.522 439.41 499.282 439.746 498.958L441.24 500.578C440.328 501.622 438.996 502.144 437.244 502.144C436.152 502.144 435.186 501.934 434.346 501.514C433.506 501.082 432.858 500.488 432.402 499.732C431.946 498.976 431.718 498.118 431.718 497.158C431.718 496.21 431.94 495.358 432.384 494.602C432.84 493.834 433.458 493.24 434.238 492.82C435.03 492.388 435.912 492.172 436.884 492.172C437.832 492.172 438.69 492.376 439.458 492.784C440.226 493.192 440.826 493.78 441.258 494.548C441.702 495.304 441.924 496.186 441.924 497.194ZM436.902 494.296C436.266 494.296 435.732 494.476 435.3 494.836C434.868 495.196 434.604 495.688 434.508 496.312H439.278C439.182 495.7 438.918 495.214 438.486 494.854C438.054 494.482 437.526 494.296 436.902 494.296ZM453.527 502V496.204L450.629 501.064H449.441L446.615 496.186V502H444.077V492.316H447.011L450.107 497.914L453.401 492.316H456.029L456.065 502H453.527ZM463.362 502.144C462.33 502.144 461.4 501.934 460.572 501.514C459.756 501.082 459.114 500.488 458.646 499.732C458.19 498.976 457.962 498.118 457.962 497.158C457.962 496.198 458.19 495.34 458.646 494.584C459.114 493.828 459.756 493.24 460.572 492.82C461.4 492.388 462.33 492.172 463.362 492.172C464.382 492.172 465.27 492.388 466.026 492.82C466.794 493.24 467.352 493.846 467.7 494.638L465.522 495.808C465.018 494.92 464.292 494.476 463.344 494.476C462.612 494.476 462.006 494.716 461.526 495.196C461.046 495.676 460.806 496.33 460.806 497.158C460.806 497.986 461.046 498.64 461.526 499.12C462.006 499.6 462.612 499.84 463.344 499.84C464.304 499.84 465.03 499.396 465.522 498.508L467.7 499.696C467.352 500.464 466.794 501.064 466.026 501.496C465.27 501.928 464.382 502.144 463.362 502.144ZM477.765 492.316V502H475.263V499.228H473.193L471.357 502H468.369L470.583 498.832C469.911 498.568 469.395 498.19 469.035 497.698C468.687 497.194 468.513 496.588 468.513 495.88C468.513 494.74 468.921 493.864 469.737 493.252C470.565 492.628 471.699 492.316 473.139 492.316H477.765ZM473.193 494.602C472.593 494.602 472.137 494.71 471.825 494.926C471.525 495.142 471.375 495.49 471.375 495.97C471.375 496.45 471.519 496.804 471.807 497.032C472.107 497.248 472.557 497.356 473.157 497.356H475.263V494.602H473.193ZM481.489 498.652C481.993 498.652 482.407 498.814 482.731 499.138C483.055 499.45 483.217 499.864 483.217 500.38C483.217 500.62 483.187 500.86 483.127 501.1C483.067 501.34 482.935 501.7 482.731 502.18L481.705 504.772H479.923L480.715 501.91C480.415 501.79 480.175 501.598 479.995 501.334C479.827 501.058 479.743 500.74 479.743 500.38C479.743 499.864 479.905 499.45 480.229 499.138C480.565 498.814 480.985 498.652 481.489 498.652ZM498.984 492.316V502H496.176V498.4C495.36 498.808 494.46 499.012 493.476 499.012C492.168 499.012 491.178 498.718 490.506 498.13C489.846 497.53 489.516 496.606 489.516 495.358V492.316H492.324V495.178C492.324 495.766 492.474 496.192 492.774 496.456C493.086 496.72 493.53 496.852 494.106 496.852C494.838 496.852 495.528 496.696 496.176 496.384V492.316H498.984ZM509.816 494.62H506.54V502H503.75V494.62H500.474V492.316H509.816V494.62ZM515.445 502.144C514.425 502.144 513.507 501.934 512.691 501.514C511.887 501.082 511.257 500.488 510.801 499.732C510.345 498.976 510.117 498.118 510.117 497.158C510.117 496.198 510.345 495.34 510.801 494.584C511.257 493.828 511.887 493.24 512.691 492.82C513.507 492.388 514.425 492.172 515.445 492.172C516.465 492.172 517.377 492.388 518.181 492.82C518.985 493.24 519.615 493.828 520.071 494.584C520.527 495.34 520.755 496.198 520.755 497.158C520.755 498.118 520.527 498.976 520.071 499.732C519.615 500.488 518.985 501.082 518.181 501.514C517.377 501.934 516.465 502.144 515.445 502.144ZM515.445 499.84C516.165 499.84 516.753 499.6 517.209 499.12C517.677 498.628 517.911 497.974 517.911 497.158C517.911 496.342 517.677 495.694 517.209 495.214C516.753 494.722 516.165 494.476 515.445 494.476C514.725 494.476 514.131 494.722 513.663 495.214C513.195 495.694 512.961 496.342 512.961 497.158C512.961 497.974 513.195 498.628 513.663 499.12C514.131 499.6 514.725 499.84 515.445 499.84ZM536.73 495.43C537.498 495.658 538.086 496.03 538.494 496.546C538.902 497.062 539.106 497.698 539.106 498.454C539.106 499.57 538.68 500.44 537.828 501.064C536.988 501.688 535.782 502 534.21 502H528V489.4H533.868C535.332 489.4 536.472 489.682 537.288 490.246C538.104 490.81 538.512 491.614 538.512 492.658C538.512 493.282 538.356 493.834 538.044 494.314C537.732 494.782 537.294 495.154 536.73 495.43ZM530.898 494.62H533.616C534.252 494.62 534.732 494.494 535.056 494.242C535.38 493.978 535.542 493.594 535.542 493.09C535.542 492.598 535.374 492.22 535.038 491.956C534.714 491.692 534.24 491.56 533.616 491.56H530.898V494.62ZM534.102 499.84C535.47 499.84 536.154 499.3 536.154 498.22C536.154 497.176 535.47 496.654 534.102 496.654H530.898V499.84H534.102ZM546.29 495.412C547.55 495.424 548.504 495.706 549.152 496.258C549.8 496.81 550.124 497.602 550.124 498.634C550.124 499.714 549.758 500.548 549.026 501.136C548.294 501.724 547.256 502.018 545.912 502.018L541.196 502V492.316H543.986V495.412H546.29ZM551.168 492.316H553.958V502H551.168V492.316ZM545.66 500.02C546.2 500.032 546.614 499.918 546.902 499.678C547.19 499.438 547.334 499.078 547.334 498.598C547.334 498.13 547.19 497.788 546.902 497.572C546.626 497.356 546.212 497.242 545.66 497.23L543.986 497.212V500.02H545.66ZM569.16 496.942C570.3 497.326 570.87 498.094 570.87 499.246C570.87 500.122 570.54 500.8 569.88 501.28C569.22 501.76 568.236 502 566.928 502H561.762V492.316H566.712C567.924 492.316 568.872 492.538 569.556 492.982C570.24 493.414 570.582 494.026 570.582 494.818C570.582 495.298 570.456 495.724 570.204 496.096C569.964 496.456 569.616 496.738 569.16 496.942ZM564.336 496.294H566.46C567.444 496.294 567.936 495.946 567.936 495.25C567.936 494.566 567.444 494.224 566.46 494.224H564.336V496.294ZM566.694 500.092C567.726 500.092 568.242 499.738 568.242 499.03C568.242 498.658 568.122 498.388 567.882 498.22C567.642 498.04 567.264 497.95 566.748 497.95H564.336V500.092H566.694ZM582.665 502.144C581.633 502.144 580.703 501.934 579.875 501.514C579.059 501.082 578.417 500.488 577.949 499.732C577.493 498.976 577.265 498.118 577.265 497.158C577.265 496.198 577.493 495.34 577.949 494.584C578.417 493.828 579.059 493.24 579.875 492.82C580.703 492.388 581.633 492.172 582.665 492.172C583.685 492.172 584.573 492.388 585.329 492.82C586.097 493.24 586.655 493.846 587.003 494.638L584.825 495.808C584.321 494.92 583.595 494.476 582.647 494.476C581.915 494.476 581.309 494.716 580.829 495.196C580.349 495.676 580.109 496.33 580.109 497.158C580.109 497.986 580.349 498.64 580.829 499.12C581.309 499.6 581.915 499.84 582.647 499.84C583.607 499.84 584.333 499.396 584.825 498.508L587.003 499.696C586.655 500.464 586.097 501.064 585.329 501.496C584.573 501.928 583.685 502.144 582.665 502.144ZM592.975 498.328H591.517V502H588.709V492.316H591.517V496.078H593.029L595.657 492.316H598.645L595.261 496.96L598.879 502H595.567L592.975 498.328ZM604.495 502.144C603.475 502.144 602.557 501.934 601.741 501.514C600.937 501.082 600.307 500.488 599.851 499.732C599.395 498.976 599.167 498.118 599.167 497.158C599.167 496.198 599.395 495.34 599.851 494.584C600.307 493.828 600.937 493.24 601.741 492.82C602.557 492.388 603.475 492.172 604.495 492.172C605.515 492.172 606.427 492.388 607.231 492.82C608.035 493.24 608.665 493.828 609.121 494.584C609.577 495.34 609.805 496.198 609.805 497.158C609.805 498.118 609.577 498.976 609.121 499.732C608.665 500.488 608.035 501.082 607.231 501.514C606.427 501.934 605.515 502.144 604.495 502.144ZM604.495 499.84C605.215 499.84 605.803 499.6 606.259 499.12C606.727 498.628 606.961 497.974 606.961 497.158C606.961 496.342 606.727 495.694 606.259 495.214C605.803 494.722 605.215 494.476 604.495 494.476C603.775 494.476 603.181 494.722 602.713 495.214C602.245 495.694 602.011 496.342 602.011 497.158C602.011 497.974 602.245 498.628 602.713 499.12C603.181 499.6 603.775 499.84 604.495 499.84ZM617.443 492.172C618.343 492.172 619.159 492.382 619.891 492.802C620.635 493.21 621.217 493.792 621.637 494.548C622.057 495.292 622.267 496.162 622.267 497.158C622.267 498.154 622.057 499.03 621.637 499.786C621.217 500.53 620.635 501.112 619.891 501.532C619.159 501.94 618.343 502.144 617.443 502.144C616.207 502.144 615.235 501.754 614.527 500.974V505.492H611.719V492.316H614.401V493.432C615.097 492.592 616.111 492.172 617.443 492.172ZM616.957 499.84C617.677 499.84 618.265 499.6 618.721 499.12C619.189 498.628 619.423 497.974 619.423 497.158C619.423 496.342 619.189 495.694 618.721 495.214C618.265 494.722 617.677 494.476 616.957 494.476C616.237 494.476 615.643 494.722 615.175 495.214C614.719 495.694 614.491 496.342 614.491 497.158C614.491 497.974 614.719 498.628 615.175 499.12C615.643 499.6 616.237 499.84 616.957 499.84ZM628.771 502.144C627.751 502.144 626.833 501.934 626.017 501.514C625.213 501.082 624.583 500.488 624.127 499.732C623.671 498.976 623.443 498.118 623.443 497.158C623.443 496.198 623.671 495.34 624.127 494.584C624.583 493.828 625.213 493.24 626.017 492.82C626.833 492.388 627.751 492.172 628.771 492.172C629.791 492.172 630.703 492.388 631.507 492.82C632.311 493.24 632.941 493.828 633.397 494.584C633.853 495.34 634.081 496.198 634.081 497.158C634.081 498.118 633.853 498.976 633.397 499.732C632.941 500.488 632.311 501.082 631.507 501.514C630.703 501.934 629.791 502.144 628.771 502.144ZM628.771 499.84C629.491 499.84 630.079 499.6 630.535 499.12C631.003 498.628 631.237 497.974 631.237 497.158C631.237 496.342 631.003 495.694 630.535 495.214C630.079 494.722 629.491 494.476 628.771 494.476C628.051 494.476 627.457 494.722 626.989 495.214C626.521 495.694 626.287 496.342 626.287 497.158C626.287 497.974 626.521 498.628 626.989 499.12C627.457 499.6 628.051 499.84 628.771 499.84ZM645.462 502V496.204L642.564 501.064H641.376L638.55 496.186V502H636.012V492.316H638.946L642.042 497.914L645.336 492.316H647.964L648 502H645.462ZM663.186 496.942C664.326 497.326 664.896 498.094 664.896 499.246C664.896 500.122 664.566 500.8 663.906 501.28C663.246 501.76 662.262 502 660.954 502H655.788V492.316H660.738C661.95 492.316 662.898 492.538 663.582 492.982C664.266 493.414 664.607 494.026 664.607 494.818C664.607 495.298 664.482 495.724 664.23 496.096C663.99 496.456 663.642 496.738 663.186 496.942ZM658.362 496.294H660.486C661.47 496.294 661.962 495.946 661.962 495.25C661.962 494.566 661.47 494.224 660.486 494.224H658.362V496.294ZM660.72 500.092C661.752 500.092 662.268 499.738 662.268 499.03C662.268 498.658 662.148 498.388 661.908 498.22C661.668 498.04 661.29 497.95 660.774 497.95H658.362V500.092H660.72ZM672.691 492.172C673.591 492.172 674.407 492.382 675.139 492.802C675.883 493.21 676.465 493.792 676.885 494.548C677.305 495.292 677.515 496.162 677.515 497.158C677.515 498.154 677.305 499.03 676.885 499.786C676.465 500.53 675.883 501.112 675.139 501.532C674.407 501.94 673.591 502.144 672.691 502.144C671.455 502.144 670.483 501.754 669.775 500.974V505.492H666.967V492.316H669.649V493.432C670.345 492.592 671.359 492.172 672.691 492.172ZM672.205 499.84C672.925 499.84 673.513 499.6 673.969 499.12C674.437 498.628 674.671 497.974 674.671 497.158C674.671 496.342 674.437 495.694 673.969 495.214C673.513 494.722 672.925 494.476 672.205 494.476C671.485 494.476 670.891 494.722 670.423 495.214C669.967 495.694 669.739 496.342 669.739 497.158C669.739 497.974 669.967 498.628 670.423 499.12C670.891 499.6 671.485 499.84 672.205 499.84ZM688.897 497.194C688.897 497.23 688.879 497.482 688.843 497.95H681.517C681.649 498.55 681.961 499.024 682.453 499.372C682.945 499.72 683.557 499.894 684.289 499.894C684.793 499.894 685.237 499.822 685.621 499.678C686.017 499.522 686.383 499.282 686.719 498.958L688.213 500.578C687.301 501.622 685.969 502.144 684.217 502.144C683.125 502.144 682.159 501.934 681.319 501.514C680.479 501.082 679.831 500.488 679.375 499.732C678.919 498.976 678.691 498.118 678.691 497.158C678.691 496.21 678.913 495.358 679.357 494.602C679.813 493.834 680.431 493.24 681.211 492.82C682.003 492.388 682.885 492.172 683.857 492.172C684.805 492.172 685.663 492.376 686.431 492.784C687.199 493.192 687.799 493.78 688.231 494.548C688.675 495.304 688.897 496.186 688.897 497.194ZM683.875 494.296C683.239 494.296 682.705 494.476 682.273 494.836C681.841 495.196 681.577 495.688 681.481 496.312H686.251C686.155 495.7 685.891 495.214 685.459 494.854C685.027 494.482 684.499 494.296 683.875 494.296ZM700.499 502V496.204L697.601 501.064H696.413L693.587 496.186V502H691.049V492.316H693.983L697.079 497.914L700.373 492.316H703.001L703.037 502H700.499ZM715.141 497.194C715.141 497.23 715.123 497.482 715.087 497.95H707.761C707.893 498.55 708.205 499.024 708.697 499.372C709.189 499.72 709.801 499.894 710.533 499.894C711.037 499.894 711.481 499.822 711.865 499.678C712.261 499.522 712.627 499.282 712.963 498.958L714.457 500.578C713.545 501.622 712.213 502.144 710.461 502.144C709.369 502.144 708.403 501.934 707.563 501.514C706.723 501.082 706.075 500.488 705.619 499.732C705.163 498.976 704.935 498.118 704.935 497.158C704.935 496.21 705.157 495.358 705.601 494.602C706.057 493.834 706.675 493.24 707.455 492.82C708.247 492.388 709.129 492.172 710.101 492.172C711.049 492.172 711.907 492.376 712.675 492.784C713.443 493.192 714.043 493.78 714.475 494.548C714.919 495.304 715.141 496.186 715.141 497.194ZM710.119 494.296C709.483 494.296 708.949 494.476 708.517 494.836C708.085 495.196 707.821 495.688 707.725 496.312H712.495C712.399 495.7 712.135 495.214 711.703 494.854C711.271 494.482 710.743 494.296 710.119 494.296ZM717.293 492.316H720.083V496.096H724.295V492.316H727.103V502H724.295V498.382H720.083V502H717.293V492.316ZM739.205 497.194C739.205 497.23 739.187 497.482 739.151 497.95H731.825C731.957 498.55 732.269 499.024 732.761 499.372C733.253 499.72 733.865 499.894 734.597 499.894C735.101 499.894 735.545 499.822 735.929 499.678C736.325 499.522 736.691 499.282 737.027 498.958L738.521 500.578C737.609 501.622 736.277 502.144 734.525 502.144C733.433 502.144 732.467 501.934 731.627 501.514C730.787 501.082 730.139 500.488 729.683 499.732C729.227 498.976 728.999 498.118 728.999 497.158C728.999 496.21 729.221 495.358 729.665 494.602C730.121 493.834 730.739 493.24 731.519 492.82C732.311 492.388 733.193 492.172 734.165 492.172C735.113 492.172 735.971 492.376 736.739 492.784C737.507 493.192 738.107 493.78 738.539 494.548C738.983 495.304 739.205 496.186 739.205 497.194ZM734.183 494.296C733.547 494.296 733.013 494.476 732.581 494.836C732.149 495.196 731.885 495.688 731.789 496.312H736.559C736.463 495.7 736.199 495.214 735.767 494.854C735.335 494.482 734.807 494.296 734.183 494.296ZM750.808 502V496.204L747.91 501.064H746.722L743.896 496.186V502H741.358V492.316H744.292L747.388 497.914L750.682 492.316H753.31L753.346 502H750.808ZM761.133 492.316H763.923V496.096H768.135V492.316H770.943V502H768.135V498.382H763.923V502H761.133V492.316ZM777.393 492.172C778.893 492.172 780.045 492.532 780.849 493.252C781.653 493.96 782.055 495.034 782.055 496.474V502H779.427V500.794C778.899 501.694 777.915 502.144 776.475 502.144C775.731 502.144 775.083 502.018 774.531 501.766C773.991 501.514 773.577 501.166 773.289 500.722C773.001 500.278 772.857 499.774 772.857 499.21C772.857 498.31 773.193 497.602 773.865 497.086C774.549 496.57 775.599 496.312 777.015 496.312H779.247C779.247 495.7 779.061 495.232 778.689 494.908C778.317 494.572 777.759 494.404 777.015 494.404C776.499 494.404 775.989 494.488 775.485 494.656C774.993 494.812 774.573 495.028 774.225 495.304L773.217 493.342C773.745 492.97 774.375 492.682 775.107 492.478C775.851 492.274 776.613 492.172 777.393 492.172ZM777.177 500.254C777.657 500.254 778.083 500.146 778.455 499.93C778.827 499.702 779.091 499.372 779.247 498.94V497.95H777.321C776.169 497.95 775.593 498.328 775.593 499.084C775.593 499.444 775.731 499.732 776.007 499.948C776.295 500.152 776.685 500.254 777.177 500.254ZM784.495 492.316H787.285V498.076L792.001 492.316H794.575V502H791.785V496.24L787.087 502H784.495V492.316ZM789.355 491.272C787.243 491.272 786.181 490.342 786.169 488.482H788.005C788.017 488.902 788.131 489.232 788.347 489.472C788.575 489.7 788.905 489.814 789.337 489.814C789.769 489.814 790.099 489.7 790.327 489.472C790.567 489.232 790.687 488.902 790.687 488.482H792.559C792.547 490.342 791.479 491.272 789.355 491.272ZM808.128 499.696V504.088H805.518V502H798.714V504.088H796.104V499.696H796.5C797.1 499.684 797.514 499.33 797.742 498.634C797.97 497.938 798.114 496.948 798.174 495.664L798.3 492.316H806.742V499.696H808.128ZM800.712 495.862C800.676 496.846 800.598 497.65 800.478 498.274C800.37 498.898 800.16 499.372 799.848 499.696H803.934V494.62H800.766L800.712 495.862ZM819.309 497.194C819.309 497.23 819.291 497.482 819.255 497.95H811.929C812.061 498.55 812.373 499.024 812.865 499.372C813.357 499.72 813.969 499.894 814.701 499.894C815.205 499.894 815.649 499.822 816.033 499.678C816.429 499.522 816.795 499.282 817.131 498.958L818.625 500.578C817.713 501.622 816.381 502.144 814.629 502.144C813.537 502.144 812.571 501.934 811.731 501.514C810.891 501.082 810.243 500.488 809.787 499.732C809.331 498.976 809.103 498.118 809.103 497.158C809.103 496.21 809.325 495.358 809.769 494.602C810.225 493.834 810.843 493.24 811.623 492.82C812.415 492.388 813.297 492.172 814.269 492.172C815.217 492.172 816.075 492.376 816.843 492.784C817.611 493.192 818.211 493.78 818.643 494.548C819.087 495.304 819.309 496.186 819.309 497.194ZM814.287 494.296C813.651 494.296 813.117 494.476 812.685 494.836C812.253 495.196 811.989 495.688 811.893 496.312H816.663C816.567 495.7 816.303 495.214 815.871 494.854C815.439 494.482 814.911 494.296 814.287 494.296ZM829.263 494.62H825.987V502H823.197V494.62H819.921V492.316H829.263V494.62ZM839.77 497.194C839.77 497.23 839.752 497.482 839.716 497.95H832.39C832.522 498.55 832.834 499.024 833.326 499.372C833.818 499.72 834.43 499.894 835.162 499.894C835.666 499.894 836.11 499.822 836.494 499.678C836.89 499.522 837.256 499.282 837.592 498.958L839.086 500.578C838.174 501.622 836.842 502.144 835.09 502.144C833.998 502.144 833.032 501.934 832.192 501.514C831.352 501.082 830.704 500.488 830.248 499.732C829.792 498.976 829.564 498.118 829.564 497.158C829.564 496.21 829.786 495.358 830.23 494.602C830.686 493.834 831.304 493.24 832.084 492.82C832.876 492.388 833.758 492.172 834.73 492.172C835.678 492.172 836.536 492.376 837.304 492.784C838.072 493.192 838.672 493.78 839.104 494.548C839.548 495.304 839.77 496.186 839.77 497.194ZM834.748 494.296C834.112 494.296 833.578 494.476 833.146 494.836C832.714 495.196 832.45 495.688 832.354 496.312H837.124C837.028 495.7 836.764 495.214 836.332 494.854C835.9 494.482 835.372 494.296 834.748 494.296ZM855.156 494.62H851.88V502H849.09V494.62H845.814V492.316H855.156V494.62ZM860.784 502.144C859.764 502.144 858.846 501.934 858.03 501.514C857.226 501.082 856.596 500.488 856.14 499.732C855.684 498.976 855.456 498.118 855.456 497.158C855.456 496.198 855.684 495.34 856.14 494.584C856.596 493.828 857.226 493.24 858.03 492.82C858.846 492.388 859.764 492.172 860.784 492.172C861.804 492.172 862.716 492.388 863.52 492.82C864.324 493.24 864.954 493.828 865.41 494.584C865.866 495.34 866.094 496.198 866.094 497.158C866.094 498.118 865.866 498.976 865.41 499.732C864.954 500.488 864.324 501.082 863.52 501.514C862.716 501.934 861.804 502.144 860.784 502.144ZM860.784 499.84C861.504 499.84 862.092 499.6 862.548 499.12C863.016 498.628 863.25 497.974 863.25 497.158C863.25 496.342 863.016 495.694 862.548 495.214C862.092 494.722 861.504 494.476 860.784 494.476C860.064 494.476 859.47 494.722 859.002 495.214C858.534 495.694 858.3 496.342 858.3 497.158C858.3 497.974 858.534 498.628 859.002 499.12C859.47 499.6 860.064 499.84 860.784 499.84ZM875.784 494.62H870.816V502H868.026V492.316H875.784V494.62ZM881.404 502.144C880.384 502.144 879.466 501.934 878.65 501.514C877.846 501.082 877.216 500.488 876.76 499.732C876.304 498.976 876.076 498.118 876.076 497.158C876.076 496.198 876.304 495.34 876.76 494.584C877.216 493.828 877.846 493.24 878.65 492.82C879.466 492.388 880.384 492.172 881.404 492.172C882.424 492.172 883.336 492.388 884.14 492.82C884.944 493.24 885.574 493.828 886.03 494.584C886.486 495.34 886.714 496.198 886.714 497.158C886.714 498.118 886.486 498.976 886.03 499.732C885.574 500.488 884.944 501.082 884.14 501.514C883.336 501.934 882.424 502.144 881.404 502.144ZM881.404 499.84C882.124 499.84 882.712 499.6 883.168 499.12C883.636 498.628 883.87 497.974 883.87 497.158C883.87 496.342 883.636 495.694 883.168 495.214C882.712 494.722 882.124 494.476 881.404 494.476C880.684 494.476 880.09 494.722 879.622 495.214C879.154 495.694 878.92 496.342 878.92 497.158C878.92 497.974 879.154 498.628 879.622 499.12C880.09 499.6 880.684 499.84 881.404 499.84ZM889.548 498.652C890.052 498.652 890.466 498.814 890.79 499.138C891.114 499.45 891.276 499.864 891.276 500.38C891.276 500.62 891.246 500.86 891.186 501.1C891.126 501.34 890.994 501.7 890.79 502.18L889.764 504.772H887.982L888.774 501.91C888.474 501.79 888.234 501.598 888.054 501.334C887.886 501.058 887.802 500.74 887.802 500.38C887.802 499.864 887.964 499.45 888.288 499.138C888.624 498.814 889.044 498.652 889.548 498.652ZM902.596 498.328H901.138V502H898.33V492.316H901.138V496.078H902.65L905.278 492.316H908.266L904.882 496.96L908.5 502H905.188L902.596 498.328ZM914.116 502.144C913.096 502.144 912.178 501.934 911.362 501.514C910.558 501.082 909.928 500.488 909.472 499.732C909.016 498.976 908.788 498.118 908.788 497.158C908.788 496.198 909.016 495.34 909.472 494.584C909.928 493.828 910.558 493.24 911.362 492.82C912.178 492.388 913.096 492.172 914.116 492.172C915.136 492.172 916.048 492.388 916.852 492.82C917.656 493.24 918.286 493.828 918.742 494.584C919.198 495.34 919.426 496.198 919.426 497.158C919.426 498.118 919.198 498.976 918.742 499.732C918.286 500.488 917.656 501.082 916.852 501.514C916.048 501.934 915.136 502.144 914.116 502.144ZM914.116 499.84C914.836 499.84 915.424 499.6 915.88 499.12C916.348 498.628 916.582 497.974 916.582 497.158C916.582 496.342 916.348 495.694 915.88 495.214C915.424 494.722 914.836 494.476 914.116 494.476C913.396 494.476 912.802 494.722 912.334 495.214C911.866 495.694 911.632 496.342 911.632 497.158C911.632 497.974 911.866 498.628 912.334 499.12C912.802 499.6 913.396 499.84 914.116 499.84ZM929.116 494.62H924.148V502H921.358V492.316H929.116V494.62ZM934.736 502.144C933.716 502.144 932.798 501.934 931.982 501.514C931.178 501.082 930.548 500.488 930.092 499.732C929.636 498.976 929.408 498.118 929.408 497.158C929.408 496.198 929.636 495.34 930.092 494.584C930.548 493.828 931.178 493.24 931.982 492.82C932.798 492.388 933.716 492.172 934.736 492.172C935.756 492.172 936.668 492.388 937.472 492.82C938.276 493.24 938.906 493.828 939.362 494.584C939.818 495.34 940.046 496.198 940.046 497.158C940.046 498.118 939.818 498.976 939.362 499.732C938.906 500.488 938.276 501.082 937.472 501.514C936.668 501.934 935.756 502.144 934.736 502.144ZM934.736 499.84C935.456 499.84 936.044 499.6 936.5 499.12C936.968 498.628 937.202 497.974 937.202 497.158C937.202 496.342 936.968 495.694 936.5 495.214C936.044 494.722 935.456 494.476 934.736 494.476C934.016 494.476 933.422 494.722 932.954 495.214C932.486 495.694 932.252 496.342 932.252 497.158C932.252 497.974 932.486 498.628 932.954 499.12C933.422 499.6 934.016 499.84 934.736 499.84ZM951.683 502.144C950.651 502.144 949.721 501.934 948.893 501.514C948.077 501.082 947.435 500.488 946.967 499.732C946.511 498.976 946.283 498.118 946.283 497.158C946.283 496.198 946.511 495.34 946.967 494.584C947.435 493.828 948.077 493.24 948.893 492.82C949.721 492.388 950.651 492.172 951.683 492.172C952.703 492.172 953.591 492.388 954.347 492.82C955.115 493.24 955.673 493.846 956.021 494.638L953.843 495.808C953.339 494.92 952.613 494.476 951.665 494.476C950.933 494.476 950.327 494.716 949.847 495.196C949.367 495.676 949.127 496.33 949.127 497.158C949.127 497.986 949.367 498.64 949.847 499.12C950.327 499.6 950.933 499.84 951.665 499.84C952.625 499.84 953.351 499.396 953.843 498.508L956.021 499.696C955.673 500.464 955.115 501.064 954.347 501.496C953.591 501.928 952.703 502.144 951.683 502.144ZM966.889 492.172C967.873 492.172 968.755 492.388 969.535 492.82C970.315 493.24 970.927 493.828 971.371 494.584C971.815 495.34 972.037 496.198 972.037 497.158C972.037 498.118 971.815 498.976 971.371 499.732C970.927 500.488 970.315 501.082 969.535 501.514C968.755 501.934 967.873 502.144 966.889 502.144C966.037 502.144 965.257 501.988 964.549 501.676C963.841 501.352 963.253 500.902 962.785 500.326C962.317 499.738 962.005 499.066 961.849 498.31H960.517V502H957.727V492.316H960.517V495.88H961.867C962.143 494.752 962.731 493.852 963.631 493.18C964.531 492.508 965.617 492.172 966.889 492.172ZM966.889 499.84C967.573 499.84 968.137 499.6 968.581 499.12C969.037 498.628 969.265 497.974 969.265 497.158C969.265 496.33 969.037 495.676 968.581 495.196C968.137 494.716 967.573 494.476 966.889 494.476C966.193 494.476 965.617 494.716 965.161 495.196C964.717 495.676 964.495 496.33 964.495 497.158C964.495 497.974 964.717 498.628 965.161 499.12C965.617 499.6 966.193 499.84 966.889 499.84ZM984.7 499.696V504.088H982.09V502H975.286V504.088H972.676V499.696H973.072C973.672 499.684 974.086 499.33 974.314 498.634C974.542 497.938 974.686 496.948 974.746 495.664L974.872 492.316H983.314V499.696H984.7ZM977.284 495.862C977.248 496.846 977.17 497.65 977.05 498.274C976.942 498.898 976.732 499.372 976.42 499.696H980.506V494.62H977.338L977.284 495.862ZM990.229 492.172C991.729 492.172 992.881 492.532 993.685 493.252C994.489 493.96 994.891 495.034 994.891 496.474V502H992.263V500.794C991.735 501.694 990.751 502.144 989.311 502.144C988.567 502.144 987.919 502.018 987.367 501.766C986.827 501.514 986.413 501.166 986.125 500.722C985.837 500.278 985.693 499.774 985.693 499.21C985.693 498.31 986.029 497.602 986.701 497.086C987.385 496.57 988.435 496.312 989.851 496.312H992.083C992.083 495.7 991.897 495.232 991.525 494.908C991.153 494.572 990.595 494.404 989.851 494.404C989.335 494.404 988.825 494.488 988.321 494.656C987.829 494.812 987.409 495.028 987.061 495.304L986.053 493.342C986.581 492.97 987.211 492.682 987.943 492.478C988.687 492.274 989.449 492.172 990.229 492.172ZM990.013 500.254C990.493 500.254 990.919 500.146 991.291 499.93C991.663 499.702 991.927 499.372 992.083 498.94V497.95H990.157C989.005 497.95 988.429 498.328 988.429 499.084C988.429 499.444 988.567 499.732 988.843 499.948C989.131 500.152 989.521 500.254 990.013 500.254ZM1002.43 492.316H1005.22V496.096H1009.43V492.316H1012.24V502H1009.43V498.382H1005.22V502H1002.43V492.316ZM1024.63 492.316L1020.25 502.594C1019.81 503.71 1019.26 504.496 1018.6 504.952C1017.95 505.408 1017.16 505.636 1016.24 505.636C1015.74 505.636 1015.24 505.558 1014.75 505.402C1014.25 505.246 1013.85 505.03 1013.54 504.754L1014.57 502.756C1014.78 502.948 1015.03 503.098 1015.3 503.206C1015.59 503.314 1015.87 503.368 1016.15 503.368C1016.53 503.368 1016.85 503.272 1017.09 503.08C1017.33 502.9 1017.54 502.594 1017.73 502.162L1017.77 502.072L1013.58 492.316H1016.47L1019.19 498.886L1021.93 492.316H1024.63ZM1035.03 498.328H1033.68V502H1030.91V498.328H1029.56L1027.51 502H1024.2L1027.24 496.996L1024.41 492.316H1027.38L1029.52 496.078H1030.91V492.316H1033.68V496.078H1035.05L1037.21 492.316H1040.18L1037.35 496.996L1040.41 502H1037.08L1035.03 498.328ZM1041.87 492.316H1044.66V496.096H1048.88V492.316H1051.68V502H1048.88V498.382H1044.66V502H1041.87V492.316ZM1058.91 502.144C1057.89 502.144 1056.97 501.934 1056.15 501.514C1055.35 501.082 1054.72 500.488 1054.26 499.732C1053.81 498.976 1053.58 498.118 1053.58 497.158C1053.58 496.198 1053.81 495.34 1054.26 494.584C1054.72 493.828 1055.35 493.24 1056.15 492.82C1056.97 492.388 1057.89 492.172 1058.91 492.172C1059.93 492.172 1060.84 492.388 1061.64 492.82C1062.45 493.24 1063.08 493.828 1063.53 494.584C1063.99 495.34 1064.22 496.198 1064.22 497.158C1064.22 498.118 1063.99 498.976 1063.53 499.732C1063.08 500.488 1062.45 501.082 1061.64 501.514C1060.84 501.934 1059.93 502.144 1058.91 502.144ZM1058.91 499.84C1059.63 499.84 1060.22 499.6 1060.67 499.12C1061.14 498.628 1061.37 497.974 1061.37 497.158C1061.37 496.342 1061.14 495.694 1060.67 495.214C1060.22 494.722 1059.63 494.476 1058.91 494.476C1058.19 494.476 1057.59 494.722 1057.13 495.214C1056.66 495.694 1056.42 496.342 1056.42 497.158C1056.42 497.974 1056.66 498.628 1057.13 499.12C1057.59 499.6 1058.19 499.84 1058.91 499.84ZM1082.1 499.696V504.088H1079.49V502H1072.69V504.088H1070.08V499.696H1070.47C1071.07 499.684 1071.49 499.33 1071.71 498.634C1071.94 497.938 1072.09 496.948 1072.15 495.664L1072.27 492.316H1080.71V499.696H1082.1ZM1074.68 495.862C1074.65 496.846 1074.57 497.65 1074.45 498.274C1074.34 498.898 1074.13 499.372 1073.82 499.696H1077.91V494.62H1074.74L1074.68 495.862ZM1088.4 502.144C1087.38 502.144 1086.47 501.934 1085.65 501.514C1084.85 501.082 1084.22 500.488 1083.76 499.732C1083.3 498.976 1083.08 498.118 1083.08 497.158C1083.08 496.198 1083.3 495.34 1083.76 494.584C1084.22 493.828 1084.85 493.24 1085.65 492.82C1086.47 492.388 1087.38 492.172 1088.4 492.172C1089.42 492.172 1090.34 492.388 1091.14 492.82C1091.94 493.24 1092.57 493.828 1093.03 494.584C1093.49 495.34 1093.71 496.198 1093.71 497.158C1093.71 498.118 1093.49 498.976 1093.03 499.732C1092.57 500.488 1091.94 501.082 1091.14 501.514C1090.34 501.934 1089.42 502.144 1088.4 502.144ZM1088.4 499.84C1089.12 499.84 1089.71 499.6 1090.17 499.12C1090.64 498.628 1090.87 497.974 1090.87 497.158C1090.87 496.342 1090.64 495.694 1090.17 495.214C1089.71 494.722 1089.12 494.476 1088.4 494.476C1087.68 494.476 1087.09 494.722 1086.62 495.214C1086.15 495.694 1085.92 496.342 1085.92 497.158C1085.92 497.974 1086.15 498.628 1086.62 499.12C1087.09 499.6 1087.68 499.84 1088.4 499.84ZM1101.24 492.982C1102.17 492.982 1102.98 493.174 1103.67 493.558C1104.37 493.93 1104.9 494.458 1105.27 495.142C1105.66 495.826 1105.85 496.618 1105.85 497.518C1105.85 498.442 1105.62 499.264 1105.17 499.984C1104.72 500.692 1104.1 501.244 1103.29 501.64C1102.49 502.024 1101.58 502.216 1100.56 502.216C1098.87 502.216 1097.53 501.676 1096.56 500.596C1095.6 499.504 1095.12 497.908 1095.12 495.808C1095.12 493.864 1095.54 492.316 1096.38 491.164C1097.23 490 1098.54 489.238 1100.29 488.878L1104.9 487.96L1105.27 490.372L1101.21 491.182C1100.1 491.398 1099.28 491.758 1098.74 492.262C1098.21 492.766 1097.9 493.48 1097.8 494.404C1098.22 493.948 1098.73 493.6 1099.32 493.36C1099.9 493.108 1100.55 492.982 1101.24 492.982ZM1100.58 500.038C1101.3 500.038 1101.87 499.804 1102.3 499.336C1102.75 498.868 1102.97 498.274 1102.97 497.554C1102.97 496.822 1102.75 496.24 1102.3 495.808C1101.87 495.376 1101.3 495.16 1100.58 495.16C1099.84 495.16 1099.26 495.376 1098.81 495.808C1098.37 496.24 1098.15 496.822 1098.15 497.554C1098.15 498.286 1098.37 498.886 1098.83 499.354C1099.29 499.81 1099.87 500.038 1100.58 500.038ZM1111.36 492.172C1112.86 492.172 1114.01 492.532 1114.82 493.252C1115.62 493.96 1116.02 495.034 1116.02 496.474V502H1113.39V500.794C1112.87 501.694 1111.88 502.144 1110.44 502.144C1109.7 502.144 1109.05 502.018 1108.5 501.766C1107.96 501.514 1107.54 501.166 1107.26 500.722C1106.97 500.278 1106.82 499.774 1106.82 499.21C1106.82 498.31 1107.16 497.602 1107.83 497.086C1108.52 496.57 1109.57 496.312 1110.98 496.312H1113.21C1113.21 495.7 1113.03 495.232 1112.66 494.908C1112.28 494.572 1111.73 494.404 1110.98 494.404C1110.47 494.404 1109.96 494.488 1109.45 494.656C1108.96 494.812 1108.54 495.028 1108.19 495.304L1107.18 493.342C1107.71 492.97 1108.34 492.682 1109.07 492.478C1109.82 492.274 1110.58 492.172 1111.36 492.172ZM1111.14 500.254C1111.62 500.254 1112.05 500.146 1112.42 499.93C1112.79 499.702 1113.06 499.372 1113.21 498.94V497.95H1111.29C1110.14 497.95 1109.56 498.328 1109.56 499.084C1109.56 499.444 1109.7 499.732 1109.97 499.948C1110.26 500.152 1110.65 500.254 1111.14 500.254ZM1125.86 496.942C1127 497.326 1127.57 498.094 1127.57 499.246C1127.57 500.122 1127.24 500.8 1126.58 501.28C1125.92 501.76 1124.94 502 1123.63 502H1118.46V492.316H1123.41C1124.62 492.316 1125.57 492.538 1126.26 492.982C1126.94 493.414 1127.28 494.026 1127.28 494.818C1127.28 495.298 1127.16 495.724 1126.9 496.096C1126.66 496.456 1126.32 496.738 1125.86 496.942ZM1121.04 496.294H1123.16C1124.14 496.294 1124.64 495.946 1124.64 495.25C1124.64 494.566 1124.14 494.224 1123.16 494.224H1121.04V496.294ZM1123.39 500.092C1124.43 500.092 1124.94 499.738 1124.94 499.03C1124.94 498.658 1124.82 498.388 1124.58 498.22C1124.34 498.04 1123.96 497.95 1123.45 497.95H1121.04V500.092H1123.39ZM1129.66 492.316H1132.45V498.076L1137.16 492.316H1139.74V502H1136.95V496.24L1132.25 502H1129.66V492.316ZM1150.57 494.62H1147.3V502H1144.51V494.62H1141.23V492.316H1150.57V494.62ZM1157.31 495.412C1158.57 495.424 1159.53 495.712 1160.21 496.276C1160.88 496.828 1161.21 497.614 1161.21 498.634C1161.21 499.702 1160.84 500.536 1160.08 501.136C1159.34 501.724 1158.29 502.018 1156.93 502.018L1152.07 502V492.316H1154.86V495.412H1157.31ZM1156.68 500.02C1157.22 500.032 1157.63 499.918 1157.92 499.678C1158.21 499.438 1158.35 499.078 1158.35 498.598C1158.35 498.13 1158.21 497.788 1157.92 497.572C1157.64 497.356 1157.23 497.242 1156.68 497.23L1154.86 497.212V500.02H1156.68Z" fill="white"/>
</svg>
